<?xml version="1.0" encoding="utf-8" standalone="no"?>
<!DOCTYPE svg PUBLIC "-//W3C//DTD SVG 1.1//EN"
  "http://www.w3.org/Graphics/SVG/1.1/DTD/svg11.dtd">
<svg xmlns:xlink="http://www.w3.org/1999/xlink" width="507.544375pt" height="434.32625pt" viewBox="0 0 507.544375 434.32625" xmlns="http://www.w3.org/2000/svg" version="1.1">
 <metadata>
  <rdf:RDF xmlns:dc="http://purl.org/dc/elements/1.1/" xmlns:cc="http://creativecommons.org/ns#" xmlns:rdf="http://www.w3.org/1999/02/22-rdf-syntax-ns#">
   <cc:Work>
    <dc:type rdf:resource="http://purl.org/dc/dcmitype/StillImage"/>
    <dc:date>2023-05-01T14:24:05.900943</dc:date>
    <dc:format>image/svg+xml</dc:format>
    <dc:creator>
     <cc:Agent>
      <dc:title>Matplotlib v3.5.1, https://matplotlib.org/</dc:title>
     </cc:Agent>
    </dc:creator>
   </cc:Work>
  </rdf:RDF>
 </metadata>
 <defs>
  <style type="text/css">*{stroke-linejoin: round; stroke-linecap: butt}</style>
 </defs>
 <g id="figure_1">
  <g id="patch_1">
   <path d="M 0 434.32625 
L 507.544375 434.32625 
L 507.544375 -0 
L 0 -0 
L 0 434.32625 
z
" style="fill: none"/>
  </g>
  <g id="axes_1">
   <g id="patch_2">
    <path d="M 116.1 360.6 
L 493.144375 360.6 
L 493.144375 14.4 
L 116.1 14.4 
z
" style="fill: #ffffff"/>
   </g>
   <g id="matplotlib.axis_1">
    <g id="xtick_1">
     <g id="line2d_1">
      <defs>
       <path id="mcc56a9abf8" d="M 0 0 
L 0 -6 
" style="stroke: #000000; stroke-width: 2"/>
      </defs>
      <g>
       <use xlink:href="#mcc56a9abf8" x="214.815393" y="360.6" style="stroke: #000000; stroke-width: 2"/>
      </g>
     </g>
     <g id="text_1">
      <!-- $\mathdefault{10^{1}}$ -->
      <g transform="translate(193.695393 383.83625)scale(0.24 -0.24)">
       <defs>
        <path id="DejaVuSans-31" d="M 794 531 
L 1825 531 
L 1825 4091 
L 703 3866 
L 703 4441 
L 1819 4666 
L 2450 4666 
L 2450 531 
L 3481 531 
L 3481 0 
L 794 0 
L 794 531 
z
" transform="scale(0.015625)"/>
        <path id="DejaVuSans-30" d="M 2034 4250 
Q 1547 4250 1301 3770 
Q 1056 3291 1056 2328 
Q 1056 1369 1301 889 
Q 1547 409 2034 409 
Q 2525 409 2770 889 
Q 3016 1369 3016 2328 
Q 3016 3291 2770 3770 
Q 2525 4250 2034 4250 
z
M 2034 4750 
Q 2819 4750 3233 4129 
Q 3647 3509 3647 2328 
Q 3647 1150 3233 529 
Q 2819 -91 2034 -91 
Q 1250 -91 836 529 
Q 422 1150 422 2328 
Q 422 3509 836 4129 
Q 1250 4750 2034 4750 
z
" transform="scale(0.015625)"/>
       </defs>
       <use xlink:href="#DejaVuSans-31" transform="translate(0 0.684375)"/>
       <use xlink:href="#DejaVuSans-30" transform="translate(63.623047 0.684375)"/>
       <use xlink:href="#DejaVuSans-31" transform="translate(128.203125 38.965625)scale(0.7)"/>
      </g>
     </g>
    </g>
    <g id="xtick_2">
     <g id="line2d_2">
      <g>
       <use xlink:href="#mcc56a9abf8" x="140.350681" y="360.6" style="stroke: #000000; stroke-width: 2"/>
      </g>
     </g>
    </g>
    <g id="xtick_3">
     <g id="line2d_3">
      <g>
       <use xlink:href="#mcc56a9abf8" x="162.821727" y="360.6" style="stroke: #000000; stroke-width: 2"/>
      </g>
     </g>
    </g>
    <g id="xtick_4">
     <g id="line2d_4">
      <g>
       <use xlink:href="#mcc56a9abf8" x="182.287032" y="360.6" style="stroke: #000000; stroke-width: 2"/>
      </g>
     </g>
    </g>
    <g id="xtick_5">
     <g id="line2d_5">
      <g>
       <use xlink:href="#mcc56a9abf8" x="199.456648" y="360.6" style="stroke: #000000; stroke-width: 2"/>
      </g>
     </g>
    </g>
    <g id="xtick_6">
     <g id="line2d_6">
      <g>
       <use xlink:href="#mcc56a9abf8" x="315.85771" y="360.6" style="stroke: #000000; stroke-width: 2"/>
      </g>
     </g>
    </g>
    <g id="xtick_7">
     <g id="line2d_7">
      <g>
       <use xlink:href="#mcc56a9abf8" x="374.963677" y="360.6" style="stroke: #000000; stroke-width: 2"/>
      </g>
     </g>
    </g>
    <g id="xtick_8">
     <g id="line2d_8">
      <g>
       <use xlink:href="#mcc56a9abf8" x="416.900028" y="360.6" style="stroke: #000000; stroke-width: 2"/>
      </g>
     </g>
    </g>
    <g id="xtick_9">
     <g id="line2d_9">
      <g>
       <use xlink:href="#mcc56a9abf8" x="449.428388" y="360.6" style="stroke: #000000; stroke-width: 2"/>
      </g>
     </g>
    </g>
    <g id="xtick_10">
     <g id="line2d_10">
      <g>
       <use xlink:href="#mcc56a9abf8" x="476.005994" y="360.6" style="stroke: #000000; stroke-width: 2"/>
      </g>
     </g>
    </g>
    <g id="text_2">
     <!-- $L/h$ -->
     <g transform="translate(283.202187 414.103125)scale(0.28 -0.28)">
      <defs>
       <path id="DejaVuSans-Oblique-4c" d="M 1075 4666 
L 1709 4666 
L 909 525 
L 3181 525 
L 3078 0 
L 172 0 
L 1075 4666 
z
" transform="scale(0.015625)"/>
       <path id="DejaVuSans-2f" d="M 1625 4666 
L 2156 4666 
L 531 -594 
L 0 -594 
L 1625 4666 
z
" transform="scale(0.015625)"/>
       <path id="DejaVuSans-Oblique-68" d="M 3566 2113 
L 3156 0 
L 2578 0 
L 2988 2091 
Q 3016 2238 3031 2350 
Q 3047 2463 3047 2528 
Q 3047 2791 2881 2937 
Q 2716 3084 2419 3084 
Q 1956 3084 1617 2771 
Q 1278 2459 1178 1941 
L 800 0 
L 225 0 
L 1172 4863 
L 1747 4863 
L 1375 2950 
Q 1594 3244 1934 3414 
Q 2275 3584 2650 3584 
Q 3113 3584 3367 3334 
Q 3622 3084 3622 2631 
Q 3622 2519 3608 2391 
Q 3594 2263 3566 2113 
z
" transform="scale(0.015625)"/>
      </defs>
      <use xlink:href="#DejaVuSans-Oblique-4c" transform="translate(0 0.015625)"/>
      <use xlink:href="#DejaVuSans-2f" transform="translate(55.712891 0.015625)"/>
      <use xlink:href="#DejaVuSans-Oblique-68" transform="translate(89.404297 0.015625)"/>
     </g>
    </g>
   </g>
   <g id="matplotlib.axis_2">
    <g id="ytick_1">
     <g id="line2d_11">
      <defs>
       <path id="m107ba7b08a" d="M 0 0 
L 6 0 
" style="stroke: #000000; stroke-width: 2"/>
      </defs>
      <g>
       <use xlink:href="#m107ba7b08a" x="116.1" y="148.145938" style="stroke: #000000; stroke-width: 2"/>
      </g>
     </g>
     <g id="text_3">
      <!-- $\mathdefault{10^{-1}}$ -->
      <g transform="translate(56.2 157.264063)scale(0.24 -0.24)">
       <defs>
        <path id="DejaVuSans-2212" d="M 678 2272 
L 4684 2272 
L 4684 1741 
L 678 1741 
L 678 2272 
z
" transform="scale(0.015625)"/>
       </defs>
       <use xlink:href="#DejaVuSans-31" transform="translate(0 0.684375)"/>
       <use xlink:href="#DejaVuSans-30" transform="translate(63.623047 0.684375)"/>
       <use xlink:href="#DejaVuSans-2212" transform="translate(128.203125 38.965625)scale(0.7)"/>
       <use xlink:href="#DejaVuSans-31" transform="translate(186.855469 38.965625)scale(0.7)"/>
      </g>
     </g>
    </g>
    <g id="ytick_2">
     <g id="line2d_12">
      <g>
       <use xlink:href="#m107ba7b08a" x="116.1" y="298.722211" style="stroke: #000000; stroke-width: 2"/>
      </g>
     </g>
    </g>
    <g id="ytick_3">
     <g id="line2d_13">
      <g>
       <use xlink:href="#m107ba7b08a" x="116.1" y="260.787586" style="stroke: #000000; stroke-width: 2"/>
      </g>
     </g>
    </g>
    <g id="ytick_4">
     <g id="line2d_14">
      <g>
       <use xlink:href="#m107ba7b08a" x="116.1" y="233.87254" style="stroke: #000000; stroke-width: 2"/>
      </g>
     </g>
    </g>
    <g id="ytick_5">
     <g id="line2d_15">
      <g>
       <use xlink:href="#m107ba7b08a" x="116.1" y="212.995609" style="stroke: #000000; stroke-width: 2"/>
      </g>
     </g>
    </g>
    <g id="ytick_6">
     <g id="line2d_16">
      <g>
       <use xlink:href="#m107ba7b08a" x="116.1" y="195.937915" style="stroke: #000000; stroke-width: 2"/>
      </g>
     </g>
    </g>
    <g id="ytick_7">
     <g id="line2d_17">
      <g>
       <use xlink:href="#m107ba7b08a" x="116.1" y="181.515839" style="stroke: #000000; stroke-width: 2"/>
      </g>
     </g>
    </g>
    <g id="ytick_8">
     <g id="line2d_18">
      <g>
       <use xlink:href="#m107ba7b08a" x="116.1" y="169.022869" style="stroke: #000000; stroke-width: 2"/>
      </g>
     </g>
    </g>
    <g id="ytick_9">
     <g id="line2d_19">
      <g>
       <use xlink:href="#m107ba7b08a" x="116.1" y="158.003289" style="stroke: #000000; stroke-width: 2"/>
      </g>
     </g>
    </g>
    <g id="ytick_10">
     <g id="line2d_20">
      <g>
       <use xlink:href="#m107ba7b08a" x="116.1" y="83.296267" style="stroke: #000000; stroke-width: 2"/>
      </g>
     </g>
    </g>
    <g id="ytick_11">
     <g id="line2d_21">
      <g>
       <use xlink:href="#m107ba7b08a" x="116.1" y="45.361642" style="stroke: #000000; stroke-width: 2"/>
      </g>
     </g>
    </g>
    <g id="ytick_12">
     <g id="line2d_22">
      <g>
       <use xlink:href="#m107ba7b08a" x="116.1" y="18.446597" style="stroke: #000000; stroke-width: 2"/>
      </g>
     </g>
    </g>
    <g id="text_4">
     <!-- $\frac{\alpha-\alpha_0}{\alpha_0}$ -->
     <g transform="translate(41.28 218.86)rotate(-90)scale(0.28 -0.28)">
      <defs>
       <path id="DejaVuSans-Oblique-3b1" d="M 2619 1628 
L 2622 2350 
Q 2625 3088 2069 3091 
Q 1653 3094 1394 2747 
Q 1069 2319 959 1747 
Q 825 1059 994 731 
Q 1169 397 1547 397 
Q 1966 397 2319 1063 
L 2619 1628 
z
M 2166 3578 
Q 3141 3594 3128 2584 
Q 3128 2584 3616 3500 
L 4128 3500 
L 3119 1603 
L 3109 919 
Q 3109 766 3194 638 
Q 3291 488 3391 488 
L 3669 488 
L 3575 0 
L 3228 0 
Q 2934 0 2722 263 
Q 2622 394 2619 669 
Q 2416 334 2066 50 
Q 1900 -81 1453 -78 
Q 722 -72 456 397 
Q 184 884 353 1747 
Q 534 2675 1009 3097 
Q 1544 3569 2166 3578 
z
" transform="scale(0.015625)"/>
      </defs>
      <use xlink:href="#DejaVuSans-Oblique-3b1" transform="translate(0 56.690625)scale(0.7)"/>
      <use xlink:href="#DejaVuSans-2212" transform="translate(59.780273 56.690625)scale(0.7)"/>
      <use xlink:href="#DejaVuSans-Oblique-3b1" transform="translate(132.070312 56.690625)scale(0.7)"/>
      <use xlink:href="#DejaVuSans-30" transform="translate(178.212891 45.20625)scale(0.49)"/>
      <use xlink:href="#DejaVuSans-Oblique-3b1" transform="translate(66 -26.049844)scale(0.7)"/>
      <use xlink:href="#DejaVuSans-30" transform="translate(112.142578 -37.534219)scale(0.49)"/>
      <path d="M 0 19.509531 
L 0 25.759531 
L 211.302246 25.759531 
L 211.302246 19.509531 
L 0 19.509531 
z
"/>
     </g>
    </g>
   </g>
   <g id="line2d_23">
    <path d="M 468.893694 97.871237 
L 367.851376 86.089382 
L 266.809059 66.404613 
L 234.280698 58.911974 
L 133.238381 30.136364 
" clip-path="url(#paafdc291b9)" style="fill: none; stroke-dasharray: 11.1,4.8; stroke-dashoffset: 0; stroke: #5ec962; stroke-width: 3"/>
    <defs>
     <path id="me7865d88be" d="M 0 6 
C 1.591219 6 3.117479 5.367802 4.242641 4.242641 
C 5.367802 3.117479 6 1.591219 6 0 
C 6 -1.591219 5.367802 -3.117479 4.242641 -4.242641 
C 3.117479 -5.367802 1.591219 -6 0 -6 
C -1.591219 -6 -3.117479 -5.367802 -4.242641 -4.242641 
C -5.367802 -3.117479 -6 -1.591219 -6 0 
C -6 1.591219 -5.367802 3.117479 -4.242641 4.242641 
C -3.117479 5.367802 -1.591219 6 0 6 
z
" style="stroke: #5ec962; stroke-width: 1.5"/>
    </defs>
    <g clip-path="url(#paafdc291b9)">
     <use xlink:href="#me7865d88be" x="468.893694" y="97.871237" style="fill-opacity: 0; stroke: #5ec962; stroke-width: 1.5"/>
     <use xlink:href="#me7865d88be" x="367.851376" y="86.089382" style="fill-opacity: 0; stroke: #5ec962; stroke-width: 1.5"/>
     <use xlink:href="#me7865d88be" x="266.809059" y="66.404613" style="fill-opacity: 0; stroke: #5ec962; stroke-width: 1.5"/>
     <use xlink:href="#me7865d88be" x="234.280698" y="58.911974" style="fill-opacity: 0; stroke: #5ec962; stroke-width: 1.5"/>
     <use xlink:href="#me7865d88be" x="133.238381" y="30.136364" style="fill-opacity: 0; stroke: #5ec962; stroke-width: 1.5"/>
    </g>
   </g>
   <g id="line2d_24">
    <path d="M 468.893694 97.871237 
L 367.851376 86.089382 
L 266.809059 66.404613 
L 234.280698 58.911974 
L 133.238381 30.136364 
" clip-path="url(#paafdc291b9)" style="fill: none; stroke-dasharray: 11.1,4.8; stroke-dashoffset: 0; stroke: #21918c; stroke-width: 3"/>
    <defs>
     <path id="m13c381e0f7" d="M -3 6 
L 0 3 
L 3 6 
L 6 3 
L 3 0 
L 6 -3 
L 3 -6 
L 0 -3 
L -3 -6 
L -6 -3 
L -3 0 
L -6 3 
z
" style="stroke: #21918c; stroke-width: 1.5; stroke-linejoin: miter"/>
    </defs>
    <g clip-path="url(#paafdc291b9)">
     <use xlink:href="#m13c381e0f7" x="468.893694" y="97.871237" style="fill-opacity: 0; stroke: #21918c; stroke-width: 1.5; stroke-linejoin: miter"/>
     <use xlink:href="#m13c381e0f7" x="367.851376" y="86.089382" style="fill-opacity: 0; stroke: #21918c; stroke-width: 1.5; stroke-linejoin: miter"/>
     <use xlink:href="#m13c381e0f7" x="266.809059" y="66.404613" style="fill-opacity: 0; stroke: #21918c; stroke-width: 1.5; stroke-linejoin: miter"/>
     <use xlink:href="#m13c381e0f7" x="234.280698" y="58.911974" style="fill-opacity: 0; stroke: #21918c; stroke-width: 1.5; stroke-linejoin: miter"/>
     <use xlink:href="#m13c381e0f7" x="133.238381" y="30.136364" style="fill-opacity: 0; stroke: #21918c; stroke-width: 1.5; stroke-linejoin: miter"/>
    </g>
   </g>
   <g id="line2d_25">
    <path d="M 468.893694 344.863636 
L 367.851376 241.616645 
L 266.809059 163.891065 
L 234.280698 143.816137 
L 133.238381 84.138828 
" clip-path="url(#paafdc291b9)" style="fill: none; stroke-dasharray: 11.1,4.8; stroke-dashoffset: 0; stroke: #3b528b; stroke-width: 3"/>
    <defs>
     <path id="ma37d6b602c" d="M -6 6 
L 6 6 
L 6 -6 
L -6 -6 
z
" style="stroke: #3b528b; stroke-width: 1.5; stroke-linejoin: miter"/>
    </defs>
    <g clip-path="url(#paafdc291b9)">
     <use xlink:href="#ma37d6b602c" x="468.893694" y="344.863636" style="fill-opacity: 0; stroke: #3b528b; stroke-width: 1.5; stroke-linejoin: miter"/>
     <use xlink:href="#ma37d6b602c" x="367.851376" y="241.616645" style="fill-opacity: 0; stroke: #3b528b; stroke-width: 1.5; stroke-linejoin: miter"/>
     <use xlink:href="#ma37d6b602c" x="266.809059" y="163.891065" style="fill-opacity: 0; stroke: #3b528b; stroke-width: 1.5; stroke-linejoin: miter"/>
     <use xlink:href="#ma37d6b602c" x="234.280698" y="143.816137" style="fill-opacity: 0; stroke: #3b528b; stroke-width: 1.5; stroke-linejoin: miter"/>
     <use xlink:href="#ma37d6b602c" x="133.238381" y="84.138828" style="fill-opacity: 0; stroke: #3b528b; stroke-width: 1.5; stroke-linejoin: miter"/>
    </g>
   </g>
   <g id="line2d_26">
    <path d="M 140.350681 83.296267 
L 476.005994 298.722211 
" clip-path="url(#paafdc291b9)" style="fill: none; stroke: #ff0000; stroke-width: 3; stroke-linecap: square"/>
   </g>
   <g id="patch_3">
    <path d="M 116.1 360.6 
L 116.1 14.4 
" style="fill: none; stroke: #000000; stroke-width: 2; stroke-linejoin: miter; stroke-linecap: square"/>
   </g>
   <g id="patch_4">
    <path d="M 493.144375 360.6 
L 493.144375 14.4 
" style="fill: none; stroke: #000000; stroke-width: 2; stroke-linejoin: miter; stroke-linecap: square"/>
   </g>
   <g id="patch_5">
    <path d="M 116.1 360.6 
L 493.144375 360.6 
" style="fill: none; stroke: #000000; stroke-width: 2; stroke-linejoin: miter; stroke-linecap: square"/>
   </g>
   <g id="patch_6">
    <path d="M 116.1 14.4 
L 493.144375 14.4 
" style="fill: none; stroke: #000000; stroke-width: 2; stroke-linejoin: miter; stroke-linecap: square"/>
   </g>
   <g id="legend_1">
    <g id="patch_7">
     <path d="M 130.1 350.6 
L 299.00625 350.6 
Q 303.00625 350.6 303.00625 346.6 
L 303.00625 231.175 
Q 303.00625 227.175 299.00625 227.175 
L 130.1 227.175 
Q 126.1 227.175 126.1 231.175 
L 126.1 346.6 
Q 126.1 350.6 130.1 350.6 
z
" style="fill: #ffffff; opacity: 0.8; stroke: #cccccc; stroke-linejoin: miter"/>
    </g>
    <g id="line2d_27">
     <path d="M 134.1 243.371875 
L 154.1 243.371875 
L 174.1 243.371875 
" style="fill: none; stroke: #5ec962; stroke-width: 3; stroke-linecap: square"/>
     <g>
      <use xlink:href="#me7865d88be" x="154.1" y="243.371875" style="fill-opacity: 0; stroke: #5ec962; stroke-width: 1.5"/>
     </g>
    </g>
    <g id="text_5">
     <!-- Quintic -->
     <g transform="translate(190.1 250.371875)scale(0.2 -0.2)">
      <defs>
       <path id="DejaVuSans-51" d="M 2522 4238 
Q 1834 4238 1429 3725 
Q 1025 3213 1025 2328 
Q 1025 1447 1429 934 
Q 1834 422 2522 422 
Q 3209 422 3611 934 
Q 4013 1447 4013 2328 
Q 4013 3213 3611 3725 
Q 3209 4238 2522 4238 
z
M 3406 84 
L 4238 -825 
L 3475 -825 
L 2784 -78 
Q 2681 -84 2626 -87 
Q 2572 -91 2522 -91 
Q 1538 -91 948 567 
Q 359 1225 359 2328 
Q 359 3434 948 4092 
Q 1538 4750 2522 4750 
Q 3503 4750 4090 4092 
Q 4678 3434 4678 2328 
Q 4678 1516 4351 937 
Q 4025 359 3406 84 
z
" transform="scale(0.015625)"/>
       <path id="DejaVuSans-75" d="M 544 1381 
L 544 3500 
L 1119 3500 
L 1119 1403 
Q 1119 906 1312 657 
Q 1506 409 1894 409 
Q 2359 409 2629 706 
Q 2900 1003 2900 1516 
L 2900 3500 
L 3475 3500 
L 3475 0 
L 2900 0 
L 2900 538 
Q 2691 219 2414 64 
Q 2138 -91 1772 -91 
Q 1169 -91 856 284 
Q 544 659 544 1381 
z
M 1991 3584 
L 1991 3584 
z
" transform="scale(0.015625)"/>
       <path id="DejaVuSans-69" d="M 603 3500 
L 1178 3500 
L 1178 0 
L 603 0 
L 603 3500 
z
M 603 4863 
L 1178 4863 
L 1178 4134 
L 603 4134 
L 603 4863 
z
" transform="scale(0.015625)"/>
       <path id="DejaVuSans-6e" d="M 3513 2113 
L 3513 0 
L 2938 0 
L 2938 2094 
Q 2938 2591 2744 2837 
Q 2550 3084 2163 3084 
Q 1697 3084 1428 2787 
Q 1159 2491 1159 1978 
L 1159 0 
L 581 0 
L 581 3500 
L 1159 3500 
L 1159 2956 
Q 1366 3272 1645 3428 
Q 1925 3584 2291 3584 
Q 2894 3584 3203 3211 
Q 3513 2838 3513 2113 
z
" transform="scale(0.015625)"/>
       <path id="DejaVuSans-74" d="M 1172 4494 
L 1172 3500 
L 2356 3500 
L 2356 3053 
L 1172 3053 
L 1172 1153 
Q 1172 725 1289 603 
Q 1406 481 1766 481 
L 2356 481 
L 2356 0 
L 1766 0 
Q 1100 0 847 248 
Q 594 497 594 1153 
L 594 3053 
L 172 3053 
L 172 3500 
L 594 3500 
L 594 4494 
L 1172 4494 
z
" transform="scale(0.015625)"/>
       <path id="DejaVuSans-63" d="M 3122 3366 
L 3122 2828 
Q 2878 2963 2633 3030 
Q 2388 3097 2138 3097 
Q 1578 3097 1268 2742 
Q 959 2388 959 1747 
Q 959 1106 1268 751 
Q 1578 397 2138 397 
Q 2388 397 2633 464 
Q 2878 531 3122 666 
L 3122 134 
Q 2881 22 2623 -34 
Q 2366 -91 2075 -91 
Q 1284 -91 818 406 
Q 353 903 353 1747 
Q 353 2603 823 3093 
Q 1294 3584 2113 3584 
Q 2378 3584 2631 3529 
Q 2884 3475 3122 3366 
z
" transform="scale(0.015625)"/>
      </defs>
      <use xlink:href="#DejaVuSans-51"/>
      <use xlink:href="#DejaVuSans-75" x="78.710938"/>
      <use xlink:href="#DejaVuSans-69" x="142.089844"/>
      <use xlink:href="#DejaVuSans-6e" x="169.873047"/>
      <use xlink:href="#DejaVuSans-74" x="233.251953"/>
      <use xlink:href="#DejaVuSans-69" x="272.460938"/>
      <use xlink:href="#DejaVuSans-63" x="300.244141"/>
     </g>
    </g>
    <g id="line2d_28">
     <path d="M 134.1 272.728125 
L 154.1 272.728125 
L 174.1 272.728125 
" style="fill: none; stroke: #21918c; stroke-width: 3; stroke-linecap: square"/>
     <g>
      <use xlink:href="#m13c381e0f7" x="154.1" y="272.728125" style="fill-opacity: 0; stroke: #21918c; stroke-width: 1.5; stroke-linejoin: miter"/>
     </g>
    </g>
    <g id="text_6">
     <!-- RK0 -->
     <g transform="translate(190.1 279.728125)scale(0.2 -0.2)">
      <defs>
       <path id="DejaVuSans-52" d="M 2841 2188 
Q 3044 2119 3236 1894 
Q 3428 1669 3622 1275 
L 4263 0 
L 3584 0 
L 2988 1197 
Q 2756 1666 2539 1819 
Q 2322 1972 1947 1972 
L 1259 1972 
L 1259 0 
L 628 0 
L 628 4666 
L 2053 4666 
Q 2853 4666 3247 4331 
Q 3641 3997 3641 3322 
Q 3641 2881 3436 2590 
Q 3231 2300 2841 2188 
z
M 1259 4147 
L 1259 2491 
L 2053 2491 
Q 2509 2491 2742 2702 
Q 2975 2913 2975 3322 
Q 2975 3731 2742 3939 
Q 2509 4147 2053 4147 
L 1259 4147 
z
" transform="scale(0.015625)"/>
       <path id="DejaVuSans-4b" d="M 628 4666 
L 1259 4666 
L 1259 2694 
L 3353 4666 
L 4166 4666 
L 1850 2491 
L 4331 0 
L 3500 0 
L 1259 2247 
L 1259 0 
L 628 0 
L 628 4666 
z
" transform="scale(0.015625)"/>
      </defs>
      <use xlink:href="#DejaVuSans-52"/>
      <use xlink:href="#DejaVuSans-4b" x="69.482422"/>
      <use xlink:href="#DejaVuSans-30" x="135.058594"/>
     </g>
    </g>
    <g id="line2d_29">
     <path d="M 134.1 302.084375 
L 154.1 302.084375 
L 174.1 302.084375 
" style="fill: none; stroke: #3b528b; stroke-width: 3; stroke-linecap: square"/>
     <g>
      <use xlink:href="#ma37d6b602c" x="154.1" y="302.084375" style="fill-opacity: 0; stroke: #3b528b; stroke-width: 1.5; stroke-linejoin: miter"/>
     </g>
    </g>
    <g id="text_7">
     <!-- RK1 -->
     <g transform="translate(190.1 309.084375)scale(0.2 -0.2)">
      <use xlink:href="#DejaVuSans-52"/>
      <use xlink:href="#DejaVuSans-4b" x="69.482422"/>
      <use xlink:href="#DejaVuSans-31" x="135.058594"/>
     </g>
    </g>
    <g id="line2d_30">
     <path d="M 134.1 331.440625 
L 154.1 331.440625 
L 174.1 331.440625 
" style="fill: none; stroke: #ff0000; stroke-width: 3; stroke-linecap: square"/>
    </g>
    <g id="text_8">
     <!-- Slope = -1 -->
     <g transform="translate(190.1 338.440625)scale(0.2 -0.2)">
      <defs>
       <path id="DejaVuSans-53" d="M 3425 4513 
L 3425 3897 
Q 3066 4069 2747 4153 
Q 2428 4238 2131 4238 
Q 1616 4238 1336 4038 
Q 1056 3838 1056 3469 
Q 1056 3159 1242 3001 
Q 1428 2844 1947 2747 
L 2328 2669 
Q 3034 2534 3370 2195 
Q 3706 1856 3706 1288 
Q 3706 609 3251 259 
Q 2797 -91 1919 -91 
Q 1588 -91 1214 -16 
Q 841 59 441 206 
L 441 856 
Q 825 641 1194 531 
Q 1563 422 1919 422 
Q 2459 422 2753 634 
Q 3047 847 3047 1241 
Q 3047 1584 2836 1778 
Q 2625 1972 2144 2069 
L 1759 2144 
Q 1053 2284 737 2584 
Q 422 2884 422 3419 
Q 422 4038 858 4394 
Q 1294 4750 2059 4750 
Q 2388 4750 2728 4690 
Q 3069 4631 3425 4513 
z
" transform="scale(0.015625)"/>
       <path id="DejaVuSans-6c" d="M 603 4863 
L 1178 4863 
L 1178 0 
L 603 0 
L 603 4863 
z
" transform="scale(0.015625)"/>
       <path id="DejaVuSans-6f" d="M 1959 3097 
Q 1497 3097 1228 2736 
Q 959 2375 959 1747 
Q 959 1119 1226 758 
Q 1494 397 1959 397 
Q 2419 397 2687 759 
Q 2956 1122 2956 1747 
Q 2956 2369 2687 2733 
Q 2419 3097 1959 3097 
z
M 1959 3584 
Q 2709 3584 3137 3096 
Q 3566 2609 3566 1747 
Q 3566 888 3137 398 
Q 2709 -91 1959 -91 
Q 1206 -91 779 398 
Q 353 888 353 1747 
Q 353 2609 779 3096 
Q 1206 3584 1959 3584 
z
" transform="scale(0.015625)"/>
       <path id="DejaVuSans-70" d="M 1159 525 
L 1159 -1331 
L 581 -1331 
L 581 3500 
L 1159 3500 
L 1159 2969 
Q 1341 3281 1617 3432 
Q 1894 3584 2278 3584 
Q 2916 3584 3314 3078 
Q 3713 2572 3713 1747 
Q 3713 922 3314 415 
Q 2916 -91 2278 -91 
Q 1894 -91 1617 61 
Q 1341 213 1159 525 
z
M 3116 1747 
Q 3116 2381 2855 2742 
Q 2594 3103 2138 3103 
Q 1681 3103 1420 2742 
Q 1159 2381 1159 1747 
Q 1159 1113 1420 752 
Q 1681 391 2138 391 
Q 2594 391 2855 752 
Q 3116 1113 3116 1747 
z
" transform="scale(0.015625)"/>
       <path id="DejaVuSans-65" d="M 3597 1894 
L 3597 1613 
L 953 1613 
Q 991 1019 1311 708 
Q 1631 397 2203 397 
Q 2534 397 2845 478 
Q 3156 559 3463 722 
L 3463 178 
Q 3153 47 2828 -22 
Q 2503 -91 2169 -91 
Q 1331 -91 842 396 
Q 353 884 353 1716 
Q 353 2575 817 3079 
Q 1281 3584 2069 3584 
Q 2775 3584 3186 3129 
Q 3597 2675 3597 1894 
z
M 3022 2063 
Q 3016 2534 2758 2815 
Q 2500 3097 2075 3097 
Q 1594 3097 1305 2825 
Q 1016 2553 972 2059 
L 3022 2063 
z
" transform="scale(0.015625)"/>
       <path id="DejaVuSans-20" transform="scale(0.015625)"/>
       <path id="DejaVuSans-3d" d="M 678 2906 
L 4684 2906 
L 4684 2381 
L 678 2381 
L 678 2906 
z
M 678 1631 
L 4684 1631 
L 4684 1100 
L 678 1100 
L 678 1631 
z
" transform="scale(0.015625)"/>
       <path id="DejaVuSans-2d" d="M 313 2009 
L 1997 2009 
L 1997 1497 
L 313 1497 
L 313 2009 
z
" transform="scale(0.015625)"/>
      </defs>
      <use xlink:href="#DejaVuSans-53"/>
      <use xlink:href="#DejaVuSans-6c" x="63.476562"/>
      <use xlink:href="#DejaVuSans-6f" x="91.259766"/>
      <use xlink:href="#DejaVuSans-70" x="152.441406"/>
      <use xlink:href="#DejaVuSans-65" x="215.917969"/>
      <use xlink:href="#DejaVuSans-20" x="277.441406"/>
      <use xlink:href="#DejaVuSans-3d" x="309.228516"/>
      <use xlink:href="#DejaVuSans-20" x="393.017578"/>
      <use xlink:href="#DejaVuSans-2d" x="424.804688"/>
      <use xlink:href="#DejaVuSans-31" x="460.888672"/>
     </g>
    </g>
   </g>
   <g id="legend_2">
    <g id="patch_8">
     <path d="M 130.1 350.6 
L 306.66875 350.6 
Q 310.66875 350.6 310.66875 346.6 
L 310.66875 289.8875 
Q 310.66875 285.8875 306.66875 285.8875 
L 130.1 285.8875 
Q 126.1 285.8875 126.1 289.8875 
L 126.1 346.6 
Q 126.1 350.6 130.1 350.6 
z
" style="fill: #ffffff; opacity: 0.8; stroke: #cccccc; stroke-linejoin: miter"/>
    </g>
    <g id="line2d_31">
     <path d="M 134.1 302.084375 
L 154.1 302.084375 
L 174.1 302.084375 
" style="fill: none; stroke-dasharray: 3,4.95; stroke-dashoffset: 0; stroke: #000000; stroke-width: 3"/>
    </g>
    <g id="text_9">
     <!-- Shifting On -->
     <g transform="translate(190.1 309.084375)scale(0.2 -0.2)">
      <defs>
       <path id="DejaVuSans-68" d="M 3513 2113 
L 3513 0 
L 2938 0 
L 2938 2094 
Q 2938 2591 2744 2837 
Q 2550 3084 2163 3084 
Q 1697 3084 1428 2787 
Q 1159 2491 1159 1978 
L 1159 0 
L 581 0 
L 581 4863 
L 1159 4863 
L 1159 2956 
Q 1366 3272 1645 3428 
Q 1925 3584 2291 3584 
Q 2894 3584 3203 3211 
Q 3513 2838 3513 2113 
z
" transform="scale(0.015625)"/>
       <path id="DejaVuSans-66" d="M 2375 4863 
L 2375 4384 
L 1825 4384 
Q 1516 4384 1395 4259 
Q 1275 4134 1275 3809 
L 1275 3500 
L 2222 3500 
L 2222 3053 
L 1275 3053 
L 1275 0 
L 697 0 
L 697 3053 
L 147 3053 
L 147 3500 
L 697 3500 
L 697 3744 
Q 697 4328 969 4595 
Q 1241 4863 1831 4863 
L 2375 4863 
z
" transform="scale(0.015625)"/>
       <path id="DejaVuSans-67" d="M 2906 1791 
Q 2906 2416 2648 2759 
Q 2391 3103 1925 3103 
Q 1463 3103 1205 2759 
Q 947 2416 947 1791 
Q 947 1169 1205 825 
Q 1463 481 1925 481 
Q 2391 481 2648 825 
Q 2906 1169 2906 1791 
z
M 3481 434 
Q 3481 -459 3084 -895 
Q 2688 -1331 1869 -1331 
Q 1566 -1331 1297 -1286 
Q 1028 -1241 775 -1147 
L 775 -588 
Q 1028 -725 1275 -790 
Q 1522 -856 1778 -856 
Q 2344 -856 2625 -561 
Q 2906 -266 2906 331 
L 2906 616 
Q 2728 306 2450 153 
Q 2172 0 1784 0 
Q 1141 0 747 490 
Q 353 981 353 1791 
Q 353 2603 747 3093 
Q 1141 3584 1784 3584 
Q 2172 3584 2450 3431 
Q 2728 3278 2906 2969 
L 2906 3500 
L 3481 3500 
L 3481 434 
z
" transform="scale(0.015625)"/>
       <path id="DejaVuSans-4f" d="M 2522 4238 
Q 1834 4238 1429 3725 
Q 1025 3213 1025 2328 
Q 1025 1447 1429 934 
Q 1834 422 2522 422 
Q 3209 422 3611 934 
Q 4013 1447 4013 2328 
Q 4013 3213 3611 3725 
Q 3209 4238 2522 4238 
z
M 2522 4750 
Q 3503 4750 4090 4092 
Q 4678 3434 4678 2328 
Q 4678 1225 4090 567 
Q 3503 -91 2522 -91 
Q 1538 -91 948 565 
Q 359 1222 359 2328 
Q 359 3434 948 4092 
Q 1538 4750 2522 4750 
z
" transform="scale(0.015625)"/>
      </defs>
      <use xlink:href="#DejaVuSans-53"/>
      <use xlink:href="#DejaVuSans-68" x="63.476562"/>
      <use xlink:href="#DejaVuSans-69" x="126.855469"/>
      <use xlink:href="#DejaVuSans-66" x="154.638672"/>
      <use xlink:href="#DejaVuSans-74" x="188.09375"/>
      <use xlink:href="#DejaVuSans-69" x="227.302734"/>
      <use xlink:href="#DejaVuSans-6e" x="255.085938"/>
      <use xlink:href="#DejaVuSans-67" x="318.464844"/>
      <use xlink:href="#DejaVuSans-20" x="381.941406"/>
      <use xlink:href="#DejaVuSans-4f" x="413.728516"/>
      <use xlink:href="#DejaVuSans-6e" x="492.439453"/>
     </g>
    </g>
    <g id="line2d_32">
     <path d="M 134.1 331.440625 
L 154.1 331.440625 
L 174.1 331.440625 
" style="fill: none; stroke-dasharray: 11.1,4.8; stroke-dashoffset: 0; stroke: #000000; stroke-width: 3"/>
    </g>
    <g id="text_10">
     <!-- Shifting Off -->
     <g transform="translate(190.1 338.440625)scale(0.2 -0.2)">
      <use xlink:href="#DejaVuSans-53"/>
      <use xlink:href="#DejaVuSans-68" x="63.476562"/>
      <use xlink:href="#DejaVuSans-69" x="126.855469"/>
      <use xlink:href="#DejaVuSans-66" x="154.638672"/>
      <use xlink:href="#DejaVuSans-74" x="188.09375"/>
      <use xlink:href="#DejaVuSans-69" x="227.302734"/>
      <use xlink:href="#DejaVuSans-6e" x="255.085938"/>
      <use xlink:href="#DejaVuSans-67" x="318.464844"/>
      <use xlink:href="#DejaVuSans-20" x="381.941406"/>
      <use xlink:href="#DejaVuSans-4f" x="413.728516"/>
      <use xlink:href="#DejaVuSans-66" x="492.439453"/>
      <use xlink:href="#DejaVuSans-66" x="527.644531"/>
     </g>
    </g>
   </g>
   <g id="legend_3">
    <g id="patch_9">
     <path d="M 130.1 350.6 
L 306.66875 350.6 
Q 310.66875 350.6 310.66875 346.6 
L 310.66875 289.8875 
Q 310.66875 285.8875 306.66875 285.8875 
L 130.1 285.8875 
Q 126.1 285.8875 126.1 289.8875 
L 126.1 346.6 
Q 126.1 350.6 130.1 350.6 
z
" style="fill: #ffffff; opacity: 0.8; stroke: #cccccc; stroke-linejoin: miter"/>
    </g>
    <g id="line2d_33">
     <path d="M 134.1 302.084375 
L 154.1 302.084375 
L 174.1 302.084375 
" style="fill: none; stroke-dasharray: 3,4.95; stroke-dashoffset: 0; stroke: #000000; stroke-width: 3"/>
    </g>
    <g id="text_11">
     <!-- Shifting On -->
     <g transform="translate(190.1 309.084375)scale(0.2 -0.2)">
      <use xlink:href="#DejaVuSans-53"/>
      <use xlink:href="#DejaVuSans-68" x="63.476562"/>
      <use xlink:href="#DejaVuSans-69" x="126.855469"/>
      <use xlink:href="#DejaVuSans-66" x="154.638672"/>
      <use xlink:href="#DejaVuSans-74" x="188.09375"/>
      <use xlink:href="#DejaVuSans-69" x="227.302734"/>
      <use xlink:href="#DejaVuSans-6e" x="255.085938"/>
      <use xlink:href="#DejaVuSans-67" x="318.464844"/>
      <use xlink:href="#DejaVuSans-20" x="381.941406"/>
      <use xlink:href="#DejaVuSans-4f" x="413.728516"/>
      <use xlink:href="#DejaVuSans-6e" x="492.439453"/>
     </g>
    </g>
    <g id="line2d_34">
     <path d="M 134.1 331.440625 
L 154.1 331.440625 
L 174.1 331.440625 
" style="fill: none; stroke-dasharray: 11.1,4.8; stroke-dashoffset: 0; stroke: #000000; stroke-width: 3"/>
    </g>
    <g id="text_12">
     <!-- Shifting Off -->
     <g transform="translate(190.1 338.440625)scale(0.2 -0.2)">
      <use xlink:href="#DejaVuSans-53"/>
      <use xlink:href="#DejaVuSans-68" x="63.476562"/>
      <use xlink:href="#DejaVuSans-69" x="126.855469"/>
      <use xlink:href="#DejaVuSans-66" x="154.638672"/>
      <use xlink:href="#DejaVuSans-74" x="188.09375"/>
      <use xlink:href="#DejaVuSans-69" x="227.302734"/>
      <use xlink:href="#DejaVuSans-6e" x="255.085938"/>
      <use xlink:href="#DejaVuSans-67" x="318.464844"/>
      <use xlink:href="#DejaVuSans-20" x="381.941406"/>
      <use xlink:href="#DejaVuSans-4f" x="413.728516"/>
      <use xlink:href="#DejaVuSans-66" x="492.439453"/>
      <use xlink:href="#DejaVuSans-66" x="527.644531"/>
     </g>
    </g>
   </g>
  </g>
 </g>
 <defs>
  <clipPath id="paafdc291b9">
   <rect x="116.1" y="14.4" width="377.044375" height="346.2"/>
  </clipPath>
 </defs>
</svg>
