<?xml version="1.0" encoding="utf-8" standalone="no"?>
<!DOCTYPE svg PUBLIC "-//W3C//DTD SVG 1.1//EN"
  "http://www.w3.org/Graphics/SVG/1.1/DTD/svg11.dtd">
<svg xmlns:xlink="http://www.w3.org/1999/xlink" width="485.72pt" height="414.28625pt" viewBox="0 0 485.72 414.28625" xmlns="http://www.w3.org/2000/svg" version="1.1">
 <metadata>
  <rdf:RDF xmlns:dc="http://purl.org/dc/elements/1.1/" xmlns:cc="http://creativecommons.org/ns#" xmlns:rdf="http://www.w3.org/1999/02/22-rdf-syntax-ns#">
   <cc:Work>
    <dc:type rdf:resource="http://purl.org/dc/dcmitype/StillImage"/>
    <dc:date>2022-09-28T12:40:55.446860</dc:date>
    <dc:format>image/svg+xml</dc:format>
    <dc:creator>
     <cc:Agent>
      <dc:title>Matplotlib v3.5.1, https://matplotlib.org/</dc:title>
     </cc:Agent>
    </dc:creator>
   </cc:Work>
  </rdf:RDF>
 </metadata>
 <defs>
  <style type="text/css">*{stroke-linejoin: round; stroke-linecap: butt}</style>
 </defs>
 <g id="figure_1">
  <g id="patch_1">
   <path d="M 0 414.28625 
L 485.72 414.28625 
L 485.72 0 
L 0 0 
L 0 414.28625 
z
" style="fill: none"/>
  </g>
  <g id="axes_1">
   <g id="patch_2">
    <path d="M 80.72 340.56 
L 471.32 340.56 
L 471.32 14.4 
L 80.72 14.4 
z
" style="fill: #ffffff"/>
   </g>
   <g id="matplotlib.axis_1">
    <g id="xtick_1">
     <g id="line2d_1">
      <defs>
       <path id="mcfa0b6ec9d" d="M 0 0 
L 0 -6 
" style="stroke: #000000; stroke-width: 2"/>
      </defs>
      <g>
       <use xlink:href="#mcfa0b6ec9d" x="226.65555" y="340.56" style="stroke: #000000; stroke-width: 2"/>
      </g>
     </g>
     <g id="text_1">
      <!-- 0.2 -->
      <g transform="translate(207.5718 363.79625)scale(0.24 -0.24)">
       <defs>
        <path id="DejaVuSans-30" d="M 2034 4250 
Q 1547 4250 1301 3770 
Q 1056 3291 1056 2328 
Q 1056 1369 1301 889 
Q 1547 409 2034 409 
Q 2525 409 2770 889 
Q 3016 1369 3016 2328 
Q 3016 3291 2770 3770 
Q 2525 4250 2034 4250 
z
M 2034 4750 
Q 2819 4750 3233 4129 
Q 3647 3509 3647 2328 
Q 3647 1150 3233 529 
Q 2819 -91 2034 -91 
Q 1250 -91 836 529 
Q 422 1150 422 2328 
Q 422 3509 836 4129 
Q 1250 4750 2034 4750 
z
" transform="scale(0.015625)"/>
        <path id="DejaVuSans-2e" d="M 684 794 
L 1344 794 
L 1344 0 
L 684 0 
L 684 794 
z
" transform="scale(0.015625)"/>
        <path id="DejaVuSans-32" d="M 1228 531 
L 3431 531 
L 3431 0 
L 469 0 
L 469 531 
Q 828 903 1448 1529 
Q 2069 2156 2228 2338 
Q 2531 2678 2651 2914 
Q 2772 3150 2772 3378 
Q 2772 3750 2511 3984 
Q 2250 4219 1831 4219 
Q 1534 4219 1204 4116 
Q 875 4013 500 3803 
L 500 4441 
Q 881 4594 1212 4672 
Q 1544 4750 1819 4750 
Q 2544 4750 2975 4387 
Q 3406 4025 3406 3419 
Q 3406 3131 3298 2873 
Q 3191 2616 2906 2266 
Q 2828 2175 2409 1742 
Q 1991 1309 1228 531 
z
" transform="scale(0.015625)"/>
       </defs>
       <use xlink:href="#DejaVuSans-30"/>
       <use xlink:href="#DejaVuSans-2e" x="63.623047"/>
       <use xlink:href="#DejaVuSans-32" x="95.410156"/>
      </g>
     </g>
    </g>
    <g id="xtick_2">
     <g id="line2d_2">
      <g>
       <use xlink:href="#mcfa0b6ec9d" x="377.92882" y="340.56" style="stroke: #000000; stroke-width: 2"/>
      </g>
     </g>
     <g id="text_2">
      <!-- 0.4 -->
      <g transform="translate(358.84507 363.79625)scale(0.24 -0.24)">
       <defs>
        <path id="DejaVuSans-34" d="M 2419 4116 
L 825 1625 
L 2419 1625 
L 2419 4116 
z
M 2253 4666 
L 3047 4666 
L 3047 1625 
L 3713 1625 
L 3713 1100 
L 3047 1100 
L 3047 0 
L 2419 0 
L 2419 1100 
L 313 1100 
L 313 1709 
L 2253 4666 
z
" transform="scale(0.015625)"/>
       </defs>
       <use xlink:href="#DejaVuSans-30"/>
       <use xlink:href="#DejaVuSans-2e" x="63.623047"/>
       <use xlink:href="#DejaVuSans-34" x="95.410156"/>
      </g>
     </g>
    </g>
    <g id="xtick_3">
     <g id="line2d_3">
      <g>
       <use xlink:href="#mcfa0b6ec9d" x="453.565455" y="340.56" style="stroke: #000000; stroke-width: 2"/>
      </g>
     </g>
    </g>
    <g id="text_3">
     <!-- $\Delta T$ -->
     <g transform="translate(257.82 394.063125)scale(0.28 -0.28)">
      <defs>
       <path id="DejaVuSans-394" d="M 2188 4044 
L 906 525 
L 3472 525 
L 2188 4044 
z
M 50 0 
L 1831 4666 
L 2547 4666 
L 4325 0 
L 50 0 
z
" transform="scale(0.015625)"/>
       <path id="DejaVuSans-Oblique-54" d="M 378 4666 
L 4325 4666 
L 4225 4134 
L 2559 4134 
L 1759 0 
L 1125 0 
L 1925 4134 
L 275 4134 
L 378 4666 
z
" transform="scale(0.015625)"/>
      </defs>
      <use xlink:href="#DejaVuSans-394" transform="translate(0 0.09375)"/>
      <use xlink:href="#DejaVuSans-Oblique-54" transform="translate(68.408203 0.09375)"/>
     </g>
    </g>
   </g>
   <g id="matplotlib.axis_2">
    <g id="ytick_1">
     <g id="line2d_4">
      <defs>
       <path id="md23d58e325" d="M 0 0 
L 6 0 
" style="stroke: #000000; stroke-width: 2"/>
      </defs>
      <g>
       <use xlink:href="#md23d58e325" x="80.72" y="329.946497" style="stroke: #000000; stroke-width: 2"/>
      </g>
     </g>
     <g id="text_4">
      <!-- 0 -->
      <g transform="translate(61.95 339.064622)scale(0.24 -0.24)">
       <use xlink:href="#DejaVuSans-30"/>
      </g>
     </g>
    </g>
    <g id="ytick_2">
     <g id="line2d_5">
      <g>
       <use xlink:href="#md23d58e325" x="80.72" y="273.191621" style="stroke: #000000; stroke-width: 2"/>
      </g>
     </g>
     <g id="text_5">
      <!-- 10 -->
      <g transform="translate(46.68 282.309746)scale(0.24 -0.24)">
       <defs>
        <path id="DejaVuSans-31" d="M 794 531 
L 1825 531 
L 1825 4091 
L 703 3866 
L 703 4441 
L 1819 4666 
L 2450 4666 
L 2450 531 
L 3481 531 
L 3481 0 
L 794 0 
L 794 531 
z
" transform="scale(0.015625)"/>
       </defs>
       <use xlink:href="#DejaVuSans-31"/>
       <use xlink:href="#DejaVuSans-30" x="63.623047"/>
      </g>
     </g>
    </g>
    <g id="ytick_3">
     <g id="line2d_6">
      <g>
       <use xlink:href="#md23d58e325" x="80.72" y="216.436744" style="stroke: #000000; stroke-width: 2"/>
      </g>
     </g>
     <g id="text_6">
      <!-- 20 -->
      <g transform="translate(46.68 225.554869)scale(0.24 -0.24)">
       <use xlink:href="#DejaVuSans-32"/>
       <use xlink:href="#DejaVuSans-30" x="63.623047"/>
      </g>
     </g>
    </g>
    <g id="ytick_4">
     <g id="line2d_7">
      <g>
       <use xlink:href="#md23d58e325" x="80.72" y="159.681868" style="stroke: #000000; stroke-width: 2"/>
      </g>
     </g>
     <g id="text_7">
      <!-- 30 -->
      <g transform="translate(46.68 168.799993)scale(0.24 -0.24)">
       <defs>
        <path id="DejaVuSans-33" d="M 2597 2516 
Q 3050 2419 3304 2112 
Q 3559 1806 3559 1356 
Q 3559 666 3084 287 
Q 2609 -91 1734 -91 
Q 1441 -91 1130 -33 
Q 819 25 488 141 
L 488 750 
Q 750 597 1062 519 
Q 1375 441 1716 441 
Q 2309 441 2620 675 
Q 2931 909 2931 1356 
Q 2931 1769 2642 2001 
Q 2353 2234 1838 2234 
L 1294 2234 
L 1294 2753 
L 1863 2753 
Q 2328 2753 2575 2939 
Q 2822 3125 2822 3475 
Q 2822 3834 2567 4026 
Q 2313 4219 1838 4219 
Q 1578 4219 1281 4162 
Q 984 4106 628 3988 
L 628 4550 
Q 988 4650 1302 4700 
Q 1616 4750 1894 4750 
Q 2613 4750 3031 4423 
Q 3450 4097 3450 3541 
Q 3450 3153 3228 2886 
Q 3006 2619 2597 2516 
z
" transform="scale(0.015625)"/>
       </defs>
       <use xlink:href="#DejaVuSans-33"/>
       <use xlink:href="#DejaVuSans-30" x="63.623047"/>
      </g>
     </g>
    </g>
    <g id="ytick_5">
     <g id="line2d_8">
      <g>
       <use xlink:href="#md23d58e325" x="80.72" y="102.926991" style="stroke: #000000; stroke-width: 2"/>
      </g>
     </g>
     <g id="text_8">
      <!-- 40 -->
      <g transform="translate(46.68 112.045116)scale(0.24 -0.24)">
       <use xlink:href="#DejaVuSans-34"/>
       <use xlink:href="#DejaVuSans-30" x="63.623047"/>
      </g>
     </g>
    </g>
    <g id="ytick_6">
     <g id="line2d_9">
      <g>
       <use xlink:href="#md23d58e325" x="80.72" y="46.172115" style="stroke: #000000; stroke-width: 2"/>
      </g>
     </g>
     <g id="text_9">
      <!-- 50 -->
      <g transform="translate(46.68 55.29024)scale(0.24 -0.24)">
       <defs>
        <path id="DejaVuSans-35" d="M 691 4666 
L 3169 4666 
L 3169 4134 
L 1269 4134 
L 1269 2991 
Q 1406 3038 1543 3061 
Q 1681 3084 1819 3084 
Q 2600 3084 3056 2656 
Q 3513 2228 3513 1497 
Q 3513 744 3044 326 
Q 2575 -91 1722 -91 
Q 1428 -91 1123 -41 
Q 819 9 494 109 
L 494 744 
Q 775 591 1075 516 
Q 1375 441 1709 441 
Q 2250 441 2565 725 
Q 2881 1009 2881 1497 
Q 2881 1984 2565 2268 
Q 2250 2553 1709 2553 
Q 1456 2553 1204 2497 
Q 953 2441 691 2322 
L 691 4666 
z
" transform="scale(0.015625)"/>
       </defs>
       <use xlink:href="#DejaVuSans-35"/>
       <use xlink:href="#DejaVuSans-30" x="63.623047"/>
      </g>
     </g>
    </g>
    <g id="text_10">
     <!-- $max_i(|u_x|)/u_0$ -->
     <g transform="translate(35.96 266.8)rotate(-90)scale(0.28 -0.28)">
      <defs>
       <path id="DejaVuSans-Oblique-6d" d="M 5747 2113 
L 5338 0 
L 4763 0 
L 5166 2094 
Q 5191 2228 5203 2325 
Q 5216 2422 5216 2491 
Q 5216 2772 5059 2928 
Q 4903 3084 4622 3084 
Q 4203 3084 3875 2770 
Q 3547 2456 3450 1953 
L 3066 0 
L 2491 0 
L 2900 2094 
Q 2925 2209 2937 2307 
Q 2950 2406 2950 2484 
Q 2950 2769 2794 2926 
Q 2638 3084 2363 3084 
Q 1938 3084 1609 2770 
Q 1281 2456 1184 1953 
L 800 0 
L 225 0 
L 909 3500 
L 1484 3500 
L 1375 2956 
Q 1609 3263 1923 3423 
Q 2238 3584 2597 3584 
Q 2978 3584 3223 3384 
Q 3469 3184 3519 2828 
Q 3781 3197 4126 3390 
Q 4472 3584 4856 3584 
Q 5306 3584 5551 3325 
Q 5797 3066 5797 2591 
Q 5797 2488 5784 2364 
Q 5772 2241 5747 2113 
z
" transform="scale(0.015625)"/>
       <path id="DejaVuSans-Oblique-61" d="M 3438 1997 
L 3047 0 
L 2472 0 
L 2578 531 
Q 2325 219 2001 64 
Q 1678 -91 1281 -91 
Q 834 -91 548 182 
Q 263 456 263 884 
Q 263 1497 752 1853 
Q 1241 2209 2100 2209 
L 2900 2209 
L 2931 2363 
Q 2938 2388 2941 2417 
Q 2944 2447 2944 2509 
Q 2944 2788 2717 2942 
Q 2491 3097 2081 3097 
Q 1800 3097 1504 3025 
Q 1209 2953 897 2809 
L 997 3341 
Q 1322 3463 1633 3523 
Q 1944 3584 2234 3584 
Q 2853 3584 3176 3315 
Q 3500 3047 3500 2534 
Q 3500 2431 3484 2292 
Q 3469 2153 3438 1997 
z
M 2816 1759 
L 2241 1759 
Q 1534 1759 1195 1570 
Q 856 1381 856 984 
Q 856 709 1029 553 
Q 1203 397 1509 397 
Q 1978 397 2328 733 
Q 2678 1069 2791 1631 
L 2816 1759 
z
" transform="scale(0.015625)"/>
       <path id="DejaVuSans-Oblique-78" d="M 3841 3500 
L 2234 1784 
L 3219 0 
L 2559 0 
L 1819 1388 
L 531 0 
L -166 0 
L 1556 1844 
L 641 3500 
L 1300 3500 
L 1972 2234 
L 3144 3500 
L 3841 3500 
z
" transform="scale(0.015625)"/>
       <path id="DejaVuSans-Oblique-69" d="M 1172 4863 
L 1747 4863 
L 1606 4134 
L 1031 4134 
L 1172 4863 
z
M 909 3500 
L 1484 3500 
L 800 0 
L 225 0 
L 909 3500 
z
" transform="scale(0.015625)"/>
       <path id="DejaVuSans-28" d="M 1984 4856 
Q 1566 4138 1362 3434 
Q 1159 2731 1159 2009 
Q 1159 1288 1364 580 
Q 1569 -128 1984 -844 
L 1484 -844 
Q 1016 -109 783 600 
Q 550 1309 550 2009 
Q 550 2706 781 3412 
Q 1013 4119 1484 4856 
L 1984 4856 
z
" transform="scale(0.015625)"/>
       <path id="DejaVuSans-7c" d="M 1344 4891 
L 1344 -1509 
L 813 -1509 
L 813 4891 
L 1344 4891 
z
" transform="scale(0.015625)"/>
       <path id="DejaVuSans-Oblique-75" d="M 428 1388 
L 838 3500 
L 1416 3500 
L 1006 1409 
Q 975 1256 961 1147 
Q 947 1038 947 966 
Q 947 700 1109 554 
Q 1272 409 1569 409 
Q 2031 409 2368 721 
Q 2706 1034 2809 1563 
L 3194 3500 
L 3769 3500 
L 3091 0 
L 2516 0 
L 2631 550 
Q 2388 244 2052 76 
Q 1716 -91 1338 -91 
Q 878 -91 622 161 
Q 366 413 366 863 
Q 366 956 381 1097 
Q 397 1238 428 1388 
z
" transform="scale(0.015625)"/>
       <path id="DejaVuSans-29" d="M 513 4856 
L 1013 4856 
Q 1481 4119 1714 3412 
Q 1947 2706 1947 2009 
Q 1947 1309 1714 600 
Q 1481 -109 1013 -844 
L 513 -844 
Q 928 -128 1133 580 
Q 1338 1288 1338 2009 
Q 1338 2731 1133 3434 
Q 928 4138 513 4856 
z
" transform="scale(0.015625)"/>
       <path id="DejaVuSans-2f" d="M 1625 4666 
L 2156 4666 
L 531 -594 
L 0 -594 
L 1625 4666 
z
" transform="scale(0.015625)"/>
      </defs>
      <use xlink:href="#DejaVuSans-Oblique-6d" transform="translate(0 0.578125)"/>
      <use xlink:href="#DejaVuSans-Oblique-61" transform="translate(97.412109 0.578125)"/>
      <use xlink:href="#DejaVuSans-Oblique-78" transform="translate(158.691406 0.578125)"/>
      <use xlink:href="#DejaVuSans-Oblique-69" transform="translate(217.871094 -15.828125)scale(0.7)"/>
      <use xlink:href="#DejaVuSans-28" transform="translate(240.053711 0.578125)"/>
      <use xlink:href="#DejaVuSans-7c" transform="translate(279.067383 0.578125)"/>
      <use xlink:href="#DejaVuSans-Oblique-75" transform="translate(312.758789 0.578125)"/>
      <use xlink:href="#DejaVuSans-Oblique-78" transform="translate(376.137695 -15.828125)scale(0.7)"/>
      <use xlink:href="#DejaVuSans-7c" transform="translate(420.297852 0.578125)"/>
      <use xlink:href="#DejaVuSans-29" transform="translate(453.989258 0.578125)"/>
      <use xlink:href="#DejaVuSans-2f" transform="translate(493.00293 0.578125)"/>
      <use xlink:href="#DejaVuSans-Oblique-75" transform="translate(526.694336 0.578125)"/>
      <use xlink:href="#DejaVuSans-30" transform="translate(590.073242 -15.828125)scale(0.7)"/>
     </g>
    </g>
   </g>
   <g id="line2d_10">
    <defs>
     <path id="m5863679e26" d="M -6 6 
L 6 6 
L 6 -6 
L -6 -6 
z
" style="stroke: #000000; stroke-width: 1.5; stroke-linejoin: miter"/>
    </defs>
    <g clip-path="url(#ped275671c5)">
     <use xlink:href="#m5863679e26" x="113.200597" y="269.236095" style="fill-opacity: 0; stroke: #000000; stroke-width: 1.5; stroke-linejoin: miter"/>
     <use xlink:href="#m5863679e26" x="151.018915" y="229.841252" style="fill-opacity: 0; stroke: #000000; stroke-width: 1.5; stroke-linejoin: miter"/>
     <use xlink:href="#m5863679e26" x="226.65555" y="170.472574" style="fill-opacity: 0; stroke: #000000; stroke-width: 1.5; stroke-linejoin: miter"/>
     <use xlink:href="#m5863679e26" x="302.292185" y="122.209494" style="fill-opacity: 0; stroke: #000000; stroke-width: 1.5; stroke-linejoin: miter"/>
     <use xlink:href="#m5863679e26" x="377.92882" y="79.219083" style="fill-opacity: 0; stroke: #000000; stroke-width: 1.5; stroke-linejoin: miter"/>
    </g>
   </g>
   <g id="line2d_11">
    <path d="M 98.474545 321.300907 
L 99.231669 314.580752 
L 99.988792 310.009947 
L 101.124478 304.658044 
L 102.638725 298.926734 
L 104.152972 294.100361 
L 106.04578 288.857019 
L 108.317151 283.337218 
L 110.588521 278.405207 
L 113.238453 273.190314 
L 116.266947 267.763671 
L 119.295441 262.774007 
L 122.702497 257.570652 
L 126.488114 252.196497 
L 130.652293 246.684609 
L 135.195034 241.060607 
L 140.116336 235.344485 
L 145.416201 229.551975 
L 151.094627 223.695571 
L 157.151615 217.785281 
L 163.587164 211.829193 
L 170.401275 205.8339 
L 177.593948 199.804821 
L 185.165183 193.746443 
L 193.11498 187.662507 
L 201.8219 181.284556 
L 210.907381 174.908788 
L 220.371425 168.534942 
L 230.592592 161.922544 
L 241.19232 155.329524 
L 252.549172 148.531266 
L 264.284586 141.764233 
L 276.777123 134.818327 
L 290.026784 127.711977 
L 303.655007 120.654168 
L 318.040353 113.453732 
L 333.182822 106.124435 
L 349.082415 98.678529 
L 365.739132 91.126919 
L 383.152972 83.479321 
L 401.323935 75.7444 
L 420.252022 67.929887 
L 439.937232 60.042697 
L 453.565455 54.714705 
L 453.565455 54.714705 
" clip-path="url(#ped275671c5)" style="fill: none; stroke-dasharray: 3,4.95; stroke-dashoffset: 0; stroke: #000000; stroke-width: 3"/>
   </g>
   <g id="line2d_12">
    <defs>
     <path id="m0ab2eb2057" d="M -6 6 
L 6 -6 
M -6 -6 
L 6 6 
" style="stroke: #696969; stroke-width: 1.5"/>
    </defs>
    <g clip-path="url(#ped275671c5)">
     <use xlink:href="#m0ab2eb2057" x="113.200597" y="268.667056" style="fill-opacity: 0; stroke: #696969; stroke-width: 1.5"/>
     <use xlink:href="#m0ab2eb2057" x="151.018915" y="228.845449" style="fill-opacity: 0; stroke: #696969; stroke-width: 1.5"/>
     <use xlink:href="#m0ab2eb2057" x="226.65555" y="168.474796" style="fill-opacity: 0; stroke: #696969; stroke-width: 1.5"/>
     <use xlink:href="#m0ab2eb2057" x="302.292185" y="118.98834" style="fill-opacity: 0; stroke: #696969; stroke-width: 1.5"/>
     <use xlink:href="#m0ab2eb2057" x="377.92882" y="76.030878" style="fill-opacity: 0; stroke: #696969; stroke-width: 1.5"/>
    </g>
   </g>
   <g id="line2d_13">
    <path d="M 98.474545 323.797182 
L 98.853107 318.957774 
L 99.610231 313.016406 
L 100.745916 306.80688 
L 101.881601 301.94193 
L 103.395848 296.539796 
L 104.910095 291.897062 
L 106.802904 286.790393 
L 109.074274 281.365872 
L 111.345645 276.488991 
L 113.995577 271.309728 
L 117.024071 265.9014 
L 120.431126 260.317364 
L 123.838182 255.149052 
L 127.623799 249.796403 
L 131.787978 244.293971 
L 136.330719 238.66884 
L 141.252022 232.942351 
L 146.551886 227.13144 
L 152.230312 221.249646 
L 158.2873 215.307879 
L 164.722849 209.314999 
L 171.536961 203.278262 
L 178.729634 197.203651 
L 186.300868 191.096137 
L 194.629227 184.67414 
L 203.336147 178.250647 
L 212.421628 171.82584 
L 221.885672 165.399874 
L 232.106839 158.730504 
L 242.706567 152.078064 
L 254.063419 145.216103 
L 265.798833 138.383465 
L 278.29137 131.368179 
L 291.541031 124.188928 
L 305.169254 117.056986 
L 319.5546 109.779318 
L 334.697069 102.369905 
L 350.596662 94.841201 
L 367.253379 87.204308 
L 384.667218 79.469119 
L 402.838182 71.644466 
L 421.766269 63.738237 
L 441.451479 55.757489 
L 453.565455 50.959711 
L 453.565455 50.959711 
" clip-path="url(#ped275671c5)" style="fill: none; stroke-dasharray: 3,4.95; stroke-dashoffset: 0; stroke: #696969; stroke-width: 3"/>
   </g>
   <g id="line2d_14">
    <defs>
     <path id="m97b3db2068" d="M 0 6 
C 1.591219 6 3.117479 5.367802 4.242641 4.242641 
C 5.367802 3.117479 6 1.591219 6 0 
C 6 -1.591219 5.367802 -3.117479 4.242641 -4.242641 
C 3.117479 -5.367802 1.591219 -6 0 -6 
C -1.591219 -6 -3.117479 -5.367802 -4.242641 -4.242641 
C -5.367802 -3.117479 -6 -1.591219 -6 0 
C -6 1.591219 -5.367802 3.117479 -4.242641 4.242641 
C -3.117479 5.367802 -1.591219 6 0 6 
z
" style="stroke: #a9a9a9; stroke-width: 1.5"/>
    </defs>
    <g clip-path="url(#ped275671c5)">
     <use xlink:href="#m97b3db2068" x="113.200597" y="268.236322" style="fill-opacity: 0; stroke: #a9a9a9; stroke-width: 1.5"/>
     <use xlink:href="#m97b3db2068" x="151.018915" y="227.269614" style="fill-opacity: 0; stroke: #a9a9a9; stroke-width: 1.5"/>
     <use xlink:href="#m97b3db2068" x="226.65555" y="164.930325" style="fill-opacity: 0; stroke: #a9a9a9; stroke-width: 1.5"/>
     <use xlink:href="#m97b3db2068" x="302.292185" y="102.615021" style="fill-opacity: 0; stroke: #a9a9a9; stroke-width: 1.5"/>
     <use xlink:href="#m97b3db2068" x="377.92882" y="51.103809" style="fill-opacity: 0; stroke: #a9a9a9; stroke-width: 1.5"/>
    </g>
   </g>
   <g id="line2d_15">
    <path d="M 101.503039 325.734545 
L 101.881601 319.224492 
L 102.638725 312.356638 
L 103.395848 307.500008 
L 104.531533 301.741755 
L 106.04578 295.531516 
L 107.560027 290.281974 
L 109.452836 284.566119 
L 111.724206 278.539261 
L 113.995577 273.148354 
L 116.645509 267.443896 
L 119.674003 261.504244 
L 122.702497 256.040415 
L 126.109552 250.340613 
L 129.89517 244.452021 
L 134.059349 238.411067 
L 138.60209 232.246009 
L 143.14483 226.447532 
L 148.066133 220.51201 
L 153.365997 214.460571 
L 159.044423 208.310515 
L 165.101411 202.076071 
L 171.536961 195.769 
L 178.351072 189.399081 
L 185.543745 182.974484 
L 193.11498 176.502077 
L 201.443338 169.684059 
L 210.150258 162.853323 
L 219.235739 156.011366 
L 228.699783 149.159464 
L 238.92095 142.039832 
L 249.520678 134.930859 
L 260.498969 127.831421 
L 272.234383 120.508318 
L 284.348358 113.208363 
L 297.219457 105.712405 
L 310.84768 98.039449 
L 324.854464 90.409337 
L 339.618372 82.621478 
L 355.139403 74.690311 
L 371.417558 66.628785 
L 388.074274 58.627615 
L 405.488114 50.507603 
L 423.659077 42.278812 
L 442.587164 33.950314 
L 453.565455 29.225455 
L 453.565455 29.225455 
" clip-path="url(#ped275671c5)" style="fill: none; stroke-dasharray: 3,4.95; stroke-dashoffset: 0; stroke: #a9a9a9; stroke-width: 3"/>
   </g>
   <g id="patch_3">
    <path d="M 80.72 340.56 
L 80.72 14.4 
" style="fill: none; stroke: #000000; stroke-width: 2; stroke-linejoin: miter; stroke-linecap: square"/>
   </g>
   <g id="patch_4">
    <path d="M 471.32 340.56 
L 471.32 14.4 
" style="fill: none; stroke: #000000; stroke-width: 2; stroke-linejoin: miter; stroke-linecap: square"/>
   </g>
   <g id="patch_5">
    <path d="M 80.72 340.56 
L 471.32 340.56 
" style="fill: none; stroke: #000000; stroke-width: 2; stroke-linejoin: miter; stroke-linecap: square"/>
   </g>
   <g id="patch_6">
    <path d="M 80.72 14.4 
L 471.32 14.4 
" style="fill: none; stroke: #000000; stroke-width: 2; stroke-linejoin: miter; stroke-linecap: square"/>
   </g>
   <g id="legend_1">
    <g id="patch_7">
     <path d="M 324.2825 328.56 
L 454.52 328.56 
Q 459.32 328.56 459.32 323.76 
L 459.32 196.86375 
Q 459.32 192.06375 454.52 192.06375 
L 324.2825 192.06375 
Q 319.4825 192.06375 319.4825 196.86375 
L 319.4825 323.76 
Q 319.4825 328.56 324.2825 328.56 
z
" style="fill: #ffffff; opacity: 0.8; stroke: #cccccc; stroke-linejoin: miter"/>
    </g>
    <g id="text_11">
     <!-- $\Delta x$ -->
     <g transform="translate(381.72125 210.781875)scale(0.12 -0.12)">
      <use xlink:href="#DejaVuSans-394" transform="translate(0 0.09375)"/>
      <use xlink:href="#DejaVuSans-Oblique-78" transform="translate(68.408203 0.09375)"/>
     </g>
    </g>
    <g id="line2d_16">
     <g>
      <use xlink:href="#m5863679e26" x="353.0825" y="235.11375" style="fill-opacity: 0; stroke: #000000; stroke-width: 1.5; stroke-linejoin: miter"/>
     </g>
    </g>
    <g id="text_12">
     <!-- 0.20 -->
     <g transform="translate(396.2825 243.51375)scale(0.24 -0.24)">
      <use xlink:href="#DejaVuSans-30"/>
      <use xlink:href="#DejaVuSans-2e" x="63.623047"/>
      <use xlink:href="#DejaVuSans-32" x="95.410156"/>
      <use xlink:href="#DejaVuSans-30" x="159.033203"/>
     </g>
    </g>
    <g id="line2d_17">
     <g>
      <use xlink:href="#m0ab2eb2057" x="353.0825" y="270.34125" style="fill-opacity: 0; stroke: #696969; stroke-width: 1.5"/>
     </g>
    </g>
    <g id="text_13">
     <!-- 0.10 -->
     <g transform="translate(396.2825 278.74125)scale(0.24 -0.24)">
      <use xlink:href="#DejaVuSans-30"/>
      <use xlink:href="#DejaVuSans-2e" x="63.623047"/>
      <use xlink:href="#DejaVuSans-31" x="95.410156"/>
      <use xlink:href="#DejaVuSans-30" x="159.033203"/>
     </g>
    </g>
    <g id="line2d_18">
     <g>
      <use xlink:href="#m97b3db2068" x="353.0825" y="305.56875" style="fill-opacity: 0; stroke: #a9a9a9; stroke-width: 1.5"/>
     </g>
    </g>
    <g id="text_14">
     <!-- 0.05 -->
     <g transform="translate(396.2825 313.96875)scale(0.24 -0.24)">
      <use xlink:href="#DejaVuSans-30"/>
      <use xlink:href="#DejaVuSans-2e" x="63.623047"/>
      <use xlink:href="#DejaVuSans-30" x="95.410156"/>
      <use xlink:href="#DejaVuSans-35" x="159.033203"/>
     </g>
    </g>
   </g>
  </g>
 </g>
 <defs>
  <clipPath id="ped275671c5">
   <rect x="80.72" y="14.4" width="390.6" height="326.16"/>
  </clipPath>
 </defs>
</svg>
