<?xml version="1.0" encoding="utf-8" standalone="no"?>
<!DOCTYPE svg PUBLIC "-//W3C//DTD SVG 1.1//EN"
  "http://www.w3.org/Graphics/SVG/1.1/DTD/svg11.dtd">
<svg xmlns:xlink="http://www.w3.org/1999/xlink" width="492.16625pt" height="414.28625pt" viewBox="0 0 492.16625 414.28625" xmlns="http://www.w3.org/2000/svg" version="1.1">
 <metadata>
  <rdf:RDF xmlns:dc="http://purl.org/dc/elements/1.1/" xmlns:cc="http://creativecommons.org/ns#" xmlns:rdf="http://www.w3.org/1999/02/22-rdf-syntax-ns#">
   <cc:Work>
    <dc:type rdf:resource="http://purl.org/dc/dcmitype/StillImage"/>
    <dc:date>2023-05-03T11:15:08.073632</dc:date>
    <dc:format>image/svg+xml</dc:format>
    <dc:creator>
     <cc:Agent>
      <dc:title>Matplotlib v3.5.1, https://matplotlib.org/</dc:title>
     </cc:Agent>
    </dc:creator>
   </cc:Work>
  </rdf:RDF>
 </metadata>
 <defs>
  <style type="text/css">*{stroke-linejoin: round; stroke-linecap: butt}</style>
 </defs>
 <g id="figure_1">
  <g id="patch_1">
   <path d="M 0 414.28625 
L 492.16625 414.28625 
L 492.16625 0 
L 0 0 
L 0 414.28625 
z
" style="fill: none"/>
  </g>
  <g id="axes_1">
   <g id="patch_2">
    <path d="M 87.16625 340.56 
L 477.76625 340.56 
L 477.76625 14.4 
L 87.16625 14.4 
z
" style="fill: #ffffff"/>
   </g>
   <g id="line2d_1">
    <path d="M 87.16625 340.56 
L 90.905838 340.56 
L 94.645427 340.56 
L 98.385015 340.56 
L 102.124603 340.56 
L 105.864192 340.56 
L 109.60378 340.56 
L 113.343368 340.56 
L 117.082957 340.56 
L 120.822545 340.56 
L 124.562133 340.56 
L 128.301722 340.56 
L 132.04131 340.56 
L 135.780898 340.56 
L 139.520486 340.56 
L 143.260075 339.536491 
L 146.999663 332.490679 
L 150.739251 316.310293 
L 154.47884 300.571427 
L 158.218428 285.707404 
L 161.958016 271.879054 
L 165.697605 259.089764 
L 169.437193 247.270149 
L 173.176781 236.326453 
L 176.91637 226.163523 
L 180.655958 216.69402 
L 184.395546 207.841097 
L 188.135135 199.538332 
L 191.874723 191.728646 
L 195.614311 184.363011 
L 199.3539 177.399199 
L 203.093488 170.8007 
L 206.833076 164.535804 
L 210.572665 158.576838 
L 214.312253 152.899543 
L 218.051841 147.482554 
L 221.79143 142.306971 
L 225.531018 137.356007 
L 229.270606 132.614695 
L 233.010194 128.069635 
L 236.749783 123.708792 
L 240.489371 119.521322 
L 244.228959 115.497419 
L 247.968548 111.628193 
L 251.708136 107.905562 
L 255.447724 104.322157 
L 259.187313 100.871243 
L 262.926901 97.546652 
L 266.666489 94.342723 
L 270.406078 91.254245 
L 274.145666 88.276417 
L 277.885254 85.404806 
L 281.624843 82.63531 
L 285.364431 79.964131 
L 289.104019 77.387743 
L 292.843608 74.902869 
L 296.583196 72.506462 
L 300.322784 70.195683 
L 304.062373 67.967884 
L 307.801961 65.820593 
L 311.541549 63.7515 
L 315.281138 61.758443 
L 319.020726 59.839402 
L 322.760314 57.992481 
L 326.499902 56.215906 
L 330.239491 54.508012 
L 333.979079 52.867238 
L 337.718667 51.292118 
L 341.458256 49.781277 
L 345.197844 48.333425 
L 348.937432 46.947349 
L 352.677021 45.621912 
L 356.416609 44.356048 
L 360.156197 43.148755 
L 363.895786 41.999096 
L 367.635374 40.906191 
L 371.374962 39.869218 
L 375.114551 38.887408 
L 378.854139 37.960043 
L 382.593727 37.086454 
L 386.333316 36.266019 
L 390.072904 35.498159 
L 393.812492 34.78234 
L 397.552081 34.118067 
L 401.291669 33.504888 
L 405.031257 32.942388 
L 408.770846 32.430187 
L 412.510434 31.967946 
L 416.250022 31.555358 
L 419.98961 31.192152 
L 423.729199 30.878089 
L 427.468787 30.612965 
L 431.208375 30.396607 
L 434.947964 30.228877 
L 438.687552 30.109665 
L 442.42714 30.038895 
" clip-path="url(#p411598d04e)" style="fill: none; stroke: #ff0000; stroke-width: 3; stroke-linecap: square"/>
   </g>
   <g id="matplotlib.axis_1">
    <g id="xtick_1">
     <g id="line2d_2">
      <path d="M 87.16625 340.56 
L 87.16625 14.4 
" clip-path="url(#p411598d04e)" style="fill: none; stroke: #ffffff; stroke-width: 0.8; stroke-linecap: square"/>
     </g>
     <g id="line2d_3">
      <defs>
       <path id="md28363cb16" d="M 0 0 
L 0 -6 
" style="stroke: #000000; stroke-width: 2"/>
      </defs>
      <g>
       <use xlink:href="#md28363cb16" x="87.16625" y="340.56" style="stroke: #000000; stroke-width: 2"/>
      </g>
     </g>
     <g id="text_1">
      <!-- 0 -->
      <g transform="translate(79.53125 363.79625)scale(0.24 -0.24)">
       <defs>
        <path id="DejaVuSans-30" d="M 2034 4250 
Q 1547 4250 1301 3770 
Q 1056 3291 1056 2328 
Q 1056 1369 1301 889 
Q 1547 409 2034 409 
Q 2525 409 2770 889 
Q 3016 1369 3016 2328 
Q 3016 3291 2770 3770 
Q 2525 4250 2034 4250 
z
M 2034 4750 
Q 2819 4750 3233 4129 
Q 3647 3509 3647 2328 
Q 3647 1150 3233 529 
Q 2819 -91 2034 -91 
Q 1250 -91 836 529 
Q 422 1150 422 2328 
Q 422 3509 836 4129 
Q 1250 4750 2034 4750 
z
" transform="scale(0.015625)"/>
       </defs>
       <use xlink:href="#DejaVuSans-30"/>
      </g>
     </g>
    </g>
    <g id="xtick_2">
     <g id="line2d_4">
      <path d="M 206.833076 340.56 
L 206.833076 14.4 
" clip-path="url(#p411598d04e)" style="fill: none; stroke: #ffffff; stroke-width: 0.8; stroke-linecap: square"/>
     </g>
     <g id="line2d_5">
      <g>
       <use xlink:href="#md28363cb16" x="206.833076" y="340.56" style="stroke: #000000; stroke-width: 2"/>
      </g>
     </g>
     <g id="text_2">
      <!-- 1 -->
      <g transform="translate(199.198076 363.79625)scale(0.24 -0.24)">
       <defs>
        <path id="DejaVuSans-31" d="M 794 531 
L 1825 531 
L 1825 4091 
L 703 3866 
L 703 4441 
L 1819 4666 
L 2450 4666 
L 2450 531 
L 3481 531 
L 3481 0 
L 794 0 
L 794 531 
z
" transform="scale(0.015625)"/>
       </defs>
       <use xlink:href="#DejaVuSans-31"/>
      </g>
     </g>
    </g>
    <g id="xtick_3">
     <g id="line2d_6">
      <path d="M 326.499902 340.56 
L 326.499902 14.4 
" clip-path="url(#p411598d04e)" style="fill: none; stroke: #ffffff; stroke-width: 0.8; stroke-linecap: square"/>
     </g>
     <g id="line2d_7">
      <g>
       <use xlink:href="#md28363cb16" x="326.499902" y="340.56" style="stroke: #000000; stroke-width: 2"/>
      </g>
     </g>
     <g id="text_3">
      <!-- 2 -->
      <g transform="translate(318.864902 363.79625)scale(0.24 -0.24)">
       <defs>
        <path id="DejaVuSans-32" d="M 1228 531 
L 3431 531 
L 3431 0 
L 469 0 
L 469 531 
Q 828 903 1448 1529 
Q 2069 2156 2228 2338 
Q 2531 2678 2651 2914 
Q 2772 3150 2772 3378 
Q 2772 3750 2511 3984 
Q 2250 4219 1831 4219 
Q 1534 4219 1204 4116 
Q 875 4013 500 3803 
L 500 4441 
Q 881 4594 1212 4672 
Q 1544 4750 1819 4750 
Q 2544 4750 2975 4387 
Q 3406 4025 3406 3419 
Q 3406 3131 3298 2873 
Q 3191 2616 2906 2266 
Q 2828 2175 2409 1742 
Q 1991 1309 1228 531 
z
" transform="scale(0.015625)"/>
       </defs>
       <use xlink:href="#DejaVuSans-32"/>
      </g>
     </g>
    </g>
    <g id="xtick_4">
     <g id="line2d_8">
      <path d="M 446.166729 340.56 
L 446.166729 14.4 
" clip-path="url(#p411598d04e)" style="fill: none; stroke: #ffffff; stroke-width: 0.8; stroke-linecap: square"/>
     </g>
     <g id="line2d_9">
      <g>
       <use xlink:href="#md28363cb16" x="446.166729" y="340.56" style="stroke: #000000; stroke-width: 2"/>
      </g>
     </g>
     <g id="text_4">
      <!-- 3 -->
      <g transform="translate(438.531729 363.79625)scale(0.24 -0.24)">
       <defs>
        <path id="DejaVuSans-33" d="M 2597 2516 
Q 3050 2419 3304 2112 
Q 3559 1806 3559 1356 
Q 3559 666 3084 287 
Q 2609 -91 1734 -91 
Q 1441 -91 1130 -33 
Q 819 25 488 141 
L 488 750 
Q 750 597 1062 519 
Q 1375 441 1716 441 
Q 2309 441 2620 675 
Q 2931 909 2931 1356 
Q 2931 1769 2642 2001 
Q 2353 2234 1838 2234 
L 1294 2234 
L 1294 2753 
L 1863 2753 
Q 2328 2753 2575 2939 
Q 2822 3125 2822 3475 
Q 2822 3834 2567 4026 
Q 2313 4219 1838 4219 
Q 1578 4219 1281 4162 
Q 984 4106 628 3988 
L 628 4550 
Q 988 4650 1302 4700 
Q 1616 4750 1894 4750 
Q 2613 4750 3031 4423 
Q 3450 4097 3450 3541 
Q 3450 3153 3228 2886 
Q 3006 2619 2597 2516 
z
" transform="scale(0.015625)"/>
       </defs>
       <use xlink:href="#DejaVuSans-33"/>
      </g>
     </g>
    </g>
    <g id="text_5">
     <!-- $y/D$ -->
     <g transform="translate(258.66625 394.00625)scale(0.28 -0.28)">
      <defs>
       <path id="DejaVuSans-Oblique-79" d="M 1588 -325 
Q 1188 -997 936 -1164 
Q 684 -1331 294 -1331 
L -159 -1331 
L -63 -850 
L 269 -850 
Q 509 -850 678 -719 
Q 847 -588 1056 -206 
L 1234 128 
L 459 3500 
L 1069 3500 
L 1650 819 
L 3256 3500 
L 3859 3500 
L 1588 -325 
z
" transform="scale(0.015625)"/>
       <path id="DejaVuSans-2f" d="M 1625 4666 
L 2156 4666 
L 531 -594 
L 0 -594 
L 1625 4666 
z
" transform="scale(0.015625)"/>
       <path id="DejaVuSans-Oblique-44" d="M 1081 4666 
L 2438 4666 
Q 3519 4666 4070 4208 
Q 4622 3750 4622 2847 
Q 4622 2250 4412 1698 
Q 4203 1147 3834 769 
Q 3463 381 2891 190 
Q 2319 0 1538 0 
L 172 0 
L 1081 4666 
z
M 1613 4147 
L 909 519 
L 1734 519 
Q 2794 519 3375 1128 
Q 3956 1738 3956 2847 
Q 3956 3519 3581 3833 
Q 3206 4147 2406 4147 
L 1613 4147 
z
" transform="scale(0.015625)"/>
      </defs>
      <use xlink:href="#DejaVuSans-Oblique-79" transform="translate(0 0.09375)"/>
      <use xlink:href="#DejaVuSans-2f" transform="translate(59.179688 0.09375)"/>
      <use xlink:href="#DejaVuSans-Oblique-44" transform="translate(92.871094 0.09375)"/>
     </g>
    </g>
   </g>
   <g id="matplotlib.axis_2">
    <g id="ytick_1">
     <g id="line2d_10">
      <path d="M 87.16625 340.56 
L 477.76625 340.56 
" clip-path="url(#p411598d04e)" style="fill: none; stroke: #ffffff; stroke-width: 0.8; stroke-linecap: square"/>
     </g>
     <g id="line2d_11">
      <defs>
       <path id="m95c7a9d326" d="M 0 0 
L 6 0 
" style="stroke: #000000; stroke-width: 2"/>
      </defs>
      <g>
       <use xlink:href="#m95c7a9d326" x="87.16625" y="340.56" style="stroke: #000000; stroke-width: 2"/>
      </g>
     </g>
     <g id="text_6">
      <!-- 0.0 -->
      <g transform="translate(45.49875 349.678125)scale(0.24 -0.24)">
       <defs>
        <path id="DejaVuSans-2e" d="M 684 794 
L 1344 794 
L 1344 0 
L 684 0 
L 684 794 
z
" transform="scale(0.015625)"/>
       </defs>
       <use xlink:href="#DejaVuSans-30"/>
       <use xlink:href="#DejaVuSans-2e" x="63.623047"/>
       <use xlink:href="#DejaVuSans-30" x="95.410156"/>
      </g>
     </g>
    </g>
    <g id="ytick_2">
     <g id="line2d_12">
      <path d="M 87.16625 241.211512 
L 477.76625 241.211512 
" clip-path="url(#p411598d04e)" style="fill: none; stroke: #ffffff; stroke-width: 0.8; stroke-linecap: square"/>
     </g>
     <g id="line2d_13">
      <g>
       <use xlink:href="#m95c7a9d326" x="87.16625" y="241.211512" style="stroke: #000000; stroke-width: 2"/>
      </g>
     </g>
     <g id="text_7">
      <!-- 0.5 -->
      <g transform="translate(45.49875 250.329637)scale(0.24 -0.24)">
       <defs>
        <path id="DejaVuSans-35" d="M 691 4666 
L 3169 4666 
L 3169 4134 
L 1269 4134 
L 1269 2991 
Q 1406 3038 1543 3061 
Q 1681 3084 1819 3084 
Q 2600 3084 3056 2656 
Q 3513 2228 3513 1497 
Q 3513 744 3044 326 
Q 2575 -91 1722 -91 
Q 1428 -91 1123 -41 
Q 819 9 494 109 
L 494 744 
Q 775 591 1075 516 
Q 1375 441 1709 441 
Q 2250 441 2565 725 
Q 2881 1009 2881 1497 
Q 2881 1984 2565 2268 
Q 2250 2553 1709 2553 
Q 1456 2553 1204 2497 
Q 953 2441 691 2322 
L 691 4666 
z
" transform="scale(0.015625)"/>
       </defs>
       <use xlink:href="#DejaVuSans-30"/>
       <use xlink:href="#DejaVuSans-2e" x="63.623047"/>
       <use xlink:href="#DejaVuSans-35" x="95.410156"/>
      </g>
     </g>
    </g>
    <g id="ytick_3">
     <g id="line2d_14">
      <path d="M 87.16625 141.863024 
L 477.76625 141.863024 
" clip-path="url(#p411598d04e)" style="fill: none; stroke: #ffffff; stroke-width: 0.8; stroke-linecap: square"/>
     </g>
     <g id="line2d_15">
      <g>
       <use xlink:href="#m95c7a9d326" x="87.16625" y="141.863024" style="stroke: #000000; stroke-width: 2"/>
      </g>
     </g>
     <g id="text_8">
      <!-- 1.0 -->
      <g transform="translate(45.49875 150.981149)scale(0.24 -0.24)">
       <use xlink:href="#DejaVuSans-31"/>
       <use xlink:href="#DejaVuSans-2e" x="63.623047"/>
       <use xlink:href="#DejaVuSans-30" x="95.410156"/>
      </g>
     </g>
    </g>
    <g id="ytick_4">
     <g id="line2d_16">
      <path d="M 87.16625 42.514535 
L 477.76625 42.514535 
" clip-path="url(#p411598d04e)" style="fill: none; stroke: #ffffff; stroke-width: 0.8; stroke-linecap: square"/>
     </g>
     <g id="line2d_17">
      <g>
       <use xlink:href="#m95c7a9d326" x="87.16625" y="42.514535" style="stroke: #000000; stroke-width: 2"/>
      </g>
     </g>
     <g id="text_9">
      <!-- 1.5 -->
      <g transform="translate(45.49875 51.63266)scale(0.24 -0.24)">
       <use xlink:href="#DejaVuSans-31"/>
       <use xlink:href="#DejaVuSans-2e" x="63.623047"/>
       <use xlink:href="#DejaVuSans-35" x="95.410156"/>
      </g>
     </g>
    </g>
    <g id="text_10">
     <!-- $u_x/u_0$ -->
     <g transform="translate(35.675625 212.76)rotate(-90)scale(0.28 -0.28)">
      <defs>
       <path id="DejaVuSans-Oblique-75" d="M 428 1388 
L 838 3500 
L 1416 3500 
L 1006 1409 
Q 975 1256 961 1147 
Q 947 1038 947 966 
Q 947 700 1109 554 
Q 1272 409 1569 409 
Q 2031 409 2368 721 
Q 2706 1034 2809 1563 
L 3194 3500 
L 3769 3500 
L 3091 0 
L 2516 0 
L 2631 550 
Q 2388 244 2052 76 
Q 1716 -91 1338 -91 
Q 878 -91 622 161 
Q 366 413 366 863 
Q 366 956 381 1097 
Q 397 1238 428 1388 
z
" transform="scale(0.015625)"/>
       <path id="DejaVuSans-Oblique-78" d="M 3841 3500 
L 2234 1784 
L 3219 0 
L 2559 0 
L 1819 1388 
L 531 0 
L -166 0 
L 1556 1844 
L 641 3500 
L 1300 3500 
L 1972 2234 
L 3144 3500 
L 3841 3500 
z
" transform="scale(0.015625)"/>
      </defs>
      <use xlink:href="#DejaVuSans-Oblique-75" transform="translate(0 0.09375)"/>
      <use xlink:href="#DejaVuSans-Oblique-78" transform="translate(63.378906 -16.3125)scale(0.7)"/>
      <use xlink:href="#DejaVuSans-2f" transform="translate(107.539062 0.09375)"/>
      <use xlink:href="#DejaVuSans-Oblique-75" transform="translate(141.230469 0.09375)"/>
      <use xlink:href="#DejaVuSans-30" transform="translate(204.609375 -16.3125)scale(0.7)"/>
     </g>
    </g>
   </g>
   <g id="line2d_18">
    <defs>
     <path id="m287d267a4b" d="M -6 6 
L 6 6 
L 6 -6 
L -6 -6 
z
" style="stroke: #3b528b; stroke-width: 1.5; stroke-linejoin: miter"/>
    </defs>
    <g clip-path="url(#p411598d04e)">
     <use xlink:href="#m287d267a4b" x="-1" y="221.882252" style="fill-opacity: 0; stroke: #3b528b; stroke-width: 1.5; stroke-linejoin: miter"/>
     <use xlink:href="#m287d267a4b" x="4.895307" y="234.500667" style="fill-opacity: 0; stroke: #3b528b; stroke-width: 1.5; stroke-linejoin: miter"/>
     <use xlink:href="#m287d267a4b" x="27.332837" y="315.400926" style="fill-opacity: 0; stroke: #3b528b; stroke-width: 1.5; stroke-linejoin: miter"/>
     <use xlink:href="#m287d267a4b" x="49.770367" y="340.545586" style="fill-opacity: 0; stroke: #3b528b; stroke-width: 1.5; stroke-linejoin: miter"/>
     <use xlink:href="#m287d267a4b" x="72.207897" y="341.997615" style="fill-opacity: 0; stroke: #3b528b; stroke-width: 1.5; stroke-linejoin: miter"/>
     <use xlink:href="#m287d267a4b" x="94.645427" y="342.170406" style="fill-opacity: 0; stroke: #3b528b; stroke-width: 1.5; stroke-linejoin: miter"/>
     <use xlink:href="#m287d267a4b" x="117.082957" y="341.686031" style="fill-opacity: 0; stroke: #3b528b; stroke-width: 1.5; stroke-linejoin: miter"/>
     <use xlink:href="#m287d267a4b" x="139.520486" y="340.562714" style="fill-opacity: 0; stroke: #3b528b; stroke-width: 1.5; stroke-linejoin: miter"/>
     <use xlink:href="#m287d267a4b" x="161.958016" y="255.879436" style="fill-opacity: 0; stroke: #3b528b; stroke-width: 1.5; stroke-linejoin: miter"/>
     <use xlink:href="#m287d267a4b" x="184.395546" y="200.345645" style="fill-opacity: 0; stroke: #3b528b; stroke-width: 1.5; stroke-linejoin: miter"/>
     <use xlink:href="#m287d267a4b" x="206.833076" y="162.969281" style="fill-opacity: 0; stroke: #3b528b; stroke-width: 1.5; stroke-linejoin: miter"/>
     <use xlink:href="#m287d267a4b" x="229.270606" y="135.117763" style="fill-opacity: 0; stroke: #3b528b; stroke-width: 1.5; stroke-linejoin: miter"/>
     <use xlink:href="#m287d267a4b" x="251.708136" y="113.404306" style="fill-opacity: 0; stroke: #3b528b; stroke-width: 1.5; stroke-linejoin: miter"/>
     <use xlink:href="#m287d267a4b" x="274.145666" y="96.062315" style="fill-opacity: 0; stroke: #3b528b; stroke-width: 1.5; stroke-linejoin: miter"/>
     <use xlink:href="#m287d267a4b" x="296.583196" y="82.065662" style="fill-opacity: 0; stroke: #3b528b; stroke-width: 1.5; stroke-linejoin: miter"/>
     <use xlink:href="#m287d267a4b" x="319.020726" y="70.77885" style="fill-opacity: 0; stroke: #3b528b; stroke-width: 1.5; stroke-linejoin: miter"/>
     <use xlink:href="#m287d267a4b" x="341.458256" y="61.780552" style="fill-opacity: 0; stroke: #3b528b; stroke-width: 1.5; stroke-linejoin: miter"/>
     <use xlink:href="#m287d267a4b" x="363.895786" y="54.805222" style="fill-opacity: 0; stroke: #3b528b; stroke-width: 1.5; stroke-linejoin: miter"/>
     <use xlink:href="#m287d267a4b" x="386.333316" y="49.671515" style="fill-opacity: 0; stroke: #3b528b; stroke-width: 1.5; stroke-linejoin: miter"/>
     <use xlink:href="#m287d267a4b" x="408.770846" y="46.233822" style="fill-opacity: 0; stroke: #3b528b; stroke-width: 1.5; stroke-linejoin: miter"/>
     <use xlink:href="#m287d267a4b" x="431.208375" y="44.405589" style="fill-opacity: 0; stroke: #3b528b; stroke-width: 1.5; stroke-linejoin: miter"/>
    </g>
   </g>
   <g id="line2d_19">
    <defs>
     <path id="md072895c59" d="M 0 6 
C 1.591219 6 3.117479 5.367802 4.242641 4.242641 
C 5.367802 3.117479 6 1.591219 6 0 
C 6 -1.591219 5.367802 -3.117479 4.242641 -4.242641 
C 3.117479 -5.367802 1.591219 -6 0 -6 
C -1.591219 -6 -3.117479 -5.367802 -4.242641 -4.242641 
C -5.367802 -3.117479 -6 -1.591219 -6 0 
C -6 1.591219 -5.367802 3.117479 -4.242641 4.242641 
C -3.117479 5.367802 -1.591219 6 0 6 
z
" style="stroke: #3b528b; stroke-width: 1.5"/>
    </defs>
    <g clip-path="url(#p411598d04e)">
     <use xlink:href="#md072895c59" x="-1" y="227.727051" style="fill-opacity: 0; stroke: #3b528b; stroke-width: 1.5"/>
     <use xlink:href="#md072895c59" x="4.895307" y="241.178388" style="fill-opacity: 0; stroke: #3b528b; stroke-width: 1.5"/>
     <use xlink:href="#md072895c59" x="27.332837" y="327.392169" style="fill-opacity: 0; stroke: #3b528b; stroke-width: 1.5"/>
     <use xlink:href="#md072895c59" x="49.770367" y="341.931424" style="fill-opacity: 0; stroke: #3b528b; stroke-width: 1.5"/>
     <use xlink:href="#md072895c59" x="72.207897" y="342.680938" style="fill-opacity: 0; stroke: #3b528b; stroke-width: 1.5"/>
     <use xlink:href="#md072895c59" x="94.645427" y="342.739064" style="fill-opacity: 0; stroke: #3b528b; stroke-width: 1.5"/>
     <use xlink:href="#md072895c59" x="117.082957" y="342.199048" style="fill-opacity: 0; stroke: #3b528b; stroke-width: 1.5"/>
     <use xlink:href="#md072895c59" x="139.520486" y="340.562414" style="fill-opacity: 0; stroke: #3b528b; stroke-width: 1.5"/>
     <use xlink:href="#md072895c59" x="161.958016" y="264.099813" style="fill-opacity: 0; stroke: #3b528b; stroke-width: 1.5"/>
     <use xlink:href="#md072895c59" x="184.395546" y="204.763843" style="fill-opacity: 0; stroke: #3b528b; stroke-width: 1.5"/>
     <use xlink:href="#md072895c59" x="206.833076" y="165.064853" style="fill-opacity: 0; stroke: #3b528b; stroke-width: 1.5"/>
     <use xlink:href="#md072895c59" x="229.270606" y="135.649242" style="fill-opacity: 0; stroke: #3b528b; stroke-width: 1.5"/>
     <use xlink:href="#md072895c59" x="251.708136" y="112.792574" style="fill-opacity: 0; stroke: #3b528b; stroke-width: 1.5"/>
     <use xlink:href="#md072895c59" x="274.145666" y="94.576668" style="fill-opacity: 0; stroke: #3b528b; stroke-width: 1.5"/>
     <use xlink:href="#md072895c59" x="296.583196" y="79.877448" style="fill-opacity: 0; stroke: #3b528b; stroke-width: 1.5"/>
     <use xlink:href="#md072895c59" x="319.020726" y="67.995091" style="fill-opacity: 0; stroke: #3b528b; stroke-width: 1.5"/>
     <use xlink:href="#md072895c59" x="341.458256" y="58.568635" style="fill-opacity: 0; stroke: #3b528b; stroke-width: 1.5"/>
     <use xlink:href="#md072895c59" x="363.895786" y="51.28922" style="fill-opacity: 0; stroke: #3b528b; stroke-width: 1.5"/>
     <use xlink:href="#md072895c59" x="386.333316" y="45.927152" style="fill-opacity: 0; stroke: #3b528b; stroke-width: 1.5"/>
     <use xlink:href="#md072895c59" x="408.770846" y="42.334373" style="fill-opacity: 0; stroke: #3b528b; stroke-width: 1.5"/>
     <use xlink:href="#md072895c59" x="431.208375" y="40.423695" style="fill-opacity: 0; stroke: #3b528b; stroke-width: 1.5"/>
    </g>
   </g>
   <g id="patch_3">
    <path d="M 87.16625 340.56 
L 87.16625 14.4 
" style="fill: none; stroke: #000000; stroke-width: 2; stroke-linejoin: miter; stroke-linecap: square"/>
   </g>
   <g id="patch_4">
    <path d="M 477.76625 340.56 
L 477.76625 14.4 
" style="fill: none; stroke: #000000; stroke-width: 2; stroke-linejoin: miter; stroke-linecap: square"/>
   </g>
   <g id="patch_5">
    <path d="M 87.16625 340.56 
L 477.76625 340.56 
" style="fill: none; stroke: #000000; stroke-width: 2; stroke-linejoin: miter; stroke-linecap: square"/>
   </g>
   <g id="patch_6">
    <path d="M 87.16625 14.4 
L 477.76625 14.4 
" style="fill: none; stroke: #000000; stroke-width: 2; stroke-linejoin: miter; stroke-linecap: square"/>
   </g>
   <g id="legend_1">
    <g id="patch_7">
     <path d="M 276.725 328.56 
L 460.96625 328.56 
Q 465.76625 328.56 465.76625 323.76 
L 465.76625 191.7537 
Q 465.76625 186.9537 460.96625 186.9537 
L 276.725 186.9537 
Q 271.925 186.9537 271.925 191.7537 
L 271.925 323.76 
Q 271.925 328.56 276.725 328.56 
z
" style="fill: #ffffff; opacity: 0.8; stroke: #cccccc; stroke-linejoin: miter"/>
    </g>
    <g id="text_11">
     <!-- $D/\Delta x$ -->
     <g transform="translate(348.196025 209.6838)scale(0.1728 -0.1728)">
      <defs>
       <path id="DejaVuSans-394" d="M 2188 4044 
L 906 525 
L 3472 525 
L 2188 4044 
z
M 50 0 
L 1831 4666 
L 2547 4666 
L 4325 0 
L 50 0 
z
" transform="scale(0.015625)"/>
      </defs>
      <use xlink:href="#DejaVuSans-Oblique-44" transform="translate(0 0.09375)"/>
      <use xlink:href="#DejaVuSans-2f" transform="translate(77.001953 0.09375)"/>
      <use xlink:href="#DejaVuSans-394" transform="translate(110.693359 0.09375)"/>
      <use xlink:href="#DejaVuSans-Oblique-78" transform="translate(179.101562 0.09375)"/>
     </g>
    </g>
    <g id="line2d_20">
     <g>
      <use xlink:href="#m287d267a4b" x="305.525" y="235.11375" style="fill-opacity: 0; stroke: #3b528b; stroke-width: 1.5; stroke-linejoin: miter"/>
     </g>
    </g>
    <g id="text_12">
     <!-- 16.0 -->
     <g transform="translate(348.725 243.51375)scale(0.24 -0.24)">
      <defs>
       <path id="DejaVuSans-36" d="M 2113 2584 
Q 1688 2584 1439 2293 
Q 1191 2003 1191 1497 
Q 1191 994 1439 701 
Q 1688 409 2113 409 
Q 2538 409 2786 701 
Q 3034 994 3034 1497 
Q 3034 2003 2786 2293 
Q 2538 2584 2113 2584 
z
M 3366 4563 
L 3366 3988 
Q 3128 4100 2886 4159 
Q 2644 4219 2406 4219 
Q 1781 4219 1451 3797 
Q 1122 3375 1075 2522 
Q 1259 2794 1537 2939 
Q 1816 3084 2150 3084 
Q 2853 3084 3261 2657 
Q 3669 2231 3669 1497 
Q 3669 778 3244 343 
Q 2819 -91 2113 -91 
Q 1303 -91 875 529 
Q 447 1150 447 2328 
Q 447 3434 972 4092 
Q 1497 4750 2381 4750 
Q 2619 4750 2861 4703 
Q 3103 4656 3366 4563 
z
" transform="scale(0.015625)"/>
      </defs>
      <use xlink:href="#DejaVuSans-31"/>
      <use xlink:href="#DejaVuSans-36" x="63.623047"/>
      <use xlink:href="#DejaVuSans-2e" x="127.246094"/>
      <use xlink:href="#DejaVuSans-30" x="159.033203"/>
     </g>
    </g>
    <g id="line2d_21">
     <g>
      <use xlink:href="#md072895c59" x="305.525" y="270.34125" style="fill-opacity: 0; stroke: #3b528b; stroke-width: 1.5"/>
     </g>
    </g>
    <g id="text_13">
     <!-- 32.0 -->
     <g transform="translate(348.725 278.74125)scale(0.24 -0.24)">
      <use xlink:href="#DejaVuSans-33"/>
      <use xlink:href="#DejaVuSans-32" x="63.623047"/>
      <use xlink:href="#DejaVuSans-2e" x="127.246094"/>
      <use xlink:href="#DejaVuSans-30" x="159.033203"/>
     </g>
    </g>
    <g id="line2d_22">
     <path d="M 281.525 305.56875 
L 305.525 305.56875 
L 329.525 305.56875 
" style="fill: none; stroke: #ff0000; stroke-width: 3; stroke-linecap: square"/>
    </g>
    <g id="text_14">
     <!-- 40 (LBM) -->
     <g transform="translate(348.725 313.96875)scale(0.24 -0.24)">
      <defs>
       <path id="DejaVuSans-34" d="M 2419 4116 
L 825 1625 
L 2419 1625 
L 2419 4116 
z
M 2253 4666 
L 3047 4666 
L 3047 1625 
L 3713 1625 
L 3713 1100 
L 3047 1100 
L 3047 0 
L 2419 0 
L 2419 1100 
L 313 1100 
L 313 1709 
L 2253 4666 
z
" transform="scale(0.015625)"/>
       <path id="DejaVuSans-20" transform="scale(0.015625)"/>
       <path id="DejaVuSans-28" d="M 1984 4856 
Q 1566 4138 1362 3434 
Q 1159 2731 1159 2009 
Q 1159 1288 1364 580 
Q 1569 -128 1984 -844 
L 1484 -844 
Q 1016 -109 783 600 
Q 550 1309 550 2009 
Q 550 2706 781 3412 
Q 1013 4119 1484 4856 
L 1984 4856 
z
" transform="scale(0.015625)"/>
       <path id="DejaVuSans-4c" d="M 628 4666 
L 1259 4666 
L 1259 531 
L 3531 531 
L 3531 0 
L 628 0 
L 628 4666 
z
" transform="scale(0.015625)"/>
       <path id="DejaVuSans-42" d="M 1259 2228 
L 1259 519 
L 2272 519 
Q 2781 519 3026 730 
Q 3272 941 3272 1375 
Q 3272 1813 3026 2020 
Q 2781 2228 2272 2228 
L 1259 2228 
z
M 1259 4147 
L 1259 2741 
L 2194 2741 
Q 2656 2741 2882 2914 
Q 3109 3088 3109 3444 
Q 3109 3797 2882 3972 
Q 2656 4147 2194 4147 
L 1259 4147 
z
M 628 4666 
L 2241 4666 
Q 2963 4666 3353 4366 
Q 3744 4066 3744 3513 
Q 3744 3084 3544 2831 
Q 3344 2578 2956 2516 
Q 3422 2416 3680 2098 
Q 3938 1781 3938 1306 
Q 3938 681 3513 340 
Q 3088 0 2303 0 
L 628 0 
L 628 4666 
z
" transform="scale(0.015625)"/>
       <path id="DejaVuSans-4d" d="M 628 4666 
L 1569 4666 
L 2759 1491 
L 3956 4666 
L 4897 4666 
L 4897 0 
L 4281 0 
L 4281 4097 
L 3078 897 
L 2444 897 
L 1241 4097 
L 1241 0 
L 628 0 
L 628 4666 
z
" transform="scale(0.015625)"/>
       <path id="DejaVuSans-29" d="M 513 4856 
L 1013 4856 
Q 1481 4119 1714 3412 
Q 1947 2706 1947 2009 
Q 1947 1309 1714 600 
Q 1481 -109 1013 -844 
L 513 -844 
Q 928 -128 1133 580 
Q 1338 1288 1338 2009 
Q 1338 2731 1133 3434 
Q 928 4138 513 4856 
z
" transform="scale(0.015625)"/>
      </defs>
      <use xlink:href="#DejaVuSans-34"/>
      <use xlink:href="#DejaVuSans-30" x="63.623047"/>
      <use xlink:href="#DejaVuSans-20" x="127.246094"/>
      <use xlink:href="#DejaVuSans-28" x="159.033203"/>
      <use xlink:href="#DejaVuSans-4c" x="198.046875"/>
      <use xlink:href="#DejaVuSans-42" x="253.759766"/>
      <use xlink:href="#DejaVuSans-4d" x="322.363281"/>
      <use xlink:href="#DejaVuSans-29" x="408.642578"/>
     </g>
    </g>
   </g>
  </g>
 </g>
 <defs>
  <clipPath id="p411598d04e">
   <rect x="87.16625" y="14.4" width="390.6" height="326.16"/>
  </clipPath>
 </defs>
</svg>
