<?xml version="1.0" encoding="utf-8" standalone="no"?>
<!DOCTYPE svg PUBLIC "-//W3C//DTD SVG 1.1//EN"
  "http://www.w3.org/Graphics/SVG/1.1/DTD/svg11.dtd">
<svg xmlns:xlink="http://www.w3.org/1999/xlink" width="507.354375pt" height="435.532829pt" viewBox="0 0 507.354375 435.532829" xmlns="http://www.w3.org/2000/svg" version="1.1">
 <metadata>
  <rdf:RDF xmlns:dc="http://purl.org/dc/elements/1.1/" xmlns:cc="http://creativecommons.org/ns#" xmlns:rdf="http://www.w3.org/1999/02/22-rdf-syntax-ns#">
   <cc:Work>
    <dc:type rdf:resource="http://purl.org/dc/dcmitype/StillImage"/>
    <dc:date>2022-10-25T13:27:54.571973</dc:date>
    <dc:format>image/svg+xml</dc:format>
    <dc:creator>
     <cc:Agent>
      <dc:title>Matplotlib v3.5.1, https://matplotlib.org/</dc:title>
     </cc:Agent>
    </dc:creator>
   </cc:Work>
  </rdf:RDF>
 </metadata>
 <defs>
  <style type="text/css">*{stroke-linejoin: round; stroke-linecap: butt}</style>
 </defs>
 <g id="figure_1">
  <g id="patch_1">
   <path d="M 0 435.532829 
L 507.354375 435.532829 
L 507.354375 0 
L 0 0 
L 0 435.532829 
z
" style="fill: none"/>
  </g>
  <g id="axes_1">
   <g id="patch_2">
    <path d="M 105.74 361.806579 
L 492.954375 361.806579 
L 492.954375 23.203918 
L 105.74 23.203918 
z
" style="fill: #ffffff"/>
   </g>
   <g id="matplotlib.axis_1">
    <g id="xtick_1">
     <g id="line2d_1">
      <defs>
       <path id="m9f63050757" d="M 0 0 
L 0 -6 
" style="stroke: #000000; stroke-width: 2"/>
      </defs>
      <g>
       <use xlink:href="#m9f63050757" x="123.340653" y="361.806579" style="stroke: #000000; stroke-width: 2"/>
      </g>
     </g>
     <g id="text_1">
      <!-- 0.0000 -->
      <g transform="translate(81.351903 385.042829)scale(0.24 -0.24)">
       <defs>
        <path id="DejaVuSans-30" d="M 2034 4250 
Q 1547 4250 1301 3770 
Q 1056 3291 1056 2328 
Q 1056 1369 1301 889 
Q 1547 409 2034 409 
Q 2525 409 2770 889 
Q 3016 1369 3016 2328 
Q 3016 3291 2770 3770 
Q 2525 4250 2034 4250 
z
M 2034 4750 
Q 2819 4750 3233 4129 
Q 3647 3509 3647 2328 
Q 3647 1150 3233 529 
Q 2819 -91 2034 -91 
Q 1250 -91 836 529 
Q 422 1150 422 2328 
Q 422 3509 836 4129 
Q 1250 4750 2034 4750 
z
" transform="scale(0.015625)"/>
        <path id="DejaVuSans-2e" d="M 684 794 
L 1344 794 
L 1344 0 
L 684 0 
L 684 794 
z
" transform="scale(0.015625)"/>
       </defs>
       <use xlink:href="#DejaVuSans-30"/>
       <use xlink:href="#DejaVuSans-2e" x="63.623047"/>
       <use xlink:href="#DejaVuSans-30" x="95.410156"/>
       <use xlink:href="#DejaVuSans-30" x="159.033203"/>
       <use xlink:href="#DejaVuSans-30" x="222.65625"/>
       <use xlink:href="#DejaVuSans-30" x="286.279297"/>
      </g>
     </g>
    </g>
    <g id="xtick_2">
     <g id="line2d_2">
      <g>
       <use xlink:href="#m9f63050757" x="266.2031" y="361.806579" style="stroke: #000000; stroke-width: 2"/>
      </g>
     </g>
     <g id="text_2">
      <!-- 0.0005 -->
      <g transform="translate(224.21435 385.042829)scale(0.24 -0.24)">
       <defs>
        <path id="DejaVuSans-35" d="M 691 4666 
L 3169 4666 
L 3169 4134 
L 1269 4134 
L 1269 2991 
Q 1406 3038 1543 3061 
Q 1681 3084 1819 3084 
Q 2600 3084 3056 2656 
Q 3513 2228 3513 1497 
Q 3513 744 3044 326 
Q 2575 -91 1722 -91 
Q 1428 -91 1123 -41 
Q 819 9 494 109 
L 494 744 
Q 775 591 1075 516 
Q 1375 441 1709 441 
Q 2250 441 2565 725 
Q 2881 1009 2881 1497 
Q 2881 1984 2565 2268 
Q 2250 2553 1709 2553 
Q 1456 2553 1204 2497 
Q 953 2441 691 2322 
L 691 4666 
z
" transform="scale(0.015625)"/>
       </defs>
       <use xlink:href="#DejaVuSans-30"/>
       <use xlink:href="#DejaVuSans-2e" x="63.623047"/>
       <use xlink:href="#DejaVuSans-30" x="95.410156"/>
       <use xlink:href="#DejaVuSans-30" x="159.033203"/>
       <use xlink:href="#DejaVuSans-30" x="222.65625"/>
       <use xlink:href="#DejaVuSans-35" x="286.279297"/>
      </g>
     </g>
    </g>
    <g id="xtick_3">
     <g id="line2d_3">
      <g>
       <use xlink:href="#m9f63050757" x="409.065546" y="361.806579" style="stroke: #000000; stroke-width: 2"/>
      </g>
     </g>
     <g id="text_3">
      <!-- 0.0010 -->
      <g transform="translate(367.076796 385.042829)scale(0.24 -0.24)">
       <defs>
        <path id="DejaVuSans-31" d="M 794 531 
L 1825 531 
L 1825 4091 
L 703 3866 
L 703 4441 
L 1819 4666 
L 2450 4666 
L 2450 531 
L 3481 531 
L 3481 0 
L 794 0 
L 794 531 
z
" transform="scale(0.015625)"/>
       </defs>
       <use xlink:href="#DejaVuSans-30"/>
       <use xlink:href="#DejaVuSans-2e" x="63.623047"/>
       <use xlink:href="#DejaVuSans-30" x="95.410156"/>
       <use xlink:href="#DejaVuSans-30" x="159.033203"/>
       <use xlink:href="#DejaVuSans-31" x="222.65625"/>
       <use xlink:href="#DejaVuSans-30" x="286.279297"/>
      </g>
     </g>
    </g>
    <g id="text_4">
     <!-- $tU/L$ -->
     <g transform="translate(271.067187 415.309704)scale(0.28 -0.28)">
      <defs>
       <path id="DejaVuSans-Oblique-74" d="M 2706 3500 
L 2619 3053 
L 1472 3053 
L 1100 1153 
Q 1081 1047 1072 975 
Q 1063 903 1063 863 
Q 1063 663 1183 572 
Q 1303 481 1569 481 
L 2150 481 
L 2053 0 
L 1503 0 
Q 991 0 739 200 
Q 488 400 488 806 
Q 488 878 497 964 
Q 506 1050 525 1153 
L 897 3053 
L 409 3053 
L 500 3500 
L 978 3500 
L 1172 4494 
L 1747 4494 
L 1556 3500 
L 2706 3500 
z
" transform="scale(0.015625)"/>
       <path id="DejaVuSans-Oblique-55" d="M 991 4666 
L 1625 4666 
L 1075 1831 
Q 1041 1641 1027 1517 
Q 1013 1394 1013 1300 
Q 1013 869 1253 645 
Q 1494 422 1959 422 
Q 2563 422 2898 753 
Q 3234 1084 3378 1831 
L 3928 4666 
L 4563 4666 
L 4000 1753 
Q 3816 809 3300 359 
Q 2784 -91 1888 -91 
Q 1188 -91 780 261 
Q 372 613 372 1216 
Q 372 1325 387 1461 
Q 403 1597 434 1753 
L 991 4666 
z
" transform="scale(0.015625)"/>
       <path id="DejaVuSans-2f" d="M 1625 4666 
L 2156 4666 
L 531 -594 
L 0 -594 
L 1625 4666 
z
" transform="scale(0.015625)"/>
       <path id="DejaVuSans-Oblique-4c" d="M 1075 4666 
L 1709 4666 
L 909 525 
L 3181 525 
L 3078 0 
L 172 0 
L 1075 4666 
z
" transform="scale(0.015625)"/>
      </defs>
      <use xlink:href="#DejaVuSans-Oblique-74" transform="translate(0 0.09375)"/>
      <use xlink:href="#DejaVuSans-Oblique-55" transform="translate(39.208984 0.09375)"/>
      <use xlink:href="#DejaVuSans-2f" transform="translate(112.402344 0.09375)"/>
      <use xlink:href="#DejaVuSans-Oblique-4c" transform="translate(146.09375 0.09375)"/>
     </g>
    </g>
   </g>
   <g id="matplotlib.axis_2">
    <g id="ytick_1">
     <g id="line2d_4">
      <defs>
       <path id="m34a00fb975" d="M 0 0 
L 6 0 
" style="stroke: #000000; stroke-width: 2"/>
      </defs>
      <g>
       <use xlink:href="#m34a00fb975" x="105.74" y="328.709126" style="stroke: #000000; stroke-width: 2"/>
      </g>
     </g>
     <g id="text_5">
      <!-- $\mathdefault{10^{-1}}$ -->
      <g transform="translate(45.84 337.827251)scale(0.24 -0.24)">
       <defs>
        <path id="DejaVuSans-2212" d="M 678 2272 
L 4684 2272 
L 4684 1741 
L 678 1741 
L 678 2272 
z
" transform="scale(0.015625)"/>
       </defs>
       <use xlink:href="#DejaVuSans-31" transform="translate(0 0.684375)"/>
       <use xlink:href="#DejaVuSans-30" transform="translate(63.623047 0.684375)"/>
       <use xlink:href="#DejaVuSans-2212" transform="translate(128.203125 38.965625)scale(0.7)"/>
       <use xlink:href="#DejaVuSans-31" transform="translate(186.855469 38.965625)scale(0.7)"/>
      </g>
     </g>
    </g>
    <g id="ytick_2">
     <g id="line2d_5">
      <g>
       <use xlink:href="#m34a00fb975" x="105.74" y="176.113625" style="stroke: #000000; stroke-width: 2"/>
      </g>
     </g>
     <g id="text_6">
      <!-- $\mathdefault{10^{0}}$ -->
      <g transform="translate(60 185.23175)scale(0.24 -0.24)">
       <use xlink:href="#DejaVuSans-31" transform="translate(0 0.765625)"/>
       <use xlink:href="#DejaVuSans-30" transform="translate(63.623047 0.765625)"/>
       <use xlink:href="#DejaVuSans-30" transform="translate(128.203125 39.046875)scale(0.7)"/>
      </g>
     </g>
    </g>
    <g id="ytick_3">
     <g id="line2d_6">
      <g>
       <use xlink:href="#m34a00fb975" x="105.74" y="23.518125" style="stroke: #000000; stroke-width: 2"/>
      </g>
     </g>
     <g id="text_7">
      <!-- $\mathdefault{10^{1}}$ -->
      <g transform="translate(60 32.63625)scale(0.24 -0.24)">
       <use xlink:href="#DejaVuSans-31" transform="translate(0 0.684375)"/>
       <use xlink:href="#DejaVuSans-30" transform="translate(63.623047 0.684375)"/>
       <use xlink:href="#DejaVuSans-31" transform="translate(128.203125 38.965625)scale(0.7)"/>
      </g>
     </g>
    </g>
    <g id="ytick_4">
     <g id="line2d_7">
      <g>
       <use xlink:href="#m34a00fb975" x="105.74" y="352.346468" style="stroke: #000000; stroke-width: 2"/>
      </g>
     </g>
    </g>
    <g id="ytick_5">
     <g id="line2d_8">
      <g>
       <use xlink:href="#m34a00fb975" x="105.74" y="343.497158" style="stroke: #000000; stroke-width: 2"/>
      </g>
     </g>
    </g>
    <g id="ytick_6">
     <g id="line2d_9">
      <g>
       <use xlink:href="#m34a00fb975" x="105.74" y="335.691513" style="stroke: #000000; stroke-width: 2"/>
      </g>
     </g>
    </g>
    <g id="ytick_7">
     <g id="line2d_10">
      <g>
       <use xlink:href="#m34a00fb975" x="105.74" y="282.773303" style="stroke: #000000; stroke-width: 2"/>
      </g>
     </g>
    </g>
    <g id="ytick_8">
     <g id="line2d_11">
      <g>
       <use xlink:href="#m34a00fb975" x="105.74" y="255.902569" style="stroke: #000000; stroke-width: 2"/>
      </g>
     </g>
    </g>
    <g id="ytick_9">
     <g id="line2d_12">
      <g>
       <use xlink:href="#m34a00fb975" x="105.74" y="236.83748" style="stroke: #000000; stroke-width: 2"/>
      </g>
     </g>
    </g>
    <g id="ytick_10">
     <g id="line2d_13">
      <g>
       <use xlink:href="#m34a00fb975" x="105.74" y="222.049448" style="stroke: #000000; stroke-width: 2"/>
      </g>
     </g>
    </g>
    <g id="ytick_11">
     <g id="line2d_14">
      <g>
       <use xlink:href="#m34a00fb975" x="105.74" y="209.966746" style="stroke: #000000; stroke-width: 2"/>
      </g>
     </g>
    </g>
    <g id="ytick_12">
     <g id="line2d_15">
      <g>
       <use xlink:href="#m34a00fb975" x="105.74" y="199.750968" style="stroke: #000000; stroke-width: 2"/>
      </g>
     </g>
    </g>
    <g id="ytick_13">
     <g id="line2d_16">
      <g>
       <use xlink:href="#m34a00fb975" x="105.74" y="190.901657" style="stroke: #000000; stroke-width: 2"/>
      </g>
     </g>
    </g>
    <g id="ytick_14">
     <g id="line2d_17">
      <g>
       <use xlink:href="#m34a00fb975" x="105.74" y="183.096013" style="stroke: #000000; stroke-width: 2"/>
      </g>
     </g>
    </g>
    <g id="ytick_15">
     <g id="line2d_18">
      <g>
       <use xlink:href="#m34a00fb975" x="105.74" y="130.177803" style="stroke: #000000; stroke-width: 2"/>
      </g>
     </g>
    </g>
    <g id="ytick_16">
     <g id="line2d_19">
      <g>
       <use xlink:href="#m34a00fb975" x="105.74" y="103.307069" style="stroke: #000000; stroke-width: 2"/>
      </g>
     </g>
    </g>
    <g id="ytick_17">
     <g id="line2d_20">
      <g>
       <use xlink:href="#m34a00fb975" x="105.74" y="84.24198" style="stroke: #000000; stroke-width: 2"/>
      </g>
     </g>
    </g>
    <g id="ytick_18">
     <g id="line2d_21">
      <g>
       <use xlink:href="#m34a00fb975" x="105.74" y="69.453948" style="stroke: #000000; stroke-width: 2"/>
      </g>
     </g>
    </g>
    <g id="ytick_19">
     <g id="line2d_22">
      <g>
       <use xlink:href="#m34a00fb975" x="105.74" y="57.371246" style="stroke: #000000; stroke-width: 2"/>
      </g>
     </g>
    </g>
    <g id="ytick_20">
     <g id="line2d_23">
      <g>
       <use xlink:href="#m34a00fb975" x="105.74" y="47.155467" style="stroke: #000000; stroke-width: 2"/>
      </g>
     </g>
    </g>
    <g id="ytick_21">
     <g id="line2d_24">
      <g>
       <use xlink:href="#m34a00fb975" x="105.74" y="38.306157" style="stroke: #000000; stroke-width: 2"/>
      </g>
     </g>
    </g>
    <g id="ytick_22">
     <g id="line2d_25">
      <g>
       <use xlink:href="#m34a00fb975" x="105.74" y="30.500512" style="stroke: #000000; stroke-width: 2"/>
      </g>
     </g>
    </g>
    <g id="text_8">
     <!-- $E_k/E_{k,0}$ -->
     <g transform="translate(34.84 238.425248)rotate(-90)scale(0.28 -0.28)">
      <defs>
       <path id="DejaVuSans-Oblique-45" d="M 1081 4666 
L 4031 4666 
L 3928 4134 
L 1606 4134 
L 1338 2753 
L 3566 2753 
L 3463 2222 
L 1234 2222 
L 909 531 
L 3284 531 
L 3181 0 
L 172 0 
L 1081 4666 
z
" transform="scale(0.015625)"/>
       <path id="DejaVuSans-Oblique-6b" d="M 1172 4863 
L 1747 4863 
L 1197 2028 
L 3169 3500 
L 3916 3500 
L 1716 1825 
L 3322 0 
L 2625 0 
L 1131 1709 
L 800 0 
L 225 0 
L 1172 4863 
z
" transform="scale(0.015625)"/>
       <path id="DejaVuSans-2c" d="M 750 794 
L 1409 794 
L 1409 256 
L 897 -744 
L 494 -744 
L 750 256 
L 750 794 
z
" transform="scale(0.015625)"/>
      </defs>
      <use xlink:href="#DejaVuSans-Oblique-45" transform="translate(0 0.09375)"/>
      <use xlink:href="#DejaVuSans-Oblique-6b" transform="translate(63.183594 -16.3125)scale(0.7)"/>
      <use xlink:href="#DejaVuSans-2f" transform="translate(106.455078 0.09375)"/>
      <use xlink:href="#DejaVuSans-Oblique-45" transform="translate(140.146484 0.09375)"/>
      <use xlink:href="#DejaVuSans-Oblique-6b" transform="translate(203.330078 -16.3125)scale(0.7)"/>
      <use xlink:href="#DejaVuSans-2c" transform="translate(243.867188 -16.3125)scale(0.7)"/>
      <use xlink:href="#DejaVuSans-30" transform="translate(279.755859 -16.3125)scale(0.7)"/>
     </g>
    </g>
   </g>
   <g id="line2d_26">
    <path d="M 123.340653 176.113625 
L 125.626453 83.823371 
L 127.912252 39.352294 
L 130.198051 38.594948 
L 132.48385 91.939979 
L 134.769649 187.460111 
L 137.055448 86.399063 
L 139.341247 41.814972 
L 141.627047 42.689431 
L 143.912846 103.350913 
L 146.198645 195.093842 
L 148.484444 88.085553 
L 150.770243 44.027392 
L 153.056042 48.056651 
L 155.341841 113.975761 
L 157.627641 199.444172 
L 159.91344 89.105116 
L 162.199239 46.514532 
L 164.485038 53.542848 
L 166.770837 123.862584 
L 169.056636 206.299965 
L 171.342435 89.414538 
L 173.628235 49.407165 
L 175.914034 58.890831 
L 180.485632 211.754992 
L 182.771431 89.399755 
L 185.05723 52.581892 
L 187.343029 64.35386 
L 189.628829 147.926714 
L 191.914628 214.739331 
L 194.200427 89.899888 
L 196.486226 55.759073 
L 198.772025 70.075678 
L 201.057824 161.244733 
L 203.343623 215.08 
L 205.629423 90.855559 
L 207.915222 58.844071 
L 210.201021 76.272425 
L 212.48682 174.51078 
L 214.772619 213.647076 
L 217.058418 91.679423 
L 219.344217 62.048226 
L 221.630017 82.827923 
L 223.915816 187.674659 
L 226.201615 211.805833 
L 228.487414 92.343809 
L 230.773213 65.570703 
L 233.059012 89.451333 
L 235.344811 201.506877 
L 237.630611 208.407535 
L 239.91641 93.086663 
L 242.202209 69.326801 
L 244.488008 96.100222 
L 246.773807 216.876504 
L 249.059606 203.36205 
L 251.345405 94.071135 
L 253.631205 73.166599 
L 255.917004 102.961523 
L 258.202803 232.957206 
L 260.488602 198.056594 
L 262.774401 95.297705 
L 265.0602 77.063838 
L 267.345999 110.161193 
L 269.631799 248.783587 
L 271.917598 193.353658 
L 274.203397 96.651121 
L 276.489196 81.087444 
L 278.774995 117.651955 
L 281.060794 264.065583 
L 283.346593 189.461835 
L 285.632393 98.067935 
L 287.918192 85.303215 
L 290.203991 125.32816 
L 292.48979 279.068739 
L 294.775589 185.969377 
L 297.061388 99.593325 
L 299.347187 89.716599 
L 301.632987 133.185738 
L 303.918786 293.661078 
L 306.204585 182.65525 
L 308.490384 101.302235 
L 310.776183 94.283852 
L 313.061982 141.303811 
L 315.347782 307.266087 
L 317.633581 179.614203 
L 319.91938 103.209379 
L 322.205179 98.966208 
L 324.490978 149.772687 
L 326.776777 319.331674 
L 329.062576 176.97797 
L 331.348376 105.261233 
L 333.634175 103.779345 
L 335.919974 158.599702 
L 338.205773 329.359058 
L 340.491572 174.786534 
L 342.777371 107.438221 
L 345.06317 108.762752 
L 347.34897 167.736228 
L 349.634769 337.158538 
L 351.920568 172.957591 
L 354.206367 109.745285 
L 356.492166 113.933309 
L 358.777965 177.177458 
L 361.063764 343.137396 
L 363.349564 171.403126 
L 365.635363 112.204381 
L 367.921162 119.26578 
L 370.206961 186.989878 
L 372.49276 346.415549 
L 374.778559 170.084295 
L 377.064358 114.816356 
L 379.350158 124.754317 
L 381.635957 197.253513 
L 383.921756 344.954078 
L 386.207555 169.06405 
L 388.493354 117.582515 
L 390.779153 130.400859 
L 393.064952 208.02145 
L 395.350752 338.921833 
L 397.636551 168.353354 
L 399.92235 120.490952 
L 402.208149 136.239056 
L 404.493948 219.294812 
L 406.779747 329.721728 
L 409.065546 167.951838 
L 411.351346 123.537188 
L 413.637145 142.270945 
L 418.208743 318.493918 
L 420.494542 167.788192 
L 422.780341 126.72495 
L 425.06614 148.495021 
L 427.35194 243.53539 
L 429.637739 307.753474 
L 431.923538 167.872476 
L 434.209337 130.074257 
L 436.495136 154.915336 
L 438.780935 256.65 
L 441.066734 298.098385 
L 443.352534 168.195578 
L 445.638333 133.57104 
L 447.924132 161.541506 
L 450.209931 270.604304 
L 452.49573 289.405583 
L 454.781529 168.757777 
L 457.067328 137.214624 
L 459.353128 168.39913 
L 461.638927 285.555966 
L 463.924726 281.658702 
L 466.210525 169.54635 
L 468.496324 141.010047 
L 470.782123 175.501974 
L 473.067922 301.527609 
L 473.067922 301.527609 
" clip-path="url(#p7b1712250d)" style="fill: none; stroke-dasharray: 3,4.95; stroke-dashoffset: 0; stroke: #5ec962; stroke-width: 3"/>
    <defs>
     <path id="m7732ba059f" d="M 0 6 
C 1.591219 6 3.117479 5.367802 4.242641 4.242641 
C 5.367802 3.117479 6 1.591219 6 0 
C 6 -1.591219 5.367802 -3.117479 4.242641 -4.242641 
C 3.117479 -5.367802 1.591219 -6 0 -6 
C -1.591219 -6 -3.117479 -5.367802 -4.242641 -4.242641 
C -5.367802 -3.117479 -6 -1.591219 -6 0 
C -6 1.591219 -5.367802 3.117479 -4.242641 4.242641 
C -3.117479 5.367802 -1.591219 6 0 6 
z
" style="stroke: #5ec962; stroke-width: 1.5"/>
    </defs>
    <g clip-path="url(#p7b1712250d)">
     <use xlink:href="#m7732ba059f" x="123.340653" y="176.113625" style="fill-opacity: 0; stroke: #5ec962; stroke-width: 1.5"/>
     <use xlink:href="#m7732ba059f" x="146.198645" y="195.093842" style="fill-opacity: 0; stroke: #5ec962; stroke-width: 1.5"/>
     <use xlink:href="#m7732ba059f" x="169.056636" y="206.299965" style="fill-opacity: 0; stroke: #5ec962; stroke-width: 1.5"/>
     <use xlink:href="#m7732ba059f" x="191.914628" y="214.739331" style="fill-opacity: 0; stroke: #5ec962; stroke-width: 1.5"/>
     <use xlink:href="#m7732ba059f" x="214.772619" y="213.647076" style="fill-opacity: 0; stroke: #5ec962; stroke-width: 1.5"/>
     <use xlink:href="#m7732ba059f" x="237.630611" y="208.407535" style="fill-opacity: 0; stroke: #5ec962; stroke-width: 1.5"/>
     <use xlink:href="#m7732ba059f" x="260.488602" y="198.056594" style="fill-opacity: 0; stroke: #5ec962; stroke-width: 1.5"/>
     <use xlink:href="#m7732ba059f" x="283.346593" y="189.461835" style="fill-opacity: 0; stroke: #5ec962; stroke-width: 1.5"/>
     <use xlink:href="#m7732ba059f" x="306.204585" y="182.65525" style="fill-opacity: 0; stroke: #5ec962; stroke-width: 1.5"/>
     <use xlink:href="#m7732ba059f" x="329.062576" y="176.97797" style="fill-opacity: 0; stroke: #5ec962; stroke-width: 1.5"/>
     <use xlink:href="#m7732ba059f" x="351.920568" y="172.957591" style="fill-opacity: 0; stroke: #5ec962; stroke-width: 1.5"/>
     <use xlink:href="#m7732ba059f" x="374.778559" y="170.084295" style="fill-opacity: 0; stroke: #5ec962; stroke-width: 1.5"/>
     <use xlink:href="#m7732ba059f" x="397.636551" y="168.353354" style="fill-opacity: 0; stroke: #5ec962; stroke-width: 1.5"/>
     <use xlink:href="#m7732ba059f" x="420.494542" y="167.788192" style="fill-opacity: 0; stroke: #5ec962; stroke-width: 1.5"/>
     <use xlink:href="#m7732ba059f" x="443.352534" y="168.195578" style="fill-opacity: 0; stroke: #5ec962; stroke-width: 1.5"/>
     <use xlink:href="#m7732ba059f" x="466.210525" y="169.54635" style="fill-opacity: 0; stroke: #5ec962; stroke-width: 1.5"/>
    </g>
   </g>
   <g id="line2d_27">
    <path d="M 123.340653 176.113625 
L 125.626453 83.765978 
L 127.912252 39.690797 
L 130.198051 39.326629 
L 132.48385 93.513176 
L 134.769649 186.949224 
L 137.055448 85.816389 
L 139.341247 42.067247 
L 141.627047 43.543906 
L 143.912846 104.933003 
L 146.198645 193.643479 
L 148.484444 87.501087 
L 150.770243 44.262305 
L 153.056042 48.946563 
L 155.341841 115.554919 
L 157.627641 197.72291 
L 159.91344 88.447658 
L 162.199239 46.777053 
L 164.485038 54.468189 
L 166.770837 125.576167 
L 169.056636 204.22771 
L 171.342435 88.701231 
L 173.628235 49.713597 
L 175.914034 59.883105 
L 178.199833 137.004163 
L 180.485632 209.33961 
L 182.771431 88.785603 
L 185.05723 52.945373 
L 187.343029 65.377978 
L 189.628829 150.056393 
L 191.914628 211.795423 
L 194.200427 89.399494 
L 196.486226 56.158599 
L 198.772025 71.190231 
L 201.057824 163.583299 
L 203.343623 211.907489 
L 205.629423 90.378027 
L 207.915222 59.263769 
L 210.201021 77.444034 
L 212.48682 176.859854 
L 214.772619 210.362212 
L 217.058418 91.224048 
L 219.344217 62.49412 
L 221.630017 84.028081 
L 223.915816 190.027468 
L 226.201615 208.660861 
L 228.487414 91.93069 
L 230.773213 66.063479 
L 233.059012 90.695536 
L 235.344811 203.964589 
L 237.630611 205.441148 
L 239.91641 92.731475 
L 242.202209 69.85918 
L 244.488008 97.382539 
L 246.773807 219.299723 
L 249.059606 200.607354 
L 251.345405 93.791253 
L 253.631205 73.74339 
L 255.917004 104.330834 
L 258.202803 235.408139 
L 260.488602 195.566354 
L 262.774401 95.079606 
L 265.0602 77.695915 
L 267.345999 111.653739 
L 269.631799 251.491291 
L 271.917598 191.182762 
L 274.203397 96.499259 
L 276.489196 81.786345 
L 278.774995 119.263147 
L 281.060794 267.101692 
L 283.346593 187.542122 
L 285.632393 97.981184 
L 287.918192 86.067519 
L 290.203991 127.054016 
L 292.48979 282.392426 
L 294.775589 184.232826 
L 297.061388 99.56178 
L 299.347187 90.543131 
L 301.632987 135.040429 
L 303.918786 297.323561 
L 306.204585 181.054573 
L 308.490384 101.319866 
L 310.776183 95.158875 
L 313.061982 143.264364 
L 315.347782 310.847783 
L 317.633581 178.13998 
L 319.91938 103.274833 
L 322.205179 99.882381 
L 324.490978 151.843959 
L 326.776777 322.277004 
L 329.062576 175.659574 
L 331.348376 105.379498 
L 333.634175 104.757253 
L 335.919974 160.829072 
L 338.205773 331.757973 
L 340.491572 173.59558 
L 342.777371 107.606185 
L 345.06317 109.807702 
L 347.34897 170.120797 
L 349.634769 339.144969 
L 351.920568 171.879239 
L 354.206367 109.965662 
L 356.492166 115.041576 
L 358.777965 179.741129 
L 361.063764 344.215797 
L 363.349564 170.426974 
L 365.635363 112.476571 
L 367.921162 120.43956 
L 370.206961 189.741583 
L 372.49276 346.224946 
L 374.778559 169.231115 
L 377.064358 115.14623 
L 379.350158 125.979956 
L 381.635957 200.186403 
L 383.921756 344.240815 
L 386.207555 168.337762 
L 388.493354 117.963888 
L 390.779153 131.680277 
L 393.064952 211.141815 
L 395.350752 338.171569 
L 397.636551 167.741847 
L 399.92235 120.917833 
L 402.208149 137.570517 
L 404.493948 222.634494 
L 406.779747 327.680203 
L 409.065546 167.40476 
L 411.351346 124.006821 
L 413.637145 143.651779 
L 415.922944 234.683781 
L 418.208743 315.944679 
L 420.494542 167.310747 
L 422.780341 127.238334 
L 425.06614 149.934503 
L 427.35194 247.413855 
L 429.637739 305.277876 
L 431.923538 167.426231 
L 434.209337 130.614776 
L 436.495136 156.420858 
L 438.780935 260.936576 
L 441.066734 295.603791 
L 443.352534 167.767509 
L 445.638333 134.133067 
L 447.924132 163.099056 
L 450.209931 275.345419 
L 452.49573 287.019067 
L 454.781529 168.3636 
L 457.067328 137.811126 
L 459.353128 170.019164 
L 461.638927 290.751781 
L 463.924726 279.478955 
L 466.210525 169.193777 
L 468.496324 141.63124 
L 470.782123 177.16996 
L 473.067922 307.271446 
L 475.353722 272.836902 
L 475.353722 272.836902 
" clip-path="url(#p7b1712250d)" style="fill: none; stroke-dasharray: 3,4.95; stroke-dashoffset: 0; stroke: #5ec962; stroke-width: 3"/>
    <g clip-path="url(#p7b1712250d)">
     <use xlink:href="#m7732ba059f" x="123.340653" y="176.113625" style="fill-opacity: 0; stroke: #5ec962; stroke-width: 1.5"/>
     <use xlink:href="#m7732ba059f" x="146.198645" y="193.643479" style="fill-opacity: 0; stroke: #5ec962; stroke-width: 1.5"/>
     <use xlink:href="#m7732ba059f" x="169.056636" y="204.22771" style="fill-opacity: 0; stroke: #5ec962; stroke-width: 1.5"/>
     <use xlink:href="#m7732ba059f" x="191.914628" y="211.795423" style="fill-opacity: 0; stroke: #5ec962; stroke-width: 1.5"/>
     <use xlink:href="#m7732ba059f" x="214.772619" y="210.362212" style="fill-opacity: 0; stroke: #5ec962; stroke-width: 1.5"/>
     <use xlink:href="#m7732ba059f" x="237.630611" y="205.441148" style="fill-opacity: 0; stroke: #5ec962; stroke-width: 1.5"/>
     <use xlink:href="#m7732ba059f" x="260.488602" y="195.566354" style="fill-opacity: 0; stroke: #5ec962; stroke-width: 1.5"/>
     <use xlink:href="#m7732ba059f" x="283.346593" y="187.542122" style="fill-opacity: 0; stroke: #5ec962; stroke-width: 1.5"/>
     <use xlink:href="#m7732ba059f" x="306.204585" y="181.054573" style="fill-opacity: 0; stroke: #5ec962; stroke-width: 1.5"/>
     <use xlink:href="#m7732ba059f" x="329.062576" y="175.659574" style="fill-opacity: 0; stroke: #5ec962; stroke-width: 1.5"/>
     <use xlink:href="#m7732ba059f" x="351.920568" y="171.879239" style="fill-opacity: 0; stroke: #5ec962; stroke-width: 1.5"/>
     <use xlink:href="#m7732ba059f" x="374.778559" y="169.231115" style="fill-opacity: 0; stroke: #5ec962; stroke-width: 1.5"/>
     <use xlink:href="#m7732ba059f" x="397.636551" y="167.741847" style="fill-opacity: 0; stroke: #5ec962; stroke-width: 1.5"/>
     <use xlink:href="#m7732ba059f" x="420.494542" y="167.310747" style="fill-opacity: 0; stroke: #5ec962; stroke-width: 1.5"/>
     <use xlink:href="#m7732ba059f" x="443.352534" y="167.767509" style="fill-opacity: 0; stroke: #5ec962; stroke-width: 1.5"/>
     <use xlink:href="#m7732ba059f" x="466.210525" y="169.193777" style="fill-opacity: 0; stroke: #5ec962; stroke-width: 1.5"/>
    </g>
   </g>
   <g id="patch_3">
    <path d="M 105.74 361.806579 
L 105.74 23.203918 
" style="fill: none; stroke: #000000; stroke-width: 2; stroke-linejoin: miter; stroke-linecap: square"/>
   </g>
   <g id="patch_4">
    <path d="M 492.954375 361.806579 
L 492.954375 23.203918 
" style="fill: none; stroke: #000000; stroke-width: 2; stroke-linejoin: miter; stroke-linecap: square"/>
   </g>
   <g id="patch_5">
    <path d="M 105.74 361.806579 
L 492.954375 361.806579 
" style="fill: none; stroke: #000000; stroke-width: 2; stroke-linejoin: miter; stroke-linecap: square"/>
   </g>
   <g id="patch_6">
    <path d="M 105.74 23.203918 
L 492.954375 23.203918 
" style="fill: none; stroke: #000000; stroke-width: 2; stroke-linejoin: miter; stroke-linecap: square"/>
   </g>
   <g id="legend_1">
    <g id="patch_7">
     <path d="M 343.910625 68.560168 
L 478.954375 68.560168 
Q 482.954375 68.560168 482.954375 64.560168 
L 482.954375 37.203918 
Q 482.954375 33.203918 478.954375 33.203918 
L 343.910625 33.203918 
Q 339.910625 33.203918 339.910625 37.203918 
L 339.910625 64.560168 
Q 339.910625 68.560168 343.910625 68.560168 
z
" style="fill: #ffffff; opacity: 0.8; stroke: #cccccc; stroke-linejoin: miter"/>
    </g>
    <g id="line2d_28">
     <path d="M 347.910625 49.400793 
L 367.910625 49.400793 
L 387.910625 49.400793 
" style="fill: none; stroke: #5ec962; stroke-width: 3; stroke-linecap: square"/>
     <g>
      <use xlink:href="#m7732ba059f" x="367.910625" y="49.400793" style="fill-opacity: 0; stroke: #5ec962; stroke-width: 1.5"/>
     </g>
    </g>
    <g id="text_9">
     <!-- Quintic -->
     <g transform="translate(403.910625 56.400793)scale(0.2 -0.2)">
      <defs>
       <path id="DejaVuSans-51" d="M 2522 4238 
Q 1834 4238 1429 3725 
Q 1025 3213 1025 2328 
Q 1025 1447 1429 934 
Q 1834 422 2522 422 
Q 3209 422 3611 934 
Q 4013 1447 4013 2328 
Q 4013 3213 3611 3725 
Q 3209 4238 2522 4238 
z
M 3406 84 
L 4238 -825 
L 3475 -825 
L 2784 -78 
Q 2681 -84 2626 -87 
Q 2572 -91 2522 -91 
Q 1538 -91 948 567 
Q 359 1225 359 2328 
Q 359 3434 948 4092 
Q 1538 4750 2522 4750 
Q 3503 4750 4090 4092 
Q 4678 3434 4678 2328 
Q 4678 1516 4351 937 
Q 4025 359 3406 84 
z
" transform="scale(0.015625)"/>
       <path id="DejaVuSans-75" d="M 544 1381 
L 544 3500 
L 1119 3500 
L 1119 1403 
Q 1119 906 1312 657 
Q 1506 409 1894 409 
Q 2359 409 2629 706 
Q 2900 1003 2900 1516 
L 2900 3500 
L 3475 3500 
L 3475 0 
L 2900 0 
L 2900 538 
Q 2691 219 2414 64 
Q 2138 -91 1772 -91 
Q 1169 -91 856 284 
Q 544 659 544 1381 
z
M 1991 3584 
L 1991 3584 
z
" transform="scale(0.015625)"/>
       <path id="DejaVuSans-69" d="M 603 3500 
L 1178 3500 
L 1178 0 
L 603 0 
L 603 3500 
z
M 603 4863 
L 1178 4863 
L 1178 4134 
L 603 4134 
L 603 4863 
z
" transform="scale(0.015625)"/>
       <path id="DejaVuSans-6e" d="M 3513 2113 
L 3513 0 
L 2938 0 
L 2938 2094 
Q 2938 2591 2744 2837 
Q 2550 3084 2163 3084 
Q 1697 3084 1428 2787 
Q 1159 2491 1159 1978 
L 1159 0 
L 581 0 
L 581 3500 
L 1159 3500 
L 1159 2956 
Q 1366 3272 1645 3428 
Q 1925 3584 2291 3584 
Q 2894 3584 3203 3211 
Q 3513 2838 3513 2113 
z
" transform="scale(0.015625)"/>
       <path id="DejaVuSans-74" d="M 1172 4494 
L 1172 3500 
L 2356 3500 
L 2356 3053 
L 1172 3053 
L 1172 1153 
Q 1172 725 1289 603 
Q 1406 481 1766 481 
L 2356 481 
L 2356 0 
L 1766 0 
Q 1100 0 847 248 
Q 594 497 594 1153 
L 594 3053 
L 172 3053 
L 172 3500 
L 594 3500 
L 594 4494 
L 1172 4494 
z
" transform="scale(0.015625)"/>
       <path id="DejaVuSans-63" d="M 3122 3366 
L 3122 2828 
Q 2878 2963 2633 3030 
Q 2388 3097 2138 3097 
Q 1578 3097 1268 2742 
Q 959 2388 959 1747 
Q 959 1106 1268 751 
Q 1578 397 2138 397 
Q 2388 397 2633 464 
Q 2878 531 3122 666 
L 3122 134 
Q 2881 22 2623 -34 
Q 2366 -91 2075 -91 
Q 1284 -91 818 406 
Q 353 903 353 1747 
Q 353 2603 823 3093 
Q 1294 3584 2113 3584 
Q 2378 3584 2631 3529 
Q 2884 3475 3122 3366 
z
" transform="scale(0.015625)"/>
      </defs>
      <use xlink:href="#DejaVuSans-51"/>
      <use xlink:href="#DejaVuSans-75" x="78.710938"/>
      <use xlink:href="#DejaVuSans-69" x="142.089844"/>
      <use xlink:href="#DejaVuSans-6e" x="169.873047"/>
      <use xlink:href="#DejaVuSans-74" x="233.251953"/>
      <use xlink:href="#DejaVuSans-69" x="272.460938"/>
      <use xlink:href="#DejaVuSans-63" x="300.244141"/>
     </g>
    </g>
   </g>
   <g id="legend_2">
    <g id="patch_8">
     <path d="M 119.74 351.806579 
L 296.30875 351.806579 
Q 300.30875 351.806579 300.30875 347.806579 
L 300.30875 291.094079 
Q 300.30875 287.094079 296.30875 287.094079 
L 119.74 287.094079 
Q 115.74 287.094079 115.74 291.094079 
L 115.74 347.806579 
Q 115.74 351.806579 119.74 351.806579 
z
" style="fill: #ffffff; opacity: 0.8; stroke: #cccccc; stroke-linejoin: miter"/>
    </g>
    <g id="line2d_29">
     <path d="M 123.74 303.290954 
L 143.74 303.290954 
L 163.74 303.290954 
" style="fill: none; stroke-dasharray: 3,4.95; stroke-dashoffset: 0; stroke: #000000; stroke-width: 3"/>
    </g>
    <g id="text_10">
     <!-- Shifting On -->
     <g transform="translate(179.74 310.290954)scale(0.2 -0.2)">
      <defs>
       <path id="DejaVuSans-53" d="M 3425 4513 
L 3425 3897 
Q 3066 4069 2747 4153 
Q 2428 4238 2131 4238 
Q 1616 4238 1336 4038 
Q 1056 3838 1056 3469 
Q 1056 3159 1242 3001 
Q 1428 2844 1947 2747 
L 2328 2669 
Q 3034 2534 3370 2195 
Q 3706 1856 3706 1288 
Q 3706 609 3251 259 
Q 2797 -91 1919 -91 
Q 1588 -91 1214 -16 
Q 841 59 441 206 
L 441 856 
Q 825 641 1194 531 
Q 1563 422 1919 422 
Q 2459 422 2753 634 
Q 3047 847 3047 1241 
Q 3047 1584 2836 1778 
Q 2625 1972 2144 2069 
L 1759 2144 
Q 1053 2284 737 2584 
Q 422 2884 422 3419 
Q 422 4038 858 4394 
Q 1294 4750 2059 4750 
Q 2388 4750 2728 4690 
Q 3069 4631 3425 4513 
z
" transform="scale(0.015625)"/>
       <path id="DejaVuSans-68" d="M 3513 2113 
L 3513 0 
L 2938 0 
L 2938 2094 
Q 2938 2591 2744 2837 
Q 2550 3084 2163 3084 
Q 1697 3084 1428 2787 
Q 1159 2491 1159 1978 
L 1159 0 
L 581 0 
L 581 4863 
L 1159 4863 
L 1159 2956 
Q 1366 3272 1645 3428 
Q 1925 3584 2291 3584 
Q 2894 3584 3203 3211 
Q 3513 2838 3513 2113 
z
" transform="scale(0.015625)"/>
       <path id="DejaVuSans-66" d="M 2375 4863 
L 2375 4384 
L 1825 4384 
Q 1516 4384 1395 4259 
Q 1275 4134 1275 3809 
L 1275 3500 
L 2222 3500 
L 2222 3053 
L 1275 3053 
L 1275 0 
L 697 0 
L 697 3053 
L 147 3053 
L 147 3500 
L 697 3500 
L 697 3744 
Q 697 4328 969 4595 
Q 1241 4863 1831 4863 
L 2375 4863 
z
" transform="scale(0.015625)"/>
       <path id="DejaVuSans-67" d="M 2906 1791 
Q 2906 2416 2648 2759 
Q 2391 3103 1925 3103 
Q 1463 3103 1205 2759 
Q 947 2416 947 1791 
Q 947 1169 1205 825 
Q 1463 481 1925 481 
Q 2391 481 2648 825 
Q 2906 1169 2906 1791 
z
M 3481 434 
Q 3481 -459 3084 -895 
Q 2688 -1331 1869 -1331 
Q 1566 -1331 1297 -1286 
Q 1028 -1241 775 -1147 
L 775 -588 
Q 1028 -725 1275 -790 
Q 1522 -856 1778 -856 
Q 2344 -856 2625 -561 
Q 2906 -266 2906 331 
L 2906 616 
Q 2728 306 2450 153 
Q 2172 0 1784 0 
Q 1141 0 747 490 
Q 353 981 353 1791 
Q 353 2603 747 3093 
Q 1141 3584 1784 3584 
Q 2172 3584 2450 3431 
Q 2728 3278 2906 2969 
L 2906 3500 
L 3481 3500 
L 3481 434 
z
" transform="scale(0.015625)"/>
       <path id="DejaVuSans-20" transform="scale(0.015625)"/>
       <path id="DejaVuSans-4f" d="M 2522 4238 
Q 1834 4238 1429 3725 
Q 1025 3213 1025 2328 
Q 1025 1447 1429 934 
Q 1834 422 2522 422 
Q 3209 422 3611 934 
Q 4013 1447 4013 2328 
Q 4013 3213 3611 3725 
Q 3209 4238 2522 4238 
z
M 2522 4750 
Q 3503 4750 4090 4092 
Q 4678 3434 4678 2328 
Q 4678 1225 4090 567 
Q 3503 -91 2522 -91 
Q 1538 -91 948 565 
Q 359 1222 359 2328 
Q 359 3434 948 4092 
Q 1538 4750 2522 4750 
z
" transform="scale(0.015625)"/>
      </defs>
      <use xlink:href="#DejaVuSans-53"/>
      <use xlink:href="#DejaVuSans-68" x="63.476562"/>
      <use xlink:href="#DejaVuSans-69" x="126.855469"/>
      <use xlink:href="#DejaVuSans-66" x="154.638672"/>
      <use xlink:href="#DejaVuSans-74" x="188.09375"/>
      <use xlink:href="#DejaVuSans-69" x="227.302734"/>
      <use xlink:href="#DejaVuSans-6e" x="255.085938"/>
      <use xlink:href="#DejaVuSans-67" x="318.464844"/>
      <use xlink:href="#DejaVuSans-20" x="381.941406"/>
      <use xlink:href="#DejaVuSans-4f" x="413.728516"/>
      <use xlink:href="#DejaVuSans-6e" x="492.439453"/>
     </g>
    </g>
    <g id="line2d_30">
     <path d="M 123.74 332.647204 
L 143.74 332.647204 
L 163.74 332.647204 
" style="fill: none; stroke-dasharray: 11.1,4.8; stroke-dashoffset: 0; stroke: #000000; stroke-width: 3"/>
    </g>
    <g id="text_11">
     <!-- Shifting Off -->
     <g transform="translate(179.74 339.647204)scale(0.2 -0.2)">
      <use xlink:href="#DejaVuSans-53"/>
      <use xlink:href="#DejaVuSans-68" x="63.476562"/>
      <use xlink:href="#DejaVuSans-69" x="126.855469"/>
      <use xlink:href="#DejaVuSans-66" x="154.638672"/>
      <use xlink:href="#DejaVuSans-74" x="188.09375"/>
      <use xlink:href="#DejaVuSans-69" x="227.302734"/>
      <use xlink:href="#DejaVuSans-6e" x="255.085938"/>
      <use xlink:href="#DejaVuSans-67" x="318.464844"/>
      <use xlink:href="#DejaVuSans-20" x="381.941406"/>
      <use xlink:href="#DejaVuSans-4f" x="413.728516"/>
      <use xlink:href="#DejaVuSans-66" x="492.439453"/>
      <use xlink:href="#DejaVuSans-66" x="527.644531"/>
     </g>
    </g>
   </g>
   <g id="legend_3">
    <g id="patch_9">
     <path d="M 119.74 351.806579 
L 296.30875 351.806579 
Q 300.30875 351.806579 300.30875 347.806579 
L 300.30875 291.094079 
Q 300.30875 287.094079 296.30875 287.094079 
L 119.74 287.094079 
Q 115.74 287.094079 115.74 291.094079 
L 115.74 347.806579 
Q 115.74 351.806579 119.74 351.806579 
z
" style="fill: #ffffff; opacity: 0.8; stroke: #cccccc; stroke-linejoin: miter"/>
    </g>
    <g id="line2d_31">
     <path d="M 123.74 303.290954 
L 143.74 303.290954 
L 163.74 303.290954 
" style="fill: none; stroke-dasharray: 3,4.95; stroke-dashoffset: 0; stroke: #000000; stroke-width: 3"/>
    </g>
    <g id="text_12">
     <!-- Shifting On -->
     <g transform="translate(179.74 310.290954)scale(0.2 -0.2)">
      <use xlink:href="#DejaVuSans-53"/>
      <use xlink:href="#DejaVuSans-68" x="63.476562"/>
      <use xlink:href="#DejaVuSans-69" x="126.855469"/>
      <use xlink:href="#DejaVuSans-66" x="154.638672"/>
      <use xlink:href="#DejaVuSans-74" x="188.09375"/>
      <use xlink:href="#DejaVuSans-69" x="227.302734"/>
      <use xlink:href="#DejaVuSans-6e" x="255.085938"/>
      <use xlink:href="#DejaVuSans-67" x="318.464844"/>
      <use xlink:href="#DejaVuSans-20" x="381.941406"/>
      <use xlink:href="#DejaVuSans-4f" x="413.728516"/>
      <use xlink:href="#DejaVuSans-6e" x="492.439453"/>
     </g>
    </g>
    <g id="line2d_32">
     <path d="M 123.74 332.647204 
L 143.74 332.647204 
L 163.74 332.647204 
" style="fill: none; stroke-dasharray: 11.1,4.8; stroke-dashoffset: 0; stroke: #000000; stroke-width: 3"/>
    </g>
    <g id="text_13">
     <!-- Shifting Off -->
     <g transform="translate(179.74 339.647204)scale(0.2 -0.2)">
      <use xlink:href="#DejaVuSans-53"/>
      <use xlink:href="#DejaVuSans-68" x="63.476562"/>
      <use xlink:href="#DejaVuSans-69" x="126.855469"/>
      <use xlink:href="#DejaVuSans-66" x="154.638672"/>
      <use xlink:href="#DejaVuSans-74" x="188.09375"/>
      <use xlink:href="#DejaVuSans-69" x="227.302734"/>
      <use xlink:href="#DejaVuSans-6e" x="255.085938"/>
      <use xlink:href="#DejaVuSans-67" x="318.464844"/>
      <use xlink:href="#DejaVuSans-20" x="381.941406"/>
      <use xlink:href="#DejaVuSans-4f" x="413.728516"/>
      <use xlink:href="#DejaVuSans-66" x="492.439453"/>
      <use xlink:href="#DejaVuSans-66" x="527.644531"/>
     </g>
    </g>
   </g>
  </g>
 </g>
 <defs>
  <clipPath id="p7b1712250d">
   <rect x="105.74" y="23.203918" width="387.214375" height="338.602661"/>
  </clipPath>
 </defs>
</svg>
