<?xml version="1.0" encoding="utf-8" standalone="no"?>
<!DOCTYPE svg PUBLIC "-//W3C//DTD SVG 1.1//EN"
  "http://www.w3.org/Graphics/SVG/1.1/DTD/svg11.dtd">
<svg xmlns:xlink="http://www.w3.org/1999/xlink" width="507.590163pt" height="437.52625pt" viewBox="0 0 507.590163 437.52625" xmlns="http://www.w3.org/2000/svg" version="1.1">
 <metadata>
  <rdf:RDF xmlns:dc="http://purl.org/dc/elements/1.1/" xmlns:cc="http://creativecommons.org/ns#" xmlns:rdf="http://www.w3.org/1999/02/22-rdf-syntax-ns#">
   <cc:Work>
    <dc:type rdf:resource="http://purl.org/dc/dcmitype/StillImage"/>
    <dc:date>2022-08-29T13:33:58.235907</dc:date>
    <dc:format>image/svg+xml</dc:format>
    <dc:creator>
     <cc:Agent>
      <dc:title>Matplotlib v3.5.1, https://matplotlib.org/</dc:title>
     </cc:Agent>
    </dc:creator>
   </cc:Work>
  </rdf:RDF>
 </metadata>
 <defs>
  <style type="text/css">*{stroke-linejoin: round; stroke-linecap: butt}</style>
 </defs>
 <g id="figure_1">
  <g id="patch_1">
   <path d="M 0 437.52625 
L 507.590163 437.52625 
L 507.590163 0 
L 0 0 
L 0 437.52625 
z
" style="fill: none"/>
  </g>
  <g id="axes_1">
   <g id="patch_2">
    <path d="M 102.43625 363.8 
L 483.80642 363.8 
L 483.80642 14.4 
L 102.43625 14.4 
z
" style="fill: #ffffff"/>
   </g>
   <g id="line2d_1">
    <path d="M 119.771258 30.281818 
L 144.064562 30.391095 
L 156.905308 30.672106 
L 167.663772 31.119099 
L 177.381093 31.739149 
L 186.404321 32.536771 
L 194.733453 33.492483 
L 202.715539 34.631199 
L 210.350578 35.946236 
L 217.638569 37.42647 
L 224.579513 39.056969 
L 231.520457 40.918382 
L 238.114354 42.914539 
L 244.708251 45.146008 
L 250.9551 47.488976 
L 257.20195 50.066055 
L 263.448799 52.888393 
L 269.348602 55.789181 
L 275.248404 58.928069 
L 281.148207 62.314449 
L 287.048009 65.957712 
L 292.947812 69.86725 
L 298.847614 74.052454 
L 304.747416 78.522716 
L 310.647219 83.287426 
L 316.547021 88.355977 
L 322.099777 93.412345 
L 327.652532 98.754008 
L 333.205287 104.388795 
L 338.758042 110.324536 
L 344.310798 116.569061 
L 349.863553 123.130199 
L 355.763355 130.457081 
L 361.663158 138.159619 
L 367.56296 146.247206 
L 373.462763 154.729234 
L 379.362565 163.615093 
L 385.262367 172.914174 
L 391.16217 182.63587 
L 397.061972 192.789572 
L 402.961775 203.384672 
L 408.861577 214.43056 
L 414.76138 225.936628 
L 420.661182 237.912267 
L 426.908032 251.11461 
L 433.154881 264.86507 
L 439.401731 279.174795 
L 445.648581 294.054933 
L 451.89543 309.516633 
L 458.14228 325.571042 
L 464.389129 342.229309 
L 466.471413 347.918182 
L 466.471413 347.918182 
" clip-path="url(#pc26ce11419)" style="fill: none; stroke: #ff0000; stroke-width: 3; stroke-linecap: square"/>
   </g>
   <g id="line2d_2">
    <path d="M 119.771258 30.281818 
L 144.064562 30.391095 
L 156.905308 30.672106 
L 167.663772 31.119099 
L 177.381093 31.739149 
L 186.404321 32.536771 
L 194.733453 33.492483 
L 202.715539 34.631199 
L 210.350578 35.946236 
L 217.638569 37.42647 
L 224.579513 39.056969 
L 231.520457 40.918382 
L 238.114354 42.914539 
L 244.708251 45.146008 
L 250.9551 47.488976 
L 257.20195 50.066055 
L 263.448799 52.888393 
L 269.348602 55.789181 
L 275.248404 58.928069 
L 281.148207 62.314449 
L 287.048009 65.957712 
L 292.947812 69.86725 
L 298.847614 74.052454 
L 304.747416 78.522716 
L 310.647219 83.287426 
L 316.547021 88.355977 
L 322.099777 93.412345 
L 327.652532 98.754008 
L 333.205287 104.388795 
L 338.758042 110.324536 
L 344.310798 116.569061 
L 349.863553 123.130199 
L 355.763355 130.457081 
L 361.663158 138.159619 
L 367.56296 146.247206 
L 373.462763 154.729234 
L 379.362565 163.615093 
L 385.262367 172.914174 
L 391.16217 182.63587 
L 397.061972 192.789572 
L 402.961775 203.384672 
L 408.861577 214.43056 
L 414.76138 225.936628 
L 420.661182 237.912267 
L 426.908032 251.11461 
L 433.154881 264.86507 
L 439.401731 279.174795 
L 445.648581 294.054933 
L 451.89543 309.516633 
L 458.14228 325.571042 
L 464.389129 342.229309 
L 466.471413 347.918182 
L 466.471413 347.918182 
" clip-path="url(#pc26ce11419)" style="fill: none; stroke: #ff0000; stroke-width: 3; stroke-linecap: square"/>
   </g>
   <g id="line2d_3">
    <path d="M 119.771258 30.281818 
L 144.064562 30.391095 
L 156.905308 30.672106 
L 167.663772 31.119099 
L 177.381093 31.739149 
L 186.404321 32.536771 
L 194.733453 33.492483 
L 202.715539 34.631199 
L 210.350578 35.946236 
L 217.638569 37.42647 
L 224.579513 39.056969 
L 231.520457 40.918382 
L 238.114354 42.914539 
L 244.708251 45.146008 
L 250.9551 47.488976 
L 257.20195 50.066055 
L 263.448799 52.888393 
L 269.348602 55.789181 
L 275.248404 58.928069 
L 281.148207 62.314449 
L 287.048009 65.957712 
L 292.947812 69.86725 
L 298.847614 74.052454 
L 304.747416 78.522716 
L 310.647219 83.287426 
L 316.547021 88.355977 
L 322.099777 93.412345 
L 327.652532 98.754008 
L 333.205287 104.388795 
L 338.758042 110.324536 
L 344.310798 116.569061 
L 349.863553 123.130199 
L 355.763355 130.457081 
L 361.663158 138.159619 
L 367.56296 146.247206 
L 373.462763 154.729234 
L 379.362565 163.615093 
L 385.262367 172.914174 
L 391.16217 182.63587 
L 397.061972 192.789572 
L 402.961775 203.384672 
L 408.861577 214.43056 
L 414.76138 225.936628 
L 420.661182 237.912267 
L 426.908032 251.11461 
L 433.154881 264.86507 
L 439.401731 279.174795 
L 445.648581 294.054933 
L 451.89543 309.516633 
L 458.14228 325.571042 
L 464.389129 342.229309 
L 466.471413 347.918182 
L 466.471413 347.918182 
" clip-path="url(#pc26ce11419)" style="fill: none; stroke: #ff0000; stroke-width: 3; stroke-linecap: square"/>
   </g>
   <g id="line2d_4">
    <path d="M 119.771258 30.281818 
L 144.064562 30.391095 
L 156.905308 30.672106 
L 167.663772 31.119099 
L 177.381093 31.739149 
L 186.404321 32.536771 
L 194.733453 33.492483 
L 202.715539 34.631199 
L 210.350578 35.946236 
L 217.638569 37.42647 
L 224.579513 39.056969 
L 231.520457 40.918382 
L 238.114354 42.914539 
L 244.708251 45.146008 
L 250.9551 47.488976 
L 257.20195 50.066055 
L 263.448799 52.888393 
L 269.348602 55.789181 
L 275.248404 58.928069 
L 281.148207 62.314449 
L 287.048009 65.957712 
L 292.947812 69.86725 
L 298.847614 74.052454 
L 304.747416 78.522716 
L 310.647219 83.287426 
L 316.547021 88.355977 
L 322.099777 93.412345 
L 327.652532 98.754008 
L 333.205287 104.388795 
L 338.758042 110.324536 
L 344.310798 116.569061 
L 349.863553 123.130199 
L 355.763355 130.457081 
L 361.663158 138.159619 
L 367.56296 146.247206 
L 373.462763 154.729234 
L 379.362565 163.615093 
L 385.262367 172.914174 
L 391.16217 182.63587 
L 397.061972 192.789572 
L 402.961775 203.384672 
L 408.861577 214.43056 
L 414.76138 225.936628 
L 420.661182 237.912267 
L 426.908032 251.11461 
L 433.154881 264.86507 
L 439.401731 279.174795 
L 445.648581 294.054933 
L 451.89543 309.516633 
L 458.14228 325.571042 
L 464.389129 342.229309 
L 466.471413 347.918182 
L 466.471413 347.918182 
" clip-path="url(#pc26ce11419)" style="fill: none; stroke: #ff0000; stroke-width: 3; stroke-linecap: square"/>
   </g>
   <g id="line2d_5">
    <path d="M 119.771258 30.281818 
L 144.064562 30.391095 
L 156.905308 30.672106 
L 167.663772 31.119099 
L 177.381093 31.739149 
L 186.404321 32.536771 
L 194.733453 33.492483 
L 202.715539 34.631199 
L 210.350578 35.946236 
L 217.638569 37.42647 
L 224.579513 39.056969 
L 231.520457 40.918382 
L 238.114354 42.914539 
L 244.708251 45.146008 
L 250.9551 47.488976 
L 257.20195 50.066055 
L 263.448799 52.888393 
L 269.348602 55.789181 
L 275.248404 58.928069 
L 281.148207 62.314449 
L 287.048009 65.957712 
L 292.947812 69.86725 
L 298.847614 74.052454 
L 304.747416 78.522716 
L 310.647219 83.287426 
L 316.547021 88.355977 
L 322.099777 93.412345 
L 327.652532 98.754008 
L 333.205287 104.388795 
L 338.758042 110.324536 
L 344.310798 116.569061 
L 349.863553 123.130199 
L 355.763355 130.457081 
L 361.663158 138.159619 
L 367.56296 146.247206 
L 373.462763 154.729234 
L 379.362565 163.615093 
L 385.262367 172.914174 
L 391.16217 182.63587 
L 397.061972 192.789572 
L 402.961775 203.384672 
L 408.861577 214.43056 
L 414.76138 225.936628 
L 420.661182 237.912267 
L 426.908032 251.11461 
L 433.154881 264.86507 
L 439.401731 279.174795 
L 445.648581 294.054933 
L 451.89543 309.516633 
L 458.14228 325.571042 
L 464.389129 342.229309 
L 466.471413 347.918182 
L 466.471413 347.918182 
" clip-path="url(#pc26ce11419)" style="fill: none; stroke: #ff0000; stroke-width: 3; stroke-linecap: square"/>
   </g>
   <g id="line2d_6">
    <path d="M 119.771258 30.281818 
L 144.064562 30.391095 
L 156.905308 30.672106 
L 167.663772 31.119099 
L 177.381093 31.739149 
L 186.404321 32.536771 
L 194.733453 33.492483 
L 202.715539 34.631199 
L 210.350578 35.946236 
L 217.638569 37.42647 
L 224.579513 39.056969 
L 231.520457 40.918382 
L 238.114354 42.914539 
L 244.708251 45.146008 
L 250.9551 47.488976 
L 257.20195 50.066055 
L 263.448799 52.888393 
L 269.348602 55.789181 
L 275.248404 58.928069 
L 281.148207 62.314449 
L 287.048009 65.957712 
L 292.947812 69.86725 
L 298.847614 74.052454 
L 304.747416 78.522716 
L 310.647219 83.287426 
L 316.547021 88.355977 
L 322.099777 93.412345 
L 327.652532 98.754008 
L 333.205287 104.388795 
L 338.758042 110.324536 
L 344.310798 116.569061 
L 349.863553 123.130199 
L 355.763355 130.457081 
L 361.663158 138.159619 
L 367.56296 146.247206 
L 373.462763 154.729234 
L 379.362565 163.615093 
L 385.262367 172.914174 
L 391.16217 182.63587 
L 397.061972 192.789572 
L 402.961775 203.384672 
L 408.861577 214.43056 
L 414.76138 225.936628 
L 420.661182 237.912267 
L 426.908032 251.11461 
L 433.154881 264.86507 
L 439.401731 279.174795 
L 445.648581 294.054933 
L 451.89543 309.516633 
L 458.14228 325.571042 
L 464.389129 342.229309 
L 466.471413 347.918182 
L 466.471413 347.918182 
" clip-path="url(#pc26ce11419)" style="fill: none; stroke: #ff0000; stroke-width: 3; stroke-linecap: square"/>
   </g>
   <g id="line2d_7">
    <path d="M 119.771258 30.281818 
L 144.064562 30.391095 
L 156.905308 30.672106 
L 167.663772 31.119099 
L 177.381093 31.739149 
L 186.404321 32.536771 
L 194.733453 33.492483 
L 202.715539 34.631199 
L 210.350578 35.946236 
L 217.638569 37.42647 
L 224.579513 39.056969 
L 231.520457 40.918382 
L 238.114354 42.914539 
L 244.708251 45.146008 
L 250.9551 47.488976 
L 257.20195 50.066055 
L 263.448799 52.888393 
L 269.348602 55.789181 
L 275.248404 58.928069 
L 281.148207 62.314449 
L 287.048009 65.957712 
L 292.947812 69.86725 
L 298.847614 74.052454 
L 304.747416 78.522716 
L 310.647219 83.287426 
L 316.547021 88.355977 
L 322.099777 93.412345 
L 327.652532 98.754008 
L 333.205287 104.388795 
L 338.758042 110.324536 
L 344.310798 116.569061 
L 349.863553 123.130199 
L 355.763355 130.457081 
L 361.663158 138.159619 
L 367.56296 146.247206 
L 373.462763 154.729234 
L 379.362565 163.615093 
L 385.262367 172.914174 
L 391.16217 182.63587 
L 397.061972 192.789572 
L 402.961775 203.384672 
L 408.861577 214.43056 
L 414.76138 225.936628 
L 420.661182 237.912267 
L 426.908032 251.11461 
L 433.154881 264.86507 
L 439.401731 279.174795 
L 445.648581 294.054933 
L 451.89543 309.516633 
L 458.14228 325.571042 
L 464.389129 342.229309 
L 466.471413 347.918182 
L 466.471413 347.918182 
" clip-path="url(#pc26ce11419)" style="fill: none; stroke: #ff0000; stroke-width: 3; stroke-linecap: square"/>
   </g>
   <g id="line2d_8">
    <path d="M 119.771258 30.281818 
L 144.064562 30.391095 
L 156.905308 30.672106 
L 167.663772 31.119099 
L 177.381093 31.739149 
L 186.404321 32.536771 
L 194.733453 33.492483 
L 202.715539 34.631199 
L 210.350578 35.946236 
L 217.638569 37.42647 
L 224.579513 39.056969 
L 231.520457 40.918382 
L 238.114354 42.914539 
L 244.708251 45.146008 
L 250.9551 47.488976 
L 257.20195 50.066055 
L 263.448799 52.888393 
L 269.348602 55.789181 
L 275.248404 58.928069 
L 281.148207 62.314449 
L 287.048009 65.957712 
L 292.947812 69.86725 
L 298.847614 74.052454 
L 304.747416 78.522716 
L 310.647219 83.287426 
L 316.547021 88.355977 
L 322.099777 93.412345 
L 327.652532 98.754008 
L 333.205287 104.388795 
L 338.758042 110.324536 
L 344.310798 116.569061 
L 349.863553 123.130199 
L 355.763355 130.457081 
L 361.663158 138.159619 
L 367.56296 146.247206 
L 373.462763 154.729234 
L 379.362565 163.615093 
L 385.262367 172.914174 
L 391.16217 182.63587 
L 397.061972 192.789572 
L 402.961775 203.384672 
L 408.861577 214.43056 
L 414.76138 225.936628 
L 420.661182 237.912267 
L 426.908032 251.11461 
L 433.154881 264.86507 
L 439.401731 279.174795 
L 445.648581 294.054933 
L 451.89543 309.516633 
L 458.14228 325.571042 
L 464.389129 342.229309 
L 466.471413 347.918182 
L 466.471413 347.918182 
" clip-path="url(#pc26ce11419)" style="fill: none; stroke: #ff0000; stroke-width: 3; stroke-linecap: square"/>
   </g>
   <g id="line2d_9">
    <path d="M 119.771258 30.281818 
L 144.064562 30.391095 
L 156.905308 30.672106 
L 167.663772 31.119099 
L 177.381093 31.739149 
L 186.404321 32.536771 
L 194.733453 33.492483 
L 202.715539 34.631199 
L 210.350578 35.946236 
L 217.638569 37.42647 
L 224.579513 39.056969 
L 231.520457 40.918382 
L 238.114354 42.914539 
L 244.708251 45.146008 
L 250.9551 47.488976 
L 257.20195 50.066055 
L 263.448799 52.888393 
L 269.348602 55.789181 
L 275.248404 58.928069 
L 281.148207 62.314449 
L 287.048009 65.957712 
L 292.947812 69.86725 
L 298.847614 74.052454 
L 304.747416 78.522716 
L 310.647219 83.287426 
L 316.547021 88.355977 
L 322.099777 93.412345 
L 327.652532 98.754008 
L 333.205287 104.388795 
L 338.758042 110.324536 
L 344.310798 116.569061 
L 349.863553 123.130199 
L 355.763355 130.457081 
L 361.663158 138.159619 
L 367.56296 146.247206 
L 373.462763 154.729234 
L 379.362565 163.615093 
L 385.262367 172.914174 
L 391.16217 182.63587 
L 397.061972 192.789572 
L 402.961775 203.384672 
L 408.861577 214.43056 
L 414.76138 225.936628 
L 420.661182 237.912267 
L 426.908032 251.11461 
L 433.154881 264.86507 
L 439.401731 279.174795 
L 445.648581 294.054933 
L 451.89543 309.516633 
L 458.14228 325.571042 
L 464.389129 342.229309 
L 466.471413 347.918182 
L 466.471413 347.918182 
" clip-path="url(#pc26ce11419)" style="fill: none; stroke: #ff0000; stroke-width: 3; stroke-linecap: square"/>
   </g>
   <g id="line2d_10">
    <path d="M 119.771258 30.281818 
L 144.064562 30.391095 
L 156.905308 30.672106 
L 167.663772 31.119099 
L 177.381093 31.739149 
L 186.404321 32.536771 
L 194.733453 33.492483 
L 202.715539 34.631199 
L 210.350578 35.946236 
L 217.638569 37.42647 
L 224.579513 39.056969 
L 231.520457 40.918382 
L 238.114354 42.914539 
L 244.708251 45.146008 
L 250.9551 47.488976 
L 257.20195 50.066055 
L 263.448799 52.888393 
L 269.348602 55.789181 
L 275.248404 58.928069 
L 281.148207 62.314449 
L 287.048009 65.957712 
L 292.947812 69.86725 
L 298.847614 74.052454 
L 304.747416 78.522716 
L 310.647219 83.287426 
L 316.547021 88.355977 
L 322.099777 93.412345 
L 327.652532 98.754008 
L 333.205287 104.388795 
L 338.758042 110.324536 
L 344.310798 116.569061 
L 349.863553 123.130199 
L 355.763355 130.457081 
L 361.663158 138.159619 
L 367.56296 146.247206 
L 373.462763 154.729234 
L 379.362565 163.615093 
L 385.262367 172.914174 
L 391.16217 182.63587 
L 397.061972 192.789572 
L 402.961775 203.384672 
L 408.861577 214.43056 
L 414.76138 225.936628 
L 420.661182 237.912267 
L 426.908032 251.11461 
L 433.154881 264.86507 
L 439.401731 279.174795 
L 445.648581 294.054933 
L 451.89543 309.516633 
L 458.14228 325.571042 
L 464.389129 342.229309 
L 466.471413 347.918182 
L 466.471413 347.918182 
" clip-path="url(#pc26ce11419)" style="fill: none; stroke: #ff0000; stroke-width: 3; stroke-linecap: square"/>
   </g>
   <g id="line2d_11">
    <path d="M 119.771258 30.281818 
L 144.064562 30.391095 
L 156.905308 30.672106 
L 167.663772 31.119099 
L 177.381093 31.739149 
L 186.404321 32.536771 
L 194.733453 33.492483 
L 202.715539 34.631199 
L 210.350578 35.946236 
L 217.638569 37.42647 
L 224.579513 39.056969 
L 231.520457 40.918382 
L 238.114354 42.914539 
L 244.708251 45.146008 
L 250.9551 47.488976 
L 257.20195 50.066055 
L 263.448799 52.888393 
L 269.348602 55.789181 
L 275.248404 58.928069 
L 281.148207 62.314449 
L 287.048009 65.957712 
L 292.947812 69.86725 
L 298.847614 74.052454 
L 304.747416 78.522716 
L 310.647219 83.287426 
L 316.547021 88.355977 
L 322.099777 93.412345 
L 327.652532 98.754008 
L 333.205287 104.388795 
L 338.758042 110.324536 
L 344.310798 116.569061 
L 349.863553 123.130199 
L 355.763355 130.457081 
L 361.663158 138.159619 
L 367.56296 146.247206 
L 373.462763 154.729234 
L 379.362565 163.615093 
L 385.262367 172.914174 
L 391.16217 182.63587 
L 397.061972 192.789572 
L 402.961775 203.384672 
L 408.861577 214.43056 
L 414.76138 225.936628 
L 420.661182 237.912267 
L 426.908032 251.11461 
L 433.154881 264.86507 
L 439.401731 279.174795 
L 445.648581 294.054933 
L 451.89543 309.516633 
L 458.14228 325.571042 
L 464.389129 342.229309 
L 466.471413 347.918182 
L 466.471413 347.918182 
" clip-path="url(#pc26ce11419)" style="fill: none; stroke: #ff0000; stroke-width: 3; stroke-linecap: square"/>
   </g>
   <g id="line2d_12">
    <path d="M 119.771258 30.281818 
L 144.064562 30.391095 
L 156.905308 30.672106 
L 167.663772 31.119099 
L 177.381093 31.739149 
L 186.404321 32.536771 
L 194.733453 33.492483 
L 202.715539 34.631199 
L 210.350578 35.946236 
L 217.638569 37.42647 
L 224.579513 39.056969 
L 231.520457 40.918382 
L 238.114354 42.914539 
L 244.708251 45.146008 
L 250.9551 47.488976 
L 257.20195 50.066055 
L 263.448799 52.888393 
L 269.348602 55.789181 
L 275.248404 58.928069 
L 281.148207 62.314449 
L 287.048009 65.957712 
L 292.947812 69.86725 
L 298.847614 74.052454 
L 304.747416 78.522716 
L 310.647219 83.287426 
L 316.547021 88.355977 
L 322.099777 93.412345 
L 327.652532 98.754008 
L 333.205287 104.388795 
L 338.758042 110.324536 
L 344.310798 116.569061 
L 349.863553 123.130199 
L 355.763355 130.457081 
L 361.663158 138.159619 
L 367.56296 146.247206 
L 373.462763 154.729234 
L 379.362565 163.615093 
L 385.262367 172.914174 
L 391.16217 182.63587 
L 397.061972 192.789572 
L 402.961775 203.384672 
L 408.861577 214.43056 
L 414.76138 225.936628 
L 420.661182 237.912267 
L 426.908032 251.11461 
L 433.154881 264.86507 
L 439.401731 279.174795 
L 445.648581 294.054933 
L 451.89543 309.516633 
L 458.14228 325.571042 
L 464.389129 342.229309 
L 466.471413 347.918182 
L 466.471413 347.918182 
" clip-path="url(#pc26ce11419)" style="fill: none; stroke: #ff0000; stroke-width: 3; stroke-linecap: square"/>
   </g>
   <g id="line2d_13">
    <path d="M 119.771258 30.281818 
L 144.064562 30.391095 
L 156.905308 30.672106 
L 167.663772 31.119099 
L 177.381093 31.739149 
L 186.404321 32.536771 
L 194.733453 33.492483 
L 202.715539 34.631199 
L 210.350578 35.946236 
L 217.638569 37.42647 
L 224.579513 39.056969 
L 231.520457 40.918382 
L 238.114354 42.914539 
L 244.708251 45.146008 
L 250.9551 47.488976 
L 257.20195 50.066055 
L 263.448799 52.888393 
L 269.348602 55.789181 
L 275.248404 58.928069 
L 281.148207 62.314449 
L 287.048009 65.957712 
L 292.947812 69.86725 
L 298.847614 74.052454 
L 304.747416 78.522716 
L 310.647219 83.287426 
L 316.547021 88.355977 
L 322.099777 93.412345 
L 327.652532 98.754008 
L 333.205287 104.388795 
L 338.758042 110.324536 
L 344.310798 116.569061 
L 349.863553 123.130199 
L 355.763355 130.457081 
L 361.663158 138.159619 
L 367.56296 146.247206 
L 373.462763 154.729234 
L 379.362565 163.615093 
L 385.262367 172.914174 
L 391.16217 182.63587 
L 397.061972 192.789572 
L 402.961775 203.384672 
L 408.861577 214.43056 
L 414.76138 225.936628 
L 420.661182 237.912267 
L 426.908032 251.11461 
L 433.154881 264.86507 
L 439.401731 279.174795 
L 445.648581 294.054933 
L 451.89543 309.516633 
L 458.14228 325.571042 
L 464.389129 342.229309 
L 466.471413 347.918182 
L 466.471413 347.918182 
" clip-path="url(#pc26ce11419)" style="fill: none; stroke: #ff0000; stroke-width: 3; stroke-linecap: square"/>
   </g>
   <g id="line2d_14">
    <path d="M 119.771258 30.281818 
L 144.064562 30.391095 
L 156.905308 30.672106 
L 167.663772 31.119099 
L 177.381093 31.739149 
L 186.404321 32.536771 
L 194.733453 33.492483 
L 202.715539 34.631199 
L 210.350578 35.946236 
L 217.638569 37.42647 
L 224.579513 39.056969 
L 231.520457 40.918382 
L 238.114354 42.914539 
L 244.708251 45.146008 
L 250.9551 47.488976 
L 257.20195 50.066055 
L 263.448799 52.888393 
L 269.348602 55.789181 
L 275.248404 58.928069 
L 281.148207 62.314449 
L 287.048009 65.957712 
L 292.947812 69.86725 
L 298.847614 74.052454 
L 304.747416 78.522716 
L 310.647219 83.287426 
L 316.547021 88.355977 
L 322.099777 93.412345 
L 327.652532 98.754008 
L 333.205287 104.388795 
L 338.758042 110.324536 
L 344.310798 116.569061 
L 349.863553 123.130199 
L 355.763355 130.457081 
L 361.663158 138.159619 
L 367.56296 146.247206 
L 373.462763 154.729234 
L 379.362565 163.615093 
L 385.262367 172.914174 
L 391.16217 182.63587 
L 397.061972 192.789572 
L 402.961775 203.384672 
L 408.861577 214.43056 
L 414.76138 225.936628 
L 420.661182 237.912267 
L 426.908032 251.11461 
L 433.154881 264.86507 
L 439.401731 279.174795 
L 445.648581 294.054933 
L 451.89543 309.516633 
L 458.14228 325.571042 
L 464.389129 342.229309 
L 466.471413 347.918182 
L 466.471413 347.918182 
" clip-path="url(#pc26ce11419)" style="fill: none; stroke: #ff0000; stroke-width: 3; stroke-linecap: square"/>
   </g>
   <g id="line2d_15">
    <path d="M 119.771258 30.281818 
L 144.064562 30.391095 
L 156.905308 30.672106 
L 167.663772 31.119099 
L 177.381093 31.739149 
L 186.404321 32.536771 
L 194.733453 33.492483 
L 202.715539 34.631199 
L 210.350578 35.946236 
L 217.638569 37.42647 
L 224.579513 39.056969 
L 231.520457 40.918382 
L 238.114354 42.914539 
L 244.708251 45.146008 
L 250.9551 47.488976 
L 257.20195 50.066055 
L 263.448799 52.888393 
L 269.348602 55.789181 
L 275.248404 58.928069 
L 281.148207 62.314449 
L 287.048009 65.957712 
L 292.947812 69.86725 
L 298.847614 74.052454 
L 304.747416 78.522716 
L 310.647219 83.287426 
L 316.547021 88.355977 
L 322.099777 93.412345 
L 327.652532 98.754008 
L 333.205287 104.388795 
L 338.758042 110.324536 
L 344.310798 116.569061 
L 349.863553 123.130199 
L 355.763355 130.457081 
L 361.663158 138.159619 
L 367.56296 146.247206 
L 373.462763 154.729234 
L 379.362565 163.615093 
L 385.262367 172.914174 
L 391.16217 182.63587 
L 397.061972 192.789572 
L 402.961775 203.384672 
L 408.861577 214.43056 
L 414.76138 225.936628 
L 420.661182 237.912267 
L 426.908032 251.11461 
L 433.154881 264.86507 
L 439.401731 279.174795 
L 445.648581 294.054933 
L 451.89543 309.516633 
L 458.14228 325.571042 
L 464.389129 342.229309 
L 466.471413 347.918182 
L 466.471413 347.918182 
" clip-path="url(#pc26ce11419)" style="fill: none; stroke: #ff0000; stroke-width: 3; stroke-linecap: square"/>
   </g>
   <g id="matplotlib.axis_1">
    <g id="xtick_1">
     <g id="line2d_16">
      <defs>
       <path id="m203916b264" d="M 0 0 
L 0 -6 
" style="stroke: #000000; stroke-width: 2"/>
      </defs>
      <g>
       <use xlink:href="#m203916b264" x="119.771258" y="363.8" style="stroke: #000000; stroke-width: 2"/>
      </g>
     </g>
     <g id="text_1">
      <!-- 0.00 -->
      <g transform="translate(93.052508 387.03625)scale(0.24 -0.24)">
       <defs>
        <path id="DejaVuSans-30" d="M 2034 4250 
Q 1547 4250 1301 3770 
Q 1056 3291 1056 2328 
Q 1056 1369 1301 889 
Q 1547 409 2034 409 
Q 2525 409 2770 889 
Q 3016 1369 3016 2328 
Q 3016 3291 2770 3770 
Q 2525 4250 2034 4250 
z
M 2034 4750 
Q 2819 4750 3233 4129 
Q 3647 3509 3647 2328 
Q 3647 1150 3233 529 
Q 2819 -91 2034 -91 
Q 1250 -91 836 529 
Q 422 1150 422 2328 
Q 422 3509 836 4129 
Q 1250 4750 2034 4750 
z
" transform="scale(0.015625)"/>
        <path id="DejaVuSans-2e" d="M 684 794 
L 1344 794 
L 1344 0 
L 684 0 
L 684 794 
z
" transform="scale(0.015625)"/>
       </defs>
       <use xlink:href="#DejaVuSans-30"/>
       <use xlink:href="#DejaVuSans-2e" x="63.623047"/>
       <use xlink:href="#DejaVuSans-30" x="95.410156"/>
       <use xlink:href="#DejaVuSans-30" x="159.033203"/>
      </g>
     </g>
    </g>
    <g id="xtick_2">
     <g id="line2d_17">
      <g>
       <use xlink:href="#m203916b264" x="206.446296" y="363.8" style="stroke: #000000; stroke-width: 2"/>
      </g>
     </g>
     <g id="text_2">
      <!-- 0.25 -->
      <g transform="translate(179.727546 387.03625)scale(0.24 -0.24)">
       <defs>
        <path id="DejaVuSans-32" d="M 1228 531 
L 3431 531 
L 3431 0 
L 469 0 
L 469 531 
Q 828 903 1448 1529 
Q 2069 2156 2228 2338 
Q 2531 2678 2651 2914 
Q 2772 3150 2772 3378 
Q 2772 3750 2511 3984 
Q 2250 4219 1831 4219 
Q 1534 4219 1204 4116 
Q 875 4013 500 3803 
L 500 4441 
Q 881 4594 1212 4672 
Q 1544 4750 1819 4750 
Q 2544 4750 2975 4387 
Q 3406 4025 3406 3419 
Q 3406 3131 3298 2873 
Q 3191 2616 2906 2266 
Q 2828 2175 2409 1742 
Q 1991 1309 1228 531 
z
" transform="scale(0.015625)"/>
        <path id="DejaVuSans-35" d="M 691 4666 
L 3169 4666 
L 3169 4134 
L 1269 4134 
L 1269 2991 
Q 1406 3038 1543 3061 
Q 1681 3084 1819 3084 
Q 2600 3084 3056 2656 
Q 3513 2228 3513 1497 
Q 3513 744 3044 326 
Q 2575 -91 1722 -91 
Q 1428 -91 1123 -41 
Q 819 9 494 109 
L 494 744 
Q 775 591 1075 516 
Q 1375 441 1709 441 
Q 2250 441 2565 725 
Q 2881 1009 2881 1497 
Q 2881 1984 2565 2268 
Q 2250 2553 1709 2553 
Q 1456 2553 1204 2497 
Q 953 2441 691 2322 
L 691 4666 
z
" transform="scale(0.015625)"/>
       </defs>
       <use xlink:href="#DejaVuSans-30"/>
       <use xlink:href="#DejaVuSans-2e" x="63.623047"/>
       <use xlink:href="#DejaVuSans-32" x="95.410156"/>
       <use xlink:href="#DejaVuSans-35" x="159.033203"/>
      </g>
     </g>
    </g>
    <g id="xtick_3">
     <g id="line2d_18">
      <g>
       <use xlink:href="#m203916b264" x="293.121335" y="363.8" style="stroke: #000000; stroke-width: 2"/>
      </g>
     </g>
     <g id="text_3">
      <!-- 0.50 -->
      <g transform="translate(266.402585 387.03625)scale(0.24 -0.24)">
       <use xlink:href="#DejaVuSans-30"/>
       <use xlink:href="#DejaVuSans-2e" x="63.623047"/>
       <use xlink:href="#DejaVuSans-35" x="95.410156"/>
       <use xlink:href="#DejaVuSans-30" x="159.033203"/>
      </g>
     </g>
    </g>
    <g id="xtick_4">
     <g id="line2d_19">
      <g>
       <use xlink:href="#m203916b264" x="379.796374" y="363.8" style="stroke: #000000; stroke-width: 2"/>
      </g>
     </g>
     <g id="text_4">
      <!-- 0.75 -->
      <g transform="translate(353.077624 387.03625)scale(0.24 -0.24)">
       <defs>
        <path id="DejaVuSans-37" d="M 525 4666 
L 3525 4666 
L 3525 4397 
L 1831 0 
L 1172 0 
L 2766 4134 
L 525 4134 
L 525 4666 
z
" transform="scale(0.015625)"/>
       </defs>
       <use xlink:href="#DejaVuSans-30"/>
       <use xlink:href="#DejaVuSans-2e" x="63.623047"/>
       <use xlink:href="#DejaVuSans-37" x="95.410156"/>
       <use xlink:href="#DejaVuSans-35" x="159.033203"/>
      </g>
     </g>
    </g>
    <g id="xtick_5">
     <g id="line2d_20">
      <g>
       <use xlink:href="#m203916b264" x="466.471413" y="363.8" style="stroke: #000000; stroke-width: 2"/>
      </g>
     </g>
     <g id="text_5">
      <!-- 1.00 -->
      <g transform="translate(439.752663 387.03625)scale(0.24 -0.24)">
       <defs>
        <path id="DejaVuSans-31" d="M 794 531 
L 1825 531 
L 1825 4091 
L 703 3866 
L 703 4441 
L 1819 4666 
L 2450 4666 
L 2450 531 
L 3481 531 
L 3481 0 
L 794 0 
L 794 531 
z
" transform="scale(0.015625)"/>
       </defs>
       <use xlink:href="#DejaVuSans-31"/>
       <use xlink:href="#DejaVuSans-2e" x="63.623047"/>
       <use xlink:href="#DejaVuSans-30" x="95.410156"/>
       <use xlink:href="#DejaVuSans-30" x="159.033203"/>
      </g>
     </g>
    </g>
    <g id="text_6">
     <!-- $r / R$ -->
     <g transform="translate(273.101335 417.303125)scale(0.28 -0.28)">
      <defs>
       <path id="DejaVuSans-Oblique-72" d="M 2853 2969 
Q 2766 3016 2653 3041 
Q 2541 3066 2413 3066 
Q 1953 3066 1609 2717 
Q 1266 2369 1153 1784 
L 800 0 
L 225 0 
L 909 3500 
L 1484 3500 
L 1375 2956 
Q 1603 3259 1920 3421 
Q 2238 3584 2597 3584 
Q 2691 3584 2781 3573 
Q 2872 3563 2963 3538 
L 2853 2969 
z
" transform="scale(0.015625)"/>
       <path id="DejaVuSans-2f" d="M 1625 4666 
L 2156 4666 
L 531 -594 
L 0 -594 
L 1625 4666 
z
" transform="scale(0.015625)"/>
       <path id="DejaVuSans-Oblique-52" d="M 1613 4147 
L 1294 2491 
L 2106 2491 
Q 2584 2491 2879 2755 
Q 3175 3019 3175 3444 
Q 3175 3784 2976 3965 
Q 2778 4147 2406 4147 
L 1613 4147 
z
M 2772 2241 
Q 2972 2194 3105 2009 
Q 3238 1825 3413 1275 
L 3809 0 
L 3144 0 
L 2778 1197 
Q 2638 1659 2453 1815 
Q 2269 1972 1888 1972 
L 1191 1972 
L 806 0 
L 172 0 
L 1081 4666 
L 2503 4666 
Q 3150 4666 3495 4373 
Q 3841 4081 3841 3531 
Q 3841 3044 3547 2687 
Q 3253 2331 2772 2241 
z
" transform="scale(0.015625)"/>
      </defs>
      <use xlink:href="#DejaVuSans-Oblique-72" transform="translate(0 0.09375)"/>
      <use xlink:href="#DejaVuSans-2f" transform="translate(41.113281 0.09375)"/>
      <use xlink:href="#DejaVuSans-Oblique-52" transform="translate(73.054688 0.09375)"/>
     </g>
    </g>
   </g>
   <g id="matplotlib.axis_2">
    <g id="ytick_1">
     <g id="line2d_21">
      <defs>
       <path id="mfdbb559506" d="M 0 0 
L 6 0 
" style="stroke: #000000; stroke-width: 2"/>
      </defs>
      <g>
       <use xlink:href="#mfdbb559506" x="102.43625" y="347.918182" style="stroke: #000000; stroke-width: 2"/>
      </g>
     </g>
     <g id="text_7">
      <!-- 0.00 -->
      <g transform="translate(45.49875 357.036307)scale(0.24 -0.24)">
       <use xlink:href="#DejaVuSans-30"/>
       <use xlink:href="#DejaVuSans-2e" x="63.623047"/>
       <use xlink:href="#DejaVuSans-30" x="95.410156"/>
       <use xlink:href="#DejaVuSans-30" x="159.033203"/>
      </g>
     </g>
    </g>
    <g id="ytick_2">
     <g id="line2d_22">
      <g>
       <use xlink:href="#mfdbb559506" x="102.43625" y="288.381236" style="stroke: #000000; stroke-width: 2"/>
      </g>
     </g>
     <g id="text_8">
      <!-- 0.25 -->
      <g transform="translate(45.49875 297.499361)scale(0.24 -0.24)">
       <use xlink:href="#DejaVuSans-30"/>
       <use xlink:href="#DejaVuSans-2e" x="63.623047"/>
       <use xlink:href="#DejaVuSans-32" x="95.410156"/>
       <use xlink:href="#DejaVuSans-35" x="159.033203"/>
      </g>
     </g>
    </g>
    <g id="ytick_3">
     <g id="line2d_23">
      <g>
       <use xlink:href="#mfdbb559506" x="102.43625" y="228.84429" style="stroke: #000000; stroke-width: 2"/>
      </g>
     </g>
     <g id="text_9">
      <!-- 0.50 -->
      <g transform="translate(45.49875 237.962415)scale(0.24 -0.24)">
       <use xlink:href="#DejaVuSans-30"/>
       <use xlink:href="#DejaVuSans-2e" x="63.623047"/>
       <use xlink:href="#DejaVuSans-35" x="95.410156"/>
       <use xlink:href="#DejaVuSans-30" x="159.033203"/>
      </g>
     </g>
    </g>
    <g id="ytick_4">
     <g id="line2d_24">
      <g>
       <use xlink:href="#mfdbb559506" x="102.43625" y="169.307344" style="stroke: #000000; stroke-width: 2"/>
      </g>
     </g>
     <g id="text_10">
      <!-- 0.75 -->
      <g transform="translate(45.49875 178.425469)scale(0.24 -0.24)">
       <use xlink:href="#DejaVuSans-30"/>
       <use xlink:href="#DejaVuSans-2e" x="63.623047"/>
       <use xlink:href="#DejaVuSans-37" x="95.410156"/>
       <use xlink:href="#DejaVuSans-35" x="159.033203"/>
      </g>
     </g>
    </g>
    <g id="ytick_5">
     <g id="line2d_25">
      <g>
       <use xlink:href="#mfdbb559506" x="102.43625" y="109.770398" style="stroke: #000000; stroke-width: 2"/>
      </g>
     </g>
     <g id="text_11">
      <!-- 1.00 -->
      <g transform="translate(45.49875 118.888523)scale(0.24 -0.24)">
       <use xlink:href="#DejaVuSans-31"/>
       <use xlink:href="#DejaVuSans-2e" x="63.623047"/>
       <use xlink:href="#DejaVuSans-30" x="95.410156"/>
       <use xlink:href="#DejaVuSans-30" x="159.033203"/>
      </g>
     </g>
    </g>
    <g id="ytick_6">
     <g id="line2d_26">
      <g>
       <use xlink:href="#mfdbb559506" x="102.43625" y="50.233452" style="stroke: #000000; stroke-width: 2"/>
      </g>
     </g>
     <g id="text_12">
      <!-- 1.25 -->
      <g transform="translate(45.49875 59.351577)scale(0.24 -0.24)">
       <use xlink:href="#DejaVuSans-31"/>
       <use xlink:href="#DejaVuSans-2e" x="63.623047"/>
       <use xlink:href="#DejaVuSans-32" x="95.410156"/>
       <use xlink:href="#DejaVuSans-35" x="159.033203"/>
      </g>
     </g>
    </g>
    <g id="text_13">
     <!-- $u_x / \bar{u_x}$ -->
     <g transform="translate(35.675625 223.96)rotate(-90)scale(0.28 -0.28)">
      <defs>
       <path id="DejaVuSans-Oblique-75" d="M 428 1388 
L 838 3500 
L 1416 3500 
L 1006 1409 
Q 975 1256 961 1147 
Q 947 1038 947 966 
Q 947 700 1109 554 
Q 1272 409 1569 409 
Q 2031 409 2368 721 
Q 2706 1034 2809 1563 
L 3194 3500 
L 3769 3500 
L 3091 0 
L 2516 0 
L 2631 550 
Q 2388 244 2052 76 
Q 1716 -91 1338 -91 
Q 878 -91 622 161 
Q 366 413 366 863 
Q 366 956 381 1097 
Q 397 1238 428 1388 
z
" transform="scale(0.015625)"/>
       <path id="DejaVuSans-Oblique-78" d="M 3841 3500 
L 2234 1784 
L 3219 0 
L 2559 0 
L 1819 1388 
L 531 0 
L -166 0 
L 1556 1844 
L 641 3500 
L 1300 3500 
L 1972 2234 
L 3144 3500 
L 3841 3500 
z
" transform="scale(0.015625)"/>
       <path id="DejaVuSans-304" d="M -2518 4769 
L -650 4769 
L -650 4306 
L -2518 4306 
L -2518 4769 
z
" transform="scale(0.015625)"/>
      </defs>
      <use xlink:href="#DejaVuSans-Oblique-75" transform="translate(0 0.578125)"/>
      <use xlink:href="#DejaVuSans-Oblique-78" transform="translate(63.378906 -15.828125)scale(0.7)"/>
      <use xlink:href="#DejaVuSans-2f" transform="translate(107.539062 0.578125)"/>
      <use xlink:href="#DejaVuSans-304" transform="translate(233.458984 0.484375)"/>
      <use xlink:href="#DejaVuSans-Oblique-75" transform="translate(141.230469 0.578125)"/>
      <use xlink:href="#DejaVuSans-Oblique-78" transform="translate(204.609375 -15.828125)scale(0.7)"/>
     </g>
    </g>
   </g>
   <g id="line2d_27">
    <defs>
     <path id="ma810c66824" d="M 0 6 
C 1.591219 6 3.117479 5.367802 4.242641 4.242641 
C 5.367802 3.117479 6 1.591219 6 0 
C 6 -1.591219 5.367802 -3.117479 4.242641 -4.242641 
C 3.117479 -5.367802 1.591219 -6 0 -6 
C -1.591219 -6 -3.117479 -5.367802 -4.242641 -4.242641 
C -5.367802 -3.117479 -6 -1.591219 -6 0 
C -6 1.591219 -5.367802 3.117479 -4.242641 4.242641 
C -3.117479 5.367802 -1.591219 6 0 6 
z
" style="stroke: #5ec962; stroke-width: 1.5"/>
    </defs>
    <g clip-path="url(#pc26ce11419)">
     <use xlink:href="#ma810c66824" x="143.492847" y="44.922539" style="fill-opacity: 0; stroke: #5ec962; stroke-width: 1.5"/>
     <use xlink:href="#ma810c66824" x="190.936026" y="50.067892" style="fill-opacity: 0; stroke: #5ec962; stroke-width: 1.5"/>
     <use xlink:href="#ma810c66824" x="238.379205" y="60.492704" style="fill-opacity: 0; stroke: #5ec962; stroke-width: 1.5"/>
     <use xlink:href="#ma810c66824" x="285.822385" y="80.010496" style="fill-opacity: 0; stroke: #5ec962; stroke-width: 1.5"/>
     <use xlink:href="#ma810c66824" x="333.265564" y="114.873206" style="fill-opacity: 0; stroke: #5ec962; stroke-width: 1.5"/>
     <use xlink:href="#ma810c66824" x="380.708743" y="169.538388" style="fill-opacity: 0; stroke: #5ec962; stroke-width: 1.5"/>
     <use xlink:href="#ma810c66824" x="428.151922" y="248.81893" style="fill-opacity: 0; stroke: #5ec962; stroke-width: 1.5"/>
    </g>
   </g>
   <g id="line2d_28">
    <defs>
     <path id="mfcd1a4322d" d="M -3 6 
L 0 3 
L 3 6 
L 6 3 
L 3 0 
L 6 -3 
L 3 -6 
L 0 -3 
L -3 -6 
L -6 -3 
L -3 0 
L -6 3 
z
" style="stroke: #21918c; stroke-width: 1.5; stroke-linejoin: miter"/>
    </defs>
    <g clip-path="url(#pc26ce11419)">
     <use xlink:href="#mfcd1a4322d" x="143.492847" y="44.922539" style="fill-opacity: 0; stroke: #21918c; stroke-width: 1.5; stroke-linejoin: miter"/>
     <use xlink:href="#mfcd1a4322d" x="190.936026" y="50.067892" style="fill-opacity: 0; stroke: #21918c; stroke-width: 1.5; stroke-linejoin: miter"/>
     <use xlink:href="#mfcd1a4322d" x="238.379205" y="60.492704" style="fill-opacity: 0; stroke: #21918c; stroke-width: 1.5; stroke-linejoin: miter"/>
     <use xlink:href="#mfcd1a4322d" x="285.822385" y="80.010496" style="fill-opacity: 0; stroke: #21918c; stroke-width: 1.5; stroke-linejoin: miter"/>
     <use xlink:href="#mfcd1a4322d" x="333.265564" y="114.873206" style="fill-opacity: 0; stroke: #21918c; stroke-width: 1.5; stroke-linejoin: miter"/>
     <use xlink:href="#mfcd1a4322d" x="380.708743" y="169.538388" style="fill-opacity: 0; stroke: #21918c; stroke-width: 1.5; stroke-linejoin: miter"/>
     <use xlink:href="#mfcd1a4322d" x="428.151922" y="248.81893" style="fill-opacity: 0; stroke: #21918c; stroke-width: 1.5; stroke-linejoin: miter"/>
    </g>
   </g>
   <g id="line2d_29">
    <defs>
     <path id="m9640942414" d="M -6 6 
L 6 6 
L 6 -6 
L -6 -6 
z
" style="stroke: #3b528b; stroke-width: 1.5; stroke-linejoin: miter"/>
    </defs>
    <g clip-path="url(#pc26ce11419)">
     <use xlink:href="#m9640942414" x="143.492847" y="43.383377" style="fill-opacity: 0; stroke: #3b528b; stroke-width: 1.5; stroke-linejoin: miter"/>
     <use xlink:href="#m9640942414" x="190.936026" y="48.62663" style="fill-opacity: 0; stroke: #3b528b; stroke-width: 1.5; stroke-linejoin: miter"/>
     <use xlink:href="#m9640942414" x="238.379205" y="59.200681" style="fill-opacity: 0; stroke: #3b528b; stroke-width: 1.5; stroke-linejoin: miter"/>
     <use xlink:href="#m9640942414" x="285.822385" y="79.492119" style="fill-opacity: 0; stroke: #3b528b; stroke-width: 1.5; stroke-linejoin: miter"/>
     <use xlink:href="#m9640942414" x="333.265564" y="115.366505" style="fill-opacity: 0; stroke: #3b528b; stroke-width: 1.5; stroke-linejoin: miter"/>
     <use xlink:href="#m9640942414" x="380.708743" y="170.989198" style="fill-opacity: 0; stroke: #3b528b; stroke-width: 1.5; stroke-linejoin: miter"/>
     <use xlink:href="#m9640942414" x="428.151922" y="251.062972" style="fill-opacity: 0; stroke: #3b528b; stroke-width: 1.5; stroke-linejoin: miter"/>
    </g>
   </g>
   <g id="patch_3">
    <path d="M 102.43625 363.8 
L 102.43625 14.4 
" style="fill: none; stroke: #000000; stroke-width: 2; stroke-linejoin: miter; stroke-linecap: square"/>
   </g>
   <g id="patch_4">
    <path d="M 483.80642 363.8 
L 483.80642 14.4 
" style="fill: none; stroke: #000000; stroke-width: 2; stroke-linejoin: miter; stroke-linecap: square"/>
   </g>
   <g id="patch_5">
    <path d="M 102.43625 363.8 
L 483.80642 363.8 
" style="fill: none; stroke: #000000; stroke-width: 2; stroke-linejoin: miter; stroke-linecap: square"/>
   </g>
   <g id="patch_6">
    <path d="M 102.43625 14.4 
L 483.80642 14.4 
" style="fill: none; stroke: #000000; stroke-width: 2; stroke-linejoin: miter; stroke-linecap: square"/>
   </g>
   <g id="legend_1">
    <g id="patch_7">
     <path d="M 116.43625 353.8 
L 260.83625 353.8 
Q 264.83625 353.8 264.83625 349.8 
L 264.83625 234.375 
Q 264.83625 230.375 260.83625 230.375 
L 116.43625 230.375 
Q 112.43625 230.375 112.43625 234.375 
L 112.43625 349.8 
Q 112.43625 353.8 116.43625 353.8 
z
" style="fill: #ffffff; opacity: 0.8; stroke: #cccccc; stroke-linejoin: miter"/>
    </g>
    <g id="line2d_30">
     <path d="M 120.43625 246.571875 
L 140.43625 246.571875 
L 160.43625 246.571875 
" style="fill: none; stroke: #5ec962; stroke-width: 3; stroke-linecap: square"/>
     <g>
      <use xlink:href="#ma810c66824" x="140.43625" y="246.571875" style="fill-opacity: 0; stroke: #5ec962; stroke-width: 1.5"/>
     </g>
    </g>
    <g id="text_14">
     <!-- Quintic -->
     <g transform="translate(176.43625 253.571875)scale(0.2 -0.2)">
      <defs>
       <path id="DejaVuSans-51" d="M 2522 4238 
Q 1834 4238 1429 3725 
Q 1025 3213 1025 2328 
Q 1025 1447 1429 934 
Q 1834 422 2522 422 
Q 3209 422 3611 934 
Q 4013 1447 4013 2328 
Q 4013 3213 3611 3725 
Q 3209 4238 2522 4238 
z
M 3406 84 
L 4238 -825 
L 3475 -825 
L 2784 -78 
Q 2681 -84 2626 -87 
Q 2572 -91 2522 -91 
Q 1538 -91 948 567 
Q 359 1225 359 2328 
Q 359 3434 948 4092 
Q 1538 4750 2522 4750 
Q 3503 4750 4090 4092 
Q 4678 3434 4678 2328 
Q 4678 1516 4351 937 
Q 4025 359 3406 84 
z
" transform="scale(0.015625)"/>
       <path id="DejaVuSans-75" d="M 544 1381 
L 544 3500 
L 1119 3500 
L 1119 1403 
Q 1119 906 1312 657 
Q 1506 409 1894 409 
Q 2359 409 2629 706 
Q 2900 1003 2900 1516 
L 2900 3500 
L 3475 3500 
L 3475 0 
L 2900 0 
L 2900 538 
Q 2691 219 2414 64 
Q 2138 -91 1772 -91 
Q 1169 -91 856 284 
Q 544 659 544 1381 
z
M 1991 3584 
L 1991 3584 
z
" transform="scale(0.015625)"/>
       <path id="DejaVuSans-69" d="M 603 3500 
L 1178 3500 
L 1178 0 
L 603 0 
L 603 3500 
z
M 603 4863 
L 1178 4863 
L 1178 4134 
L 603 4134 
L 603 4863 
z
" transform="scale(0.015625)"/>
       <path id="DejaVuSans-6e" d="M 3513 2113 
L 3513 0 
L 2938 0 
L 2938 2094 
Q 2938 2591 2744 2837 
Q 2550 3084 2163 3084 
Q 1697 3084 1428 2787 
Q 1159 2491 1159 1978 
L 1159 0 
L 581 0 
L 581 3500 
L 1159 3500 
L 1159 2956 
Q 1366 3272 1645 3428 
Q 1925 3584 2291 3584 
Q 2894 3584 3203 3211 
Q 3513 2838 3513 2113 
z
" transform="scale(0.015625)"/>
       <path id="DejaVuSans-74" d="M 1172 4494 
L 1172 3500 
L 2356 3500 
L 2356 3053 
L 1172 3053 
L 1172 1153 
Q 1172 725 1289 603 
Q 1406 481 1766 481 
L 2356 481 
L 2356 0 
L 1766 0 
Q 1100 0 847 248 
Q 594 497 594 1153 
L 594 3053 
L 172 3053 
L 172 3500 
L 594 3500 
L 594 4494 
L 1172 4494 
z
" transform="scale(0.015625)"/>
       <path id="DejaVuSans-63" d="M 3122 3366 
L 3122 2828 
Q 2878 2963 2633 3030 
Q 2388 3097 2138 3097 
Q 1578 3097 1268 2742 
Q 959 2388 959 1747 
Q 959 1106 1268 751 
Q 1578 397 2138 397 
Q 2388 397 2633 464 
Q 2878 531 3122 666 
L 3122 134 
Q 2881 22 2623 -34 
Q 2366 -91 2075 -91 
Q 1284 -91 818 406 
Q 353 903 353 1747 
Q 353 2603 823 3093 
Q 1294 3584 2113 3584 
Q 2378 3584 2631 3529 
Q 2884 3475 3122 3366 
z
" transform="scale(0.015625)"/>
      </defs>
      <use xlink:href="#DejaVuSans-51"/>
      <use xlink:href="#DejaVuSans-75" x="78.710938"/>
      <use xlink:href="#DejaVuSans-69" x="142.089844"/>
      <use xlink:href="#DejaVuSans-6e" x="169.873047"/>
      <use xlink:href="#DejaVuSans-74" x="233.251953"/>
      <use xlink:href="#DejaVuSans-69" x="272.460938"/>
      <use xlink:href="#DejaVuSans-63" x="300.244141"/>
     </g>
    </g>
    <g id="line2d_31">
     <path d="M 120.43625 275.928125 
L 140.43625 275.928125 
L 160.43625 275.928125 
" style="fill: none; stroke: #21918c; stroke-width: 3; stroke-linecap: square"/>
     <g>
      <use xlink:href="#mfcd1a4322d" x="140.43625" y="275.928125" style="fill-opacity: 0; stroke: #21918c; stroke-width: 1.5; stroke-linejoin: miter"/>
     </g>
    </g>
    <g id="text_15">
     <!-- RK0 -->
     <g transform="translate(176.43625 282.928125)scale(0.2 -0.2)">
      <defs>
       <path id="DejaVuSans-52" d="M 2841 2188 
Q 3044 2119 3236 1894 
Q 3428 1669 3622 1275 
L 4263 0 
L 3584 0 
L 2988 1197 
Q 2756 1666 2539 1819 
Q 2322 1972 1947 1972 
L 1259 1972 
L 1259 0 
L 628 0 
L 628 4666 
L 2053 4666 
Q 2853 4666 3247 4331 
Q 3641 3997 3641 3322 
Q 3641 2881 3436 2590 
Q 3231 2300 2841 2188 
z
M 1259 4147 
L 1259 2491 
L 2053 2491 
Q 2509 2491 2742 2702 
Q 2975 2913 2975 3322 
Q 2975 3731 2742 3939 
Q 2509 4147 2053 4147 
L 1259 4147 
z
" transform="scale(0.015625)"/>
       <path id="DejaVuSans-4b" d="M 628 4666 
L 1259 4666 
L 1259 2694 
L 3353 4666 
L 4166 4666 
L 1850 2491 
L 4331 0 
L 3500 0 
L 1259 2247 
L 1259 0 
L 628 0 
L 628 4666 
z
" transform="scale(0.015625)"/>
      </defs>
      <use xlink:href="#DejaVuSans-52"/>
      <use xlink:href="#DejaVuSans-4b" x="69.482422"/>
      <use xlink:href="#DejaVuSans-30" x="135.058594"/>
     </g>
    </g>
    <g id="line2d_32">
     <path d="M 120.43625 305.284375 
L 140.43625 305.284375 
L 160.43625 305.284375 
" style="fill: none; stroke: #3b528b; stroke-width: 3; stroke-linecap: square"/>
     <g>
      <use xlink:href="#m9640942414" x="140.43625" y="305.284375" style="fill-opacity: 0; stroke: #3b528b; stroke-width: 1.5; stroke-linejoin: miter"/>
     </g>
    </g>
    <g id="text_16">
     <!-- RK1 -->
     <g transform="translate(176.43625 312.284375)scale(0.2 -0.2)">
      <use xlink:href="#DejaVuSans-52"/>
      <use xlink:href="#DejaVuSans-4b" x="69.482422"/>
      <use xlink:href="#DejaVuSans-31" x="135.058594"/>
     </g>
    </g>
    <g id="line2d_33">
     <path d="M 120.43625 334.640625 
L 140.43625 334.640625 
L 160.43625 334.640625 
" style="fill: none; stroke: #ff0000; stroke-width: 3; stroke-linecap: square"/>
    </g>
    <g id="text_17">
     <!-- Analytic -->
     <g transform="translate(176.43625 341.640625)scale(0.2 -0.2)">
      <defs>
       <path id="DejaVuSans-41" d="M 2188 4044 
L 1331 1722 
L 3047 1722 
L 2188 4044 
z
M 1831 4666 
L 2547 4666 
L 4325 0 
L 3669 0 
L 3244 1197 
L 1141 1197 
L 716 0 
L 50 0 
L 1831 4666 
z
" transform="scale(0.015625)"/>
       <path id="DejaVuSans-61" d="M 2194 1759 
Q 1497 1759 1228 1600 
Q 959 1441 959 1056 
Q 959 750 1161 570 
Q 1363 391 1709 391 
Q 2188 391 2477 730 
Q 2766 1069 2766 1631 
L 2766 1759 
L 2194 1759 
z
M 3341 1997 
L 3341 0 
L 2766 0 
L 2766 531 
Q 2569 213 2275 61 
Q 1981 -91 1556 -91 
Q 1019 -91 701 211 
Q 384 513 384 1019 
Q 384 1609 779 1909 
Q 1175 2209 1959 2209 
L 2766 2209 
L 2766 2266 
Q 2766 2663 2505 2880 
Q 2244 3097 1772 3097 
Q 1472 3097 1187 3025 
Q 903 2953 641 2809 
L 641 3341 
Q 956 3463 1253 3523 
Q 1550 3584 1831 3584 
Q 2591 3584 2966 3190 
Q 3341 2797 3341 1997 
z
" transform="scale(0.015625)"/>
       <path id="DejaVuSans-6c" d="M 603 4863 
L 1178 4863 
L 1178 0 
L 603 0 
L 603 4863 
z
" transform="scale(0.015625)"/>
       <path id="DejaVuSans-79" d="M 2059 -325 
Q 1816 -950 1584 -1140 
Q 1353 -1331 966 -1331 
L 506 -1331 
L 506 -850 
L 844 -850 
Q 1081 -850 1212 -737 
Q 1344 -625 1503 -206 
L 1606 56 
L 191 3500 
L 800 3500 
L 1894 763 
L 2988 3500 
L 3597 3500 
L 2059 -325 
z
" transform="scale(0.015625)"/>
      </defs>
      <use xlink:href="#DejaVuSans-41"/>
      <use xlink:href="#DejaVuSans-6e" x="68.408203"/>
      <use xlink:href="#DejaVuSans-61" x="131.787109"/>
      <use xlink:href="#DejaVuSans-6c" x="193.066406"/>
      <use xlink:href="#DejaVuSans-79" x="220.849609"/>
      <use xlink:href="#DejaVuSans-74" x="280.029297"/>
      <use xlink:href="#DejaVuSans-69" x="319.238281"/>
      <use xlink:href="#DejaVuSans-63" x="347.021484"/>
     </g>
    </g>
   </g>
   <g id="legend_2">
    <g id="patch_8">
     <path d="M 116.43625 353.8 
L 287.301875 353.8 
Q 291.301875 353.8 291.301875 349.8 
L 291.301875 293.0875 
Q 291.301875 289.0875 287.301875 289.0875 
L 116.43625 289.0875 
Q 112.43625 289.0875 112.43625 293.0875 
L 112.43625 349.8 
Q 112.43625 353.8 116.43625 353.8 
z
" style="fill: #ffffff; opacity: 0.8; stroke: #cccccc; stroke-linejoin: miter"/>
    </g>
    <g id="line2d_34">
     <path d="M 120.43625 305.284375 
L 140.43625 305.284375 
L 160.43625 305.284375 
" style="fill: none; stroke-dasharray: 3,4.95; stroke-dashoffset: 0; stroke: #000000; stroke-width: 3"/>
    </g>
    <g id="text_18">
     <!-- Newtonian -->
     <g transform="translate(176.43625 312.284375)scale(0.2 -0.2)">
      <defs>
       <path id="DejaVuSans-4e" d="M 628 4666 
L 1478 4666 
L 3547 763 
L 3547 4666 
L 4159 4666 
L 4159 0 
L 3309 0 
L 1241 3903 
L 1241 0 
L 628 0 
L 628 4666 
z
" transform="scale(0.015625)"/>
       <path id="DejaVuSans-65" d="M 3597 1894 
L 3597 1613 
L 953 1613 
Q 991 1019 1311 708 
Q 1631 397 2203 397 
Q 2534 397 2845 478 
Q 3156 559 3463 722 
L 3463 178 
Q 3153 47 2828 -22 
Q 2503 -91 2169 -91 
Q 1331 -91 842 396 
Q 353 884 353 1716 
Q 353 2575 817 3079 
Q 1281 3584 2069 3584 
Q 2775 3584 3186 3129 
Q 3597 2675 3597 1894 
z
M 3022 2063 
Q 3016 2534 2758 2815 
Q 2500 3097 2075 3097 
Q 1594 3097 1305 2825 
Q 1016 2553 972 2059 
L 3022 2063 
z
" transform="scale(0.015625)"/>
       <path id="DejaVuSans-77" d="M 269 3500 
L 844 3500 
L 1563 769 
L 2278 3500 
L 2956 3500 
L 3675 769 
L 4391 3500 
L 4966 3500 
L 4050 0 
L 3372 0 
L 2619 2869 
L 1863 0 
L 1184 0 
L 269 3500 
z
" transform="scale(0.015625)"/>
       <path id="DejaVuSans-6f" d="M 1959 3097 
Q 1497 3097 1228 2736 
Q 959 2375 959 1747 
Q 959 1119 1226 758 
Q 1494 397 1959 397 
Q 2419 397 2687 759 
Q 2956 1122 2956 1747 
Q 2956 2369 2687 2733 
Q 2419 3097 1959 3097 
z
M 1959 3584 
Q 2709 3584 3137 3096 
Q 3566 2609 3566 1747 
Q 3566 888 3137 398 
Q 2709 -91 1959 -91 
Q 1206 -91 779 398 
Q 353 888 353 1747 
Q 353 2609 779 3096 
Q 1206 3584 1959 3584 
z
" transform="scale(0.015625)"/>
      </defs>
      <use xlink:href="#DejaVuSans-4e"/>
      <use xlink:href="#DejaVuSans-65" x="74.804688"/>
      <use xlink:href="#DejaVuSans-77" x="136.328125"/>
      <use xlink:href="#DejaVuSans-74" x="218.115234"/>
      <use xlink:href="#DejaVuSans-6f" x="257.324219"/>
      <use xlink:href="#DejaVuSans-6e" x="318.505859"/>
      <use xlink:href="#DejaVuSans-69" x="381.884766"/>
      <use xlink:href="#DejaVuSans-61" x="409.667969"/>
      <use xlink:href="#DejaVuSans-6e" x="470.947266"/>
     </g>
    </g>
    <g id="line2d_35">
     <path d="M 120.43625 334.640625 
L 140.43625 334.640625 
L 160.43625 334.640625 
" style="fill: none; stroke-dasharray: 11.1,4.8; stroke-dashoffset: 0; stroke: #000000; stroke-width: 3"/>
    </g>
    <g id="text_19">
     <!-- Power Law -->
     <g transform="translate(176.43625 341.640625)scale(0.2 -0.2)">
      <defs>
       <path id="DejaVuSans-50" d="M 1259 4147 
L 1259 2394 
L 2053 2394 
Q 2494 2394 2734 2622 
Q 2975 2850 2975 3272 
Q 2975 3691 2734 3919 
Q 2494 4147 2053 4147 
L 1259 4147 
z
M 628 4666 
L 2053 4666 
Q 2838 4666 3239 4311 
Q 3641 3956 3641 3272 
Q 3641 2581 3239 2228 
Q 2838 1875 2053 1875 
L 1259 1875 
L 1259 0 
L 628 0 
L 628 4666 
z
" transform="scale(0.015625)"/>
       <path id="DejaVuSans-72" d="M 2631 2963 
Q 2534 3019 2420 3045 
Q 2306 3072 2169 3072 
Q 1681 3072 1420 2755 
Q 1159 2438 1159 1844 
L 1159 0 
L 581 0 
L 581 3500 
L 1159 3500 
L 1159 2956 
Q 1341 3275 1631 3429 
Q 1922 3584 2338 3584 
Q 2397 3584 2469 3576 
Q 2541 3569 2628 3553 
L 2631 2963 
z
" transform="scale(0.015625)"/>
       <path id="DejaVuSans-20" transform="scale(0.015625)"/>
       <path id="DejaVuSans-4c" d="M 628 4666 
L 1259 4666 
L 1259 531 
L 3531 531 
L 3531 0 
L 628 0 
L 628 4666 
z
" transform="scale(0.015625)"/>
      </defs>
      <use xlink:href="#DejaVuSans-50"/>
      <use xlink:href="#DejaVuSans-6f" x="56.677734"/>
      <use xlink:href="#DejaVuSans-77" x="117.859375"/>
      <use xlink:href="#DejaVuSans-65" x="199.646484"/>
      <use xlink:href="#DejaVuSans-72" x="261.169922"/>
      <use xlink:href="#DejaVuSans-20" x="302.283203"/>
      <use xlink:href="#DejaVuSans-4c" x="334.070312"/>
      <use xlink:href="#DejaVuSans-61" x="389.783203"/>
      <use xlink:href="#DejaVuSans-77" x="451.0625"/>
     </g>
    </g>
   </g>
   <g id="legend_3">
    <g id="patch_9">
     <path d="M 116.43625 353.8 
L 287.301875 353.8 
Q 291.301875 353.8 291.301875 349.8 
L 291.301875 293.0875 
Q 291.301875 289.0875 287.301875 289.0875 
L 116.43625 289.0875 
Q 112.43625 289.0875 112.43625 293.0875 
L 112.43625 349.8 
Q 112.43625 353.8 116.43625 353.8 
z
" style="fill: #ffffff; opacity: 0.8; stroke: #cccccc; stroke-linejoin: miter"/>
    </g>
    <g id="line2d_36">
     <path d="M 120.43625 305.284375 
L 140.43625 305.284375 
L 160.43625 305.284375 
" style="fill: none; stroke-dasharray: 3,4.95; stroke-dashoffset: 0; stroke: #000000; stroke-width: 3"/>
    </g>
    <g id="text_20">
     <!-- Newtonian -->
     <g transform="translate(176.43625 312.284375)scale(0.2 -0.2)">
      <use xlink:href="#DejaVuSans-4e"/>
      <use xlink:href="#DejaVuSans-65" x="74.804688"/>
      <use xlink:href="#DejaVuSans-77" x="136.328125"/>
      <use xlink:href="#DejaVuSans-74" x="218.115234"/>
      <use xlink:href="#DejaVuSans-6f" x="257.324219"/>
      <use xlink:href="#DejaVuSans-6e" x="318.505859"/>
      <use xlink:href="#DejaVuSans-69" x="381.884766"/>
      <use xlink:href="#DejaVuSans-61" x="409.667969"/>
      <use xlink:href="#DejaVuSans-6e" x="470.947266"/>
     </g>
    </g>
    <g id="line2d_37">
     <path d="M 120.43625 334.640625 
L 140.43625 334.640625 
L 160.43625 334.640625 
" style="fill: none; stroke-dasharray: 11.1,4.8; stroke-dashoffset: 0; stroke: #000000; stroke-width: 3"/>
    </g>
    <g id="text_21">
     <!-- Power Law -->
     <g transform="translate(176.43625 341.640625)scale(0.2 -0.2)">
      <use xlink:href="#DejaVuSans-50"/>
      <use xlink:href="#DejaVuSans-6f" x="56.677734"/>
      <use xlink:href="#DejaVuSans-77" x="117.859375"/>
      <use xlink:href="#DejaVuSans-65" x="199.646484"/>
      <use xlink:href="#DejaVuSans-72" x="261.169922"/>
      <use xlink:href="#DejaVuSans-20" x="302.283203"/>
      <use xlink:href="#DejaVuSans-4c" x="334.070312"/>
      <use xlink:href="#DejaVuSans-61" x="389.783203"/>
      <use xlink:href="#DejaVuSans-77" x="451.0625"/>
     </g>
    </g>
   </g>
  </g>
 </g>
 <defs>
  <clipPath id="pc26ce11419">
   <rect x="102.43625" y="14.4" width="381.37017" height="349.4"/>
  </clipPath>
 </defs>
</svg>
