<?xml version="1.0" encoding="utf-8" standalone="no"?>
<!DOCTYPE svg PUBLIC "-//W3C//DTD SVG 1.1//EN"
  "http://www.w3.org/Graphics/SVG/1.1/DTD/svg11.dtd">
<svg xmlns:xlink="http://www.w3.org/1999/xlink" width="506.40625pt" height="434.32625pt" viewBox="0 0 506.40625 434.32625" xmlns="http://www.w3.org/2000/svg" version="1.1">
 <metadata>
  <rdf:RDF xmlns:dc="http://purl.org/dc/elements/1.1/" xmlns:cc="http://creativecommons.org/ns#" xmlns:rdf="http://www.w3.org/1999/02/22-rdf-syntax-ns#">
   <cc:Work>
    <dc:type rdf:resource="http://purl.org/dc/dcmitype/StillImage"/>
    <dc:date>2023-05-01T13:39:32.891615</dc:date>
    <dc:format>image/svg+xml</dc:format>
    <dc:creator>
     <cc:Agent>
      <dc:title>Matplotlib v3.5.1, https://matplotlib.org/</dc:title>
     </cc:Agent>
    </dc:creator>
   </cc:Work>
  </rdf:RDF>
 </metadata>
 <defs>
  <style type="text/css">*{stroke-linejoin: round; stroke-linecap: butt}</style>
 </defs>
 <g id="figure_1">
  <g id="patch_1">
   <path d="M 0 434.32625 
L 506.40625 434.32625 
L 506.40625 0 
L 0 0 
L 0 434.32625 
z
" style="fill: none"/>
  </g>
  <g id="axes_1">
   <g id="patch_2">
    <path d="M 122.54 360.6 
L 492.00625 360.6 
L 492.00625 14.4 
L 122.54 14.4 
z
" style="fill: #ffffff"/>
   </g>
   <g id="line2d_1">
    <path d="M 200.667399 30.136364 
L 440.934082 178.575603 
" clip-path="url(#p98e0b55663)" style="fill: none; stroke: #ff0000; stroke-width: 3; stroke-linecap: square"/>
   </g>
   <g id="matplotlib.axis_1">
    <g id="xtick_1">
     <g id="line2d_2">
      <defs>
       <path id="m70700cb93e" d="M 0 0 
L 0 -6 
" style="stroke: #000000; stroke-width: 2"/>
      </defs>
      <g>
       <use xlink:href="#m70700cb93e" x="253.970262" y="360.6" style="stroke: #000000; stroke-width: 2"/>
      </g>
     </g>
     <g id="text_1">
      <!-- $\mathdefault{10^{1}}$ -->
      <g transform="translate(232.850262 383.83625)scale(0.24 -0.24)">
       <defs>
        <path id="DejaVuSans-31" d="M 794 531 
L 1825 531 
L 1825 4091 
L 703 3866 
L 703 4441 
L 1819 4666 
L 2450 4666 
L 2450 531 
L 3481 531 
L 3481 0 
L 794 0 
L 794 531 
z
" transform="scale(0.015625)"/>
        <path id="DejaVuSans-30" d="M 2034 4250 
Q 1547 4250 1301 3770 
Q 1056 3291 1056 2328 
Q 1056 1369 1301 889 
Q 1547 409 2034 409 
Q 2525 409 2770 889 
Q 3016 1369 3016 2328 
Q 3016 3291 2770 3770 
Q 2525 4250 2034 4250 
z
M 2034 4750 
Q 2819 4750 3233 4129 
Q 3647 3509 3647 2328 
Q 3647 1150 3233 529 
Q 2819 -91 2034 -91 
Q 1250 -91 836 529 
Q 422 1150 422 2328 
Q 422 3509 836 4129 
Q 1250 4750 2034 4750 
z
" transform="scale(0.015625)"/>
       </defs>
       <use xlink:href="#DejaVuSans-31" transform="translate(0 0.684375)"/>
       <use xlink:href="#DejaVuSans-30" transform="translate(63.623047 0.684375)"/>
       <use xlink:href="#DejaVuSans-31" transform="translate(128.203125 38.965625)scale(0.7)"/>
      </g>
     </g>
    </g>
    <g id="xtick_2">
     <g id="line2d_3">
      <g>
       <use xlink:href="#m70700cb93e" x="128.33992" y="360.6" style="stroke: #000000; stroke-width: 2"/>
      </g>
     </g>
    </g>
    <g id="xtick_3">
     <g id="line2d_4">
      <g>
       <use xlink:href="#m70700cb93e" x="158.358536" y="360.6" style="stroke: #000000; stroke-width: 2"/>
      </g>
     </g>
    </g>
    <g id="xtick_4">
     <g id="line2d_5">
      <g>
       <use xlink:href="#m70700cb93e" x="181.642783" y="360.6" style="stroke: #000000; stroke-width: 2"/>
      </g>
     </g>
    </g>
    <g id="xtick_5">
     <g id="line2d_6">
      <g>
       <use xlink:href="#m70700cb93e" x="200.667399" y="360.6" style="stroke: #000000; stroke-width: 2"/>
      </g>
     </g>
    </g>
    <g id="xtick_6">
     <g id="line2d_7">
      <g>
       <use xlink:href="#m70700cb93e" x="216.752482" y="360.6" style="stroke: #000000; stroke-width: 2"/>
      </g>
     </g>
    </g>
    <g id="xtick_7">
     <g id="line2d_8">
      <g>
       <use xlink:href="#m70700cb93e" x="230.686014" y="360.6" style="stroke: #000000; stroke-width: 2"/>
      </g>
     </g>
    </g>
    <g id="xtick_8">
     <g id="line2d_9">
      <g>
       <use xlink:href="#m70700cb93e" x="242.976261" y="360.6" style="stroke: #000000; stroke-width: 2"/>
      </g>
     </g>
    </g>
    <g id="xtick_9">
     <g id="line2d_10">
      <g>
       <use xlink:href="#m70700cb93e" x="326.29774" y="360.6" style="stroke: #000000; stroke-width: 2"/>
      </g>
     </g>
    </g>
    <g id="xtick_10">
     <g id="line2d_11">
      <g>
       <use xlink:href="#m70700cb93e" x="368.606603" y="360.6" style="stroke: #000000; stroke-width: 2"/>
      </g>
     </g>
    </g>
    <g id="xtick_11">
     <g id="line2d_12">
      <g>
       <use xlink:href="#m70700cb93e" x="398.625219" y="360.6" style="stroke: #000000; stroke-width: 2"/>
      </g>
     </g>
    </g>
    <g id="xtick_12">
     <g id="line2d_13">
      <g>
       <use xlink:href="#m70700cb93e" x="421.909466" y="360.6" style="stroke: #000000; stroke-width: 2"/>
      </g>
     </g>
    </g>
    <g id="xtick_13">
     <g id="line2d_14">
      <g>
       <use xlink:href="#m70700cb93e" x="440.934082" y="360.6" style="stroke: #000000; stroke-width: 2"/>
      </g>
     </g>
    </g>
    <g id="xtick_14">
     <g id="line2d_15">
      <g>
       <use xlink:href="#m70700cb93e" x="457.019165" y="360.6" style="stroke: #000000; stroke-width: 2"/>
      </g>
     </g>
    </g>
    <g id="xtick_15">
     <g id="line2d_16">
      <g>
       <use xlink:href="#m70700cb93e" x="470.952698" y="360.6" style="stroke: #000000; stroke-width: 2"/>
      </g>
     </g>
    </g>
    <g id="xtick_16">
     <g id="line2d_17">
      <g>
       <use xlink:href="#m70700cb93e" x="483.242944" y="360.6" style="stroke: #000000; stroke-width: 2"/>
      </g>
     </g>
    </g>
    <g id="text_2">
     <!-- $H / h$ -->
     <g transform="translate(283.053125 414.103125)scale(0.28 -0.28)">
      <defs>
       <path id="DejaVuSans-Oblique-48" d="M 1081 4666 
L 1716 4666 
L 1344 2753 
L 3634 2753 
L 4006 4666 
L 4641 4666 
L 3731 0 
L 3097 0 
L 3531 2222 
L 1241 2222 
L 806 0 
L 172 0 
L 1081 4666 
z
" transform="scale(0.015625)"/>
       <path id="DejaVuSans-2f" d="M 1625 4666 
L 2156 4666 
L 531 -594 
L 0 -594 
L 1625 4666 
z
" transform="scale(0.015625)"/>
       <path id="DejaVuSans-Oblique-68" d="M 3566 2113 
L 3156 0 
L 2578 0 
L 2988 2091 
Q 3016 2238 3031 2350 
Q 3047 2463 3047 2528 
Q 3047 2791 2881 2937 
Q 2716 3084 2419 3084 
Q 1956 3084 1617 2771 
Q 1278 2459 1178 1941 
L 800 0 
L 225 0 
L 1172 4863 
L 1747 4863 
L 1375 2950 
Q 1594 3244 1934 3414 
Q 2275 3584 2650 3584 
Q 3113 3584 3367 3334 
Q 3622 3084 3622 2631 
Q 3622 2519 3608 2391 
Q 3594 2263 3566 2113 
z
" transform="scale(0.015625)"/>
      </defs>
      <use xlink:href="#DejaVuSans-Oblique-48" transform="translate(0 0.015625)"/>
      <use xlink:href="#DejaVuSans-2f" transform="translate(75.195312 0.015625)"/>
      <use xlink:href="#DejaVuSans-Oblique-68" transform="translate(108.886719 0.015625)"/>
     </g>
    </g>
   </g>
   <g id="matplotlib.axis_2">
    <g id="ytick_1">
     <g id="line2d_18">
      <defs>
       <path id="mc49c6a76bd" d="M 0 0 
L 6 0 
" style="stroke: #000000; stroke-width: 2"/>
      </defs>
      <g>
       <use xlink:href="#mc49c6a76bd" x="122.54" y="327.014843" style="stroke: #000000; stroke-width: 2"/>
      </g>
     </g>
     <g id="text_3">
      <!-- $\mathdefault{10^{-4}}$ -->
      <g transform="translate(62.64 336.132968)scale(0.24 -0.24)">
       <defs>
        <path id="DejaVuSans-2212" d="M 678 2272 
L 4684 2272 
L 4684 1741 
L 678 1741 
L 678 2272 
z
" transform="scale(0.015625)"/>
        <path id="DejaVuSans-34" d="M 2419 4116 
L 825 1625 
L 2419 1625 
L 2419 4116 
z
M 2253 4666 
L 3047 4666 
L 3047 1625 
L 3713 1625 
L 3713 1100 
L 3047 1100 
L 3047 0 
L 2419 0 
L 2419 1100 
L 313 1100 
L 313 1709 
L 2253 4666 
z
" transform="scale(0.015625)"/>
       </defs>
       <use xlink:href="#DejaVuSans-31" transform="translate(0 0.684375)"/>
       <use xlink:href="#DejaVuSans-30" transform="translate(63.623047 0.684375)"/>
       <use xlink:href="#DejaVuSans-2212" transform="translate(128.203125 38.965625)scale(0.7)"/>
       <use xlink:href="#DejaVuSans-34" transform="translate(186.855469 38.965625)scale(0.7)"/>
      </g>
     </g>
    </g>
    <g id="ytick_2">
     <g id="line2d_19">
      <g>
       <use xlink:href="#mc49c6a76bd" x="122.54" y="178.575603" style="stroke: #000000; stroke-width: 2"/>
      </g>
     </g>
     <g id="text_4">
      <!-- $\mathdefault{10^{-3}}$ -->
      <g transform="translate(62.64 187.693728)scale(0.24 -0.24)">
       <defs>
        <path id="DejaVuSans-33" d="M 2597 2516 
Q 3050 2419 3304 2112 
Q 3559 1806 3559 1356 
Q 3559 666 3084 287 
Q 2609 -91 1734 -91 
Q 1441 -91 1130 -33 
Q 819 25 488 141 
L 488 750 
Q 750 597 1062 519 
Q 1375 441 1716 441 
Q 2309 441 2620 675 
Q 2931 909 2931 1356 
Q 2931 1769 2642 2001 
Q 2353 2234 1838 2234 
L 1294 2234 
L 1294 2753 
L 1863 2753 
Q 2328 2753 2575 2939 
Q 2822 3125 2822 3475 
Q 2822 3834 2567 4026 
Q 2313 4219 1838 4219 
Q 1578 4219 1281 4162 
Q 984 4106 628 3988 
L 628 4550 
Q 988 4650 1302 4700 
Q 1616 4750 1894 4750 
Q 2613 4750 3031 4423 
Q 3450 4097 3450 3541 
Q 3450 3153 3228 2886 
Q 3006 2619 2597 2516 
z
" transform="scale(0.015625)"/>
       </defs>
       <use xlink:href="#DejaVuSans-31" transform="translate(0 0.765625)"/>
       <use xlink:href="#DejaVuSans-30" transform="translate(63.623047 0.765625)"/>
       <use xlink:href="#DejaVuSans-2212" transform="translate(128.203125 39.046875)scale(0.7)"/>
       <use xlink:href="#DejaVuSans-33" transform="translate(186.855469 39.046875)scale(0.7)"/>
      </g>
     </g>
    </g>
    <g id="ytick_3">
     <g id="line2d_20">
      <g>
       <use xlink:href="#mc49c6a76bd" x="122.54" y="30.136364" style="stroke: #000000; stroke-width: 2"/>
      </g>
     </g>
     <g id="text_5">
      <!-- $\mathdefault{10^{-2}}$ -->
      <g transform="translate(62.64 39.254489)scale(0.24 -0.24)">
       <defs>
        <path id="DejaVuSans-32" d="M 1228 531 
L 3431 531 
L 3431 0 
L 469 0 
L 469 531 
Q 828 903 1448 1529 
Q 2069 2156 2228 2338 
Q 2531 2678 2651 2914 
Q 2772 3150 2772 3378 
Q 2772 3750 2511 3984 
Q 2250 4219 1831 4219 
Q 1534 4219 1204 4116 
Q 875 4013 500 3803 
L 500 4441 
Q 881 4594 1212 4672 
Q 1544 4750 1819 4750 
Q 2544 4750 2975 4387 
Q 3406 4025 3406 3419 
Q 3406 3131 3298 2873 
Q 3191 2616 2906 2266 
Q 2828 2175 2409 1742 
Q 1991 1309 1228 531 
z
" transform="scale(0.015625)"/>
       </defs>
       <use xlink:href="#DejaVuSans-31" transform="translate(0 0.765625)"/>
       <use xlink:href="#DejaVuSans-30" transform="translate(63.623047 0.765625)"/>
       <use xlink:href="#DejaVuSans-2212" transform="translate(128.203125 39.046875)scale(0.7)"/>
       <use xlink:href="#DejaVuSans-32" transform="translate(186.855469 39.046875)scale(0.7)"/>
      </g>
     </g>
    </g>
    <g id="ytick_4">
     <g id="line2d_21">
      <g>
       <use xlink:href="#mc49c6a76bd" x="122.54" y="359.945903" style="stroke: #000000; stroke-width: 2"/>
      </g>
     </g>
    </g>
    <g id="ytick_5">
     <g id="line2d_22">
      <g>
       <use xlink:href="#mc49c6a76bd" x="122.54" y="350.008372" style="stroke: #000000; stroke-width: 2"/>
      </g>
     </g>
    </g>
    <g id="ytick_6">
     <g id="line2d_23">
      <g>
       <use xlink:href="#mc49c6a76bd" x="122.54" y="341.400092" style="stroke: #000000; stroke-width: 2"/>
      </g>
     </g>
    </g>
    <g id="ytick_7">
     <g id="line2d_24">
      <g>
       <use xlink:href="#mc49c6a76bd" x="122.54" y="333.80705" style="stroke: #000000; stroke-width: 2"/>
      </g>
     </g>
    </g>
    <g id="ytick_8">
     <g id="line2d_25">
      <g>
       <use xlink:href="#mc49c6a76bd" x="122.54" y="282.33018" style="stroke: #000000; stroke-width: 2"/>
      </g>
     </g>
    </g>
    <g id="ytick_9">
     <g id="line2d_26">
      <g>
       <use xlink:href="#mc49c6a76bd" x="122.54" y="256.191327" style="stroke: #000000; stroke-width: 2"/>
      </g>
     </g>
    </g>
    <g id="ytick_10">
     <g id="line2d_27">
      <g>
       <use xlink:href="#mc49c6a76bd" x="122.54" y="237.645516" style="stroke: #000000; stroke-width: 2"/>
      </g>
     </g>
    </g>
    <g id="ytick_11">
     <g id="line2d_28">
      <g>
       <use xlink:href="#mc49c6a76bd" x="122.54" y="223.260267" style="stroke: #000000; stroke-width: 2"/>
      </g>
     </g>
    </g>
    <g id="ytick_12">
     <g id="line2d_29">
      <g>
       <use xlink:href="#mc49c6a76bd" x="122.54" y="211.506663" style="stroke: #000000; stroke-width: 2"/>
      </g>
     </g>
    </g>
    <g id="ytick_13">
     <g id="line2d_30">
      <g>
       <use xlink:href="#mc49c6a76bd" x="122.54" y="201.569133" style="stroke: #000000; stroke-width: 2"/>
      </g>
     </g>
    </g>
    <g id="ytick_14">
     <g id="line2d_31">
      <g>
       <use xlink:href="#mc49c6a76bd" x="122.54" y="192.960852" style="stroke: #000000; stroke-width: 2"/>
      </g>
     </g>
    </g>
    <g id="ytick_15">
     <g id="line2d_32">
      <g>
       <use xlink:href="#mc49c6a76bd" x="122.54" y="185.367811" style="stroke: #000000; stroke-width: 2"/>
      </g>
     </g>
    </g>
    <g id="ytick_16">
     <g id="line2d_33">
      <g>
       <use xlink:href="#mc49c6a76bd" x="122.54" y="133.89094" style="stroke: #000000; stroke-width: 2"/>
      </g>
     </g>
    </g>
    <g id="ytick_17">
     <g id="line2d_34">
      <g>
       <use xlink:href="#mc49c6a76bd" x="122.54" y="107.752087" style="stroke: #000000; stroke-width: 2"/>
      </g>
     </g>
    </g>
    <g id="ytick_18">
     <g id="line2d_35">
      <g>
       <use xlink:href="#mc49c6a76bd" x="122.54" y="89.206276" style="stroke: #000000; stroke-width: 2"/>
      </g>
     </g>
    </g>
    <g id="ytick_19">
     <g id="line2d_36">
      <g>
       <use xlink:href="#mc49c6a76bd" x="122.54" y="74.821027" style="stroke: #000000; stroke-width: 2"/>
      </g>
     </g>
    </g>
    <g id="ytick_20">
     <g id="line2d_37">
      <g>
       <use xlink:href="#mc49c6a76bd" x="122.54" y="63.067423" style="stroke: #000000; stroke-width: 2"/>
      </g>
     </g>
    </g>
    <g id="ytick_21">
     <g id="line2d_38">
      <g>
       <use xlink:href="#mc49c6a76bd" x="122.54" y="53.129893" style="stroke: #000000; stroke-width: 2"/>
      </g>
     </g>
    </g>
    <g id="ytick_22">
     <g id="line2d_39">
      <g>
       <use xlink:href="#mc49c6a76bd" x="122.54" y="44.521612" style="stroke: #000000; stroke-width: 2"/>
      </g>
     </g>
    </g>
    <g id="ytick_23">
     <g id="line2d_40">
      <g>
       <use xlink:href="#mc49c6a76bd" x="122.54" y="36.928571" style="stroke: #000000; stroke-width: 2"/>
      </g>
     </g>
    </g>
    <g id="text_6">
     <!-- $\frac{L_1}{NU_0}$ -->
     <g transform="translate(44.36 208.5)rotate(-90)scale(0.28 -0.28)">
      <defs>
       <path id="DejaVuSans-Oblique-4c" d="M 1075 4666 
L 1709 4666 
L 909 525 
L 3181 525 
L 3078 0 
L 172 0 
L 1075 4666 
z
" transform="scale(0.015625)"/>
       <path id="DejaVuSans-Oblique-4e" d="M 1081 4666 
L 1931 4666 
L 3219 666 
L 4000 4666 
L 4616 4666 
L 3706 0 
L 2853 0 
L 1569 4025 
L 788 0 
L 172 0 
L 1081 4666 
z
" transform="scale(0.015625)"/>
       <path id="DejaVuSans-Oblique-55" d="M 991 4666 
L 1625 4666 
L 1075 1831 
Q 1041 1641 1027 1517 
Q 1013 1394 1013 1300 
Q 1013 869 1253 645 
Q 1494 422 1959 422 
Q 2563 422 2898 753 
Q 3234 1084 3378 1831 
L 3928 4666 
L 4563 4666 
L 4000 1753 
Q 3816 809 3300 359 
Q 2784 -91 1888 -91 
Q 1188 -91 780 261 
Q 372 613 372 1216 
Q 372 1325 387 1461 
Q 403 1597 434 1753 
L 991 4666 
z
" transform="scale(0.015625)"/>
      </defs>
      <use xlink:href="#DejaVuSans-Oblique-4c" transform="translate(32 55.965625)scale(0.7)"/>
      <use xlink:href="#DejaVuSans-31" transform="translate(70.999023 44.48125)scale(0.49)"/>
      <use xlink:href="#DejaVuSans-Oblique-4e" transform="translate(0 -37.803125)scale(0.7)"/>
      <use xlink:href="#DejaVuSans-Oblique-55" transform="translate(52.363281 -37.803125)scale(0.7)"/>
      <use xlink:href="#DejaVuSans-30" transform="translate(103.598633 -49.2875)scale(0.49)"/>
      <path d="M 0 19.48125 
L 0 25.73125 
L 136.687988 25.73125 
L 136.687988 19.48125 
L 0 19.48125 
z
"/>
     </g>
    </g>
   </g>
   <g id="line2d_41">
    <defs>
     <path id="md9a83bb513" d="M -6 6 
L 6 6 
L 6 -6 
L -6 -6 
z
" style="stroke: #3b528b; stroke-width: 1.5; stroke-linejoin: miter"/>
    </defs>
    <g clip-path="url(#p98e0b55663)">
     <use xlink:href="#md9a83bb513" x="475.21233" y="344.863636" style="fill-opacity: 0; stroke: #3b528b; stroke-width: 1.5; stroke-linejoin: miter"/>
     <use xlink:href="#md9a83bb513" x="379.600604" y="230.555519" style="fill-opacity: 0; stroke: #3b528b; stroke-width: 1.5; stroke-linejoin: miter"/>
     <use xlink:href="#md9a83bb513" x="307.273125" y="183.712145" style="fill-opacity: 0; stroke: #3b528b; stroke-width: 1.5; stroke-linejoin: miter"/>
     <use xlink:href="#md9a83bb513" x="234.945646" y="129.830175" style="fill-opacity: 0; stroke: #3b528b; stroke-width: 1.5; stroke-linejoin: miter"/>
     <use xlink:href="#md9a83bb513" x="211.661399" y="119.224532" style="fill-opacity: 0; stroke: #3b528b; stroke-width: 1.5; stroke-linejoin: miter"/>
     <use xlink:href="#md9a83bb513" x="139.33392" y="88.435587" style="fill-opacity: 0; stroke: #3b528b; stroke-width: 1.5; stroke-linejoin: miter"/>
    </g>
   </g>
   <g id="line2d_42">
    <defs>
     <path id="m4eb9725198" d="M 0 6 
C 1.591219 6 3.117479 5.367802 4.242641 4.242641 
C 5.367802 3.117479 6 1.591219 6 0 
C 6 -1.591219 5.367802 -3.117479 4.242641 -4.242641 
C 3.117479 -5.367802 1.591219 -6 0 -6 
C -1.591219 -6 -3.117479 -5.367802 -4.242641 -4.242641 
C -5.367802 -3.117479 -6 -1.591219 -6 0 
C -6 1.591219 -5.367802 3.117479 -4.242641 4.242641 
C -3.117479 5.367802 -1.591219 6 0 6 
z
" style="stroke: #5ec962; stroke-width: 1.5"/>
    </defs>
    <g clip-path="url(#p98e0b55663)">
     <use xlink:href="#m4eb9725198" x="139.33392" y="40.31295" style="fill-opacity: 0; stroke: #5ec962; stroke-width: 1.5"/>
     <use xlink:href="#m4eb9725198" x="211.661399" y="100.028096" style="fill-opacity: 0; stroke: #5ec962; stroke-width: 1.5"/>
     <use xlink:href="#m4eb9725198" x="379.600604" y="200.182254" style="fill-opacity: 0; stroke: #5ec962; stroke-width: 1.5"/>
     <use xlink:href="#m4eb9725198" x="307.273125" y="220.45545" style="fill-opacity: 0; stroke: #5ec962; stroke-width: 1.5"/>
     <use xlink:href="#m4eb9725198" x="475.21233" y="172.372724" style="fill-opacity: 0; stroke: #5ec962; stroke-width: 1.5"/>
     <use xlink:href="#m4eb9725198" x="234.945646" y="121.520723" style="fill-opacity: 0; stroke: #5ec962; stroke-width: 1.5"/>
    </g>
   </g>
   <g id="line2d_43">
    <defs>
     <path id="m3f1a60b614" d="M -3 6 
L 0 3 
L 3 6 
L 6 3 
L 3 0 
L 6 -3 
L 3 -6 
L 0 -3 
L -3 -6 
L -6 -3 
L -3 0 
L -6 3 
z
" style="stroke: #21918c; stroke-width: 1.5; stroke-linejoin: miter"/>
    </defs>
    <g clip-path="url(#p98e0b55663)">
     <use xlink:href="#m3f1a60b614" x="139.33392" y="40.31295" style="fill-opacity: 0; stroke: #21918c; stroke-width: 1.5; stroke-linejoin: miter"/>
     <use xlink:href="#m3f1a60b614" x="211.661399" y="100.028096" style="fill-opacity: 0; stroke: #21918c; stroke-width: 1.5; stroke-linejoin: miter"/>
     <use xlink:href="#m3f1a60b614" x="234.945646" y="121.520723" style="fill-opacity: 0; stroke: #21918c; stroke-width: 1.5; stroke-linejoin: miter"/>
     <use xlink:href="#m3f1a60b614" x="379.600604" y="200.182254" style="fill-opacity: 0; stroke: #21918c; stroke-width: 1.5; stroke-linejoin: miter"/>
     <use xlink:href="#m3f1a60b614" x="307.273125" y="220.45545" style="fill-opacity: 0; stroke: #21918c; stroke-width: 1.5; stroke-linejoin: miter"/>
     <use xlink:href="#m3f1a60b614" x="475.21233" y="172.760136" style="fill-opacity: 0; stroke: #21918c; stroke-width: 1.5; stroke-linejoin: miter"/>
    </g>
   </g>
   <g id="patch_3">
    <path d="M 122.54 360.6 
L 122.54 14.4 
" style="fill: none; stroke: #000000; stroke-width: 2; stroke-linejoin: miter; stroke-linecap: square"/>
   </g>
   <g id="patch_4">
    <path d="M 492.00625 360.6 
L 492.00625 14.4 
" style="fill: none; stroke: #000000; stroke-width: 2; stroke-linejoin: miter; stroke-linecap: square"/>
   </g>
   <g id="patch_5">
    <path d="M 122.54 360.6 
L 492.00625 360.6 
" style="fill: none; stroke: #000000; stroke-width: 2; stroke-linejoin: miter; stroke-linecap: square"/>
   </g>
   <g id="patch_6">
    <path d="M 122.54 14.4 
L 492.00625 14.4 
" style="fill: none; stroke: #000000; stroke-width: 2; stroke-linejoin: miter; stroke-linecap: square"/>
   </g>
   <g id="legend_1">
    <g id="patch_7">
     <path d="M 136.54 350.6 
L 305.44625 350.6 
Q 309.44625 350.6 309.44625 346.6 
L 309.44625 231.175 
Q 309.44625 227.175 305.44625 227.175 
L 136.54 227.175 
Q 132.54 227.175 132.54 231.175 
L 132.54 346.6 
Q 132.54 350.6 136.54 350.6 
z
" style="fill: #ffffff; opacity: 0.8; stroke: #cccccc; stroke-linejoin: miter"/>
    </g>
    <g id="line2d_44">
     <path d="M 140.54 243.371875 
L 160.54 243.371875 
L 180.54 243.371875 
" style="fill: none; stroke: #5ec962; stroke-width: 3; stroke-linecap: square"/>
     <g>
      <use xlink:href="#m4eb9725198" x="160.54" y="243.371875" style="fill-opacity: 0; stroke: #5ec962; stroke-width: 1.5"/>
     </g>
    </g>
    <g id="text_7">
     <!-- Quintic -->
     <g transform="translate(196.54 250.371875)scale(0.2 -0.2)">
      <defs>
       <path id="DejaVuSans-51" d="M 2522 4238 
Q 1834 4238 1429 3725 
Q 1025 3213 1025 2328 
Q 1025 1447 1429 934 
Q 1834 422 2522 422 
Q 3209 422 3611 934 
Q 4013 1447 4013 2328 
Q 4013 3213 3611 3725 
Q 3209 4238 2522 4238 
z
M 3406 84 
L 4238 -825 
L 3475 -825 
L 2784 -78 
Q 2681 -84 2626 -87 
Q 2572 -91 2522 -91 
Q 1538 -91 948 567 
Q 359 1225 359 2328 
Q 359 3434 948 4092 
Q 1538 4750 2522 4750 
Q 3503 4750 4090 4092 
Q 4678 3434 4678 2328 
Q 4678 1516 4351 937 
Q 4025 359 3406 84 
z
" transform="scale(0.015625)"/>
       <path id="DejaVuSans-75" d="M 544 1381 
L 544 3500 
L 1119 3500 
L 1119 1403 
Q 1119 906 1312 657 
Q 1506 409 1894 409 
Q 2359 409 2629 706 
Q 2900 1003 2900 1516 
L 2900 3500 
L 3475 3500 
L 3475 0 
L 2900 0 
L 2900 538 
Q 2691 219 2414 64 
Q 2138 -91 1772 -91 
Q 1169 -91 856 284 
Q 544 659 544 1381 
z
M 1991 3584 
L 1991 3584 
z
" transform="scale(0.015625)"/>
       <path id="DejaVuSans-69" d="M 603 3500 
L 1178 3500 
L 1178 0 
L 603 0 
L 603 3500 
z
M 603 4863 
L 1178 4863 
L 1178 4134 
L 603 4134 
L 603 4863 
z
" transform="scale(0.015625)"/>
       <path id="DejaVuSans-6e" d="M 3513 2113 
L 3513 0 
L 2938 0 
L 2938 2094 
Q 2938 2591 2744 2837 
Q 2550 3084 2163 3084 
Q 1697 3084 1428 2787 
Q 1159 2491 1159 1978 
L 1159 0 
L 581 0 
L 581 3500 
L 1159 3500 
L 1159 2956 
Q 1366 3272 1645 3428 
Q 1925 3584 2291 3584 
Q 2894 3584 3203 3211 
Q 3513 2838 3513 2113 
z
" transform="scale(0.015625)"/>
       <path id="DejaVuSans-74" d="M 1172 4494 
L 1172 3500 
L 2356 3500 
L 2356 3053 
L 1172 3053 
L 1172 1153 
Q 1172 725 1289 603 
Q 1406 481 1766 481 
L 2356 481 
L 2356 0 
L 1766 0 
Q 1100 0 847 248 
Q 594 497 594 1153 
L 594 3053 
L 172 3053 
L 172 3500 
L 594 3500 
L 594 4494 
L 1172 4494 
z
" transform="scale(0.015625)"/>
       <path id="DejaVuSans-63" d="M 3122 3366 
L 3122 2828 
Q 2878 2963 2633 3030 
Q 2388 3097 2138 3097 
Q 1578 3097 1268 2742 
Q 959 2388 959 1747 
Q 959 1106 1268 751 
Q 1578 397 2138 397 
Q 2388 397 2633 464 
Q 2878 531 3122 666 
L 3122 134 
Q 2881 22 2623 -34 
Q 2366 -91 2075 -91 
Q 1284 -91 818 406 
Q 353 903 353 1747 
Q 353 2603 823 3093 
Q 1294 3584 2113 3584 
Q 2378 3584 2631 3529 
Q 2884 3475 3122 3366 
z
" transform="scale(0.015625)"/>
      </defs>
      <use xlink:href="#DejaVuSans-51"/>
      <use xlink:href="#DejaVuSans-75" x="78.710938"/>
      <use xlink:href="#DejaVuSans-69" x="142.089844"/>
      <use xlink:href="#DejaVuSans-6e" x="169.873047"/>
      <use xlink:href="#DejaVuSans-74" x="233.251953"/>
      <use xlink:href="#DejaVuSans-69" x="272.460938"/>
      <use xlink:href="#DejaVuSans-63" x="300.244141"/>
     </g>
    </g>
    <g id="line2d_45">
     <path d="M 140.54 272.728125 
L 160.54 272.728125 
L 180.54 272.728125 
" style="fill: none; stroke: #21918c; stroke-width: 3; stroke-linecap: square"/>
     <g>
      <use xlink:href="#m3f1a60b614" x="160.54" y="272.728125" style="fill-opacity: 0; stroke: #21918c; stroke-width: 1.5; stroke-linejoin: miter"/>
     </g>
    </g>
    <g id="text_8">
     <!-- RK0 -->
     <g transform="translate(196.54 279.728125)scale(0.2 -0.2)">
      <defs>
       <path id="DejaVuSans-52" d="M 2841 2188 
Q 3044 2119 3236 1894 
Q 3428 1669 3622 1275 
L 4263 0 
L 3584 0 
L 2988 1197 
Q 2756 1666 2539 1819 
Q 2322 1972 1947 1972 
L 1259 1972 
L 1259 0 
L 628 0 
L 628 4666 
L 2053 4666 
Q 2853 4666 3247 4331 
Q 3641 3997 3641 3322 
Q 3641 2881 3436 2590 
Q 3231 2300 2841 2188 
z
M 1259 4147 
L 1259 2491 
L 2053 2491 
Q 2509 2491 2742 2702 
Q 2975 2913 2975 3322 
Q 2975 3731 2742 3939 
Q 2509 4147 2053 4147 
L 1259 4147 
z
" transform="scale(0.015625)"/>
       <path id="DejaVuSans-4b" d="M 628 4666 
L 1259 4666 
L 1259 2694 
L 3353 4666 
L 4166 4666 
L 1850 2491 
L 4331 0 
L 3500 0 
L 1259 2247 
L 1259 0 
L 628 0 
L 628 4666 
z
" transform="scale(0.015625)"/>
      </defs>
      <use xlink:href="#DejaVuSans-52"/>
      <use xlink:href="#DejaVuSans-4b" x="69.482422"/>
      <use xlink:href="#DejaVuSans-30" x="135.058594"/>
     </g>
    </g>
    <g id="line2d_46">
     <path d="M 140.54 302.084375 
L 160.54 302.084375 
L 180.54 302.084375 
" style="fill: none; stroke: #3b528b; stroke-width: 3; stroke-linecap: square"/>
     <g>
      <use xlink:href="#md9a83bb513" x="160.54" y="302.084375" style="fill-opacity: 0; stroke: #3b528b; stroke-width: 1.5; stroke-linejoin: miter"/>
     </g>
    </g>
    <g id="text_9">
     <!-- RK1 -->
     <g transform="translate(196.54 309.084375)scale(0.2 -0.2)">
      <use xlink:href="#DejaVuSans-52"/>
      <use xlink:href="#DejaVuSans-4b" x="69.482422"/>
      <use xlink:href="#DejaVuSans-31" x="135.058594"/>
     </g>
    </g>
    <g id="line2d_47">
     <path d="M 140.54 331.440625 
L 160.54 331.440625 
L 180.54 331.440625 
" style="fill: none; stroke: #ff0000; stroke-width: 3; stroke-linecap: square"/>
    </g>
    <g id="text_10">
     <!-- Slope = -1 -->
     <g transform="translate(196.54 338.440625)scale(0.2 -0.2)">
      <defs>
       <path id="DejaVuSans-53" d="M 3425 4513 
L 3425 3897 
Q 3066 4069 2747 4153 
Q 2428 4238 2131 4238 
Q 1616 4238 1336 4038 
Q 1056 3838 1056 3469 
Q 1056 3159 1242 3001 
Q 1428 2844 1947 2747 
L 2328 2669 
Q 3034 2534 3370 2195 
Q 3706 1856 3706 1288 
Q 3706 609 3251 259 
Q 2797 -91 1919 -91 
Q 1588 -91 1214 -16 
Q 841 59 441 206 
L 441 856 
Q 825 641 1194 531 
Q 1563 422 1919 422 
Q 2459 422 2753 634 
Q 3047 847 3047 1241 
Q 3047 1584 2836 1778 
Q 2625 1972 2144 2069 
L 1759 2144 
Q 1053 2284 737 2584 
Q 422 2884 422 3419 
Q 422 4038 858 4394 
Q 1294 4750 2059 4750 
Q 2388 4750 2728 4690 
Q 3069 4631 3425 4513 
z
" transform="scale(0.015625)"/>
       <path id="DejaVuSans-6c" d="M 603 4863 
L 1178 4863 
L 1178 0 
L 603 0 
L 603 4863 
z
" transform="scale(0.015625)"/>
       <path id="DejaVuSans-6f" d="M 1959 3097 
Q 1497 3097 1228 2736 
Q 959 2375 959 1747 
Q 959 1119 1226 758 
Q 1494 397 1959 397 
Q 2419 397 2687 759 
Q 2956 1122 2956 1747 
Q 2956 2369 2687 2733 
Q 2419 3097 1959 3097 
z
M 1959 3584 
Q 2709 3584 3137 3096 
Q 3566 2609 3566 1747 
Q 3566 888 3137 398 
Q 2709 -91 1959 -91 
Q 1206 -91 779 398 
Q 353 888 353 1747 
Q 353 2609 779 3096 
Q 1206 3584 1959 3584 
z
" transform="scale(0.015625)"/>
       <path id="DejaVuSans-70" d="M 1159 525 
L 1159 -1331 
L 581 -1331 
L 581 3500 
L 1159 3500 
L 1159 2969 
Q 1341 3281 1617 3432 
Q 1894 3584 2278 3584 
Q 2916 3584 3314 3078 
Q 3713 2572 3713 1747 
Q 3713 922 3314 415 
Q 2916 -91 2278 -91 
Q 1894 -91 1617 61 
Q 1341 213 1159 525 
z
M 3116 1747 
Q 3116 2381 2855 2742 
Q 2594 3103 2138 3103 
Q 1681 3103 1420 2742 
Q 1159 2381 1159 1747 
Q 1159 1113 1420 752 
Q 1681 391 2138 391 
Q 2594 391 2855 752 
Q 3116 1113 3116 1747 
z
" transform="scale(0.015625)"/>
       <path id="DejaVuSans-65" d="M 3597 1894 
L 3597 1613 
L 953 1613 
Q 991 1019 1311 708 
Q 1631 397 2203 397 
Q 2534 397 2845 478 
Q 3156 559 3463 722 
L 3463 178 
Q 3153 47 2828 -22 
Q 2503 -91 2169 -91 
Q 1331 -91 842 396 
Q 353 884 353 1716 
Q 353 2575 817 3079 
Q 1281 3584 2069 3584 
Q 2775 3584 3186 3129 
Q 3597 2675 3597 1894 
z
M 3022 2063 
Q 3016 2534 2758 2815 
Q 2500 3097 2075 3097 
Q 1594 3097 1305 2825 
Q 1016 2553 972 2059 
L 3022 2063 
z
" transform="scale(0.015625)"/>
       <path id="DejaVuSans-20" transform="scale(0.015625)"/>
       <path id="DejaVuSans-3d" d="M 678 2906 
L 4684 2906 
L 4684 2381 
L 678 2381 
L 678 2906 
z
M 678 1631 
L 4684 1631 
L 4684 1100 
L 678 1100 
L 678 1631 
z
" transform="scale(0.015625)"/>
       <path id="DejaVuSans-2d" d="M 313 2009 
L 1997 2009 
L 1997 1497 
L 313 1497 
L 313 2009 
z
" transform="scale(0.015625)"/>
      </defs>
      <use xlink:href="#DejaVuSans-53"/>
      <use xlink:href="#DejaVuSans-6c" x="63.476562"/>
      <use xlink:href="#DejaVuSans-6f" x="91.259766"/>
      <use xlink:href="#DejaVuSans-70" x="152.441406"/>
      <use xlink:href="#DejaVuSans-65" x="215.917969"/>
      <use xlink:href="#DejaVuSans-20" x="277.441406"/>
      <use xlink:href="#DejaVuSans-3d" x="309.228516"/>
      <use xlink:href="#DejaVuSans-20" x="393.017578"/>
      <use xlink:href="#DejaVuSans-2d" x="424.804688"/>
      <use xlink:href="#DejaVuSans-31" x="460.888672"/>
     </g>
    </g>
   </g>
   <g id="legend_2">
    <g id="patch_8">
     <path d="M 307.140625 89.1125 
L 478.00625 89.1125 
Q 482.00625 89.1125 482.00625 85.1125 
L 482.00625 28.4 
Q 482.00625 24.4 478.00625 24.4 
L 307.140625 24.4 
Q 303.140625 24.4 303.140625 28.4 
L 303.140625 85.1125 
Q 303.140625 89.1125 307.140625 89.1125 
z
" style="fill: #ffffff; opacity: 0.8; stroke: #cccccc; stroke-linejoin: miter"/>
    </g>
    <g id="line2d_48">
     <path d="M 311.140625 40.596875 
L 331.140625 40.596875 
L 351.140625 40.596875 
" style="fill: none; stroke-dasharray: 3,4.95; stroke-dashoffset: 0; stroke: #000000; stroke-width: 3"/>
    </g>
    <g id="text_11">
     <!-- Newtonian -->
     <g transform="translate(367.140625 47.596875)scale(0.2 -0.2)">
      <defs>
       <path id="DejaVuSans-4e" d="M 628 4666 
L 1478 4666 
L 3547 763 
L 3547 4666 
L 4159 4666 
L 4159 0 
L 3309 0 
L 1241 3903 
L 1241 0 
L 628 0 
L 628 4666 
z
" transform="scale(0.015625)"/>
       <path id="DejaVuSans-77" d="M 269 3500 
L 844 3500 
L 1563 769 
L 2278 3500 
L 2956 3500 
L 3675 769 
L 4391 3500 
L 4966 3500 
L 4050 0 
L 3372 0 
L 2619 2869 
L 1863 0 
L 1184 0 
L 269 3500 
z
" transform="scale(0.015625)"/>
       <path id="DejaVuSans-61" d="M 2194 1759 
Q 1497 1759 1228 1600 
Q 959 1441 959 1056 
Q 959 750 1161 570 
Q 1363 391 1709 391 
Q 2188 391 2477 730 
Q 2766 1069 2766 1631 
L 2766 1759 
L 2194 1759 
z
M 3341 1997 
L 3341 0 
L 2766 0 
L 2766 531 
Q 2569 213 2275 61 
Q 1981 -91 1556 -91 
Q 1019 -91 701 211 
Q 384 513 384 1019 
Q 384 1609 779 1909 
Q 1175 2209 1959 2209 
L 2766 2209 
L 2766 2266 
Q 2766 2663 2505 2880 
Q 2244 3097 1772 3097 
Q 1472 3097 1187 3025 
Q 903 2953 641 2809 
L 641 3341 
Q 956 3463 1253 3523 
Q 1550 3584 1831 3584 
Q 2591 3584 2966 3190 
Q 3341 2797 3341 1997 
z
" transform="scale(0.015625)"/>
      </defs>
      <use xlink:href="#DejaVuSans-4e"/>
      <use xlink:href="#DejaVuSans-65" x="74.804688"/>
      <use xlink:href="#DejaVuSans-77" x="136.328125"/>
      <use xlink:href="#DejaVuSans-74" x="218.115234"/>
      <use xlink:href="#DejaVuSans-6f" x="257.324219"/>
      <use xlink:href="#DejaVuSans-6e" x="318.505859"/>
      <use xlink:href="#DejaVuSans-69" x="381.884766"/>
      <use xlink:href="#DejaVuSans-61" x="409.667969"/>
      <use xlink:href="#DejaVuSans-6e" x="470.947266"/>
     </g>
    </g>
    <g id="line2d_49">
     <path d="M 311.140625 69.953125 
L 331.140625 69.953125 
L 351.140625 69.953125 
" style="fill: none; stroke-dasharray: 11.1,4.8; stroke-dashoffset: 0; stroke: #000000; stroke-width: 3"/>
    </g>
    <g id="text_12">
     <!-- Power Law -->
     <g transform="translate(367.140625 76.953125)scale(0.2 -0.2)">
      <defs>
       <path id="DejaVuSans-50" d="M 1259 4147 
L 1259 2394 
L 2053 2394 
Q 2494 2394 2734 2622 
Q 2975 2850 2975 3272 
Q 2975 3691 2734 3919 
Q 2494 4147 2053 4147 
L 1259 4147 
z
M 628 4666 
L 2053 4666 
Q 2838 4666 3239 4311 
Q 3641 3956 3641 3272 
Q 3641 2581 3239 2228 
Q 2838 1875 2053 1875 
L 1259 1875 
L 1259 0 
L 628 0 
L 628 4666 
z
" transform="scale(0.015625)"/>
       <path id="DejaVuSans-72" d="M 2631 2963 
Q 2534 3019 2420 3045 
Q 2306 3072 2169 3072 
Q 1681 3072 1420 2755 
Q 1159 2438 1159 1844 
L 1159 0 
L 581 0 
L 581 3500 
L 1159 3500 
L 1159 2956 
Q 1341 3275 1631 3429 
Q 1922 3584 2338 3584 
Q 2397 3584 2469 3576 
Q 2541 3569 2628 3553 
L 2631 2963 
z
" transform="scale(0.015625)"/>
       <path id="DejaVuSans-4c" d="M 628 4666 
L 1259 4666 
L 1259 531 
L 3531 531 
L 3531 0 
L 628 0 
L 628 4666 
z
" transform="scale(0.015625)"/>
      </defs>
      <use xlink:href="#DejaVuSans-50"/>
      <use xlink:href="#DejaVuSans-6f" x="56.677734"/>
      <use xlink:href="#DejaVuSans-77" x="117.859375"/>
      <use xlink:href="#DejaVuSans-65" x="199.646484"/>
      <use xlink:href="#DejaVuSans-72" x="261.169922"/>
      <use xlink:href="#DejaVuSans-20" x="302.283203"/>
      <use xlink:href="#DejaVuSans-4c" x="334.070312"/>
      <use xlink:href="#DejaVuSans-61" x="389.783203"/>
      <use xlink:href="#DejaVuSans-77" x="451.0625"/>
     </g>
    </g>
   </g>
   <g id="legend_3">
    <g id="patch_9">
     <path d="M 307.140625 89.1125 
L 478.00625 89.1125 
Q 482.00625 89.1125 482.00625 85.1125 
L 482.00625 28.4 
Q 482.00625 24.4 478.00625 24.4 
L 307.140625 24.4 
Q 303.140625 24.4 303.140625 28.4 
L 303.140625 85.1125 
Q 303.140625 89.1125 307.140625 89.1125 
z
" style="fill: #ffffff; opacity: 0.8; stroke: #cccccc; stroke-linejoin: miter"/>
    </g>
    <g id="line2d_50">
     <path d="M 311.140625 40.596875 
L 331.140625 40.596875 
L 351.140625 40.596875 
" style="fill: none; stroke-dasharray: 3,4.95; stroke-dashoffset: 0; stroke: #000000; stroke-width: 3"/>
    </g>
    <g id="text_13">
     <!-- Newtonian -->
     <g transform="translate(367.140625 47.596875)scale(0.2 -0.2)">
      <use xlink:href="#DejaVuSans-4e"/>
      <use xlink:href="#DejaVuSans-65" x="74.804688"/>
      <use xlink:href="#DejaVuSans-77" x="136.328125"/>
      <use xlink:href="#DejaVuSans-74" x="218.115234"/>
      <use xlink:href="#DejaVuSans-6f" x="257.324219"/>
      <use xlink:href="#DejaVuSans-6e" x="318.505859"/>
      <use xlink:href="#DejaVuSans-69" x="381.884766"/>
      <use xlink:href="#DejaVuSans-61" x="409.667969"/>
      <use xlink:href="#DejaVuSans-6e" x="470.947266"/>
     </g>
    </g>
    <g id="line2d_51">
     <path d="M 311.140625 69.953125 
L 331.140625 69.953125 
L 351.140625 69.953125 
" style="fill: none; stroke-dasharray: 11.1,4.8; stroke-dashoffset: 0; stroke: #000000; stroke-width: 3"/>
    </g>
    <g id="text_14">
     <!-- Power Law -->
     <g transform="translate(367.140625 76.953125)scale(0.2 -0.2)">
      <use xlink:href="#DejaVuSans-50"/>
      <use xlink:href="#DejaVuSans-6f" x="56.677734"/>
      <use xlink:href="#DejaVuSans-77" x="117.859375"/>
      <use xlink:href="#DejaVuSans-65" x="199.646484"/>
      <use xlink:href="#DejaVuSans-72" x="261.169922"/>
      <use xlink:href="#DejaVuSans-20" x="302.283203"/>
      <use xlink:href="#DejaVuSans-4c" x="334.070312"/>
      <use xlink:href="#DejaVuSans-61" x="389.783203"/>
      <use xlink:href="#DejaVuSans-77" x="451.0625"/>
     </g>
    </g>
   </g>
  </g>
 </g>
 <defs>
  <clipPath id="p98e0b55663">
   <rect x="122.54" y="14.4" width="369.46625" height="346.2"/>
  </clipPath>
 </defs>
</svg>
