<?xml version="1.0" encoding="utf-8" standalone="no"?>
<!DOCTYPE svg PUBLIC "-//W3C//DTD SVG 1.1//EN"
  "http://www.w3.org/Graphics/SVG/1.1/DTD/svg11.dtd">
<svg xmlns:xlink="http://www.w3.org/1999/xlink" width="531.125pt" height="434.52625pt" viewBox="0 0 531.125 434.52625" xmlns="http://www.w3.org/2000/svg" version="1.1">
 <metadata>
  <rdf:RDF xmlns:dc="http://purl.org/dc/elements/1.1/" xmlns:cc="http://creativecommons.org/ns#" xmlns:rdf="http://www.w3.org/1999/02/22-rdf-syntax-ns#">
   <cc:Work>
    <dc:type rdf:resource="http://purl.org/dc/dcmitype/StillImage"/>
    <dc:date>2023-05-04T07:51:14.006383</dc:date>
    <dc:format>image/svg+xml</dc:format>
    <dc:creator>
     <cc:Agent>
      <dc:title>Matplotlib v3.5.1, https://matplotlib.org/</dc:title>
     </cc:Agent>
    </dc:creator>
   </cc:Work>
  </rdf:RDF>
 </metadata>
 <defs>
  <style type="text/css">*{stroke-linejoin: round; stroke-linecap: butt}</style>
 </defs>
 <g id="figure_1">
  <g id="patch_1">
   <path d="M 0 434.52625 
L 531.125 434.52625 
L 531.125 0 
L 0 0 
L 0 434.52625 
z
" style="fill: none"/>
  </g>
  <g id="axes_1">
   <g id="patch_2">
    <path d="M 87.16625 360.8 
L 497.64125 360.8 
L 497.64125 14.4 
L 87.16625 14.4 
z
" style="fill: #ffffff"/>
   </g>
   <g id="line2d_1">
    <path d="M -1 268.909547 
L 20.191851 268.261156 
L 43.20146 267.781753 
L 67.032842 267.504857 
L 91.685995 267.436258 
L 116.339148 267.584878 
L 140.170529 267.944016 
L 163.180139 268.511893 
L 184.546205 269.260477 
L 204.268727 270.169748 
L 222.347706 271.215742 
L 239.604914 272.431923 
L 256.040349 273.815615 
L 271.654013 275.360709 
L 286.445905 277.05717 
L 300.416025 278.890795 
L 313.564373 280.843211 
L 325.89095 282.892084 
L 338.217526 285.170952 
L 349.722331 287.522273 
L 361.227136 290.106899 
L 371.910169 292.73064 
L 382.593202 295.584267 
L 393.276235 298.682331 
L 403.137496 301.771987 
L 412.998758 305.09477 
L 422.860019 308.663035 
L 431.899508 312.160355 
L 440.938998 315.884408 
L 449.978487 319.845204 
L 459.017977 324.052875 
L 468.057466 328.517656 
L 477.096956 333.249868 
L 485.314673 337.792682 
L 493.532391 342.57293 
L 497.64125 345.054545 
L 497.64125 345.054545 
" clip-path="url(#pff0885004a)" style="fill: none; stroke: #ff0000; stroke-width: 3; stroke-linecap: square"/>
   </g>
   <g id="line2d_2">
    <path d="M -1 148.741129 
L 8.687046 146.996652 
L 18.548307 145.43341 
L 28.409568 144.082969 
L 38.27083 142.94395 
L 48.132091 142.015188 
L 57.993352 141.295726 
L 67.854613 140.784823 
L 77.715875 140.48195 
L 87.577136 140.386793 
L 97.438397 140.499253 
L 107.299658 140.819447 
L 117.16092 141.347707 
L 127.022181 142.084579 
L 136.883442 143.030823 
L 146.744703 144.187413 
L 156.605965 145.555532 
L 166.467226 147.136576 
L 176.328487 148.932145 
L 186.189748 150.944049 
L 196.05101 153.174296 
L 205.912271 155.625098 
L 215.773532 158.298861 
L 225.634794 161.198187 
L 235.496055 164.325866 
L 245.357316 167.684876 
L 255.218577 171.278373 
L 265.079839 175.109694 
L 274.9411 179.182345 
L 284.802361 183.500003 
L 294.663622 188.066504 
L 304.524884 192.885843 
L 314.386145 197.962164 
L 324.247406 203.299757 
L 334.108667 208.903052 
L 343.969929 214.776611 
L 353.83119 220.925122 
L 363.692451 227.353392 
L 373.553712 234.066343 
L 383.414974 241.069001 
L 393.276235 248.366489 
L 403.137496 255.964025 
L 412.998758 263.866909 
L 422.860019 272.080516 
L 432.72128 280.610291 
L 441.76077 288.711698 
L 450.800259 297.08768 
L 459.839748 305.74255 
L 468.879238 314.680647 
L 477.918727 323.906333 
L 486.958217 333.423986 
L 496.819478 344.145027 
L 497.64125 345.054545 
L 497.64125 345.054545 
" clip-path="url(#pff0885004a)" style="fill: none; stroke: #ff0000; stroke-width: 3; stroke-linecap: square"/>
   </g>
   <g id="line2d_3">
    <path d="M -1 48.499612 
L 7.043502 46.001671 
L 15.26122 43.696414 
L 23.478938 41.640374 
L 31.696655 39.833551 
L 39.914373 38.275945 
L 48.132091 36.967556 
L 56.349809 35.908384 
L 63.745755 35.16821 
L 71.1417 34.629901 
L 78.537646 34.293458 
L 85.933592 34.158881 
L 93.329538 34.22617 
L 100.725484 34.495324 
L 108.12143 34.966344 
L 115.517376 35.63923 
L 122.913322 36.513981 
L 130.309268 37.590599 
L 138.526986 39.023596 
L 146.744703 40.705811 
L 154.962421 42.637242 
L 163.180139 44.81789 
L 171.397857 47.247756 
L 179.615574 49.926838 
L 187.833292 52.855137 
L 196.05101 56.032654 
L 204.268727 59.459387 
L 212.486445 63.135337 
L 220.704163 67.060504 
L 228.921881 71.234888 
L 237.139598 75.658489 
L 245.357316 80.331307 
L 253.575034 85.253342 
L 261.792752 90.424594 
L 270.010469 95.845063 
L 278.228187 101.514749 
L 286.445905 107.433651 
L 295.485394 114.23229 
L 304.524884 121.332481 
L 313.564373 128.734225 
L 322.603863 136.437521 
L 331.643352 144.44237 
L 340.682842 152.748771 
L 349.722331 161.356725 
L 358.761821 170.266231 
L 367.80131 179.47729 
L 376.8408 188.989901 
L 385.880289 198.804065 
L 395.74155 209.854345 
L 405.602812 221.263497 
L 415.464073 233.031522 
L 425.325334 245.15842 
L 435.186595 257.644189 
L 445.047857 270.488831 
L 454.909118 283.692346 
L 464.770379 297.254733 
L 474.63164 311.175992 
L 484.492902 325.456124 
L 495.175935 341.331244 
L 497.64125 345.054545 
L 497.64125 345.054545 
" clip-path="url(#pff0885004a)" style="fill: none; stroke: #ff0000; stroke-width: 3; stroke-linecap: square"/>
   </g>
   <g id="line2d_4">
    <path d="M -1 268.909547 
L 20.191851 268.261156 
L 43.20146 267.781753 
L 67.032842 267.504857 
L 91.685995 267.436258 
L 116.339148 267.584878 
L 140.170529 267.944016 
L 163.180139 268.511893 
L 184.546205 269.260477 
L 204.268727 270.169748 
L 222.347706 271.215742 
L 239.604914 272.431923 
L 256.040349 273.815615 
L 271.654013 275.360709 
L 286.445905 277.05717 
L 300.416025 278.890795 
L 313.564373 280.843211 
L 325.89095 282.892084 
L 338.217526 285.170952 
L 349.722331 287.522273 
L 361.227136 290.106899 
L 371.910169 292.73064 
L 382.593202 295.584267 
L 393.276235 298.682331 
L 403.137496 301.771987 
L 412.998758 305.09477 
L 422.860019 308.663035 
L 431.899508 312.160355 
L 440.938998 315.884408 
L 449.978487 319.845204 
L 459.017977 324.052875 
L 468.057466 328.517656 
L 477.096956 333.249868 
L 485.314673 337.792682 
L 493.532391 342.57293 
L 497.64125 345.054545 
L 497.64125 345.054545 
" clip-path="url(#pff0885004a)" style="fill: none; stroke: #ff0000; stroke-width: 3; stroke-linecap: square"/>
   </g>
   <g id="line2d_5">
    <path d="M -1 148.741129 
L 8.687046 146.996652 
L 18.548307 145.43341 
L 28.409568 144.082969 
L 38.27083 142.94395 
L 48.132091 142.015188 
L 57.993352 141.295726 
L 67.854613 140.784823 
L 77.715875 140.48195 
L 87.577136 140.386793 
L 97.438397 140.499253 
L 107.299658 140.819447 
L 117.16092 141.347707 
L 127.022181 142.084579 
L 136.883442 143.030823 
L 146.744703 144.187413 
L 156.605965 145.555532 
L 166.467226 147.136576 
L 176.328487 148.932145 
L 186.189748 150.944049 
L 196.05101 153.174296 
L 205.912271 155.625098 
L 215.773532 158.298861 
L 225.634794 161.198187 
L 235.496055 164.325866 
L 245.357316 167.684876 
L 255.218577 171.278373 
L 265.079839 175.109694 
L 274.9411 179.182345 
L 284.802361 183.500003 
L 294.663622 188.066504 
L 304.524884 192.885843 
L 314.386145 197.962164 
L 324.247406 203.299757 
L 334.108667 208.903052 
L 343.969929 214.776611 
L 353.83119 220.925122 
L 363.692451 227.353392 
L 373.553712 234.066343 
L 383.414974 241.069001 
L 393.276235 248.366489 
L 403.137496 255.964025 
L 412.998758 263.866909 
L 422.860019 272.080516 
L 432.72128 280.610291 
L 441.76077 288.711698 
L 450.800259 297.08768 
L 459.839748 305.74255 
L 468.879238 314.680647 
L 477.918727 323.906333 
L 486.958217 333.423986 
L 496.819478 344.145027 
L 497.64125 345.054545 
L 497.64125 345.054545 
" clip-path="url(#pff0885004a)" style="fill: none; stroke: #ff0000; stroke-width: 3; stroke-linecap: square"/>
   </g>
   <g id="line2d_6">
    <path d="M -1 48.499612 
L 7.043502 46.001671 
L 15.26122 43.696414 
L 23.478938 41.640374 
L 31.696655 39.833551 
L 39.914373 38.275945 
L 48.132091 36.967556 
L 56.349809 35.908384 
L 63.745755 35.16821 
L 71.1417 34.629901 
L 78.537646 34.293458 
L 85.933592 34.158881 
L 93.329538 34.22617 
L 100.725484 34.495324 
L 108.12143 34.966344 
L 115.517376 35.63923 
L 122.913322 36.513981 
L 130.309268 37.590599 
L 138.526986 39.023596 
L 146.744703 40.705811 
L 154.962421 42.637242 
L 163.180139 44.81789 
L 171.397857 47.247756 
L 179.615574 49.926838 
L 187.833292 52.855137 
L 196.05101 56.032654 
L 204.268727 59.459387 
L 212.486445 63.135337 
L 220.704163 67.060504 
L 228.921881 71.234888 
L 237.139598 75.658489 
L 245.357316 80.331307 
L 253.575034 85.253342 
L 261.792752 90.424594 
L 270.010469 95.845063 
L 278.228187 101.514749 
L 286.445905 107.433651 
L 295.485394 114.23229 
L 304.524884 121.332481 
L 313.564373 128.734225 
L 322.603863 136.437521 
L 331.643352 144.44237 
L 340.682842 152.748771 
L 349.722331 161.356725 
L 358.761821 170.266231 
L 367.80131 179.47729 
L 376.8408 188.989901 
L 385.880289 198.804065 
L 395.74155 209.854345 
L 405.602812 221.263497 
L 415.464073 233.031522 
L 425.325334 245.15842 
L 435.186595 257.644189 
L 445.047857 270.488831 
L 454.909118 283.692346 
L 464.770379 297.254733 
L 474.63164 311.175992 
L 484.492902 325.456124 
L 495.175935 341.331244 
L 497.64125 345.054545 
L 497.64125 345.054545 
" clip-path="url(#pff0885004a)" style="fill: none; stroke: #ff0000; stroke-width: 3; stroke-linecap: square"/>
   </g>
   <g id="line2d_7">
    <path d="M -1 268.909547 
L 20.191851 268.261156 
L 43.20146 267.781753 
L 67.032842 267.504857 
L 91.685995 267.436258 
L 116.339148 267.584878 
L 140.170529 267.944016 
L 163.180139 268.511893 
L 184.546205 269.260477 
L 204.268727 270.169748 
L 222.347706 271.215742 
L 239.604914 272.431923 
L 256.040349 273.815615 
L 271.654013 275.360709 
L 286.445905 277.05717 
L 300.416025 278.890795 
L 313.564373 280.843211 
L 325.89095 282.892084 
L 338.217526 285.170952 
L 349.722331 287.522273 
L 361.227136 290.106899 
L 371.910169 292.73064 
L 382.593202 295.584267 
L 393.276235 298.682331 
L 403.137496 301.771987 
L 412.998758 305.09477 
L 422.860019 308.663035 
L 431.899508 312.160355 
L 440.938998 315.884408 
L 449.978487 319.845204 
L 459.017977 324.052875 
L 468.057466 328.517656 
L 477.096956 333.249868 
L 485.314673 337.792682 
L 493.532391 342.57293 
L 497.64125 345.054545 
L 497.64125 345.054545 
" clip-path="url(#pff0885004a)" style="fill: none; stroke: #ff0000; stroke-width: 3; stroke-linecap: square"/>
   </g>
   <g id="line2d_8">
    <path d="M -1 148.741129 
L 8.687046 146.996652 
L 18.548307 145.43341 
L 28.409568 144.082969 
L 38.27083 142.94395 
L 48.132091 142.015188 
L 57.993352 141.295726 
L 67.854613 140.784823 
L 77.715875 140.48195 
L 87.577136 140.386793 
L 97.438397 140.499253 
L 107.299658 140.819447 
L 117.16092 141.347707 
L 127.022181 142.084579 
L 136.883442 143.030823 
L 146.744703 144.187413 
L 156.605965 145.555532 
L 166.467226 147.136576 
L 176.328487 148.932145 
L 186.189748 150.944049 
L 196.05101 153.174296 
L 205.912271 155.625098 
L 215.773532 158.298861 
L 225.634794 161.198187 
L 235.496055 164.325866 
L 245.357316 167.684876 
L 255.218577 171.278373 
L 265.079839 175.109694 
L 274.9411 179.182345 
L 284.802361 183.500003 
L 294.663622 188.066504 
L 304.524884 192.885843 
L 314.386145 197.962164 
L 324.247406 203.299757 
L 334.108667 208.903052 
L 343.969929 214.776611 
L 353.83119 220.925122 
L 363.692451 227.353392 
L 373.553712 234.066343 
L 383.414974 241.069001 
L 393.276235 248.366489 
L 403.137496 255.964025 
L 412.998758 263.866909 
L 422.860019 272.080516 
L 432.72128 280.610291 
L 441.76077 288.711698 
L 450.800259 297.08768 
L 459.839748 305.74255 
L 468.879238 314.680647 
L 477.918727 323.906333 
L 486.958217 333.423986 
L 496.819478 344.145027 
L 497.64125 345.054545 
L 497.64125 345.054545 
" clip-path="url(#pff0885004a)" style="fill: none; stroke: #ff0000; stroke-width: 3; stroke-linecap: square"/>
   </g>
   <g id="line2d_9">
    <path d="M -1 48.499612 
L 7.043502 46.001671 
L 15.26122 43.696414 
L 23.478938 41.640374 
L 31.696655 39.833551 
L 39.914373 38.275945 
L 48.132091 36.967556 
L 56.349809 35.908384 
L 63.745755 35.16821 
L 71.1417 34.629901 
L 78.537646 34.293458 
L 85.933592 34.158881 
L 93.329538 34.22617 
L 100.725484 34.495324 
L 108.12143 34.966344 
L 115.517376 35.63923 
L 122.913322 36.513981 
L 130.309268 37.590599 
L 138.526986 39.023596 
L 146.744703 40.705811 
L 154.962421 42.637242 
L 163.180139 44.81789 
L 171.397857 47.247756 
L 179.615574 49.926838 
L 187.833292 52.855137 
L 196.05101 56.032654 
L 204.268727 59.459387 
L 212.486445 63.135337 
L 220.704163 67.060504 
L 228.921881 71.234888 
L 237.139598 75.658489 
L 245.357316 80.331307 
L 253.575034 85.253342 
L 261.792752 90.424594 
L 270.010469 95.845063 
L 278.228187 101.514749 
L 286.445905 107.433651 
L 295.485394 114.23229 
L 304.524884 121.332481 
L 313.564373 128.734225 
L 322.603863 136.437521 
L 331.643352 144.44237 
L 340.682842 152.748771 
L 349.722331 161.356725 
L 358.761821 170.266231 
L 367.80131 179.47729 
L 376.8408 188.989901 
L 385.880289 198.804065 
L 395.74155 209.854345 
L 405.602812 221.263497 
L 415.464073 233.031522 
L 425.325334 245.15842 
L 435.186595 257.644189 
L 445.047857 270.488831 
L 454.909118 283.692346 
L 464.770379 297.254733 
L 474.63164 311.175992 
L 484.492902 325.456124 
L 495.175935 341.331244 
L 497.64125 345.054545 
L 497.64125 345.054545 
" clip-path="url(#pff0885004a)" style="fill: none; stroke: #ff0000; stroke-width: 3; stroke-linecap: square"/>
   </g>
   <g id="matplotlib.axis_1">
    <g id="xtick_1">
     <g id="line2d_10">
      <defs>
       <path id="mee86a46c6a" d="M 0 0 
L 0 -6 
" style="stroke: #000000; stroke-width: 2"/>
      </defs>
      <g>
       <use xlink:href="#mee86a46c6a" x="87.16625" y="360.8" style="stroke: #000000; stroke-width: 2"/>
      </g>
     </g>
     <g id="text_1">
      <!-- 0.0 -->
      <g transform="translate(68.0825 384.03625)scale(0.24 -0.24)">
       <defs>
        <path id="DejaVuSans-30" d="M 2034 4250 
Q 1547 4250 1301 3770 
Q 1056 3291 1056 2328 
Q 1056 1369 1301 889 
Q 1547 409 2034 409 
Q 2525 409 2770 889 
Q 3016 1369 3016 2328 
Q 3016 3291 2770 3770 
Q 2525 4250 2034 4250 
z
M 2034 4750 
Q 2819 4750 3233 4129 
Q 3647 3509 3647 2328 
Q 3647 1150 3233 529 
Q 2819 -91 2034 -91 
Q 1250 -91 836 529 
Q 422 1150 422 2328 
Q 422 3509 836 4129 
Q 1250 4750 2034 4750 
z
" transform="scale(0.015625)"/>
        <path id="DejaVuSans-2e" d="M 684 794 
L 1344 794 
L 1344 0 
L 684 0 
L 684 794 
z
" transform="scale(0.015625)"/>
       </defs>
       <use xlink:href="#DejaVuSans-30"/>
       <use xlink:href="#DejaVuSans-2e" x="63.623047"/>
       <use xlink:href="#DejaVuSans-30" x="95.410156"/>
      </g>
     </g>
    </g>
    <g id="xtick_2">
     <g id="line2d_11">
      <g>
       <use xlink:href="#mee86a46c6a" x="169.26125" y="360.8" style="stroke: #000000; stroke-width: 2"/>
      </g>
     </g>
     <g id="text_2">
      <!-- 0.2 -->
      <g transform="translate(150.1775 384.03625)scale(0.24 -0.24)">
       <defs>
        <path id="DejaVuSans-32" d="M 1228 531 
L 3431 531 
L 3431 0 
L 469 0 
L 469 531 
Q 828 903 1448 1529 
Q 2069 2156 2228 2338 
Q 2531 2678 2651 2914 
Q 2772 3150 2772 3378 
Q 2772 3750 2511 3984 
Q 2250 4219 1831 4219 
Q 1534 4219 1204 4116 
Q 875 4013 500 3803 
L 500 4441 
Q 881 4594 1212 4672 
Q 1544 4750 1819 4750 
Q 2544 4750 2975 4387 
Q 3406 4025 3406 3419 
Q 3406 3131 3298 2873 
Q 3191 2616 2906 2266 
Q 2828 2175 2409 1742 
Q 1991 1309 1228 531 
z
" transform="scale(0.015625)"/>
       </defs>
       <use xlink:href="#DejaVuSans-30"/>
       <use xlink:href="#DejaVuSans-2e" x="63.623047"/>
       <use xlink:href="#DejaVuSans-32" x="95.410156"/>
      </g>
     </g>
    </g>
    <g id="xtick_3">
     <g id="line2d_12">
      <g>
       <use xlink:href="#mee86a46c6a" x="251.35625" y="360.8" style="stroke: #000000; stroke-width: 2"/>
      </g>
     </g>
     <g id="text_3">
      <!-- 0.4 -->
      <g transform="translate(232.2725 384.03625)scale(0.24 -0.24)">
       <defs>
        <path id="DejaVuSans-34" d="M 2419 4116 
L 825 1625 
L 2419 1625 
L 2419 4116 
z
M 2253 4666 
L 3047 4666 
L 3047 1625 
L 3713 1625 
L 3713 1100 
L 3047 1100 
L 3047 0 
L 2419 0 
L 2419 1100 
L 313 1100 
L 313 1709 
L 2253 4666 
z
" transform="scale(0.015625)"/>
       </defs>
       <use xlink:href="#DejaVuSans-30"/>
       <use xlink:href="#DejaVuSans-2e" x="63.623047"/>
       <use xlink:href="#DejaVuSans-34" x="95.410156"/>
      </g>
     </g>
    </g>
    <g id="xtick_4">
     <g id="line2d_13">
      <g>
       <use xlink:href="#mee86a46c6a" x="333.45125" y="360.8" style="stroke: #000000; stroke-width: 2"/>
      </g>
     </g>
     <g id="text_4">
      <!-- 0.6 -->
      <g transform="translate(314.3675 384.03625)scale(0.24 -0.24)">
       <defs>
        <path id="DejaVuSans-36" d="M 2113 2584 
Q 1688 2584 1439 2293 
Q 1191 2003 1191 1497 
Q 1191 994 1439 701 
Q 1688 409 2113 409 
Q 2538 409 2786 701 
Q 3034 994 3034 1497 
Q 3034 2003 2786 2293 
Q 2538 2584 2113 2584 
z
M 3366 4563 
L 3366 3988 
Q 3128 4100 2886 4159 
Q 2644 4219 2406 4219 
Q 1781 4219 1451 3797 
Q 1122 3375 1075 2522 
Q 1259 2794 1537 2939 
Q 1816 3084 2150 3084 
Q 2853 3084 3261 2657 
Q 3669 2231 3669 1497 
Q 3669 778 3244 343 
Q 2819 -91 2113 -91 
Q 1303 -91 875 529 
Q 447 1150 447 2328 
Q 447 3434 972 4092 
Q 1497 4750 2381 4750 
Q 2619 4750 2861 4703 
Q 3103 4656 3366 4563 
z
" transform="scale(0.015625)"/>
       </defs>
       <use xlink:href="#DejaVuSans-30"/>
       <use xlink:href="#DejaVuSans-2e" x="63.623047"/>
       <use xlink:href="#DejaVuSans-36" x="95.410156"/>
      </g>
     </g>
    </g>
    <g id="xtick_5">
     <g id="line2d_14">
      <g>
       <use xlink:href="#mee86a46c6a" x="415.54625" y="360.8" style="stroke: #000000; stroke-width: 2"/>
      </g>
     </g>
     <g id="text_5">
      <!-- 0.8 -->
      <g transform="translate(396.4625 384.03625)scale(0.24 -0.24)">
       <defs>
        <path id="DejaVuSans-38" d="M 2034 2216 
Q 1584 2216 1326 1975 
Q 1069 1734 1069 1313 
Q 1069 891 1326 650 
Q 1584 409 2034 409 
Q 2484 409 2743 651 
Q 3003 894 3003 1313 
Q 3003 1734 2745 1975 
Q 2488 2216 2034 2216 
z
M 1403 2484 
Q 997 2584 770 2862 
Q 544 3141 544 3541 
Q 544 4100 942 4425 
Q 1341 4750 2034 4750 
Q 2731 4750 3128 4425 
Q 3525 4100 3525 3541 
Q 3525 3141 3298 2862 
Q 3072 2584 2669 2484 
Q 3125 2378 3379 2068 
Q 3634 1759 3634 1313 
Q 3634 634 3220 271 
Q 2806 -91 2034 -91 
Q 1263 -91 848 271 
Q 434 634 434 1313 
Q 434 1759 690 2068 
Q 947 2378 1403 2484 
z
M 1172 3481 
Q 1172 3119 1398 2916 
Q 1625 2713 2034 2713 
Q 2441 2713 2670 2916 
Q 2900 3119 2900 3481 
Q 2900 3844 2670 4047 
Q 2441 4250 2034 4250 
Q 1625 4250 1398 4047 
Q 1172 3844 1172 3481 
z
" transform="scale(0.015625)"/>
       </defs>
       <use xlink:href="#DejaVuSans-30"/>
       <use xlink:href="#DejaVuSans-2e" x="63.623047"/>
       <use xlink:href="#DejaVuSans-38" x="95.410156"/>
      </g>
     </g>
    </g>
    <g id="xtick_6">
     <g id="line2d_15">
      <g>
       <use xlink:href="#mee86a46c6a" x="497.64125" y="360.8" style="stroke: #000000; stroke-width: 2"/>
      </g>
     </g>
     <g id="text_6">
      <!-- 1.0 -->
      <g transform="translate(478.5575 384.03625)scale(0.24 -0.24)">
       <defs>
        <path id="DejaVuSans-31" d="M 794 531 
L 1825 531 
L 1825 4091 
L 703 3866 
L 703 4441 
L 1819 4666 
L 2450 4666 
L 2450 531 
L 3481 531 
L 3481 0 
L 794 0 
L 794 531 
z
" transform="scale(0.015625)"/>
       </defs>
       <use xlink:href="#DejaVuSans-31"/>
       <use xlink:href="#DejaVuSans-2e" x="63.623047"/>
       <use xlink:href="#DejaVuSans-30" x="95.410156"/>
      </g>
     </g>
    </g>
    <g id="text_7">
     <!-- $y / H$ -->
     <g transform="translate(269.02375 414.24625)scale(0.28 -0.28)">
      <defs>
       <path id="DejaVuSans-Oblique-79" d="M 1588 -325 
Q 1188 -997 936 -1164 
Q 684 -1331 294 -1331 
L -159 -1331 
L -63 -850 
L 269 -850 
Q 509 -850 678 -719 
Q 847 -588 1056 -206 
L 1234 128 
L 459 3500 
L 1069 3500 
L 1650 819 
L 3256 3500 
L 3859 3500 
L 1588 -325 
z
" transform="scale(0.015625)"/>
       <path id="DejaVuSans-2f" d="M 1625 4666 
L 2156 4666 
L 531 -594 
L 0 -594 
L 1625 4666 
z
" transform="scale(0.015625)"/>
       <path id="DejaVuSans-Oblique-48" d="M 1081 4666 
L 1716 4666 
L 1344 2753 
L 3634 2753 
L 4006 4666 
L 4641 4666 
L 3731 0 
L 3097 0 
L 3531 2222 
L 1241 2222 
L 806 0 
L 172 0 
L 1081 4666 
z
" transform="scale(0.015625)"/>
      </defs>
      <use xlink:href="#DejaVuSans-Oblique-79" transform="translate(0 0.09375)"/>
      <use xlink:href="#DejaVuSans-2f" transform="translate(59.179688 0.09375)"/>
      <use xlink:href="#DejaVuSans-Oblique-48" transform="translate(91.121094 0.09375)"/>
     </g>
    </g>
   </g>
   <g id="matplotlib.axis_2">
    <g id="ytick_1">
     <g id="line2d_16">
      <defs>
       <path id="m0acfd862ef" d="M 0 0 
L 6 0 
" style="stroke: #000000; stroke-width: 2"/>
      </defs>
      <g>
       <use xlink:href="#m0acfd862ef" x="87.16625" y="345.054545" style="stroke: #000000; stroke-width: 2"/>
      </g>
     </g>
     <g id="text_8">
      <!-- 0.0 -->
      <g transform="translate(45.49875 354.17267)scale(0.24 -0.24)">
       <use xlink:href="#DejaVuSans-30"/>
       <use xlink:href="#DejaVuSans-2e" x="63.623047"/>
       <use xlink:href="#DejaVuSans-30" x="95.410156"/>
      </g>
     </g>
    </g>
    <g id="ytick_2">
     <g id="line2d_17">
      <g>
       <use xlink:href="#m0acfd862ef" x="87.16625" y="293.238134" style="stroke: #000000; stroke-width: 2"/>
      </g>
     </g>
     <g id="text_9">
      <!-- 0.5 -->
      <g transform="translate(45.49875 302.356259)scale(0.24 -0.24)">
       <defs>
        <path id="DejaVuSans-35" d="M 691 4666 
L 3169 4666 
L 3169 4134 
L 1269 4134 
L 1269 2991 
Q 1406 3038 1543 3061 
Q 1681 3084 1819 3084 
Q 2600 3084 3056 2656 
Q 3513 2228 3513 1497 
Q 3513 744 3044 326 
Q 2575 -91 1722 -91 
Q 1428 -91 1123 -41 
Q 819 9 494 109 
L 494 744 
Q 775 591 1075 516 
Q 1375 441 1709 441 
Q 2250 441 2565 725 
Q 2881 1009 2881 1497 
Q 2881 1984 2565 2268 
Q 2250 2553 1709 2553 
Q 1456 2553 1204 2497 
Q 953 2441 691 2322 
L 691 4666 
z
" transform="scale(0.015625)"/>
       </defs>
       <use xlink:href="#DejaVuSans-30"/>
       <use xlink:href="#DejaVuSans-2e" x="63.623047"/>
       <use xlink:href="#DejaVuSans-35" x="95.410156"/>
      </g>
     </g>
    </g>
    <g id="ytick_3">
     <g id="line2d_18">
      <g>
       <use xlink:href="#m0acfd862ef" x="87.16625" y="241.421723" style="stroke: #000000; stroke-width: 2"/>
      </g>
     </g>
     <g id="text_10">
      <!-- 1.0 -->
      <g transform="translate(45.49875 250.539848)scale(0.24 -0.24)">
       <use xlink:href="#DejaVuSans-31"/>
       <use xlink:href="#DejaVuSans-2e" x="63.623047"/>
       <use xlink:href="#DejaVuSans-30" x="95.410156"/>
      </g>
     </g>
    </g>
    <g id="ytick_4">
     <g id="line2d_19">
      <g>
       <use xlink:href="#m0acfd862ef" x="87.16625" y="189.605311" style="stroke: #000000; stroke-width: 2"/>
      </g>
     </g>
     <g id="text_11">
      <!-- 1.5 -->
      <g transform="translate(45.49875 198.723436)scale(0.24 -0.24)">
       <use xlink:href="#DejaVuSans-31"/>
       <use xlink:href="#DejaVuSans-2e" x="63.623047"/>
       <use xlink:href="#DejaVuSans-35" x="95.410156"/>
      </g>
     </g>
    </g>
    <g id="ytick_5">
     <g id="line2d_20">
      <g>
       <use xlink:href="#m0acfd862ef" x="87.16625" y="137.7889" style="stroke: #000000; stroke-width: 2"/>
      </g>
     </g>
     <g id="text_12">
      <!-- 2.0 -->
      <g transform="translate(45.49875 146.907025)scale(0.24 -0.24)">
       <use xlink:href="#DejaVuSans-32"/>
       <use xlink:href="#DejaVuSans-2e" x="63.623047"/>
       <use xlink:href="#DejaVuSans-30" x="95.410156"/>
      </g>
     </g>
    </g>
    <g id="ytick_6">
     <g id="line2d_21">
      <g>
       <use xlink:href="#m0acfd862ef" x="87.16625" y="85.972489" style="stroke: #000000; stroke-width: 2"/>
      </g>
     </g>
     <g id="text_13">
      <!-- 2.5 -->
      <g transform="translate(45.49875 95.090614)scale(0.24 -0.24)">
       <use xlink:href="#DejaVuSans-32"/>
       <use xlink:href="#DejaVuSans-2e" x="63.623047"/>
       <use xlink:href="#DejaVuSans-35" x="95.410156"/>
      </g>
     </g>
    </g>
    <g id="ytick_7">
     <g id="line2d_22">
      <g>
       <use xlink:href="#m0acfd862ef" x="87.16625" y="34.156077" style="stroke: #000000; stroke-width: 2"/>
      </g>
     </g>
     <g id="text_14">
      <!-- 3.0 -->
      <g transform="translate(45.49875 43.274202)scale(0.24 -0.24)">
       <defs>
        <path id="DejaVuSans-33" d="M 2597 2516 
Q 3050 2419 3304 2112 
Q 3559 1806 3559 1356 
Q 3559 666 3084 287 
Q 2609 -91 1734 -91 
Q 1441 -91 1130 -33 
Q 819 25 488 141 
L 488 750 
Q 750 597 1062 519 
Q 1375 441 1716 441 
Q 2309 441 2620 675 
Q 2931 909 2931 1356 
Q 2931 1769 2642 2001 
Q 2353 2234 1838 2234 
L 1294 2234 
L 1294 2753 
L 1863 2753 
Q 2328 2753 2575 2939 
Q 2822 3125 2822 3475 
Q 2822 3834 2567 4026 
Q 2313 4219 1838 4219 
Q 1578 4219 1281 4162 
Q 984 4106 628 3988 
L 628 4550 
Q 988 4650 1302 4700 
Q 1616 4750 1894 4750 
Q 2613 4750 3031 4423 
Q 3450 4097 3450 3541 
Q 3450 3153 3228 2886 
Q 3006 2619 2597 2516 
z
" transform="scale(0.015625)"/>
       </defs>
       <use xlink:href="#DejaVuSans-33"/>
       <use xlink:href="#DejaVuSans-2e" x="63.623047"/>
       <use xlink:href="#DejaVuSans-30" x="95.410156"/>
      </g>
     </g>
    </g>
    <g id="text_15">
     <!-- $u_x / U_0$ -->
     <g transform="translate(35.675625 224.28)rotate(-90)scale(0.28 -0.28)">
      <defs>
       <path id="DejaVuSans-Oblique-75" d="M 428 1388 
L 838 3500 
L 1416 3500 
L 1006 1409 
Q 975 1256 961 1147 
Q 947 1038 947 966 
Q 947 700 1109 554 
Q 1272 409 1569 409 
Q 2031 409 2368 721 
Q 2706 1034 2809 1563 
L 3194 3500 
L 3769 3500 
L 3091 0 
L 2516 0 
L 2631 550 
Q 2388 244 2052 76 
Q 1716 -91 1338 -91 
Q 878 -91 622 161 
Q 366 413 366 863 
Q 366 956 381 1097 
Q 397 1238 428 1388 
z
" transform="scale(0.015625)"/>
       <path id="DejaVuSans-Oblique-78" d="M 3841 3500 
L 2234 1784 
L 3219 0 
L 2559 0 
L 1819 1388 
L 531 0 
L -166 0 
L 1556 1844 
L 641 3500 
L 1300 3500 
L 1972 2234 
L 3144 3500 
L 3841 3500 
z
" transform="scale(0.015625)"/>
       <path id="DejaVuSans-Oblique-55" d="M 991 4666 
L 1625 4666 
L 1075 1831 
Q 1041 1641 1027 1517 
Q 1013 1394 1013 1300 
Q 1013 869 1253 645 
Q 1494 422 1959 422 
Q 2563 422 2898 753 
Q 3234 1084 3378 1831 
L 3928 4666 
L 4563 4666 
L 4000 1753 
Q 3816 809 3300 359 
Q 2784 -91 1888 -91 
Q 1188 -91 780 261 
Q 372 613 372 1216 
Q 372 1325 387 1461 
Q 403 1597 434 1753 
L 991 4666 
z
" transform="scale(0.015625)"/>
      </defs>
      <use xlink:href="#DejaVuSans-Oblique-75" transform="translate(0 0.09375)"/>
      <use xlink:href="#DejaVuSans-Oblique-78" transform="translate(63.378906 -16.3125)scale(0.7)"/>
      <use xlink:href="#DejaVuSans-2f" transform="translate(107.539062 0.09375)"/>
      <use xlink:href="#DejaVuSans-Oblique-55" transform="translate(141.230469 0.09375)"/>
      <use xlink:href="#DejaVuSans-30" transform="translate(214.423828 -16.3125)scale(0.7)"/>
     </g>
    </g>
   </g>
   <g id="line2d_23">
    <defs>
     <path id="m0702036a98" d="M -6 6 
L 6 6 
L 6 -6 
L -6 -6 
z
" style="stroke: #3b528b; stroke-width: 1.5; stroke-linejoin: miter"/>
    </defs>
    <g clip-path="url(#pff0885004a)">
     <use xlink:href="#m0702036a98" x="-1" y="268.878581" style="fill-opacity: 0; stroke: #3b528b; stroke-width: 1.5; stroke-linejoin: miter"/>
     <use xlink:href="#m0702036a98" x="22.354408" y="268.088626" style="fill-opacity: 0; stroke: #3b528b; stroke-width: 1.5; stroke-linejoin: miter"/>
     <use xlink:href="#m0702036a98" x="65.562303" y="267.422779" style="fill-opacity: 0; stroke: #3b528b; stroke-width: 1.5; stroke-linejoin: miter"/>
     <use xlink:href="#m0702036a98" x="108.770197" y="267.422048" style="fill-opacity: 0; stroke: #3b528b; stroke-width: 1.5; stroke-linejoin: miter"/>
     <use xlink:href="#m0702036a98" x="151.978092" y="268.08697" style="fill-opacity: 0; stroke: #3b528b; stroke-width: 1.5; stroke-linejoin: miter"/>
     <use xlink:href="#m0702036a98" x="195.185987" y="269.550057" style="fill-opacity: 0; stroke: #3b528b; stroke-width: 1.5; stroke-linejoin: miter"/>
     <use xlink:href="#m0702036a98" x="238.393882" y="272.073995" style="fill-opacity: 0; stroke: #3b528b; stroke-width: 1.5; stroke-linejoin: miter"/>
     <use xlink:href="#m0702036a98" x="281.601776" y="276.078854" style="fill-opacity: 0; stroke: #3b528b; stroke-width: 1.5; stroke-linejoin: miter"/>
     <use xlink:href="#m0702036a98" x="324.809671" y="282.117021" style="fill-opacity: 0; stroke: #3b528b; stroke-width: 1.5; stroke-linejoin: miter"/>
     <use xlink:href="#m0702036a98" x="368.017566" y="290.927106" style="fill-opacity: 0; stroke: #3b528b; stroke-width: 1.5; stroke-linejoin: miter"/>
     <use xlink:href="#m0702036a98" x="411.225461" y="303.338213" style="fill-opacity: 0; stroke: #3b528b; stroke-width: 1.5; stroke-linejoin: miter"/>
     <use xlink:href="#m0702036a98" x="454.433355" y="320.351944" style="fill-opacity: 0; stroke: #3b528b; stroke-width: 1.5; stroke-linejoin: miter"/>
    </g>
   </g>
   <g id="line2d_24">
    <g clip-path="url(#pff0885004a)">
     <use xlink:href="#m0702036a98" x="-1" y="147.746716" style="fill-opacity: 0; stroke: #3b528b; stroke-width: 1.5; stroke-linejoin: miter"/>
     <use xlink:href="#m0702036a98" x="22.354408" y="143.433273" style="fill-opacity: 0; stroke: #3b528b; stroke-width: 1.5; stroke-linejoin: miter"/>
     <use xlink:href="#m0702036a98" x="65.562303" y="139.48362" style="fill-opacity: 0; stroke: #3b528b; stroke-width: 1.5; stroke-linejoin: miter"/>
     <use xlink:href="#m0702036a98" x="108.770197" y="139.485123" style="fill-opacity: 0; stroke: #3b528b; stroke-width: 1.5; stroke-linejoin: miter"/>
     <use xlink:href="#m0702036a98" x="151.978092" y="143.439048" style="fill-opacity: 0; stroke: #3b528b; stroke-width: 1.5; stroke-linejoin: miter"/>
     <use xlink:href="#m0702036a98" x="195.185987" y="151.428274" style="fill-opacity: 0; stroke: #3b528b; stroke-width: 1.5; stroke-linejoin: miter"/>
     <use xlink:href="#m0702036a98" x="238.393882" y="163.599753" style="fill-opacity: 0; stroke: #3b528b; stroke-width: 1.5; stroke-linejoin: miter"/>
     <use xlink:href="#m0702036a98" x="281.601776" y="180.184269" style="fill-opacity: 0; stroke: #3b528b; stroke-width: 1.5; stroke-linejoin: miter"/>
     <use xlink:href="#m0702036a98" x="324.809671" y="201.473165" style="fill-opacity: 0; stroke: #3b528b; stroke-width: 1.5; stroke-linejoin: miter"/>
     <use xlink:href="#m0702036a98" x="368.017566" y="227.851121" style="fill-opacity: 0; stroke: #3b528b; stroke-width: 1.5; stroke-linejoin: miter"/>
     <use xlink:href="#m0702036a98" x="411.225461" y="259.675923" style="fill-opacity: 0; stroke: #3b528b; stroke-width: 1.5; stroke-linejoin: miter"/>
     <use xlink:href="#m0702036a98" x="454.433355" y="297.429215" style="fill-opacity: 0; stroke: #3b528b; stroke-width: 1.5; stroke-linejoin: miter"/>
    </g>
   </g>
   <g id="line2d_25">
    <g clip-path="url(#pff0885004a)">
     <use xlink:href="#m0702036a98" x="-1" y="44.49165" style="fill-opacity: 0; stroke: #3b528b; stroke-width: 1.5; stroke-linejoin: miter"/>
     <use xlink:href="#m0702036a98" x="22.354408" y="37.023825" style="fill-opacity: 0; stroke: #3b528b; stroke-width: 1.5; stroke-linejoin: miter"/>
     <use xlink:href="#m0702036a98" x="65.562303" y="30.145455" style="fill-opacity: 0; stroke: #3b528b; stroke-width: 1.5; stroke-linejoin: miter"/>
     <use xlink:href="#m0702036a98" x="108.770197" y="30.158562" style="fill-opacity: 0; stroke: #3b528b; stroke-width: 1.5; stroke-linejoin: miter"/>
     <use xlink:href="#m0702036a98" x="151.978092" y="37.071465" style="fill-opacity: 0; stroke: #3b528b; stroke-width: 1.5; stroke-linejoin: miter"/>
     <use xlink:href="#m0702036a98" x="195.185987" y="50.898725" style="fill-opacity: 0; stroke: #3b528b; stroke-width: 1.5; stroke-linejoin: miter"/>
     <use xlink:href="#m0702036a98" x="238.393882" y="71.61153" style="fill-opacity: 0; stroke: #3b528b; stroke-width: 1.5; stroke-linejoin: miter"/>
     <use xlink:href="#m0702036a98" x="281.601776" y="99.163024" style="fill-opacity: 0; stroke: #3b528b; stroke-width: 1.5; stroke-linejoin: miter"/>
     <use xlink:href="#m0702036a98" x="324.809671" y="133.338091" style="fill-opacity: 0; stroke: #3b528b; stroke-width: 1.5; stroke-linejoin: miter"/>
     <use xlink:href="#m0702036a98" x="368.017566" y="174.345986" style="fill-opacity: 0; stroke: #3b528b; stroke-width: 1.5; stroke-linejoin: miter"/>
     <use xlink:href="#m0702036a98" x="411.225461" y="222.251321" style="fill-opacity: 0; stroke: #3b528b; stroke-width: 1.5; stroke-linejoin: miter"/>
     <use xlink:href="#m0702036a98" x="454.433355" y="276.479864" style="fill-opacity: 0; stroke: #3b528b; stroke-width: 1.5; stroke-linejoin: miter"/>
    </g>
   </g>
   <g id="line2d_26">
    <defs>
     <path id="ma198c7bf4a" d="M 0 6 
C 1.591219 6 3.117479 5.367802 4.242641 4.242641 
C 5.367802 3.117479 6 1.591219 6 0 
C 6 -1.591219 5.367802 -3.117479 4.242641 -4.242641 
C 3.117479 -5.367802 1.591219 -6 0 -6 
C -1.591219 -6 -3.117479 -5.367802 -4.242641 -4.242641 
C -5.367802 -3.117479 -6 -1.591219 -6 0 
C -6 1.591219 -5.367802 3.117479 -4.242641 4.242641 
C -3.117479 5.367802 -1.591219 6 0 6 
z
" style="stroke: #5ec962; stroke-width: 1.5"/>
    </defs>
    <g clip-path="url(#pff0885004a)">
     <use xlink:href="#ma198c7bf4a" x="-1" y="268.925896" style="fill-opacity: 0; stroke: #5ec962; stroke-width: 1.5"/>
     <use xlink:href="#ma198c7bf4a" x="22.354408" y="268.130946" style="fill-opacity: 0; stroke: #5ec962; stroke-width: 1.5"/>
     <use xlink:href="#ma198c7bf4a" x="65.562303" y="267.4597" style="fill-opacity: 0; stroke: #5ec962; stroke-width: 1.5"/>
     <use xlink:href="#ma198c7bf4a" x="108.770197" y="267.459781" style="fill-opacity: 0; stroke: #5ec962; stroke-width: 1.5"/>
     <use xlink:href="#ma198c7bf4a" x="151.978092" y="268.132164" style="fill-opacity: 0; stroke: #5ec962; stroke-width: 1.5"/>
     <use xlink:href="#ma198c7bf4a" x="195.185987" y="269.610088" style="fill-opacity: 0; stroke: #5ec962; stroke-width: 1.5"/>
     <use xlink:href="#ma198c7bf4a" x="238.393882" y="272.151884" style="fill-opacity: 0; stroke: #5ec962; stroke-width: 1.5"/>
     <use xlink:href="#ma198c7bf4a" x="281.601776" y="276.180414" style="fill-opacity: 0; stroke: #5ec962; stroke-width: 1.5"/>
     <use xlink:href="#ma198c7bf4a" x="324.809671" y="282.238501" style="fill-opacity: 0; stroke: #5ec962; stroke-width: 1.5"/>
     <use xlink:href="#ma198c7bf4a" x="368.017566" y="291.075241" style="fill-opacity: 0; stroke: #5ec962; stroke-width: 1.5"/>
     <use xlink:href="#ma198c7bf4a" x="411.225461" y="303.484074" style="fill-opacity: 0; stroke: #5ec962; stroke-width: 1.5"/>
     <use xlink:href="#ma198c7bf4a" x="454.433355" y="320.463603" style="fill-opacity: 0; stroke: #5ec962; stroke-width: 1.5"/>
    </g>
   </g>
   <g id="line2d_27">
    <g clip-path="url(#pff0885004a)">
     <use xlink:href="#ma198c7bf4a" x="-1" y="148.504423" style="fill-opacity: 0; stroke: #5ec962; stroke-width: 1.5"/>
     <use xlink:href="#ma198c7bf4a" x="22.354408" y="144.192909" style="fill-opacity: 0; stroke: #5ec962; stroke-width: 1.5"/>
     <use xlink:href="#ma198c7bf4a" x="65.562303" y="140.2444" style="fill-opacity: 0; stroke: #5ec962; stroke-width: 1.5"/>
     <use xlink:href="#ma198c7bf4a" x="108.770197" y="140.247384" style="fill-opacity: 0; stroke: #5ec962; stroke-width: 1.5"/>
     <use xlink:href="#ma198c7bf4a" x="151.978092" y="144.203064" style="fill-opacity: 0; stroke: #5ec962; stroke-width: 1.5"/>
     <use xlink:href="#ma198c7bf4a" x="195.185987" y="152.195433" style="fill-opacity: 0; stroke: #5ec962; stroke-width: 1.5"/>
     <use xlink:href="#ma198c7bf4a" x="238.393882" y="164.366148" style="fill-opacity: 0; stroke: #5ec962; stroke-width: 1.5"/>
     <use xlink:href="#ma198c7bf4a" x="281.601776" y="180.930498" style="fill-opacity: 0; stroke: #5ec962; stroke-width: 1.5"/>
     <use xlink:href="#ma198c7bf4a" x="324.809671" y="202.183565" style="fill-opacity: 0; stroke: #5ec962; stroke-width: 1.5"/>
     <use xlink:href="#ma198c7bf4a" x="368.017566" y="228.519424" style="fill-opacity: 0; stroke: #5ec962; stroke-width: 1.5"/>
     <use xlink:href="#ma198c7bf4a" x="411.225461" y="260.250246" style="fill-opacity: 0; stroke: #5ec962; stroke-width: 1.5"/>
     <use xlink:href="#ma198c7bf4a" x="454.433355" y="297.867351" style="fill-opacity: 0; stroke: #5ec962; stroke-width: 1.5"/>
    </g>
   </g>
   <g id="line2d_28">
    <g clip-path="url(#pff0885004a)">
     <use xlink:href="#ma198c7bf4a" x="-1" y="48.734557" style="fill-opacity: 0; stroke: #5ec962; stroke-width: 1.5"/>
     <use xlink:href="#ma198c7bf4a" x="22.354408" y="41.481752" style="fill-opacity: 0; stroke: #5ec962; stroke-width: 1.5"/>
     <use xlink:href="#ma198c7bf4a" x="65.562303" y="34.887956" style="fill-opacity: 0; stroke: #5ec962; stroke-width: 1.5"/>
     <use xlink:href="#ma198c7bf4a" x="108.770197" y="34.923924" style="fill-opacity: 0; stroke: #5ec962; stroke-width: 1.5"/>
     <use xlink:href="#ma198c7bf4a" x="151.978092" y="41.598877" style="fill-opacity: 0; stroke: #5ec962; stroke-width: 1.5"/>
     <use xlink:href="#ma198c7bf4a" x="195.185987" y="54.970081" style="fill-opacity: 0; stroke: #5ec962; stroke-width: 1.5"/>
     <use xlink:href="#ma198c7bf4a" x="238.393882" y="74.999169" style="fill-opacity: 0; stroke: #5ec962; stroke-width: 1.5"/>
     <use xlink:href="#ma198c7bf4a" x="281.601776" y="101.972755" style="fill-opacity: 0; stroke: #5ec962; stroke-width: 1.5"/>
     <use xlink:href="#ma198c7bf4a" x="324.809671" y="135.259523" style="fill-opacity: 0; stroke: #5ec962; stroke-width: 1.5"/>
     <use xlink:href="#ma198c7bf4a" x="368.017566" y="175.088175" style="fill-opacity: 0; stroke: #5ec962; stroke-width: 1.5"/>
     <use xlink:href="#ma198c7bf4a" x="411.225461" y="222.084647" style="fill-opacity: 0; stroke: #5ec962; stroke-width: 1.5"/>
     <use xlink:href="#ma198c7bf4a" x="454.433355" y="274.267789" style="fill-opacity: 0; stroke: #5ec962; stroke-width: 1.5"/>
    </g>
   </g>
   <g id="line2d_29">
    <defs>
     <path id="m92ba88ddc1" d="M -3 6 
L 0 3 
L 3 6 
L 6 3 
L 3 0 
L 6 -3 
L 3 -6 
L 0 -3 
L -3 -6 
L -6 -3 
L -3 0 
L -6 3 
z
" style="stroke: #21918c; stroke-width: 1.5; stroke-linejoin: miter"/>
    </defs>
    <g clip-path="url(#pff0885004a)">
     <use xlink:href="#m92ba88ddc1" x="-1" y="268.925896" style="fill-opacity: 0; stroke: #21918c; stroke-width: 1.5; stroke-linejoin: miter"/>
     <use xlink:href="#m92ba88ddc1" x="22.354408" y="268.130946" style="fill-opacity: 0; stroke: #21918c; stroke-width: 1.5; stroke-linejoin: miter"/>
     <use xlink:href="#m92ba88ddc1" x="65.562303" y="267.4597" style="fill-opacity: 0; stroke: #21918c; stroke-width: 1.5; stroke-linejoin: miter"/>
     <use xlink:href="#m92ba88ddc1" x="108.770197" y="267.459781" style="fill-opacity: 0; stroke: #21918c; stroke-width: 1.5; stroke-linejoin: miter"/>
     <use xlink:href="#m92ba88ddc1" x="151.978092" y="268.132164" style="fill-opacity: 0; stroke: #21918c; stroke-width: 1.5; stroke-linejoin: miter"/>
     <use xlink:href="#m92ba88ddc1" x="195.185987" y="269.610088" style="fill-opacity: 0; stroke: #21918c; stroke-width: 1.5; stroke-linejoin: miter"/>
     <use xlink:href="#m92ba88ddc1" x="238.393882" y="272.151884" style="fill-opacity: 0; stroke: #21918c; stroke-width: 1.5; stroke-linejoin: miter"/>
     <use xlink:href="#m92ba88ddc1" x="281.601776" y="276.180414" style="fill-opacity: 0; stroke: #21918c; stroke-width: 1.5; stroke-linejoin: miter"/>
     <use xlink:href="#m92ba88ddc1" x="324.809671" y="282.238501" style="fill-opacity: 0; stroke: #21918c; stroke-width: 1.5; stroke-linejoin: miter"/>
     <use xlink:href="#m92ba88ddc1" x="368.017566" y="291.075241" style="fill-opacity: 0; stroke: #21918c; stroke-width: 1.5; stroke-linejoin: miter"/>
     <use xlink:href="#m92ba88ddc1" x="411.225461" y="303.484074" style="fill-opacity: 0; stroke: #21918c; stroke-width: 1.5; stroke-linejoin: miter"/>
     <use xlink:href="#m92ba88ddc1" x="454.433355" y="320.463603" style="fill-opacity: 0; stroke: #21918c; stroke-width: 1.5; stroke-linejoin: miter"/>
    </g>
   </g>
   <g id="line2d_30">
    <g clip-path="url(#pff0885004a)">
     <use xlink:href="#m92ba88ddc1" x="-1" y="148.504423" style="fill-opacity: 0; stroke: #21918c; stroke-width: 1.5; stroke-linejoin: miter"/>
     <use xlink:href="#m92ba88ddc1" x="22.354408" y="144.192909" style="fill-opacity: 0; stroke: #21918c; stroke-width: 1.5; stroke-linejoin: miter"/>
     <use xlink:href="#m92ba88ddc1" x="65.562303" y="140.2444" style="fill-opacity: 0; stroke: #21918c; stroke-width: 1.5; stroke-linejoin: miter"/>
     <use xlink:href="#m92ba88ddc1" x="108.770197" y="140.247384" style="fill-opacity: 0; stroke: #21918c; stroke-width: 1.5; stroke-linejoin: miter"/>
     <use xlink:href="#m92ba88ddc1" x="151.978092" y="144.203064" style="fill-opacity: 0; stroke: #21918c; stroke-width: 1.5; stroke-linejoin: miter"/>
     <use xlink:href="#m92ba88ddc1" x="195.185987" y="152.195433" style="fill-opacity: 0; stroke: #21918c; stroke-width: 1.5; stroke-linejoin: miter"/>
     <use xlink:href="#m92ba88ddc1" x="238.393882" y="164.366148" style="fill-opacity: 0; stroke: #21918c; stroke-width: 1.5; stroke-linejoin: miter"/>
     <use xlink:href="#m92ba88ddc1" x="281.601776" y="180.930498" style="fill-opacity: 0; stroke: #21918c; stroke-width: 1.5; stroke-linejoin: miter"/>
     <use xlink:href="#m92ba88ddc1" x="324.809671" y="202.183565" style="fill-opacity: 0; stroke: #21918c; stroke-width: 1.5; stroke-linejoin: miter"/>
     <use xlink:href="#m92ba88ddc1" x="368.017566" y="228.519424" style="fill-opacity: 0; stroke: #21918c; stroke-width: 1.5; stroke-linejoin: miter"/>
     <use xlink:href="#m92ba88ddc1" x="411.225461" y="260.250246" style="fill-opacity: 0; stroke: #21918c; stroke-width: 1.5; stroke-linejoin: miter"/>
     <use xlink:href="#m92ba88ddc1" x="454.433355" y="297.867351" style="fill-opacity: 0; stroke: #21918c; stroke-width: 1.5; stroke-linejoin: miter"/>
    </g>
   </g>
   <g id="line2d_31">
    <g clip-path="url(#pff0885004a)">
     <use xlink:href="#m92ba88ddc1" x="-1" y="48.734557" style="fill-opacity: 0; stroke: #21918c; stroke-width: 1.5; stroke-linejoin: miter"/>
     <use xlink:href="#m92ba88ddc1" x="22.354408" y="41.481752" style="fill-opacity: 0; stroke: #21918c; stroke-width: 1.5; stroke-linejoin: miter"/>
     <use xlink:href="#m92ba88ddc1" x="65.562303" y="34.887956" style="fill-opacity: 0; stroke: #21918c; stroke-width: 1.5; stroke-linejoin: miter"/>
     <use xlink:href="#m92ba88ddc1" x="108.770197" y="34.923924" style="fill-opacity: 0; stroke: #21918c; stroke-width: 1.5; stroke-linejoin: miter"/>
     <use xlink:href="#m92ba88ddc1" x="151.978092" y="41.598877" style="fill-opacity: 0; stroke: #21918c; stroke-width: 1.5; stroke-linejoin: miter"/>
     <use xlink:href="#m92ba88ddc1" x="195.185987" y="54.970081" style="fill-opacity: 0; stroke: #21918c; stroke-width: 1.5; stroke-linejoin: miter"/>
     <use xlink:href="#m92ba88ddc1" x="238.393882" y="74.999169" style="fill-opacity: 0; stroke: #21918c; stroke-width: 1.5; stroke-linejoin: miter"/>
     <use xlink:href="#m92ba88ddc1" x="281.601776" y="101.972755" style="fill-opacity: 0; stroke: #21918c; stroke-width: 1.5; stroke-linejoin: miter"/>
     <use xlink:href="#m92ba88ddc1" x="324.809671" y="135.259523" style="fill-opacity: 0; stroke: #21918c; stroke-width: 1.5; stroke-linejoin: miter"/>
     <use xlink:href="#m92ba88ddc1" x="368.017566" y="175.088175" style="fill-opacity: 0; stroke: #21918c; stroke-width: 1.5; stroke-linejoin: miter"/>
     <use xlink:href="#m92ba88ddc1" x="411.225461" y="222.084647" style="fill-opacity: 0; stroke: #21918c; stroke-width: 1.5; stroke-linejoin: miter"/>
     <use xlink:href="#m92ba88ddc1" x="454.433355" y="274.267789" style="fill-opacity: 0; stroke: #21918c; stroke-width: 1.5; stroke-linejoin: miter"/>
    </g>
   </g>
   <g id="patch_3">
    <path d="M 87.16625 360.8 
L 87.16625 14.4 
" style="fill: none; stroke: #000000; stroke-width: 2; stroke-linejoin: miter; stroke-linecap: square"/>
   </g>
   <g id="patch_4">
    <path d="M 497.64125 360.8 
L 497.64125 14.4 
" style="fill: none; stroke: #000000; stroke-width: 2; stroke-linejoin: miter; stroke-linecap: square"/>
   </g>
   <g id="patch_5">
    <path d="M 87.16625 360.8 
L 497.64125 360.8 
" style="fill: none; stroke: #000000; stroke-width: 2; stroke-linejoin: miter; stroke-linecap: square"/>
   </g>
   <g id="patch_6">
    <path d="M 87.16625 14.4 
L 497.64125 14.4 
" style="fill: none; stroke: #000000; stroke-width: 2; stroke-linejoin: miter; stroke-linecap: square"/>
   </g>
   <g id="legend_1">
    <g id="patch_7">
     <path d="M 339.24125 147.825 
L 483.64125 147.825 
Q 487.64125 147.825 487.64125 143.825 
L 487.64125 28.4 
Q 487.64125 24.4 483.64125 24.4 
L 339.24125 24.4 
Q 335.24125 24.4 335.24125 28.4 
L 335.24125 143.825 
Q 335.24125 147.825 339.24125 147.825 
z
" style="fill: #ffffff; opacity: 0.8; stroke: #cccccc; stroke-linejoin: miter"/>
    </g>
    <g id="line2d_32">
     <path d="M 343.24125 40.596875 
L 363.24125 40.596875 
L 383.24125 40.596875 
" style="fill: none; stroke: #5ec962; stroke-width: 3; stroke-linecap: square"/>
     <g>
      <use xlink:href="#ma198c7bf4a" x="363.24125" y="40.596875" style="fill-opacity: 0; stroke: #5ec962; stroke-width: 1.5"/>
     </g>
    </g>
    <g id="text_16">
     <!-- Quintic -->
     <g transform="translate(399.24125 47.596875)scale(0.2 -0.2)">
      <defs>
       <path id="DejaVuSans-51" d="M 2522 4238 
Q 1834 4238 1429 3725 
Q 1025 3213 1025 2328 
Q 1025 1447 1429 934 
Q 1834 422 2522 422 
Q 3209 422 3611 934 
Q 4013 1447 4013 2328 
Q 4013 3213 3611 3725 
Q 3209 4238 2522 4238 
z
M 3406 84 
L 4238 -825 
L 3475 -825 
L 2784 -78 
Q 2681 -84 2626 -87 
Q 2572 -91 2522 -91 
Q 1538 -91 948 567 
Q 359 1225 359 2328 
Q 359 3434 948 4092 
Q 1538 4750 2522 4750 
Q 3503 4750 4090 4092 
Q 4678 3434 4678 2328 
Q 4678 1516 4351 937 
Q 4025 359 3406 84 
z
" transform="scale(0.015625)"/>
       <path id="DejaVuSans-75" d="M 544 1381 
L 544 3500 
L 1119 3500 
L 1119 1403 
Q 1119 906 1312 657 
Q 1506 409 1894 409 
Q 2359 409 2629 706 
Q 2900 1003 2900 1516 
L 2900 3500 
L 3475 3500 
L 3475 0 
L 2900 0 
L 2900 538 
Q 2691 219 2414 64 
Q 2138 -91 1772 -91 
Q 1169 -91 856 284 
Q 544 659 544 1381 
z
M 1991 3584 
L 1991 3584 
z
" transform="scale(0.015625)"/>
       <path id="DejaVuSans-69" d="M 603 3500 
L 1178 3500 
L 1178 0 
L 603 0 
L 603 3500 
z
M 603 4863 
L 1178 4863 
L 1178 4134 
L 603 4134 
L 603 4863 
z
" transform="scale(0.015625)"/>
       <path id="DejaVuSans-6e" d="M 3513 2113 
L 3513 0 
L 2938 0 
L 2938 2094 
Q 2938 2591 2744 2837 
Q 2550 3084 2163 3084 
Q 1697 3084 1428 2787 
Q 1159 2491 1159 1978 
L 1159 0 
L 581 0 
L 581 3500 
L 1159 3500 
L 1159 2956 
Q 1366 3272 1645 3428 
Q 1925 3584 2291 3584 
Q 2894 3584 3203 3211 
Q 3513 2838 3513 2113 
z
" transform="scale(0.015625)"/>
       <path id="DejaVuSans-74" d="M 1172 4494 
L 1172 3500 
L 2356 3500 
L 2356 3053 
L 1172 3053 
L 1172 1153 
Q 1172 725 1289 603 
Q 1406 481 1766 481 
L 2356 481 
L 2356 0 
L 1766 0 
Q 1100 0 847 248 
Q 594 497 594 1153 
L 594 3053 
L 172 3053 
L 172 3500 
L 594 3500 
L 594 4494 
L 1172 4494 
z
" transform="scale(0.015625)"/>
       <path id="DejaVuSans-63" d="M 3122 3366 
L 3122 2828 
Q 2878 2963 2633 3030 
Q 2388 3097 2138 3097 
Q 1578 3097 1268 2742 
Q 959 2388 959 1747 
Q 959 1106 1268 751 
Q 1578 397 2138 397 
Q 2388 397 2633 464 
Q 2878 531 3122 666 
L 3122 134 
Q 2881 22 2623 -34 
Q 2366 -91 2075 -91 
Q 1284 -91 818 406 
Q 353 903 353 1747 
Q 353 2603 823 3093 
Q 1294 3584 2113 3584 
Q 2378 3584 2631 3529 
Q 2884 3475 3122 3366 
z
" transform="scale(0.015625)"/>
      </defs>
      <use xlink:href="#DejaVuSans-51"/>
      <use xlink:href="#DejaVuSans-75" x="78.710938"/>
      <use xlink:href="#DejaVuSans-69" x="142.089844"/>
      <use xlink:href="#DejaVuSans-6e" x="169.873047"/>
      <use xlink:href="#DejaVuSans-74" x="233.251953"/>
      <use xlink:href="#DejaVuSans-69" x="272.460938"/>
      <use xlink:href="#DejaVuSans-63" x="300.244141"/>
     </g>
    </g>
    <g id="line2d_33">
     <path d="M 343.24125 69.953125 
L 363.24125 69.953125 
L 383.24125 69.953125 
" style="fill: none; stroke: #21918c; stroke-width: 3; stroke-linecap: square"/>
     <g>
      <use xlink:href="#m92ba88ddc1" x="363.24125" y="69.953125" style="fill-opacity: 0; stroke: #21918c; stroke-width: 1.5; stroke-linejoin: miter"/>
     </g>
    </g>
    <g id="text_17">
     <!-- RK0 -->
     <g transform="translate(399.24125 76.953125)scale(0.2 -0.2)">
      <defs>
       <path id="DejaVuSans-52" d="M 2841 2188 
Q 3044 2119 3236 1894 
Q 3428 1669 3622 1275 
L 4263 0 
L 3584 0 
L 2988 1197 
Q 2756 1666 2539 1819 
Q 2322 1972 1947 1972 
L 1259 1972 
L 1259 0 
L 628 0 
L 628 4666 
L 2053 4666 
Q 2853 4666 3247 4331 
Q 3641 3997 3641 3322 
Q 3641 2881 3436 2590 
Q 3231 2300 2841 2188 
z
M 1259 4147 
L 1259 2491 
L 2053 2491 
Q 2509 2491 2742 2702 
Q 2975 2913 2975 3322 
Q 2975 3731 2742 3939 
Q 2509 4147 2053 4147 
L 1259 4147 
z
" transform="scale(0.015625)"/>
       <path id="DejaVuSans-4b" d="M 628 4666 
L 1259 4666 
L 1259 2694 
L 3353 4666 
L 4166 4666 
L 1850 2491 
L 4331 0 
L 3500 0 
L 1259 2247 
L 1259 0 
L 628 0 
L 628 4666 
z
" transform="scale(0.015625)"/>
      </defs>
      <use xlink:href="#DejaVuSans-52"/>
      <use xlink:href="#DejaVuSans-4b" x="69.482422"/>
      <use xlink:href="#DejaVuSans-30" x="135.058594"/>
     </g>
    </g>
    <g id="line2d_34">
     <path d="M 343.24125 99.309375 
L 363.24125 99.309375 
L 383.24125 99.309375 
" style="fill: none; stroke: #3b528b; stroke-width: 3; stroke-linecap: square"/>
     <g>
      <use xlink:href="#m0702036a98" x="363.24125" y="99.309375" style="fill-opacity: 0; stroke: #3b528b; stroke-width: 1.5; stroke-linejoin: miter"/>
     </g>
    </g>
    <g id="text_18">
     <!-- RK1 -->
     <g transform="translate(399.24125 106.309375)scale(0.2 -0.2)">
      <use xlink:href="#DejaVuSans-52"/>
      <use xlink:href="#DejaVuSans-4b" x="69.482422"/>
      <use xlink:href="#DejaVuSans-31" x="135.058594"/>
     </g>
    </g>
    <g id="line2d_35">
     <path d="M 343.24125 128.665625 
L 363.24125 128.665625 
L 383.24125 128.665625 
" style="fill: none; stroke: #ff0000; stroke-width: 3; stroke-linecap: square"/>
    </g>
    <g id="text_19">
     <!-- Analytic -->
     <g transform="translate(399.24125 135.665625)scale(0.2 -0.2)">
      <defs>
       <path id="DejaVuSans-41" d="M 2188 4044 
L 1331 1722 
L 3047 1722 
L 2188 4044 
z
M 1831 4666 
L 2547 4666 
L 4325 0 
L 3669 0 
L 3244 1197 
L 1141 1197 
L 716 0 
L 50 0 
L 1831 4666 
z
" transform="scale(0.015625)"/>
       <path id="DejaVuSans-61" d="M 2194 1759 
Q 1497 1759 1228 1600 
Q 959 1441 959 1056 
Q 959 750 1161 570 
Q 1363 391 1709 391 
Q 2188 391 2477 730 
Q 2766 1069 2766 1631 
L 2766 1759 
L 2194 1759 
z
M 3341 1997 
L 3341 0 
L 2766 0 
L 2766 531 
Q 2569 213 2275 61 
Q 1981 -91 1556 -91 
Q 1019 -91 701 211 
Q 384 513 384 1019 
Q 384 1609 779 1909 
Q 1175 2209 1959 2209 
L 2766 2209 
L 2766 2266 
Q 2766 2663 2505 2880 
Q 2244 3097 1772 3097 
Q 1472 3097 1187 3025 
Q 903 2953 641 2809 
L 641 3341 
Q 956 3463 1253 3523 
Q 1550 3584 1831 3584 
Q 2591 3584 2966 3190 
Q 3341 2797 3341 1997 
z
" transform="scale(0.015625)"/>
       <path id="DejaVuSans-6c" d="M 603 4863 
L 1178 4863 
L 1178 0 
L 603 0 
L 603 4863 
z
" transform="scale(0.015625)"/>
       <path id="DejaVuSans-79" d="M 2059 -325 
Q 1816 -950 1584 -1140 
Q 1353 -1331 966 -1331 
L 506 -1331 
L 506 -850 
L 844 -850 
Q 1081 -850 1212 -737 
Q 1344 -625 1503 -206 
L 1606 56 
L 191 3500 
L 800 3500 
L 1894 763 
L 2988 3500 
L 3597 3500 
L 2059 -325 
z
" transform="scale(0.015625)"/>
      </defs>
      <use xlink:href="#DejaVuSans-41"/>
      <use xlink:href="#DejaVuSans-6e" x="68.408203"/>
      <use xlink:href="#DejaVuSans-61" x="131.787109"/>
      <use xlink:href="#DejaVuSans-6c" x="193.066406"/>
      <use xlink:href="#DejaVuSans-79" x="220.849609"/>
      <use xlink:href="#DejaVuSans-74" x="280.029297"/>
      <use xlink:href="#DejaVuSans-69" x="319.238281"/>
      <use xlink:href="#DejaVuSans-63" x="347.021484"/>
     </g>
    </g>
   </g>
   <g id="legend_2">
    <g id="patch_8">
     <path d="M 312.775625 89.1125 
L 483.64125 89.1125 
Q 487.64125 89.1125 487.64125 85.1125 
L 487.64125 28.4 
Q 487.64125 24.4 483.64125 24.4 
L 312.775625 24.4 
Q 308.775625 24.4 308.775625 28.4 
L 308.775625 85.1125 
Q 308.775625 89.1125 312.775625 89.1125 
z
" style="fill: #ffffff; opacity: 0.8; stroke: #cccccc; stroke-linejoin: miter"/>
    </g>
    <g id="line2d_36">
     <path d="M 316.775625 40.596875 
L 336.775625 40.596875 
L 356.775625 40.596875 
" style="fill: none; stroke-dasharray: 3,4.95; stroke-dashoffset: 0; stroke: #000000; stroke-width: 3"/>
    </g>
    <g id="text_20">
     <!-- Newtonian -->
     <g transform="translate(372.775625 47.596875)scale(0.2 -0.2)">
      <defs>
       <path id="DejaVuSans-4e" d="M 628 4666 
L 1478 4666 
L 3547 763 
L 3547 4666 
L 4159 4666 
L 4159 0 
L 3309 0 
L 1241 3903 
L 1241 0 
L 628 0 
L 628 4666 
z
" transform="scale(0.015625)"/>
       <path id="DejaVuSans-65" d="M 3597 1894 
L 3597 1613 
L 953 1613 
Q 991 1019 1311 708 
Q 1631 397 2203 397 
Q 2534 397 2845 478 
Q 3156 559 3463 722 
L 3463 178 
Q 3153 47 2828 -22 
Q 2503 -91 2169 -91 
Q 1331 -91 842 396 
Q 353 884 353 1716 
Q 353 2575 817 3079 
Q 1281 3584 2069 3584 
Q 2775 3584 3186 3129 
Q 3597 2675 3597 1894 
z
M 3022 2063 
Q 3016 2534 2758 2815 
Q 2500 3097 2075 3097 
Q 1594 3097 1305 2825 
Q 1016 2553 972 2059 
L 3022 2063 
z
" transform="scale(0.015625)"/>
       <path id="DejaVuSans-77" d="M 269 3500 
L 844 3500 
L 1563 769 
L 2278 3500 
L 2956 3500 
L 3675 769 
L 4391 3500 
L 4966 3500 
L 4050 0 
L 3372 0 
L 2619 2869 
L 1863 0 
L 1184 0 
L 269 3500 
z
" transform="scale(0.015625)"/>
       <path id="DejaVuSans-6f" d="M 1959 3097 
Q 1497 3097 1228 2736 
Q 959 2375 959 1747 
Q 959 1119 1226 758 
Q 1494 397 1959 397 
Q 2419 397 2687 759 
Q 2956 1122 2956 1747 
Q 2956 2369 2687 2733 
Q 2419 3097 1959 3097 
z
M 1959 3584 
Q 2709 3584 3137 3096 
Q 3566 2609 3566 1747 
Q 3566 888 3137 398 
Q 2709 -91 1959 -91 
Q 1206 -91 779 398 
Q 353 888 353 1747 
Q 353 2609 779 3096 
Q 1206 3584 1959 3584 
z
" transform="scale(0.015625)"/>
      </defs>
      <use xlink:href="#DejaVuSans-4e"/>
      <use xlink:href="#DejaVuSans-65" x="74.804688"/>
      <use xlink:href="#DejaVuSans-77" x="136.328125"/>
      <use xlink:href="#DejaVuSans-74" x="218.115234"/>
      <use xlink:href="#DejaVuSans-6f" x="257.324219"/>
      <use xlink:href="#DejaVuSans-6e" x="318.505859"/>
      <use xlink:href="#DejaVuSans-69" x="381.884766"/>
      <use xlink:href="#DejaVuSans-61" x="409.667969"/>
      <use xlink:href="#DejaVuSans-6e" x="470.947266"/>
     </g>
    </g>
    <g id="line2d_37">
     <path d="M 316.775625 69.953125 
L 336.775625 69.953125 
L 356.775625 69.953125 
" style="fill: none; stroke-dasharray: 11.1,4.8; stroke-dashoffset: 0; stroke: #000000; stroke-width: 3"/>
    </g>
    <g id="text_21">
     <!-- Power Law -->
     <g transform="translate(372.775625 76.953125)scale(0.2 -0.2)">
      <defs>
       <path id="DejaVuSans-50" d="M 1259 4147 
L 1259 2394 
L 2053 2394 
Q 2494 2394 2734 2622 
Q 2975 2850 2975 3272 
Q 2975 3691 2734 3919 
Q 2494 4147 2053 4147 
L 1259 4147 
z
M 628 4666 
L 2053 4666 
Q 2838 4666 3239 4311 
Q 3641 3956 3641 3272 
Q 3641 2581 3239 2228 
Q 2838 1875 2053 1875 
L 1259 1875 
L 1259 0 
L 628 0 
L 628 4666 
z
" transform="scale(0.015625)"/>
       <path id="DejaVuSans-72" d="M 2631 2963 
Q 2534 3019 2420 3045 
Q 2306 3072 2169 3072 
Q 1681 3072 1420 2755 
Q 1159 2438 1159 1844 
L 1159 0 
L 581 0 
L 581 3500 
L 1159 3500 
L 1159 2956 
Q 1341 3275 1631 3429 
Q 1922 3584 2338 3584 
Q 2397 3584 2469 3576 
Q 2541 3569 2628 3553 
L 2631 2963 
z
" transform="scale(0.015625)"/>
       <path id="DejaVuSans-20" transform="scale(0.015625)"/>
       <path id="DejaVuSans-4c" d="M 628 4666 
L 1259 4666 
L 1259 531 
L 3531 531 
L 3531 0 
L 628 0 
L 628 4666 
z
" transform="scale(0.015625)"/>
      </defs>
      <use xlink:href="#DejaVuSans-50"/>
      <use xlink:href="#DejaVuSans-6f" x="56.677734"/>
      <use xlink:href="#DejaVuSans-77" x="117.859375"/>
      <use xlink:href="#DejaVuSans-65" x="199.646484"/>
      <use xlink:href="#DejaVuSans-72" x="261.169922"/>
      <use xlink:href="#DejaVuSans-20" x="302.283203"/>
      <use xlink:href="#DejaVuSans-4c" x="334.070312"/>
      <use xlink:href="#DejaVuSans-61" x="389.783203"/>
      <use xlink:href="#DejaVuSans-77" x="451.0625"/>
     </g>
    </g>
   </g>
   <g id="legend_3">
    <g id="patch_9">
     <path d="M 312.775625 89.1125 
L 483.64125 89.1125 
Q 487.64125 89.1125 487.64125 85.1125 
L 487.64125 28.4 
Q 487.64125 24.4 483.64125 24.4 
L 312.775625 24.4 
Q 308.775625 24.4 308.775625 28.4 
L 308.775625 85.1125 
Q 308.775625 89.1125 312.775625 89.1125 
z
" style="fill: #ffffff; opacity: 0.8; stroke: #cccccc; stroke-linejoin: miter"/>
    </g>
    <g id="line2d_38">
     <path d="M 316.775625 40.596875 
L 336.775625 40.596875 
L 356.775625 40.596875 
" style="fill: none; stroke-dasharray: 3,4.95; stroke-dashoffset: 0; stroke: #000000; stroke-width: 3"/>
    </g>
    <g id="text_22">
     <!-- Newtonian -->
     <g transform="translate(372.775625 47.596875)scale(0.2 -0.2)">
      <use xlink:href="#DejaVuSans-4e"/>
      <use xlink:href="#DejaVuSans-65" x="74.804688"/>
      <use xlink:href="#DejaVuSans-77" x="136.328125"/>
      <use xlink:href="#DejaVuSans-74" x="218.115234"/>
      <use xlink:href="#DejaVuSans-6f" x="257.324219"/>
      <use xlink:href="#DejaVuSans-6e" x="318.505859"/>
      <use xlink:href="#DejaVuSans-69" x="381.884766"/>
      <use xlink:href="#DejaVuSans-61" x="409.667969"/>
      <use xlink:href="#DejaVuSans-6e" x="470.947266"/>
     </g>
    </g>
    <g id="line2d_39">
     <path d="M 316.775625 69.953125 
L 336.775625 69.953125 
L 356.775625 69.953125 
" style="fill: none; stroke-dasharray: 11.1,4.8; stroke-dashoffset: 0; stroke: #000000; stroke-width: 3"/>
    </g>
    <g id="text_23">
     <!-- Power Law -->
     <g transform="translate(372.775625 76.953125)scale(0.2 -0.2)">
      <use xlink:href="#DejaVuSans-50"/>
      <use xlink:href="#DejaVuSans-6f" x="56.677734"/>
      <use xlink:href="#DejaVuSans-77" x="117.859375"/>
      <use xlink:href="#DejaVuSans-65" x="199.646484"/>
      <use xlink:href="#DejaVuSans-72" x="261.169922"/>
      <use xlink:href="#DejaVuSans-20" x="302.283203"/>
      <use xlink:href="#DejaVuSans-4c" x="334.070312"/>
      <use xlink:href="#DejaVuSans-61" x="389.783203"/>
      <use xlink:href="#DejaVuSans-77" x="451.0625"/>
     </g>
    </g>
   </g>
  </g>
 </g>
 <defs>
  <clipPath id="pff0885004a">
   <rect x="87.16625" y="14.4" width="410.475" height="346.4"/>
  </clipPath>
 </defs>
</svg>
