<?xml version="1.0" encoding="utf-8" standalone="no"?>
<!DOCTYPE svg PUBLIC "-//W3C//DTD SVG 1.1//EN"
  "http://www.w3.org/Graphics/SVG/1.1/DTD/svg11.dtd">
<svg xmlns:xlink="http://www.w3.org/1999/xlink" width="508.231498pt" height="434.52625pt" viewBox="0 0 508.231498 434.52625" xmlns="http://www.w3.org/2000/svg" version="1.1">
 <metadata>
  <rdf:RDF xmlns:dc="http://purl.org/dc/elements/1.1/" xmlns:cc="http://creativecommons.org/ns#" xmlns:rdf="http://www.w3.org/1999/02/22-rdf-syntax-ns#">
   <cc:Work>
    <dc:type rdf:resource="http://purl.org/dc/dcmitype/StillImage"/>
    <dc:date>2023-05-03T11:09:59.582487</dc:date>
    <dc:format>image/svg+xml</dc:format>
    <dc:creator>
     <cc:Agent>
      <dc:title>Matplotlib v3.5.1, https://matplotlib.org/</dc:title>
     </cc:Agent>
    </dc:creator>
   </cc:Work>
  </rdf:RDF>
 </metadata>
 <defs>
  <style type="text/css">*{stroke-linejoin: round; stroke-linecap: butt}</style>
 </defs>
 <g id="figure_1">
  <g id="patch_1">
   <path d="M 0 434.52625 
L 508.231498 434.52625 
L 508.231498 0 
L 0 0 
L 0 434.52625 
z
" style="fill: none"/>
  </g>
  <g id="axes_1">
   <g id="patch_2">
    <path d="M 102.43625 360.8 
L 484.478295 360.8 
L 484.478295 14.4 
L 102.43625 14.4 
z
" style="fill: #ffffff"/>
   </g>
   <g id="line2d_1">
    <path d="M 119.801798 32.831265 
L 150.743414 32.940665 
L 163.606782 33.227775 
L 174.384199 33.687203 
L 184.11864 34.326469 
L 192.810105 35.114174 
L 201.153912 36.093038 
L 208.802401 37.205852 
L 216.450891 38.546719 
L 223.751722 40.058906 
L 230.704894 41.727194 
L 237.310407 43.532993 
L 243.915921 45.567985 
L 250.173776 47.7197 
L 256.431631 50.101051 
L 262.689486 52.72368 
L 268.947341 55.599231 
L 274.857537 58.557756 
L 280.767733 61.762075 
L 286.67793 65.221995 
L 292.588126 68.947324 
L 298.498323 72.947871 
L 304.408519 77.233444 
L 309.971057 81.536078 
L 315.533594 86.108057 
L 321.096132 90.957558 
L 326.65867 96.092759 
L 332.221208 101.521836 
L 337.783745 107.252966 
L 343.346283 113.294327 
L 348.908821 119.654096 
L 354.471359 126.34045 
L 360.033896 133.361566 
L 365.596434 140.725622 
L 371.158972 148.440794 
L 377.069168 157.03203 
L 382.979365 166.038683 
L 388.889561 175.470561 
L 394.799757 185.337473 
L 400.709954 195.649226 
L 406.62015 206.415628 
L 412.530346 217.646489 
L 418.440543 229.351616 
L 424.350739 241.540817 
L 430.260935 254.2239 
L 436.171132 267.410674 
L 442.428987 281.933047 
L 448.686842 297.042749 
L 454.944697 312.751424 
L 461.202552 329.070716 
L 467.112748 345.054545 
L 467.112748 345.054545 
" clip-path="url(#p536ff62091)" style="fill: none; stroke: #ff0000; stroke-width: 3; stroke-linecap: square"/>
   </g>
   <g id="line2d_2">
    <path d="M 119.801798 32.831265 
L 150.743414 32.940665 
L 163.606782 33.227775 
L 174.384199 33.687203 
L 184.11864 34.326469 
L 192.810105 35.114174 
L 201.153912 36.093038 
L 208.802401 37.205852 
L 216.450891 38.546719 
L 223.751722 40.058906 
L 230.704894 41.727194 
L 237.310407 43.532993 
L 243.915921 45.567985 
L 250.173776 47.7197 
L 256.431631 50.101051 
L 262.689486 52.72368 
L 268.947341 55.599231 
L 274.857537 58.557756 
L 280.767733 61.762075 
L 286.67793 65.221995 
L 292.588126 68.947324 
L 298.498323 72.947871 
L 304.408519 77.233444 
L 309.971057 81.536078 
L 315.533594 86.108057 
L 321.096132 90.957558 
L 326.65867 96.092759 
L 332.221208 101.521836 
L 337.783745 107.252966 
L 343.346283 113.294327 
L 348.908821 119.654096 
L 354.471359 126.34045 
L 360.033896 133.361566 
L 365.596434 140.725622 
L 371.158972 148.440794 
L 377.069168 157.03203 
L 382.979365 166.038683 
L 388.889561 175.470561 
L 394.799757 185.337473 
L 400.709954 195.649226 
L 406.62015 206.415628 
L 412.530346 217.646489 
L 418.440543 229.351616 
L 424.350739 241.540817 
L 430.260935 254.2239 
L 436.171132 267.410674 
L 442.428987 281.933047 
L 448.686842 297.042749 
L 454.944697 312.751424 
L 461.202552 329.070716 
L 467.112748 345.054545 
L 467.112748 345.054545 
" clip-path="url(#p536ff62091)" style="fill: none; stroke: #ff0000; stroke-width: 3; stroke-linecap: square"/>
   </g>
   <g id="line2d_3">
    <path d="M 119.801798 32.831265 
L 150.743414 32.940665 
L 163.606782 33.227775 
L 174.384199 33.687203 
L 184.11864 34.326469 
L 192.810105 35.114174 
L 201.153912 36.093038 
L 208.802401 37.205852 
L 216.450891 38.546719 
L 223.751722 40.058906 
L 230.704894 41.727194 
L 237.310407 43.532993 
L 243.915921 45.567985 
L 250.173776 47.7197 
L 256.431631 50.101051 
L 262.689486 52.72368 
L 268.947341 55.599231 
L 274.857537 58.557756 
L 280.767733 61.762075 
L 286.67793 65.221995 
L 292.588126 68.947324 
L 298.498323 72.947871 
L 304.408519 77.233444 
L 309.971057 81.536078 
L 315.533594 86.108057 
L 321.096132 90.957558 
L 326.65867 96.092759 
L 332.221208 101.521836 
L 337.783745 107.252966 
L 343.346283 113.294327 
L 348.908821 119.654096 
L 354.471359 126.34045 
L 360.033896 133.361566 
L 365.596434 140.725622 
L 371.158972 148.440794 
L 377.069168 157.03203 
L 382.979365 166.038683 
L 388.889561 175.470561 
L 394.799757 185.337473 
L 400.709954 195.649226 
L 406.62015 206.415628 
L 412.530346 217.646489 
L 418.440543 229.351616 
L 424.350739 241.540817 
L 430.260935 254.2239 
L 436.171132 267.410674 
L 442.428987 281.933047 
L 448.686842 297.042749 
L 454.944697 312.751424 
L 461.202552 329.070716 
L 467.112748 345.054545 
L 467.112748 345.054545 
" clip-path="url(#p536ff62091)" style="fill: none; stroke: #ff0000; stroke-width: 3; stroke-linecap: square"/>
   </g>
   <g id="line2d_4">
    <path d="M 119.801798 32.831265 
L 150.743414 32.940665 
L 163.606782 33.227775 
L 174.384199 33.687203 
L 184.11864 34.326469 
L 192.810105 35.114174 
L 201.153912 36.093038 
L 208.802401 37.205852 
L 216.450891 38.546719 
L 223.751722 40.058906 
L 230.704894 41.727194 
L 237.310407 43.532993 
L 243.915921 45.567985 
L 250.173776 47.7197 
L 256.431631 50.101051 
L 262.689486 52.72368 
L 268.947341 55.599231 
L 274.857537 58.557756 
L 280.767733 61.762075 
L 286.67793 65.221995 
L 292.588126 68.947324 
L 298.498323 72.947871 
L 304.408519 77.233444 
L 309.971057 81.536078 
L 315.533594 86.108057 
L 321.096132 90.957558 
L 326.65867 96.092759 
L 332.221208 101.521836 
L 337.783745 107.252966 
L 343.346283 113.294327 
L 348.908821 119.654096 
L 354.471359 126.34045 
L 360.033896 133.361566 
L 365.596434 140.725622 
L 371.158972 148.440794 
L 377.069168 157.03203 
L 382.979365 166.038683 
L 388.889561 175.470561 
L 394.799757 185.337473 
L 400.709954 195.649226 
L 406.62015 206.415628 
L 412.530346 217.646489 
L 418.440543 229.351616 
L 424.350739 241.540817 
L 430.260935 254.2239 
L 436.171132 267.410674 
L 442.428987 281.933047 
L 448.686842 297.042749 
L 454.944697 312.751424 
L 461.202552 329.070716 
L 467.112748 345.054545 
L 467.112748 345.054545 
" clip-path="url(#p536ff62091)" style="fill: none; stroke: #ff0000; stroke-width: 3; stroke-linecap: square"/>
   </g>
   <g id="line2d_5">
    <path d="M 119.801798 32.831265 
L 150.743414 32.940665 
L 163.606782 33.227775 
L 174.384199 33.687203 
L 184.11864 34.326469 
L 192.810105 35.114174 
L 201.153912 36.093038 
L 208.802401 37.205852 
L 216.450891 38.546719 
L 223.751722 40.058906 
L 230.704894 41.727194 
L 237.310407 43.532993 
L 243.915921 45.567985 
L 250.173776 47.7197 
L 256.431631 50.101051 
L 262.689486 52.72368 
L 268.947341 55.599231 
L 274.857537 58.557756 
L 280.767733 61.762075 
L 286.67793 65.221995 
L 292.588126 68.947324 
L 298.498323 72.947871 
L 304.408519 77.233444 
L 309.971057 81.536078 
L 315.533594 86.108057 
L 321.096132 90.957558 
L 326.65867 96.092759 
L 332.221208 101.521836 
L 337.783745 107.252966 
L 343.346283 113.294327 
L 348.908821 119.654096 
L 354.471359 126.34045 
L 360.033896 133.361566 
L 365.596434 140.725622 
L 371.158972 148.440794 
L 377.069168 157.03203 
L 382.979365 166.038683 
L 388.889561 175.470561 
L 394.799757 185.337473 
L 400.709954 195.649226 
L 406.62015 206.415628 
L 412.530346 217.646489 
L 418.440543 229.351616 
L 424.350739 241.540817 
L 430.260935 254.2239 
L 436.171132 267.410674 
L 442.428987 281.933047 
L 448.686842 297.042749 
L 454.944697 312.751424 
L 461.202552 329.070716 
L 467.112748 345.054545 
L 467.112748 345.054545 
" clip-path="url(#p536ff62091)" style="fill: none; stroke: #ff0000; stroke-width: 3; stroke-linecap: square"/>
   </g>
   <g id="line2d_6">
    <path d="M 119.801798 32.831265 
L 150.743414 32.940665 
L 163.606782 33.227775 
L 174.384199 33.687203 
L 184.11864 34.326469 
L 192.810105 35.114174 
L 201.153912 36.093038 
L 208.802401 37.205852 
L 216.450891 38.546719 
L 223.751722 40.058906 
L 230.704894 41.727194 
L 237.310407 43.532993 
L 243.915921 45.567985 
L 250.173776 47.7197 
L 256.431631 50.101051 
L 262.689486 52.72368 
L 268.947341 55.599231 
L 274.857537 58.557756 
L 280.767733 61.762075 
L 286.67793 65.221995 
L 292.588126 68.947324 
L 298.498323 72.947871 
L 304.408519 77.233444 
L 309.971057 81.536078 
L 315.533594 86.108057 
L 321.096132 90.957558 
L 326.65867 96.092759 
L 332.221208 101.521836 
L 337.783745 107.252966 
L 343.346283 113.294327 
L 348.908821 119.654096 
L 354.471359 126.34045 
L 360.033896 133.361566 
L 365.596434 140.725622 
L 371.158972 148.440794 
L 377.069168 157.03203 
L 382.979365 166.038683 
L 388.889561 175.470561 
L 394.799757 185.337473 
L 400.709954 195.649226 
L 406.62015 206.415628 
L 412.530346 217.646489 
L 418.440543 229.351616 
L 424.350739 241.540817 
L 430.260935 254.2239 
L 436.171132 267.410674 
L 442.428987 281.933047 
L 448.686842 297.042749 
L 454.944697 312.751424 
L 461.202552 329.070716 
L 467.112748 345.054545 
L 467.112748 345.054545 
" clip-path="url(#p536ff62091)" style="fill: none; stroke: #ff0000; stroke-width: 3; stroke-linecap: square"/>
   </g>
   <g id="line2d_7">
    <path d="M 119.801798 32.831265 
L 150.743414 32.940665 
L 163.606782 33.227775 
L 174.384199 33.687203 
L 184.11864 34.326469 
L 192.810105 35.114174 
L 201.153912 36.093038 
L 208.802401 37.205852 
L 216.450891 38.546719 
L 223.751722 40.058906 
L 230.704894 41.727194 
L 237.310407 43.532993 
L 243.915921 45.567985 
L 250.173776 47.7197 
L 256.431631 50.101051 
L 262.689486 52.72368 
L 268.947341 55.599231 
L 274.857537 58.557756 
L 280.767733 61.762075 
L 286.67793 65.221995 
L 292.588126 68.947324 
L 298.498323 72.947871 
L 304.408519 77.233444 
L 309.971057 81.536078 
L 315.533594 86.108057 
L 321.096132 90.957558 
L 326.65867 96.092759 
L 332.221208 101.521836 
L 337.783745 107.252966 
L 343.346283 113.294327 
L 348.908821 119.654096 
L 354.471359 126.34045 
L 360.033896 133.361566 
L 365.596434 140.725622 
L 371.158972 148.440794 
L 377.069168 157.03203 
L 382.979365 166.038683 
L 388.889561 175.470561 
L 394.799757 185.337473 
L 400.709954 195.649226 
L 406.62015 206.415628 
L 412.530346 217.646489 
L 418.440543 229.351616 
L 424.350739 241.540817 
L 430.260935 254.2239 
L 436.171132 267.410674 
L 442.428987 281.933047 
L 448.686842 297.042749 
L 454.944697 312.751424 
L 461.202552 329.070716 
L 467.112748 345.054545 
L 467.112748 345.054545 
" clip-path="url(#p536ff62091)" style="fill: none; stroke: #ff0000; stroke-width: 3; stroke-linecap: square"/>
   </g>
   <g id="line2d_8">
    <path d="M 119.801798 32.831265 
L 150.743414 32.940665 
L 163.606782 33.227775 
L 174.384199 33.687203 
L 184.11864 34.326469 
L 192.810105 35.114174 
L 201.153912 36.093038 
L 208.802401 37.205852 
L 216.450891 38.546719 
L 223.751722 40.058906 
L 230.704894 41.727194 
L 237.310407 43.532993 
L 243.915921 45.567985 
L 250.173776 47.7197 
L 256.431631 50.101051 
L 262.689486 52.72368 
L 268.947341 55.599231 
L 274.857537 58.557756 
L 280.767733 61.762075 
L 286.67793 65.221995 
L 292.588126 68.947324 
L 298.498323 72.947871 
L 304.408519 77.233444 
L 309.971057 81.536078 
L 315.533594 86.108057 
L 321.096132 90.957558 
L 326.65867 96.092759 
L 332.221208 101.521836 
L 337.783745 107.252966 
L 343.346283 113.294327 
L 348.908821 119.654096 
L 354.471359 126.34045 
L 360.033896 133.361566 
L 365.596434 140.725622 
L 371.158972 148.440794 
L 377.069168 157.03203 
L 382.979365 166.038683 
L 388.889561 175.470561 
L 394.799757 185.337473 
L 400.709954 195.649226 
L 406.62015 206.415628 
L 412.530346 217.646489 
L 418.440543 229.351616 
L 424.350739 241.540817 
L 430.260935 254.2239 
L 436.171132 267.410674 
L 442.428987 281.933047 
L 448.686842 297.042749 
L 454.944697 312.751424 
L 461.202552 329.070716 
L 467.112748 345.054545 
L 467.112748 345.054545 
" clip-path="url(#p536ff62091)" style="fill: none; stroke: #ff0000; stroke-width: 3; stroke-linecap: square"/>
   </g>
   <g id="line2d_9">
    <path d="M 119.801798 32.831265 
L 150.743414 32.940665 
L 163.606782 33.227775 
L 174.384199 33.687203 
L 184.11864 34.326469 
L 192.810105 35.114174 
L 201.153912 36.093038 
L 208.802401 37.205852 
L 216.450891 38.546719 
L 223.751722 40.058906 
L 230.704894 41.727194 
L 237.310407 43.532993 
L 243.915921 45.567985 
L 250.173776 47.7197 
L 256.431631 50.101051 
L 262.689486 52.72368 
L 268.947341 55.599231 
L 274.857537 58.557756 
L 280.767733 61.762075 
L 286.67793 65.221995 
L 292.588126 68.947324 
L 298.498323 72.947871 
L 304.408519 77.233444 
L 309.971057 81.536078 
L 315.533594 86.108057 
L 321.096132 90.957558 
L 326.65867 96.092759 
L 332.221208 101.521836 
L 337.783745 107.252966 
L 343.346283 113.294327 
L 348.908821 119.654096 
L 354.471359 126.34045 
L 360.033896 133.361566 
L 365.596434 140.725622 
L 371.158972 148.440794 
L 377.069168 157.03203 
L 382.979365 166.038683 
L 388.889561 175.470561 
L 394.799757 185.337473 
L 400.709954 195.649226 
L 406.62015 206.415628 
L 412.530346 217.646489 
L 418.440543 229.351616 
L 424.350739 241.540817 
L 430.260935 254.2239 
L 436.171132 267.410674 
L 442.428987 281.933047 
L 448.686842 297.042749 
L 454.944697 312.751424 
L 461.202552 329.070716 
L 467.112748 345.054545 
L 467.112748 345.054545 
" clip-path="url(#p536ff62091)" style="fill: none; stroke: #ff0000; stroke-width: 3; stroke-linecap: square"/>
   </g>
   <g id="line2d_10">
    <path d="M 119.801798 32.831265 
L 150.743414 32.940665 
L 163.606782 33.227775 
L 174.384199 33.687203 
L 184.11864 34.326469 
L 192.810105 35.114174 
L 201.153912 36.093038 
L 208.802401 37.205852 
L 216.450891 38.546719 
L 223.751722 40.058906 
L 230.704894 41.727194 
L 237.310407 43.532993 
L 243.915921 45.567985 
L 250.173776 47.7197 
L 256.431631 50.101051 
L 262.689486 52.72368 
L 268.947341 55.599231 
L 274.857537 58.557756 
L 280.767733 61.762075 
L 286.67793 65.221995 
L 292.588126 68.947324 
L 298.498323 72.947871 
L 304.408519 77.233444 
L 309.971057 81.536078 
L 315.533594 86.108057 
L 321.096132 90.957558 
L 326.65867 96.092759 
L 332.221208 101.521836 
L 337.783745 107.252966 
L 343.346283 113.294327 
L 348.908821 119.654096 
L 354.471359 126.34045 
L 360.033896 133.361566 
L 365.596434 140.725622 
L 371.158972 148.440794 
L 377.069168 157.03203 
L 382.979365 166.038683 
L 388.889561 175.470561 
L 394.799757 185.337473 
L 400.709954 195.649226 
L 406.62015 206.415628 
L 412.530346 217.646489 
L 418.440543 229.351616 
L 424.350739 241.540817 
L 430.260935 254.2239 
L 436.171132 267.410674 
L 442.428987 281.933047 
L 448.686842 297.042749 
L 454.944697 312.751424 
L 461.202552 329.070716 
L 467.112748 345.054545 
L 467.112748 345.054545 
" clip-path="url(#p536ff62091)" style="fill: none; stroke: #ff0000; stroke-width: 3; stroke-linecap: square"/>
   </g>
   <g id="line2d_11">
    <path d="M 119.801798 32.831265 
L 150.743414 32.940665 
L 163.606782 33.227775 
L 174.384199 33.687203 
L 184.11864 34.326469 
L 192.810105 35.114174 
L 201.153912 36.093038 
L 208.802401 37.205852 
L 216.450891 38.546719 
L 223.751722 40.058906 
L 230.704894 41.727194 
L 237.310407 43.532993 
L 243.915921 45.567985 
L 250.173776 47.7197 
L 256.431631 50.101051 
L 262.689486 52.72368 
L 268.947341 55.599231 
L 274.857537 58.557756 
L 280.767733 61.762075 
L 286.67793 65.221995 
L 292.588126 68.947324 
L 298.498323 72.947871 
L 304.408519 77.233444 
L 309.971057 81.536078 
L 315.533594 86.108057 
L 321.096132 90.957558 
L 326.65867 96.092759 
L 332.221208 101.521836 
L 337.783745 107.252966 
L 343.346283 113.294327 
L 348.908821 119.654096 
L 354.471359 126.34045 
L 360.033896 133.361566 
L 365.596434 140.725622 
L 371.158972 148.440794 
L 377.069168 157.03203 
L 382.979365 166.038683 
L 388.889561 175.470561 
L 394.799757 185.337473 
L 400.709954 195.649226 
L 406.62015 206.415628 
L 412.530346 217.646489 
L 418.440543 229.351616 
L 424.350739 241.540817 
L 430.260935 254.2239 
L 436.171132 267.410674 
L 442.428987 281.933047 
L 448.686842 297.042749 
L 454.944697 312.751424 
L 461.202552 329.070716 
L 467.112748 345.054545 
L 467.112748 345.054545 
" clip-path="url(#p536ff62091)" style="fill: none; stroke: #ff0000; stroke-width: 3; stroke-linecap: square"/>
   </g>
   <g id="line2d_12">
    <path d="M 119.801798 32.831265 
L 150.743414 32.940665 
L 163.606782 33.227775 
L 174.384199 33.687203 
L 184.11864 34.326469 
L 192.810105 35.114174 
L 201.153912 36.093038 
L 208.802401 37.205852 
L 216.450891 38.546719 
L 223.751722 40.058906 
L 230.704894 41.727194 
L 237.310407 43.532993 
L 243.915921 45.567985 
L 250.173776 47.7197 
L 256.431631 50.101051 
L 262.689486 52.72368 
L 268.947341 55.599231 
L 274.857537 58.557756 
L 280.767733 61.762075 
L 286.67793 65.221995 
L 292.588126 68.947324 
L 298.498323 72.947871 
L 304.408519 77.233444 
L 309.971057 81.536078 
L 315.533594 86.108057 
L 321.096132 90.957558 
L 326.65867 96.092759 
L 332.221208 101.521836 
L 337.783745 107.252966 
L 343.346283 113.294327 
L 348.908821 119.654096 
L 354.471359 126.34045 
L 360.033896 133.361566 
L 365.596434 140.725622 
L 371.158972 148.440794 
L 377.069168 157.03203 
L 382.979365 166.038683 
L 388.889561 175.470561 
L 394.799757 185.337473 
L 400.709954 195.649226 
L 406.62015 206.415628 
L 412.530346 217.646489 
L 418.440543 229.351616 
L 424.350739 241.540817 
L 430.260935 254.2239 
L 436.171132 267.410674 
L 442.428987 281.933047 
L 448.686842 297.042749 
L 454.944697 312.751424 
L 461.202552 329.070716 
L 467.112748 345.054545 
L 467.112748 345.054545 
" clip-path="url(#p536ff62091)" style="fill: none; stroke: #ff0000; stroke-width: 3; stroke-linecap: square"/>
   </g>
   <g id="line2d_13">
    <path d="M 119.801798 32.831265 
L 150.743414 32.940665 
L 163.606782 33.227775 
L 174.384199 33.687203 
L 184.11864 34.326469 
L 192.810105 35.114174 
L 201.153912 36.093038 
L 208.802401 37.205852 
L 216.450891 38.546719 
L 223.751722 40.058906 
L 230.704894 41.727194 
L 237.310407 43.532993 
L 243.915921 45.567985 
L 250.173776 47.7197 
L 256.431631 50.101051 
L 262.689486 52.72368 
L 268.947341 55.599231 
L 274.857537 58.557756 
L 280.767733 61.762075 
L 286.67793 65.221995 
L 292.588126 68.947324 
L 298.498323 72.947871 
L 304.408519 77.233444 
L 309.971057 81.536078 
L 315.533594 86.108057 
L 321.096132 90.957558 
L 326.65867 96.092759 
L 332.221208 101.521836 
L 337.783745 107.252966 
L 343.346283 113.294327 
L 348.908821 119.654096 
L 354.471359 126.34045 
L 360.033896 133.361566 
L 365.596434 140.725622 
L 371.158972 148.440794 
L 377.069168 157.03203 
L 382.979365 166.038683 
L 388.889561 175.470561 
L 394.799757 185.337473 
L 400.709954 195.649226 
L 406.62015 206.415628 
L 412.530346 217.646489 
L 418.440543 229.351616 
L 424.350739 241.540817 
L 430.260935 254.2239 
L 436.171132 267.410674 
L 442.428987 281.933047 
L 448.686842 297.042749 
L 454.944697 312.751424 
L 461.202552 329.070716 
L 467.112748 345.054545 
L 467.112748 345.054545 
" clip-path="url(#p536ff62091)" style="fill: none; stroke: #ff0000; stroke-width: 3; stroke-linecap: square"/>
   </g>
   <g id="line2d_14">
    <path d="M 119.801798 32.831265 
L 150.743414 32.940665 
L 163.606782 33.227775 
L 174.384199 33.687203 
L 184.11864 34.326469 
L 192.810105 35.114174 
L 201.153912 36.093038 
L 208.802401 37.205852 
L 216.450891 38.546719 
L 223.751722 40.058906 
L 230.704894 41.727194 
L 237.310407 43.532993 
L 243.915921 45.567985 
L 250.173776 47.7197 
L 256.431631 50.101051 
L 262.689486 52.72368 
L 268.947341 55.599231 
L 274.857537 58.557756 
L 280.767733 61.762075 
L 286.67793 65.221995 
L 292.588126 68.947324 
L 298.498323 72.947871 
L 304.408519 77.233444 
L 309.971057 81.536078 
L 315.533594 86.108057 
L 321.096132 90.957558 
L 326.65867 96.092759 
L 332.221208 101.521836 
L 337.783745 107.252966 
L 343.346283 113.294327 
L 348.908821 119.654096 
L 354.471359 126.34045 
L 360.033896 133.361566 
L 365.596434 140.725622 
L 371.158972 148.440794 
L 377.069168 157.03203 
L 382.979365 166.038683 
L 388.889561 175.470561 
L 394.799757 185.337473 
L 400.709954 195.649226 
L 406.62015 206.415628 
L 412.530346 217.646489 
L 418.440543 229.351616 
L 424.350739 241.540817 
L 430.260935 254.2239 
L 436.171132 267.410674 
L 442.428987 281.933047 
L 448.686842 297.042749 
L 454.944697 312.751424 
L 461.202552 329.070716 
L 467.112748 345.054545 
L 467.112748 345.054545 
" clip-path="url(#p536ff62091)" style="fill: none; stroke: #ff0000; stroke-width: 3; stroke-linecap: square"/>
   </g>
   <g id="line2d_15">
    <path d="M 119.801798 32.831265 
L 150.743414 32.940665 
L 163.606782 33.227775 
L 174.384199 33.687203 
L 184.11864 34.326469 
L 192.810105 35.114174 
L 201.153912 36.093038 
L 208.802401 37.205852 
L 216.450891 38.546719 
L 223.751722 40.058906 
L 230.704894 41.727194 
L 237.310407 43.532993 
L 243.915921 45.567985 
L 250.173776 47.7197 
L 256.431631 50.101051 
L 262.689486 52.72368 
L 268.947341 55.599231 
L 274.857537 58.557756 
L 280.767733 61.762075 
L 286.67793 65.221995 
L 292.588126 68.947324 
L 298.498323 72.947871 
L 304.408519 77.233444 
L 309.971057 81.536078 
L 315.533594 86.108057 
L 321.096132 90.957558 
L 326.65867 96.092759 
L 332.221208 101.521836 
L 337.783745 107.252966 
L 343.346283 113.294327 
L 348.908821 119.654096 
L 354.471359 126.34045 
L 360.033896 133.361566 
L 365.596434 140.725622 
L 371.158972 148.440794 
L 377.069168 157.03203 
L 382.979365 166.038683 
L 388.889561 175.470561 
L 394.799757 185.337473 
L 400.709954 195.649226 
L 406.62015 206.415628 
L 412.530346 217.646489 
L 418.440543 229.351616 
L 424.350739 241.540817 
L 430.260935 254.2239 
L 436.171132 267.410674 
L 442.428987 281.933047 
L 448.686842 297.042749 
L 454.944697 312.751424 
L 461.202552 329.070716 
L 467.112748 345.054545 
L 467.112748 345.054545 
" clip-path="url(#p536ff62091)" style="fill: none; stroke: #ff0000; stroke-width: 3; stroke-linecap: square"/>
   </g>
   <g id="line2d_16">
    <path d="M 119.801798 32.831265 
L 150.743414 32.940665 
L 163.606782 33.227775 
L 174.384199 33.687203 
L 184.11864 34.326469 
L 192.810105 35.114174 
L 201.153912 36.093038 
L 208.802401 37.205852 
L 216.450891 38.546719 
L 223.751722 40.058906 
L 230.704894 41.727194 
L 237.310407 43.532993 
L 243.915921 45.567985 
L 250.173776 47.7197 
L 256.431631 50.101051 
L 262.689486 52.72368 
L 268.947341 55.599231 
L 274.857537 58.557756 
L 280.767733 61.762075 
L 286.67793 65.221995 
L 292.588126 68.947324 
L 298.498323 72.947871 
L 304.408519 77.233444 
L 309.971057 81.536078 
L 315.533594 86.108057 
L 321.096132 90.957558 
L 326.65867 96.092759 
L 332.221208 101.521836 
L 337.783745 107.252966 
L 343.346283 113.294327 
L 348.908821 119.654096 
L 354.471359 126.34045 
L 360.033896 133.361566 
L 365.596434 140.725622 
L 371.158972 148.440794 
L 377.069168 157.03203 
L 382.979365 166.038683 
L 388.889561 175.470561 
L 394.799757 185.337473 
L 400.709954 195.649226 
L 406.62015 206.415628 
L 412.530346 217.646489 
L 418.440543 229.351616 
L 424.350739 241.540817 
L 430.260935 254.2239 
L 436.171132 267.410674 
L 442.428987 281.933047 
L 448.686842 297.042749 
L 454.944697 312.751424 
L 461.202552 329.070716 
L 467.112748 345.054545 
L 467.112748 345.054545 
" clip-path="url(#p536ff62091)" style="fill: none; stroke: #ff0000; stroke-width: 3; stroke-linecap: square"/>
   </g>
   <g id="line2d_17">
    <path d="M 119.801798 32.831265 
L 150.743414 32.940665 
L 163.606782 33.227775 
L 174.384199 33.687203 
L 184.11864 34.326469 
L 192.810105 35.114174 
L 201.153912 36.093038 
L 208.802401 37.205852 
L 216.450891 38.546719 
L 223.751722 40.058906 
L 230.704894 41.727194 
L 237.310407 43.532993 
L 243.915921 45.567985 
L 250.173776 47.7197 
L 256.431631 50.101051 
L 262.689486 52.72368 
L 268.947341 55.599231 
L 274.857537 58.557756 
L 280.767733 61.762075 
L 286.67793 65.221995 
L 292.588126 68.947324 
L 298.498323 72.947871 
L 304.408519 77.233444 
L 309.971057 81.536078 
L 315.533594 86.108057 
L 321.096132 90.957558 
L 326.65867 96.092759 
L 332.221208 101.521836 
L 337.783745 107.252966 
L 343.346283 113.294327 
L 348.908821 119.654096 
L 354.471359 126.34045 
L 360.033896 133.361566 
L 365.596434 140.725622 
L 371.158972 148.440794 
L 377.069168 157.03203 
L 382.979365 166.038683 
L 388.889561 175.470561 
L 394.799757 185.337473 
L 400.709954 195.649226 
L 406.62015 206.415628 
L 412.530346 217.646489 
L 418.440543 229.351616 
L 424.350739 241.540817 
L 430.260935 254.2239 
L 436.171132 267.410674 
L 442.428987 281.933047 
L 448.686842 297.042749 
L 454.944697 312.751424 
L 461.202552 329.070716 
L 467.112748 345.054545 
L 467.112748 345.054545 
" clip-path="url(#p536ff62091)" style="fill: none; stroke: #ff0000; stroke-width: 3; stroke-linecap: square"/>
   </g>
   <g id="line2d_18">
    <path d="M 119.801798 32.831265 
L 150.743414 32.940665 
L 163.606782 33.227775 
L 174.384199 33.687203 
L 184.11864 34.326469 
L 192.810105 35.114174 
L 201.153912 36.093038 
L 208.802401 37.205852 
L 216.450891 38.546719 
L 223.751722 40.058906 
L 230.704894 41.727194 
L 237.310407 43.532993 
L 243.915921 45.567985 
L 250.173776 47.7197 
L 256.431631 50.101051 
L 262.689486 52.72368 
L 268.947341 55.599231 
L 274.857537 58.557756 
L 280.767733 61.762075 
L 286.67793 65.221995 
L 292.588126 68.947324 
L 298.498323 72.947871 
L 304.408519 77.233444 
L 309.971057 81.536078 
L 315.533594 86.108057 
L 321.096132 90.957558 
L 326.65867 96.092759 
L 332.221208 101.521836 
L 337.783745 107.252966 
L 343.346283 113.294327 
L 348.908821 119.654096 
L 354.471359 126.34045 
L 360.033896 133.361566 
L 365.596434 140.725622 
L 371.158972 148.440794 
L 377.069168 157.03203 
L 382.979365 166.038683 
L 388.889561 175.470561 
L 394.799757 185.337473 
L 400.709954 195.649226 
L 406.62015 206.415628 
L 412.530346 217.646489 
L 418.440543 229.351616 
L 424.350739 241.540817 
L 430.260935 254.2239 
L 436.171132 267.410674 
L 442.428987 281.933047 
L 448.686842 297.042749 
L 454.944697 312.751424 
L 461.202552 329.070716 
L 467.112748 345.054545 
L 467.112748 345.054545 
" clip-path="url(#p536ff62091)" style="fill: none; stroke: #ff0000; stroke-width: 3; stroke-linecap: square"/>
   </g>
   <g id="matplotlib.axis_1">
    <g id="xtick_1">
     <g id="line2d_19">
      <defs>
       <path id="m7ff03634c3" d="M 0 0 
L 0 -6 
" style="stroke: #000000; stroke-width: 2"/>
      </defs>
      <g>
       <use xlink:href="#m7ff03634c3" x="119.801798" y="360.8" style="stroke: #000000; stroke-width: 2"/>
      </g>
     </g>
     <g id="text_1">
      <!-- 0.00 -->
      <g transform="translate(93.083048 384.03625)scale(0.24 -0.24)">
       <defs>
        <path id="DejaVuSans-30" d="M 2034 4250 
Q 1547 4250 1301 3770 
Q 1056 3291 1056 2328 
Q 1056 1369 1301 889 
Q 1547 409 2034 409 
Q 2525 409 2770 889 
Q 3016 1369 3016 2328 
Q 3016 3291 2770 3770 
Q 2525 4250 2034 4250 
z
M 2034 4750 
Q 2819 4750 3233 4129 
Q 3647 3509 3647 2328 
Q 3647 1150 3233 529 
Q 2819 -91 2034 -91 
Q 1250 -91 836 529 
Q 422 1150 422 2328 
Q 422 3509 836 4129 
Q 1250 4750 2034 4750 
z
" transform="scale(0.015625)"/>
        <path id="DejaVuSans-2e" d="M 684 794 
L 1344 794 
L 1344 0 
L 684 0 
L 684 794 
z
" transform="scale(0.015625)"/>
       </defs>
       <use xlink:href="#DejaVuSans-30"/>
       <use xlink:href="#DejaVuSans-2e" x="63.623047"/>
       <use xlink:href="#DejaVuSans-30" x="95.410156"/>
       <use xlink:href="#DejaVuSans-30" x="159.033203"/>
      </g>
     </g>
    </g>
    <g id="xtick_2">
     <g id="line2d_20">
      <g>
       <use xlink:href="#m7ff03634c3" x="206.629535" y="360.8" style="stroke: #000000; stroke-width: 2"/>
      </g>
     </g>
     <g id="text_2">
      <!-- 0.25 -->
      <g transform="translate(179.910785 384.03625)scale(0.24 -0.24)">
       <defs>
        <path id="DejaVuSans-32" d="M 1228 531 
L 3431 531 
L 3431 0 
L 469 0 
L 469 531 
Q 828 903 1448 1529 
Q 2069 2156 2228 2338 
Q 2531 2678 2651 2914 
Q 2772 3150 2772 3378 
Q 2772 3750 2511 3984 
Q 2250 4219 1831 4219 
Q 1534 4219 1204 4116 
Q 875 4013 500 3803 
L 500 4441 
Q 881 4594 1212 4672 
Q 1544 4750 1819 4750 
Q 2544 4750 2975 4387 
Q 3406 4025 3406 3419 
Q 3406 3131 3298 2873 
Q 3191 2616 2906 2266 
Q 2828 2175 2409 1742 
Q 1991 1309 1228 531 
z
" transform="scale(0.015625)"/>
        <path id="DejaVuSans-35" d="M 691 4666 
L 3169 4666 
L 3169 4134 
L 1269 4134 
L 1269 2991 
Q 1406 3038 1543 3061 
Q 1681 3084 1819 3084 
Q 2600 3084 3056 2656 
Q 3513 2228 3513 1497 
Q 3513 744 3044 326 
Q 2575 -91 1722 -91 
Q 1428 -91 1123 -41 
Q 819 9 494 109 
L 494 744 
Q 775 591 1075 516 
Q 1375 441 1709 441 
Q 2250 441 2565 725 
Q 2881 1009 2881 1497 
Q 2881 1984 2565 2268 
Q 2250 2553 1709 2553 
Q 1456 2553 1204 2497 
Q 953 2441 691 2322 
L 691 4666 
z
" transform="scale(0.015625)"/>
       </defs>
       <use xlink:href="#DejaVuSans-30"/>
       <use xlink:href="#DejaVuSans-2e" x="63.623047"/>
       <use xlink:href="#DejaVuSans-32" x="95.410156"/>
       <use xlink:href="#DejaVuSans-35" x="159.033203"/>
      </g>
     </g>
    </g>
    <g id="xtick_3">
     <g id="line2d_21">
      <g>
       <use xlink:href="#m7ff03634c3" x="293.457273" y="360.8" style="stroke: #000000; stroke-width: 2"/>
      </g>
     </g>
     <g id="text_3">
      <!-- 0.50 -->
      <g transform="translate(266.738523 384.03625)scale(0.24 -0.24)">
       <use xlink:href="#DejaVuSans-30"/>
       <use xlink:href="#DejaVuSans-2e" x="63.623047"/>
       <use xlink:href="#DejaVuSans-35" x="95.410156"/>
       <use xlink:href="#DejaVuSans-30" x="159.033203"/>
      </g>
     </g>
    </g>
    <g id="xtick_4">
     <g id="line2d_22">
      <g>
       <use xlink:href="#m7ff03634c3" x="380.28501" y="360.8" style="stroke: #000000; stroke-width: 2"/>
      </g>
     </g>
     <g id="text_4">
      <!-- 0.75 -->
      <g transform="translate(353.56626 384.03625)scale(0.24 -0.24)">
       <defs>
        <path id="DejaVuSans-37" d="M 525 4666 
L 3525 4666 
L 3525 4397 
L 1831 0 
L 1172 0 
L 2766 4134 
L 525 4134 
L 525 4666 
z
" transform="scale(0.015625)"/>
       </defs>
       <use xlink:href="#DejaVuSans-30"/>
       <use xlink:href="#DejaVuSans-2e" x="63.623047"/>
       <use xlink:href="#DejaVuSans-37" x="95.410156"/>
       <use xlink:href="#DejaVuSans-35" x="159.033203"/>
      </g>
     </g>
    </g>
    <g id="xtick_5">
     <g id="line2d_23">
      <g>
       <use xlink:href="#m7ff03634c3" x="467.112748" y="360.8" style="stroke: #000000; stroke-width: 2"/>
      </g>
     </g>
     <g id="text_5">
      <!-- 1.00 -->
      <g transform="translate(440.393998 384.03625)scale(0.24 -0.24)">
       <defs>
        <path id="DejaVuSans-31" d="M 794 531 
L 1825 531 
L 1825 4091 
L 703 3866 
L 703 4441 
L 1819 4666 
L 2450 4666 
L 2450 531 
L 3481 531 
L 3481 0 
L 794 0 
L 794 531 
z
" transform="scale(0.015625)"/>
       </defs>
       <use xlink:href="#DejaVuSans-31"/>
       <use xlink:href="#DejaVuSans-2e" x="63.623047"/>
       <use xlink:href="#DejaVuSans-30" x="95.410156"/>
       <use xlink:href="#DejaVuSans-30" x="159.033203"/>
      </g>
     </g>
    </g>
    <g id="text_6">
     <!-- $y / H$ -->
     <g transform="translate(270.077273 414.24625)scale(0.28 -0.28)">
      <defs>
       <path id="DejaVuSans-Oblique-79" d="M 1588 -325 
Q 1188 -997 936 -1164 
Q 684 -1331 294 -1331 
L -159 -1331 
L -63 -850 
L 269 -850 
Q 509 -850 678 -719 
Q 847 -588 1056 -206 
L 1234 128 
L 459 3500 
L 1069 3500 
L 1650 819 
L 3256 3500 
L 3859 3500 
L 1588 -325 
z
" transform="scale(0.015625)"/>
       <path id="DejaVuSans-2f" d="M 1625 4666 
L 2156 4666 
L 531 -594 
L 0 -594 
L 1625 4666 
z
" transform="scale(0.015625)"/>
       <path id="DejaVuSans-Oblique-48" d="M 1081 4666 
L 1716 4666 
L 1344 2753 
L 3634 2753 
L 4006 4666 
L 4641 4666 
L 3731 0 
L 3097 0 
L 3531 2222 
L 1241 2222 
L 806 0 
L 172 0 
L 1081 4666 
z
" transform="scale(0.015625)"/>
      </defs>
      <use xlink:href="#DejaVuSans-Oblique-79" transform="translate(0 0.09375)"/>
      <use xlink:href="#DejaVuSans-2f" transform="translate(59.179688 0.09375)"/>
      <use xlink:href="#DejaVuSans-Oblique-48" transform="translate(91.121094 0.09375)"/>
     </g>
    </g>
   </g>
   <g id="matplotlib.axis_2">
    <g id="ytick_1">
     <g id="line2d_24">
      <defs>
       <path id="m5559aa118f" d="M 0 0 
L 6 0 
" style="stroke: #000000; stroke-width: 2"/>
      </defs>
      <g>
       <use xlink:href="#m5559aa118f" x="102.43625" y="345.054545" style="stroke: #000000; stroke-width: 2"/>
      </g>
     </g>
     <g id="text_7">
      <!-- 0.00 -->
      <g transform="translate(45.49875 354.17267)scale(0.24 -0.24)">
       <use xlink:href="#DejaVuSans-30"/>
       <use xlink:href="#DejaVuSans-2e" x="63.623047"/>
       <use xlink:href="#DejaVuSans-30" x="95.410156"/>
       <use xlink:href="#DejaVuSans-30" x="159.033203"/>
      </g>
     </g>
    </g>
    <g id="ytick_2">
     <g id="line2d_25">
      <g>
       <use xlink:href="#m5559aa118f" x="102.43625" y="286.124392" style="stroke: #000000; stroke-width: 2"/>
      </g>
     </g>
     <g id="text_8">
      <!-- 0.25 -->
      <g transform="translate(45.49875 295.242517)scale(0.24 -0.24)">
       <use xlink:href="#DejaVuSans-30"/>
       <use xlink:href="#DejaVuSans-2e" x="63.623047"/>
       <use xlink:href="#DejaVuSans-32" x="95.410156"/>
       <use xlink:href="#DejaVuSans-35" x="159.033203"/>
      </g>
     </g>
    </g>
    <g id="ytick_3">
     <g id="line2d_26">
      <g>
       <use xlink:href="#m5559aa118f" x="102.43625" y="227.194238" style="stroke: #000000; stroke-width: 2"/>
      </g>
     </g>
     <g id="text_9">
      <!-- 0.50 -->
      <g transform="translate(45.49875 236.312363)scale(0.24 -0.24)">
       <use xlink:href="#DejaVuSans-30"/>
       <use xlink:href="#DejaVuSans-2e" x="63.623047"/>
       <use xlink:href="#DejaVuSans-35" x="95.410156"/>
       <use xlink:href="#DejaVuSans-30" x="159.033203"/>
      </g>
     </g>
    </g>
    <g id="ytick_4">
     <g id="line2d_27">
      <g>
       <use xlink:href="#m5559aa118f" x="102.43625" y="168.264085" style="stroke: #000000; stroke-width: 2"/>
      </g>
     </g>
     <g id="text_10">
      <!-- 0.75 -->
      <g transform="translate(45.49875 177.38221)scale(0.24 -0.24)">
       <use xlink:href="#DejaVuSans-30"/>
       <use xlink:href="#DejaVuSans-2e" x="63.623047"/>
       <use xlink:href="#DejaVuSans-37" x="95.410156"/>
       <use xlink:href="#DejaVuSans-35" x="159.033203"/>
      </g>
     </g>
    </g>
    <g id="ytick_5">
     <g id="line2d_28">
      <g>
       <use xlink:href="#m5559aa118f" x="102.43625" y="109.333931" style="stroke: #000000; stroke-width: 2"/>
      </g>
     </g>
     <g id="text_11">
      <!-- 1.00 -->
      <g transform="translate(45.49875 118.452056)scale(0.24 -0.24)">
       <use xlink:href="#DejaVuSans-31"/>
       <use xlink:href="#DejaVuSans-2e" x="63.623047"/>
       <use xlink:href="#DejaVuSans-30" x="95.410156"/>
       <use xlink:href="#DejaVuSans-30" x="159.033203"/>
      </g>
     </g>
    </g>
    <g id="ytick_6">
     <g id="line2d_29">
      <g>
       <use xlink:href="#m5559aa118f" x="102.43625" y="50.403778" style="stroke: #000000; stroke-width: 2"/>
      </g>
     </g>
     <g id="text_12">
      <!-- 1.25 -->
      <g transform="translate(45.49875 59.521903)scale(0.24 -0.24)">
       <use xlink:href="#DejaVuSans-31"/>
       <use xlink:href="#DejaVuSans-2e" x="63.623047"/>
       <use xlink:href="#DejaVuSans-32" x="95.410156"/>
       <use xlink:href="#DejaVuSans-35" x="159.033203"/>
      </g>
     </g>
    </g>
    <g id="text_13">
     <!-- $u_x / U_0$ -->
     <g transform="translate(35.675625 224.28)rotate(-90)scale(0.28 -0.28)">
      <defs>
       <path id="DejaVuSans-Oblique-75" d="M 428 1388 
L 838 3500 
L 1416 3500 
L 1006 1409 
Q 975 1256 961 1147 
Q 947 1038 947 966 
Q 947 700 1109 554 
Q 1272 409 1569 409 
Q 2031 409 2368 721 
Q 2706 1034 2809 1563 
L 3194 3500 
L 3769 3500 
L 3091 0 
L 2516 0 
L 2631 550 
Q 2388 244 2052 76 
Q 1716 -91 1338 -91 
Q 878 -91 622 161 
Q 366 413 366 863 
Q 366 956 381 1097 
Q 397 1238 428 1388 
z
" transform="scale(0.015625)"/>
       <path id="DejaVuSans-Oblique-78" d="M 3841 3500 
L 2234 1784 
L 3219 0 
L 2559 0 
L 1819 1388 
L 531 0 
L -166 0 
L 1556 1844 
L 641 3500 
L 1300 3500 
L 1972 2234 
L 3144 3500 
L 3841 3500 
z
" transform="scale(0.015625)"/>
       <path id="DejaVuSans-Oblique-55" d="M 991 4666 
L 1625 4666 
L 1075 1831 
Q 1041 1641 1027 1517 
Q 1013 1394 1013 1300 
Q 1013 869 1253 645 
Q 1494 422 1959 422 
Q 2563 422 2898 753 
Q 3234 1084 3378 1831 
L 3928 4666 
L 4563 4666 
L 4000 1753 
Q 3816 809 3300 359 
Q 2784 -91 1888 -91 
Q 1188 -91 780 261 
Q 372 613 372 1216 
Q 372 1325 387 1461 
Q 403 1597 434 1753 
L 991 4666 
z
" transform="scale(0.015625)"/>
      </defs>
      <use xlink:href="#DejaVuSans-Oblique-75" transform="translate(0 0.09375)"/>
      <use xlink:href="#DejaVuSans-Oblique-78" transform="translate(63.378906 -16.3125)scale(0.7)"/>
      <use xlink:href="#DejaVuSans-2f" transform="translate(107.539062 0.09375)"/>
      <use xlink:href="#DejaVuSans-Oblique-55" transform="translate(141.230469 0.09375)"/>
      <use xlink:href="#DejaVuSans-30" transform="translate(214.423828 -16.3125)scale(0.7)"/>
     </g>
    </g>
   </g>
   <g id="line2d_30">
    <defs>
     <path id="m5298d7e39a" d="M -6 6 
L 6 6 
L 6 -6 
L -6 -6 
z
" style="stroke: #3b528b; stroke-width: 1.5; stroke-linejoin: miter"/>
    </defs>
    <g clip-path="url(#p536ff62091)">
     <use xlink:href="#m5298d7e39a" x="138.081321" y="30.145455" style="fill-opacity: 0; stroke: #3b528b; stroke-width: 1.5; stroke-linejoin: miter"/>
     <use xlink:href="#m5298d7e39a" x="174.640369" y="32.480414" style="fill-opacity: 0; stroke: #3b528b; stroke-width: 1.5; stroke-linejoin: miter"/>
     <use xlink:href="#m5298d7e39a" x="211.199416" y="37.172742" style="fill-opacity: 0; stroke: #3b528b; stroke-width: 1.5; stroke-linejoin: miter"/>
     <use xlink:href="#m5298d7e39a" x="247.758463" y="46.446465" style="fill-opacity: 0; stroke: #3b528b; stroke-width: 1.5; stroke-linejoin: miter"/>
     <use xlink:href="#m5298d7e39a" x="284.317511" y="63.380992" style="fill-opacity: 0; stroke: #3b528b; stroke-width: 1.5; stroke-linejoin: miter"/>
     <use xlink:href="#m5298d7e39a" x="320.876558" y="90.413769" style="fill-opacity: 0; stroke: #3b528b; stroke-width: 1.5; stroke-linejoin: miter"/>
     <use xlink:href="#m5298d7e39a" x="357.435606" y="129.646147" style="fill-opacity: 0; stroke: #3b528b; stroke-width: 1.5; stroke-linejoin: miter"/>
     <use xlink:href="#m5298d7e39a" x="393.994653" y="183.505179" style="fill-opacity: 0; stroke: #3b528b; stroke-width: 1.5; stroke-linejoin: miter"/>
     <use xlink:href="#m5298d7e39a" x="430.553701" y="254.109434" style="fill-opacity: 0; stroke: #3b528b; stroke-width: 1.5; stroke-linejoin: miter"/>
    </g>
   </g>
   <g id="line2d_31">
    <defs>
     <path id="mbe0a95f9ae" d="M 0 6 
C 1.591219 6 3.117479 5.367802 4.242641 4.242641 
C 5.367802 3.117479 6 1.591219 6 0 
C 6 -1.591219 5.367802 -3.117479 4.242641 -4.242641 
C 3.117479 -5.367802 1.591219 -6 0 -6 
C -1.591219 -6 -3.117479 -5.367802 -4.242641 -4.242641 
C -5.367802 -3.117479 -6 -1.591219 -6 0 
C -6 1.591219 -5.367802 3.117479 -4.242641 4.242641 
C -3.117479 5.367802 -1.591219 6 0 6 
z
" style="stroke: #5ec962; stroke-width: 1.5"/>
    </defs>
    <g clip-path="url(#p536ff62091)">
     <use xlink:href="#mbe0a95f9ae" x="138.081321" y="46.56807" style="fill-opacity: 0; stroke: #5ec962; stroke-width: 1.5"/>
     <use xlink:href="#mbe0a95f9ae" x="174.640369" y="48.831982" style="fill-opacity: 0; stroke: #5ec962; stroke-width: 1.5"/>
     <use xlink:href="#mbe0a95f9ae" x="211.199416" y="53.348834" style="fill-opacity: 0; stroke: #5ec962; stroke-width: 1.5"/>
     <use xlink:href="#mbe0a95f9ae" x="247.758463" y="61.801965" style="fill-opacity: 0; stroke: #5ec962; stroke-width: 1.5"/>
     <use xlink:href="#mbe0a95f9ae" x="284.317511" y="77.592845" style="fill-opacity: 0; stroke: #5ec962; stroke-width: 1.5"/>
     <use xlink:href="#mbe0a95f9ae" x="320.876558" y="102.778757" style="fill-opacity: 0; stroke: #5ec962; stroke-width: 1.5"/>
     <use xlink:href="#mbe0a95f9ae" x="357.435606" y="139.534939" style="fill-opacity: 0; stroke: #5ec962; stroke-width: 1.5"/>
     <use xlink:href="#mbe0a95f9ae" x="393.994653" y="190.465846" style="fill-opacity: 0; stroke: #5ec962; stroke-width: 1.5"/>
     <use xlink:href="#mbe0a95f9ae" x="430.553701" y="257.337212" style="fill-opacity: 0; stroke: #5ec962; stroke-width: 1.5"/>
    </g>
   </g>
   <g id="line2d_32">
    <defs>
     <path id="m5c6d572830" d="M -3 6 
L 0 3 
L 3 6 
L 6 3 
L 3 0 
L 6 -3 
L 3 -6 
L 0 -3 
L -3 -6 
L -6 -3 
L -3 0 
L -6 3 
z
" style="stroke: #21918c; stroke-width: 1.5; stroke-linejoin: miter"/>
    </defs>
    <g clip-path="url(#p536ff62091)">
     <use xlink:href="#m5c6d572830" x="138.081321" y="46.547399" style="fill-opacity: 0; stroke: #21918c; stroke-width: 1.5; stroke-linejoin: miter"/>
     <use xlink:href="#m5c6d572830" x="174.640369" y="48.79741" style="fill-opacity: 0; stroke: #21918c; stroke-width: 1.5; stroke-linejoin: miter"/>
     <use xlink:href="#m5c6d572830" x="211.199416" y="53.330275" style="fill-opacity: 0; stroke: #21918c; stroke-width: 1.5; stroke-linejoin: miter"/>
     <use xlink:href="#m5c6d572830" x="247.758463" y="61.69708" style="fill-opacity: 0; stroke: #21918c; stroke-width: 1.5; stroke-linejoin: miter"/>
     <use xlink:href="#m5c6d572830" x="284.317511" y="77.449488" style="fill-opacity: 0; stroke: #21918c; stroke-width: 1.5; stroke-linejoin: miter"/>
     <use xlink:href="#m5c6d572830" x="320.876558" y="102.651481" style="fill-opacity: 0; stroke: #21918c; stroke-width: 1.5; stroke-linejoin: miter"/>
     <use xlink:href="#m5c6d572830" x="357.435606" y="139.585306" style="fill-opacity: 0; stroke: #21918c; stroke-width: 1.5; stroke-linejoin: miter"/>
     <use xlink:href="#m5c6d572830" x="393.994653" y="190.371951" style="fill-opacity: 0; stroke: #21918c; stroke-width: 1.5; stroke-linejoin: miter"/>
     <use xlink:href="#m5c6d572830" x="430.553701" y="257.208073" style="fill-opacity: 0; stroke: #21918c; stroke-width: 1.5; stroke-linejoin: miter"/>
    </g>
   </g>
   <g id="patch_3">
    <path d="M 102.43625 360.8 
L 102.43625 14.4 
" style="fill: none; stroke: #000000; stroke-width: 2; stroke-linejoin: miter; stroke-linecap: square"/>
   </g>
   <g id="patch_4">
    <path d="M 484.478295 360.8 
L 484.478295 14.4 
" style="fill: none; stroke: #000000; stroke-width: 2; stroke-linejoin: miter; stroke-linecap: square"/>
   </g>
   <g id="patch_5">
    <path d="M 102.43625 360.8 
L 484.478295 360.8 
" style="fill: none; stroke: #000000; stroke-width: 2; stroke-linejoin: miter; stroke-linecap: square"/>
   </g>
   <g id="patch_6">
    <path d="M 102.43625 14.4 
L 484.478295 14.4 
" style="fill: none; stroke: #000000; stroke-width: 2; stroke-linejoin: miter; stroke-linecap: square"/>
   </g>
   <g id="legend_1">
    <g id="patch_7">
     <path d="M 116.43625 350.8 
L 260.83625 350.8 
Q 264.83625 350.8 264.83625 346.8 
L 264.83625 231.375 
Q 264.83625 227.375 260.83625 227.375 
L 116.43625 227.375 
Q 112.43625 227.375 112.43625 231.375 
L 112.43625 346.8 
Q 112.43625 350.8 116.43625 350.8 
z
" style="fill: #ffffff; opacity: 0.8; stroke: #cccccc; stroke-linejoin: miter"/>
    </g>
    <g id="line2d_33">
     <path d="M 120.43625 243.571875 
L 140.43625 243.571875 
L 160.43625 243.571875 
" style="fill: none; stroke: #5ec962; stroke-width: 3; stroke-linecap: square"/>
     <g>
      <use xlink:href="#mbe0a95f9ae" x="140.43625" y="243.571875" style="fill-opacity: 0; stroke: #5ec962; stroke-width: 1.5"/>
     </g>
    </g>
    <g id="text_14">
     <!-- Quintic -->
     <g transform="translate(176.43625 250.571875)scale(0.2 -0.2)">
      <defs>
       <path id="DejaVuSans-51" d="M 2522 4238 
Q 1834 4238 1429 3725 
Q 1025 3213 1025 2328 
Q 1025 1447 1429 934 
Q 1834 422 2522 422 
Q 3209 422 3611 934 
Q 4013 1447 4013 2328 
Q 4013 3213 3611 3725 
Q 3209 4238 2522 4238 
z
M 3406 84 
L 4238 -825 
L 3475 -825 
L 2784 -78 
Q 2681 -84 2626 -87 
Q 2572 -91 2522 -91 
Q 1538 -91 948 567 
Q 359 1225 359 2328 
Q 359 3434 948 4092 
Q 1538 4750 2522 4750 
Q 3503 4750 4090 4092 
Q 4678 3434 4678 2328 
Q 4678 1516 4351 937 
Q 4025 359 3406 84 
z
" transform="scale(0.015625)"/>
       <path id="DejaVuSans-75" d="M 544 1381 
L 544 3500 
L 1119 3500 
L 1119 1403 
Q 1119 906 1312 657 
Q 1506 409 1894 409 
Q 2359 409 2629 706 
Q 2900 1003 2900 1516 
L 2900 3500 
L 3475 3500 
L 3475 0 
L 2900 0 
L 2900 538 
Q 2691 219 2414 64 
Q 2138 -91 1772 -91 
Q 1169 -91 856 284 
Q 544 659 544 1381 
z
M 1991 3584 
L 1991 3584 
z
" transform="scale(0.015625)"/>
       <path id="DejaVuSans-69" d="M 603 3500 
L 1178 3500 
L 1178 0 
L 603 0 
L 603 3500 
z
M 603 4863 
L 1178 4863 
L 1178 4134 
L 603 4134 
L 603 4863 
z
" transform="scale(0.015625)"/>
       <path id="DejaVuSans-6e" d="M 3513 2113 
L 3513 0 
L 2938 0 
L 2938 2094 
Q 2938 2591 2744 2837 
Q 2550 3084 2163 3084 
Q 1697 3084 1428 2787 
Q 1159 2491 1159 1978 
L 1159 0 
L 581 0 
L 581 3500 
L 1159 3500 
L 1159 2956 
Q 1366 3272 1645 3428 
Q 1925 3584 2291 3584 
Q 2894 3584 3203 3211 
Q 3513 2838 3513 2113 
z
" transform="scale(0.015625)"/>
       <path id="DejaVuSans-74" d="M 1172 4494 
L 1172 3500 
L 2356 3500 
L 2356 3053 
L 1172 3053 
L 1172 1153 
Q 1172 725 1289 603 
Q 1406 481 1766 481 
L 2356 481 
L 2356 0 
L 1766 0 
Q 1100 0 847 248 
Q 594 497 594 1153 
L 594 3053 
L 172 3053 
L 172 3500 
L 594 3500 
L 594 4494 
L 1172 4494 
z
" transform="scale(0.015625)"/>
       <path id="DejaVuSans-63" d="M 3122 3366 
L 3122 2828 
Q 2878 2963 2633 3030 
Q 2388 3097 2138 3097 
Q 1578 3097 1268 2742 
Q 959 2388 959 1747 
Q 959 1106 1268 751 
Q 1578 397 2138 397 
Q 2388 397 2633 464 
Q 2878 531 3122 666 
L 3122 134 
Q 2881 22 2623 -34 
Q 2366 -91 2075 -91 
Q 1284 -91 818 406 
Q 353 903 353 1747 
Q 353 2603 823 3093 
Q 1294 3584 2113 3584 
Q 2378 3584 2631 3529 
Q 2884 3475 3122 3366 
z
" transform="scale(0.015625)"/>
      </defs>
      <use xlink:href="#DejaVuSans-51"/>
      <use xlink:href="#DejaVuSans-75" x="78.710938"/>
      <use xlink:href="#DejaVuSans-69" x="142.089844"/>
      <use xlink:href="#DejaVuSans-6e" x="169.873047"/>
      <use xlink:href="#DejaVuSans-74" x="233.251953"/>
      <use xlink:href="#DejaVuSans-69" x="272.460938"/>
      <use xlink:href="#DejaVuSans-63" x="300.244141"/>
     </g>
    </g>
    <g id="line2d_34">
     <path d="M 120.43625 272.928125 
L 140.43625 272.928125 
L 160.43625 272.928125 
" style="fill: none; stroke: #21918c; stroke-width: 3; stroke-linecap: square"/>
     <g>
      <use xlink:href="#m5c6d572830" x="140.43625" y="272.928125" style="fill-opacity: 0; stroke: #21918c; stroke-width: 1.5; stroke-linejoin: miter"/>
     </g>
    </g>
    <g id="text_15">
     <!-- RK0 -->
     <g transform="translate(176.43625 279.928125)scale(0.2 -0.2)">
      <defs>
       <path id="DejaVuSans-52" d="M 2841 2188 
Q 3044 2119 3236 1894 
Q 3428 1669 3622 1275 
L 4263 0 
L 3584 0 
L 2988 1197 
Q 2756 1666 2539 1819 
Q 2322 1972 1947 1972 
L 1259 1972 
L 1259 0 
L 628 0 
L 628 4666 
L 2053 4666 
Q 2853 4666 3247 4331 
Q 3641 3997 3641 3322 
Q 3641 2881 3436 2590 
Q 3231 2300 2841 2188 
z
M 1259 4147 
L 1259 2491 
L 2053 2491 
Q 2509 2491 2742 2702 
Q 2975 2913 2975 3322 
Q 2975 3731 2742 3939 
Q 2509 4147 2053 4147 
L 1259 4147 
z
" transform="scale(0.015625)"/>
       <path id="DejaVuSans-4b" d="M 628 4666 
L 1259 4666 
L 1259 2694 
L 3353 4666 
L 4166 4666 
L 1850 2491 
L 4331 0 
L 3500 0 
L 1259 2247 
L 1259 0 
L 628 0 
L 628 4666 
z
" transform="scale(0.015625)"/>
      </defs>
      <use xlink:href="#DejaVuSans-52"/>
      <use xlink:href="#DejaVuSans-4b" x="69.482422"/>
      <use xlink:href="#DejaVuSans-30" x="135.058594"/>
     </g>
    </g>
    <g id="line2d_35">
     <path d="M 120.43625 302.284375 
L 140.43625 302.284375 
L 160.43625 302.284375 
" style="fill: none; stroke: #3b528b; stroke-width: 3; stroke-linecap: square"/>
     <g>
      <use xlink:href="#m5298d7e39a" x="140.43625" y="302.284375" style="fill-opacity: 0; stroke: #3b528b; stroke-width: 1.5; stroke-linejoin: miter"/>
     </g>
    </g>
    <g id="text_16">
     <!-- RK1 -->
     <g transform="translate(176.43625 309.284375)scale(0.2 -0.2)">
      <use xlink:href="#DejaVuSans-52"/>
      <use xlink:href="#DejaVuSans-4b" x="69.482422"/>
      <use xlink:href="#DejaVuSans-31" x="135.058594"/>
     </g>
    </g>
    <g id="line2d_36">
     <path d="M 120.43625 331.640625 
L 140.43625 331.640625 
L 160.43625 331.640625 
" style="fill: none; stroke: #ff0000; stroke-width: 3; stroke-linecap: square"/>
    </g>
    <g id="text_17">
     <!-- Analytic -->
     <g transform="translate(176.43625 338.640625)scale(0.2 -0.2)">
      <defs>
       <path id="DejaVuSans-41" d="M 2188 4044 
L 1331 1722 
L 3047 1722 
L 2188 4044 
z
M 1831 4666 
L 2547 4666 
L 4325 0 
L 3669 0 
L 3244 1197 
L 1141 1197 
L 716 0 
L 50 0 
L 1831 4666 
z
" transform="scale(0.015625)"/>
       <path id="DejaVuSans-61" d="M 2194 1759 
Q 1497 1759 1228 1600 
Q 959 1441 959 1056 
Q 959 750 1161 570 
Q 1363 391 1709 391 
Q 2188 391 2477 730 
Q 2766 1069 2766 1631 
L 2766 1759 
L 2194 1759 
z
M 3341 1997 
L 3341 0 
L 2766 0 
L 2766 531 
Q 2569 213 2275 61 
Q 1981 -91 1556 -91 
Q 1019 -91 701 211 
Q 384 513 384 1019 
Q 384 1609 779 1909 
Q 1175 2209 1959 2209 
L 2766 2209 
L 2766 2266 
Q 2766 2663 2505 2880 
Q 2244 3097 1772 3097 
Q 1472 3097 1187 3025 
Q 903 2953 641 2809 
L 641 3341 
Q 956 3463 1253 3523 
Q 1550 3584 1831 3584 
Q 2591 3584 2966 3190 
Q 3341 2797 3341 1997 
z
" transform="scale(0.015625)"/>
       <path id="DejaVuSans-6c" d="M 603 4863 
L 1178 4863 
L 1178 0 
L 603 0 
L 603 4863 
z
" transform="scale(0.015625)"/>
       <path id="DejaVuSans-79" d="M 2059 -325 
Q 1816 -950 1584 -1140 
Q 1353 -1331 966 -1331 
L 506 -1331 
L 506 -850 
L 844 -850 
Q 1081 -850 1212 -737 
Q 1344 -625 1503 -206 
L 1606 56 
L 191 3500 
L 800 3500 
L 1894 763 
L 2988 3500 
L 3597 3500 
L 2059 -325 
z
" transform="scale(0.015625)"/>
      </defs>
      <use xlink:href="#DejaVuSans-41"/>
      <use xlink:href="#DejaVuSans-6e" x="68.408203"/>
      <use xlink:href="#DejaVuSans-61" x="131.787109"/>
      <use xlink:href="#DejaVuSans-6c" x="193.066406"/>
      <use xlink:href="#DejaVuSans-79" x="220.849609"/>
      <use xlink:href="#DejaVuSans-74" x="280.029297"/>
      <use xlink:href="#DejaVuSans-69" x="319.238281"/>
      <use xlink:href="#DejaVuSans-63" x="347.021484"/>
     </g>
    </g>
   </g>
   <g id="legend_2">
    <g id="patch_8">
     <path d="M 116.43625 350.8 
L 287.301875 350.8 
Q 291.301875 350.8 291.301875 346.8 
L 291.301875 290.0875 
Q 291.301875 286.0875 287.301875 286.0875 
L 116.43625 286.0875 
Q 112.43625 286.0875 112.43625 290.0875 
L 112.43625 346.8 
Q 112.43625 350.8 116.43625 350.8 
z
" style="fill: #ffffff; opacity: 0.8; stroke: #cccccc; stroke-linejoin: miter"/>
    </g>
    <g id="line2d_37">
     <path d="M 120.43625 302.284375 
L 140.43625 302.284375 
L 160.43625 302.284375 
" style="fill: none; stroke-dasharray: 3,4.95; stroke-dashoffset: 0; stroke: #000000; stroke-width: 3"/>
    </g>
    <g id="text_18">
     <!-- Newtonian -->
     <g transform="translate(176.43625 309.284375)scale(0.2 -0.2)">
      <defs>
       <path id="DejaVuSans-4e" d="M 628 4666 
L 1478 4666 
L 3547 763 
L 3547 4666 
L 4159 4666 
L 4159 0 
L 3309 0 
L 1241 3903 
L 1241 0 
L 628 0 
L 628 4666 
z
" transform="scale(0.015625)"/>
       <path id="DejaVuSans-65" d="M 3597 1894 
L 3597 1613 
L 953 1613 
Q 991 1019 1311 708 
Q 1631 397 2203 397 
Q 2534 397 2845 478 
Q 3156 559 3463 722 
L 3463 178 
Q 3153 47 2828 -22 
Q 2503 -91 2169 -91 
Q 1331 -91 842 396 
Q 353 884 353 1716 
Q 353 2575 817 3079 
Q 1281 3584 2069 3584 
Q 2775 3584 3186 3129 
Q 3597 2675 3597 1894 
z
M 3022 2063 
Q 3016 2534 2758 2815 
Q 2500 3097 2075 3097 
Q 1594 3097 1305 2825 
Q 1016 2553 972 2059 
L 3022 2063 
z
" transform="scale(0.015625)"/>
       <path id="DejaVuSans-77" d="M 269 3500 
L 844 3500 
L 1563 769 
L 2278 3500 
L 2956 3500 
L 3675 769 
L 4391 3500 
L 4966 3500 
L 4050 0 
L 3372 0 
L 2619 2869 
L 1863 0 
L 1184 0 
L 269 3500 
z
" transform="scale(0.015625)"/>
       <path id="DejaVuSans-6f" d="M 1959 3097 
Q 1497 3097 1228 2736 
Q 959 2375 959 1747 
Q 959 1119 1226 758 
Q 1494 397 1959 397 
Q 2419 397 2687 759 
Q 2956 1122 2956 1747 
Q 2956 2369 2687 2733 
Q 2419 3097 1959 3097 
z
M 1959 3584 
Q 2709 3584 3137 3096 
Q 3566 2609 3566 1747 
Q 3566 888 3137 398 
Q 2709 -91 1959 -91 
Q 1206 -91 779 398 
Q 353 888 353 1747 
Q 353 2609 779 3096 
Q 1206 3584 1959 3584 
z
" transform="scale(0.015625)"/>
      </defs>
      <use xlink:href="#DejaVuSans-4e"/>
      <use xlink:href="#DejaVuSans-65" x="74.804688"/>
      <use xlink:href="#DejaVuSans-77" x="136.328125"/>
      <use xlink:href="#DejaVuSans-74" x="218.115234"/>
      <use xlink:href="#DejaVuSans-6f" x="257.324219"/>
      <use xlink:href="#DejaVuSans-6e" x="318.505859"/>
      <use xlink:href="#DejaVuSans-69" x="381.884766"/>
      <use xlink:href="#DejaVuSans-61" x="409.667969"/>
      <use xlink:href="#DejaVuSans-6e" x="470.947266"/>
     </g>
    </g>
    <g id="line2d_38">
     <path d="M 120.43625 331.640625 
L 140.43625 331.640625 
L 160.43625 331.640625 
" style="fill: none; stroke-dasharray: 11.1,4.8; stroke-dashoffset: 0; stroke: #000000; stroke-width: 3"/>
    </g>
    <g id="text_19">
     <!-- Power Law -->
     <g transform="translate(176.43625 338.640625)scale(0.2 -0.2)">
      <defs>
       <path id="DejaVuSans-50" d="M 1259 4147 
L 1259 2394 
L 2053 2394 
Q 2494 2394 2734 2622 
Q 2975 2850 2975 3272 
Q 2975 3691 2734 3919 
Q 2494 4147 2053 4147 
L 1259 4147 
z
M 628 4666 
L 2053 4666 
Q 2838 4666 3239 4311 
Q 3641 3956 3641 3272 
Q 3641 2581 3239 2228 
Q 2838 1875 2053 1875 
L 1259 1875 
L 1259 0 
L 628 0 
L 628 4666 
z
" transform="scale(0.015625)"/>
       <path id="DejaVuSans-72" d="M 2631 2963 
Q 2534 3019 2420 3045 
Q 2306 3072 2169 3072 
Q 1681 3072 1420 2755 
Q 1159 2438 1159 1844 
L 1159 0 
L 581 0 
L 581 3500 
L 1159 3500 
L 1159 2956 
Q 1341 3275 1631 3429 
Q 1922 3584 2338 3584 
Q 2397 3584 2469 3576 
Q 2541 3569 2628 3553 
L 2631 2963 
z
" transform="scale(0.015625)"/>
       <path id="DejaVuSans-20" transform="scale(0.015625)"/>
       <path id="DejaVuSans-4c" d="M 628 4666 
L 1259 4666 
L 1259 531 
L 3531 531 
L 3531 0 
L 628 0 
L 628 4666 
z
" transform="scale(0.015625)"/>
      </defs>
      <use xlink:href="#DejaVuSans-50"/>
      <use xlink:href="#DejaVuSans-6f" x="56.677734"/>
      <use xlink:href="#DejaVuSans-77" x="117.859375"/>
      <use xlink:href="#DejaVuSans-65" x="199.646484"/>
      <use xlink:href="#DejaVuSans-72" x="261.169922"/>
      <use xlink:href="#DejaVuSans-20" x="302.283203"/>
      <use xlink:href="#DejaVuSans-4c" x="334.070312"/>
      <use xlink:href="#DejaVuSans-61" x="389.783203"/>
      <use xlink:href="#DejaVuSans-77" x="451.0625"/>
     </g>
    </g>
   </g>
   <g id="legend_3">
    <g id="patch_9">
     <path d="M 116.43625 350.8 
L 287.301875 350.8 
Q 291.301875 350.8 291.301875 346.8 
L 291.301875 290.0875 
Q 291.301875 286.0875 287.301875 286.0875 
L 116.43625 286.0875 
Q 112.43625 286.0875 112.43625 290.0875 
L 112.43625 346.8 
Q 112.43625 350.8 116.43625 350.8 
z
" style="fill: #ffffff; opacity: 0.8; stroke: #cccccc; stroke-linejoin: miter"/>
    </g>
    <g id="line2d_39">
     <path d="M 120.43625 302.284375 
L 140.43625 302.284375 
L 160.43625 302.284375 
" style="fill: none; stroke-dasharray: 3,4.95; stroke-dashoffset: 0; stroke: #000000; stroke-width: 3"/>
    </g>
    <g id="text_20">
     <!-- Newtonian -->
     <g transform="translate(176.43625 309.284375)scale(0.2 -0.2)">
      <use xlink:href="#DejaVuSans-4e"/>
      <use xlink:href="#DejaVuSans-65" x="74.804688"/>
      <use xlink:href="#DejaVuSans-77" x="136.328125"/>
      <use xlink:href="#DejaVuSans-74" x="218.115234"/>
      <use xlink:href="#DejaVuSans-6f" x="257.324219"/>
      <use xlink:href="#DejaVuSans-6e" x="318.505859"/>
      <use xlink:href="#DejaVuSans-69" x="381.884766"/>
      <use xlink:href="#DejaVuSans-61" x="409.667969"/>
      <use xlink:href="#DejaVuSans-6e" x="470.947266"/>
     </g>
    </g>
    <g id="line2d_40">
     <path d="M 120.43625 331.640625 
L 140.43625 331.640625 
L 160.43625 331.640625 
" style="fill: none; stroke-dasharray: 11.1,4.8; stroke-dashoffset: 0; stroke: #000000; stroke-width: 3"/>
    </g>
    <g id="text_21">
     <!-- Power Law -->
     <g transform="translate(176.43625 338.640625)scale(0.2 -0.2)">
      <use xlink:href="#DejaVuSans-50"/>
      <use xlink:href="#DejaVuSans-6f" x="56.677734"/>
      <use xlink:href="#DejaVuSans-77" x="117.859375"/>
      <use xlink:href="#DejaVuSans-65" x="199.646484"/>
      <use xlink:href="#DejaVuSans-72" x="261.169922"/>
      <use xlink:href="#DejaVuSans-20" x="302.283203"/>
      <use xlink:href="#DejaVuSans-4c" x="334.070312"/>
      <use xlink:href="#DejaVuSans-61" x="389.783203"/>
      <use xlink:href="#DejaVuSans-77" x="451.0625"/>
     </g>
    </g>
   </g>
  </g>
 </g>
 <defs>
  <clipPath id="p536ff62091">
   <rect x="102.43625" y="14.4" width="382.042045" height="346.4"/>
  </clipPath>
 </defs>
</svg>
