<?xml version="1.0" encoding="utf-8" standalone="no"?>
<!DOCTYPE svg PUBLIC "-//W3C//DTD SVG 1.1//EN"
  "http://www.w3.org/Graphics/SVG/1.1/DTD/svg11.dtd">
<svg xmlns:xlink="http://www.w3.org/1999/xlink" width="506.73625pt" height="435.72625pt" viewBox="0 0 506.73625 435.72625" xmlns="http://www.w3.org/2000/svg" version="1.1">
 <metadata>
  <rdf:RDF xmlns:dc="http://purl.org/dc/elements/1.1/" xmlns:cc="http://creativecommons.org/ns#" xmlns:rdf="http://www.w3.org/1999/02/22-rdf-syntax-ns#">
   <cc:Work>
    <dc:type rdf:resource="http://purl.org/dc/dcmitype/StillImage"/>
    <dc:date>2023-05-01T12:56:26.231252</dc:date>
    <dc:format>image/svg+xml</dc:format>
    <dc:creator>
     <cc:Agent>
      <dc:title>Matplotlib v3.5.1, https://matplotlib.org/</dc:title>
     </cc:Agent>
    </dc:creator>
   </cc:Work>
  </rdf:RDF>
 </metadata>
 <defs>
  <style type="text/css">*{stroke-linejoin: round; stroke-linecap: butt}</style>
 </defs>
 <g id="figure_1">
  <g id="patch_1">
   <path d="M 0 435.72625 
L 506.73625 435.72625 
L 506.73625 0 
L 0 0 
L 0 435.72625 
z
" style="fill: none"/>
  </g>
  <g id="axes_1">
   <g id="patch_2">
    <path d="M 111.9 362 
L 492.33625 362 
L 492.33625 14.4 
L 111.9 14.4 
z
" style="fill: #ffffff"/>
   </g>
   <g id="line2d_1">
    <path d="M 129.192557 30.2 
L 475.043693 346.2 
L 475.043693 346.2 
" clip-path="url(#p49fe64b375)" style="fill: none; stroke: #ff0000; stroke-width: 3; stroke-linecap: square"/>
   </g>
   <g id="matplotlib.axis_1">
    <g id="xtick_1">
     <g id="line2d_2">
      <defs>
       <path id="m6c515c650d" d="M 0 0 
L 0 -6 
" style="stroke: #000000; stroke-width: 2"/>
      </defs>
      <g>
       <use xlink:href="#m6c515c650d" x="129.192557" y="362" style="stroke: #000000; stroke-width: 2"/>
      </g>
     </g>
     <g id="text_1">
      <!-- 0.0 -->
      <g transform="translate(110.108807 385.23625)scale(0.24 -0.24)">
       <defs>
        <path id="DejaVuSans-30" d="M 2034 4250 
Q 1547 4250 1301 3770 
Q 1056 3291 1056 2328 
Q 1056 1369 1301 889 
Q 1547 409 2034 409 
Q 2525 409 2770 889 
Q 3016 1369 3016 2328 
Q 3016 3291 2770 3770 
Q 2525 4250 2034 4250 
z
M 2034 4750 
Q 2819 4750 3233 4129 
Q 3647 3509 3647 2328 
Q 3647 1150 3233 529 
Q 2819 -91 2034 -91 
Q 1250 -91 836 529 
Q 422 1150 422 2328 
Q 422 3509 836 4129 
Q 1250 4750 2034 4750 
z
" transform="scale(0.015625)"/>
        <path id="DejaVuSans-2e" d="M 684 794 
L 1344 794 
L 1344 0 
L 684 0 
L 684 794 
z
" transform="scale(0.015625)"/>
       </defs>
       <use xlink:href="#DejaVuSans-30"/>
       <use xlink:href="#DejaVuSans-2e" x="63.623047"/>
       <use xlink:href="#DejaVuSans-30" x="95.410156"/>
      </g>
     </g>
    </g>
    <g id="xtick_2">
     <g id="line2d_3">
      <g>
       <use xlink:href="#m6c515c650d" x="267.533011" y="362" style="stroke: #000000; stroke-width: 2"/>
      </g>
     </g>
     <g id="text_2">
      <!-- 0.5 -->
      <g transform="translate(248.449261 385.23625)scale(0.24 -0.24)">
       <defs>
        <path id="DejaVuSans-35" d="M 691 4666 
L 3169 4666 
L 3169 4134 
L 1269 4134 
L 1269 2991 
Q 1406 3038 1543 3061 
Q 1681 3084 1819 3084 
Q 2600 3084 3056 2656 
Q 3513 2228 3513 1497 
Q 3513 744 3044 326 
Q 2575 -91 1722 -91 
Q 1428 -91 1123 -41 
Q 819 9 494 109 
L 494 744 
Q 775 591 1075 516 
Q 1375 441 1709 441 
Q 2250 441 2565 725 
Q 2881 1009 2881 1497 
Q 2881 1984 2565 2268 
Q 2250 2553 1709 2553 
Q 1456 2553 1204 2497 
Q 953 2441 691 2322 
L 691 4666 
z
" transform="scale(0.015625)"/>
       </defs>
       <use xlink:href="#DejaVuSans-30"/>
       <use xlink:href="#DejaVuSans-2e" x="63.623047"/>
       <use xlink:href="#DejaVuSans-35" x="95.410156"/>
      </g>
     </g>
    </g>
    <g id="xtick_3">
     <g id="line2d_4">
      <g>
       <use xlink:href="#m6c515c650d" x="405.873466" y="362" style="stroke: #000000; stroke-width: 2"/>
      </g>
     </g>
     <g id="text_3">
      <!-- 1.0 -->
      <g transform="translate(386.789716 385.23625)scale(0.24 -0.24)">
       <defs>
        <path id="DejaVuSans-31" d="M 794 531 
L 1825 531 
L 1825 4091 
L 703 3866 
L 703 4441 
L 1819 4666 
L 2450 4666 
L 2450 531 
L 3481 531 
L 3481 0 
L 794 0 
L 794 531 
z
" transform="scale(0.015625)"/>
       </defs>
       <use xlink:href="#DejaVuSans-31"/>
       <use xlink:href="#DejaVuSans-2e" x="63.623047"/>
       <use xlink:href="#DejaVuSans-30" x="95.410156"/>
      </g>
     </g>
    </g>
    <g id="text_4">
     <!-- $tu_0/L$ -->
     <g transform="translate(268.518125 415.503125)scale(0.28 -0.28)">
      <defs>
       <path id="DejaVuSans-Oblique-74" d="M 2706 3500 
L 2619 3053 
L 1472 3053 
L 1100 1153 
Q 1081 1047 1072 975 
Q 1063 903 1063 863 
Q 1063 663 1183 572 
Q 1303 481 1569 481 
L 2150 481 
L 2053 0 
L 1503 0 
Q 991 0 739 200 
Q 488 400 488 806 
Q 488 878 497 964 
Q 506 1050 525 1153 
L 897 3053 
L 409 3053 
L 500 3500 
L 978 3500 
L 1172 4494 
L 1747 4494 
L 1556 3500 
L 2706 3500 
z
" transform="scale(0.015625)"/>
       <path id="DejaVuSans-Oblique-75" d="M 428 1388 
L 838 3500 
L 1416 3500 
L 1006 1409 
Q 975 1256 961 1147 
Q 947 1038 947 966 
Q 947 700 1109 554 
Q 1272 409 1569 409 
Q 2031 409 2368 721 
Q 2706 1034 2809 1563 
L 3194 3500 
L 3769 3500 
L 3091 0 
L 2516 0 
L 2631 550 
Q 2388 244 2052 76 
Q 1716 -91 1338 -91 
Q 878 -91 622 161 
Q 366 413 366 863 
Q 366 956 381 1097 
Q 397 1238 428 1388 
z
" transform="scale(0.015625)"/>
       <path id="DejaVuSans-2f" d="M 1625 4666 
L 2156 4666 
L 531 -594 
L 0 -594 
L 1625 4666 
z
" transform="scale(0.015625)"/>
       <path id="DejaVuSans-Oblique-4c" d="M 1075 4666 
L 1709 4666 
L 909 525 
L 3181 525 
L 3078 0 
L 172 0 
L 1075 4666 
z
" transform="scale(0.015625)"/>
      </defs>
      <use xlink:href="#DejaVuSans-Oblique-74" transform="translate(0 0.09375)"/>
      <use xlink:href="#DejaVuSans-Oblique-75" transform="translate(39.208984 0.09375)"/>
      <use xlink:href="#DejaVuSans-30" transform="translate(102.587891 -16.3125)scale(0.7)"/>
      <use xlink:href="#DejaVuSans-2f" transform="translate(149.858398 0.09375)"/>
      <use xlink:href="#DejaVuSans-Oblique-4c" transform="translate(183.549805 0.09375)"/>
     </g>
    </g>
   </g>
   <g id="matplotlib.axis_2">
    <g id="ytick_1">
     <g id="line2d_5">
      <defs>
       <path id="mfce3b0c592" d="M 0 0 
L 6 0 
" style="stroke: #000000; stroke-width: 2"/>
      </defs>
      <g>
       <use xlink:href="#mfce3b0c592" x="111.9" y="325.092018" style="stroke: #000000; stroke-width: 2"/>
      </g>
     </g>
     <g id="text_5">
      <!-- $\mathdefault{10^{-8}}$ -->
      <g transform="translate(52 334.210143)scale(0.24 -0.24)">
       <defs>
        <path id="DejaVuSans-2212" d="M 678 2272 
L 4684 2272 
L 4684 1741 
L 678 1741 
L 678 2272 
z
" transform="scale(0.015625)"/>
        <path id="DejaVuSans-38" d="M 2034 2216 
Q 1584 2216 1326 1975 
Q 1069 1734 1069 1313 
Q 1069 891 1326 650 
Q 1584 409 2034 409 
Q 2484 409 2743 651 
Q 3003 894 3003 1313 
Q 3003 1734 2745 1975 
Q 2488 2216 2034 2216 
z
M 1403 2484 
Q 997 2584 770 2862 
Q 544 3141 544 3541 
Q 544 4100 942 4425 
Q 1341 4750 2034 4750 
Q 2731 4750 3128 4425 
Q 3525 4100 3525 3541 
Q 3525 3141 3298 2862 
Q 3072 2584 2669 2484 
Q 3125 2378 3379 2068 
Q 3634 1759 3634 1313 
Q 3634 634 3220 271 
Q 2806 -91 2034 -91 
Q 1263 -91 848 271 
Q 434 634 434 1313 
Q 434 1759 690 2068 
Q 947 2378 1403 2484 
z
M 1172 3481 
Q 1172 3119 1398 2916 
Q 1625 2713 2034 2713 
Q 2441 2713 2670 2916 
Q 2900 3119 2900 3481 
Q 2900 3844 2670 4047 
Q 2441 4250 2034 4250 
Q 1625 4250 1398 4047 
Q 1172 3844 1172 3481 
z
" transform="scale(0.015625)"/>
       </defs>
       <use xlink:href="#DejaVuSans-31" transform="translate(0 0.765625)"/>
       <use xlink:href="#DejaVuSans-30" transform="translate(63.623047 0.765625)"/>
       <use xlink:href="#DejaVuSans-2212" transform="translate(128.203125 39.046875)scale(0.7)"/>
       <use xlink:href="#DejaVuSans-38" transform="translate(186.855469 39.046875)scale(0.7)"/>
      </g>
     </g>
    </g>
    <g id="ytick_2">
     <g id="line2d_6">
      <g>
       <use xlink:href="#mfce3b0c592" x="111.9" y="251.369013" style="stroke: #000000; stroke-width: 2"/>
      </g>
     </g>
     <g id="text_6">
      <!-- $\mathdefault{10^{-6}}$ -->
      <g transform="translate(52 260.487138)scale(0.24 -0.24)">
       <defs>
        <path id="DejaVuSans-36" d="M 2113 2584 
Q 1688 2584 1439 2293 
Q 1191 2003 1191 1497 
Q 1191 994 1439 701 
Q 1688 409 2113 409 
Q 2538 409 2786 701 
Q 3034 994 3034 1497 
Q 3034 2003 2786 2293 
Q 2538 2584 2113 2584 
z
M 3366 4563 
L 3366 3988 
Q 3128 4100 2886 4159 
Q 2644 4219 2406 4219 
Q 1781 4219 1451 3797 
Q 1122 3375 1075 2522 
Q 1259 2794 1537 2939 
Q 1816 3084 2150 3084 
Q 2853 3084 3261 2657 
Q 3669 2231 3669 1497 
Q 3669 778 3244 343 
Q 2819 -91 2113 -91 
Q 1303 -91 875 529 
Q 447 1150 447 2328 
Q 447 3434 972 4092 
Q 1497 4750 2381 4750 
Q 2619 4750 2861 4703 
Q 3103 4656 3366 4563 
z
" transform="scale(0.015625)"/>
       </defs>
       <use xlink:href="#DejaVuSans-31" transform="translate(0 0.765625)"/>
       <use xlink:href="#DejaVuSans-30" transform="translate(63.623047 0.765625)"/>
       <use xlink:href="#DejaVuSans-2212" transform="translate(128.203125 39.046875)scale(0.7)"/>
       <use xlink:href="#DejaVuSans-36" transform="translate(186.855469 39.046875)scale(0.7)"/>
      </g>
     </g>
    </g>
    <g id="ytick_3">
     <g id="line2d_7">
      <g>
       <use xlink:href="#mfce3b0c592" x="111.9" y="177.646009" style="stroke: #000000; stroke-width: 2"/>
      </g>
     </g>
     <g id="text_7">
      <!-- $\mathdefault{10^{-4}}$ -->
      <g transform="translate(52 186.764134)scale(0.24 -0.24)">
       <defs>
        <path id="DejaVuSans-34" d="M 2419 4116 
L 825 1625 
L 2419 1625 
L 2419 4116 
z
M 2253 4666 
L 3047 4666 
L 3047 1625 
L 3713 1625 
L 3713 1100 
L 3047 1100 
L 3047 0 
L 2419 0 
L 2419 1100 
L 313 1100 
L 313 1709 
L 2253 4666 
z
" transform="scale(0.015625)"/>
       </defs>
       <use xlink:href="#DejaVuSans-31" transform="translate(0 0.684375)"/>
       <use xlink:href="#DejaVuSans-30" transform="translate(63.623047 0.684375)"/>
       <use xlink:href="#DejaVuSans-2212" transform="translate(128.203125 38.965625)scale(0.7)"/>
       <use xlink:href="#DejaVuSans-34" transform="translate(186.855469 38.965625)scale(0.7)"/>
      </g>
     </g>
    </g>
    <g id="ytick_4">
     <g id="line2d_8">
      <g>
       <use xlink:href="#mfce3b0c592" x="111.9" y="103.923004" style="stroke: #000000; stroke-width: 2"/>
      </g>
     </g>
     <g id="text_8">
      <!-- $\mathdefault{10^{-2}}$ -->
      <g transform="translate(52 113.041129)scale(0.24 -0.24)">
       <defs>
        <path id="DejaVuSans-32" d="M 1228 531 
L 3431 531 
L 3431 0 
L 469 0 
L 469 531 
Q 828 903 1448 1529 
Q 2069 2156 2228 2338 
Q 2531 2678 2651 2914 
Q 2772 3150 2772 3378 
Q 2772 3750 2511 3984 
Q 2250 4219 1831 4219 
Q 1534 4219 1204 4116 
Q 875 4013 500 3803 
L 500 4441 
Q 881 4594 1212 4672 
Q 1544 4750 1819 4750 
Q 2544 4750 2975 4387 
Q 3406 4025 3406 3419 
Q 3406 3131 3298 2873 
Q 3191 2616 2906 2266 
Q 2828 2175 2409 1742 
Q 1991 1309 1228 531 
z
" transform="scale(0.015625)"/>
       </defs>
       <use xlink:href="#DejaVuSans-31" transform="translate(0 0.765625)"/>
       <use xlink:href="#DejaVuSans-30" transform="translate(63.623047 0.765625)"/>
       <use xlink:href="#DejaVuSans-2212" transform="translate(128.203125 39.046875)scale(0.7)"/>
       <use xlink:href="#DejaVuSans-32" transform="translate(186.855469 39.046875)scale(0.7)"/>
      </g>
     </g>
    </g>
    <g id="ytick_5">
     <g id="line2d_9">
      <g>
       <use xlink:href="#mfce3b0c592" x="111.9" y="30.2" style="stroke: #000000; stroke-width: 2"/>
      </g>
     </g>
     <g id="text_9">
      <!-- $\mathdefault{10^{0}}$ -->
      <g transform="translate(66.16 39.318125)scale(0.24 -0.24)">
       <use xlink:href="#DejaVuSans-31" transform="translate(0 0.765625)"/>
       <use xlink:href="#DejaVuSans-30" transform="translate(63.623047 0.765625)"/>
       <use xlink:href="#DejaVuSans-30" transform="translate(128.203125 39.046875)scale(0.7)"/>
      </g>
     </g>
    </g>
    <g id="text_10">
     <!-- $E_k/E^0_k$ -->
     <g transform="translate(40.16 224.32)rotate(-90)scale(0.28 -0.28)">
      <defs>
       <path id="DejaVuSans-Oblique-45" d="M 1081 4666 
L 4031 4666 
L 3928 4134 
L 1606 4134 
L 1338 2753 
L 3566 2753 
L 3463 2222 
L 1234 2222 
L 909 531 
L 3284 531 
L 3181 0 
L 172 0 
L 1081 4666 
z
" transform="scale(0.015625)"/>
       <path id="DejaVuSans-Oblique-6b" d="M 1172 4863 
L 1747 4863 
L 1197 2028 
L 3169 3500 
L 3916 3500 
L 1716 1825 
L 3322 0 
L 2625 0 
L 1131 1709 
L 800 0 
L 225 0 
L 1172 4863 
z
" transform="scale(0.015625)"/>
      </defs>
      <use xlink:href="#DejaVuSans-Oblique-45" transform="translate(0 0.70625)"/>
      <use xlink:href="#DejaVuSans-Oblique-6b" transform="translate(63.183594 -15.7)scale(0.7)"/>
      <use xlink:href="#DejaVuSans-2f" transform="translate(106.455078 0.70625)"/>
      <use xlink:href="#DejaVuSans-Oblique-45" transform="translate(140.146484 0.70625)"/>
      <use xlink:href="#DejaVuSans-30" transform="translate(210.346849 40.046875)scale(0.7)"/>
      <use xlink:href="#DejaVuSans-Oblique-6b" transform="translate(203.330078 -26.6375)scale(0.7)"/>
     </g>
    </g>
   </g>
   <g id="line2d_10">
    <path d="M 129.192557 30.2 
L 132.420501 33.148165 
L 135.648445 36.099688 
L 138.876389 39.048401 
L 142.104333 41.996434 
L 145.332277 44.95013 
L 148.56022 47.897207 
L 151.788164 50.843559 
L 155.016108 53.787968 
L 158.244052 56.732756 
L 161.471996 59.670709 
L 164.69994 62.60511 
L 167.927884 65.536135 
L 171.155828 68.462647 
L 174.383772 71.381555 
L 177.611716 74.295974 
L 180.83966 77.205985 
L 184.067604 80.108391 
L 187.295548 83.005358 
L 190.523492 85.896539 
L 193.751436 88.782954 
L 196.97938 91.662541 
L 200.207323 94.53791 
L 203.435267 97.407962 
L 206.663211 100.273624 
L 209.891155 103.133997 
L 213.119099 105.990859 
L 216.347043 108.843681 
L 219.574987 111.692841 
L 222.802931 114.538502 
L 226.030875 117.380892 
L 229.258819 120.220298 
L 232.486763 123.056646 
L 235.714707 125.89041 
L 238.942651 128.721702 
L 242.170595 131.550767 
L 245.398539 134.377415 
L 248.626483 137.202196 
L 251.854427 140.024895 
L 255.08237 142.845935 
L 258.310314 145.664886 
L 261.538258 148.482531 
L 264.766202 151.298268 
L 267.994146 154.11274 
L 271.22209 156.925421 
L 274.450034 159.736784 
L 277.677978 162.54621 
L 280.905922 165.354129 
L 284.133866 168.160127 
L 287.36181 170.96429 
L 290.589754 173.766408 
L 293.817698 176.566347 
L 297.045642 179.364124 
L 300.273586 182.158974 
L 303.50153 184.951179 
L 306.729473 187.739581 
L 309.957417 190.524475 
L 313.185361 193.304305 
L 316.413305 196.079428 
L 319.641249 198.848677 
L 322.869193 201.611435 
L 326.097137 204.36589 
L 329.325081 207.111572 
L 332.553025 209.846067 
L 335.780969 212.568495 
L 339.008913 215.275414 
L 342.236857 217.96672 
L 345.464801 220.63817 
L 348.692745 223.286618 
L 351.920689 225.909333 
L 355.148633 228.502381 
L 358.376577 231.062376 
L 361.60452 233.582712 
L 364.832464 236.060279 
L 368.060408 238.486727 
L 371.288352 240.857767 
L 374.516296 243.161625 
L 377.74424 245.38974 
L 380.972184 247.535231 
L 384.200128 249.59032 
L 387.428072 251.542858 
L 390.656016 253.381312 
L 393.88396 255.09975 
L 397.111904 256.687961 
L 400.339848 258.130236 
L 403.567792 259.423396 
L 406.795736 260.557092 
L 410.02368 261.527204 
L 413.251623 262.328587 
L 416.479567 262.960819 
L 419.707511 263.414972 
L 422.935455 263.707251 
L 426.163399 263.923585 
L 429.391343 264.078814 
L 432.619287 264.179981 
L 435.847231 264.233234 
L 439.075175 264.260491 
L 442.303119 264.265648 
L 445.531063 264.264894 
L 448.759007 264.264215 
L 451.986951 264.263579 
L 455.214895 264.262976 
L 458.442839 264.262432 
L 461.670783 264.261947 
L 464.898727 264.2615 
L 468.12667 264.26107 
L 471.354614 264.260676 
L 474.582558 264.260328 
" clip-path="url(#p49fe64b375)" style="fill: none; stroke-dasharray: 11.1,4.8; stroke-dashoffset: 0; stroke: #3b528b; stroke-width: 3"/>
    <defs>
     <path id="mf57ea7613d" d="M -6 6 
L 6 6 
L 6 -6 
L -6 -6 
z
" style="stroke: #3b528b; stroke-width: 1.5; stroke-linejoin: miter"/>
    </defs>
    <g clip-path="url(#p49fe64b375)">
     <use xlink:href="#mf57ea7613d" x="129.192557" y="30.2" style="fill-opacity: 0; stroke: #3b528b; stroke-width: 1.5; stroke-linejoin: miter"/>
     <use xlink:href="#mf57ea7613d" x="193.751436" y="88.782954" style="fill-opacity: 0; stroke: #3b528b; stroke-width: 1.5; stroke-linejoin: miter"/>
     <use xlink:href="#mf57ea7613d" x="258.310314" y="145.664886" style="fill-opacity: 0; stroke: #3b528b; stroke-width: 1.5; stroke-linejoin: miter"/>
     <use xlink:href="#mf57ea7613d" x="322.869193" y="201.611435" style="fill-opacity: 0; stroke: #3b528b; stroke-width: 1.5; stroke-linejoin: miter"/>
     <use xlink:href="#mf57ea7613d" x="387.428072" y="251.542858" style="fill-opacity: 0; stroke: #3b528b; stroke-width: 1.5; stroke-linejoin: miter"/>
     <use xlink:href="#mf57ea7613d" x="451.986951" y="264.263579" style="fill-opacity: 0; stroke: #3b528b; stroke-width: 1.5; stroke-linejoin: miter"/>
    </g>
   </g>
   <g id="line2d_11">
    <path d="M 129.192557 30.2 
L 132.420501 33.149484 
L 135.648445 36.10184 
L 138.876389 39.050636 
L 142.104333 41.998362 
L 145.332277 44.948481 
L 148.56022 47.896328 
L 151.788164 50.842672 
L 155.016108 53.789745 
L 158.244052 56.736992 
L 161.471996 59.683867 
L 164.69994 62.629811 
L 167.927884 65.576231 
L 171.155828 68.523179 
L 174.383772 71.469333 
L 177.611716 74.41576 
L 180.83966 77.362574 
L 184.067604 80.309426 
L 187.295548 83.256486 
L 190.523492 86.203424 
L 193.751436 89.150781 
L 196.97938 92.098114 
L 200.207323 95.045674 
L 203.435267 97.993516 
L 206.663211 100.941832 
L 209.891155 103.890515 
L 213.119099 106.839772 
L 216.347043 109.789217 
L 219.574987 112.738851 
L 222.802931 115.688811 
L 226.030875 118.63921 
L 229.258819 121.590037 
L 232.486763 124.541235 
L 235.714707 127.492904 
L 238.942651 130.445048 
L 242.170595 133.397693 
L 245.398539 136.350863 
L 248.626483 139.30459 
L 251.854427 142.258847 
L 255.08237 145.213706 
L 258.310314 148.169227 
L 261.538258 151.125439 
L 264.766202 154.082373 
L 267.994146 157.040094 
L 271.22209 159.998653 
L 274.450034 162.958133 
L 277.677978 165.918568 
L 280.905922 168.880024 
L 284.133866 171.842597 
L 287.36181 174.806388 
L 290.589754 177.771424 
L 293.817698 180.737852 
L 297.045642 183.705792 
L 300.273586 186.675355 
L 303.50153 189.646647 
L 306.729473 192.61986 
L 309.957417 195.595142 
L 313.185361 198.572631 
L 316.413305 201.55253 
L 319.641249 204.535037 
L 322.869193 207.520448 
L 326.097137 210.508984 
L 329.325081 213.500888 
L 332.553025 216.496409 
L 335.780969 219.495973 
L 339.008913 222.499916 
L 342.236857 225.508472 
L 345.464801 228.521971 
L 348.692745 231.541046 
L 351.920689 234.566294 
L 355.148633 237.59803 
L 358.376577 240.636566 
L 361.60452 243.682364 
L 364.832464 246.736147 
L 368.060408 249.798462 
L 371.288352 252.869533 
L 374.516296 255.950675 
L 377.74424 259.043288 
L 380.972184 262.147172 
L 384.200128 265.263281 
L 387.428072 268.392544 
L 390.656016 271.535675 
L 393.88396 274.694062 
L 397.111904 277.867744 
L 400.339848 281.058359 
L 403.567792 284.268143 
L 406.795736 287.497164 
L 410.02368 290.744167 
L 413.251623 294.006192 
L 416.479567 297.284946 
L 419.707511 300.581627 
L 422.935455 303.889428 
L 426.163399 307.20091 
L 429.391343 310.508051 
L 432.619287 313.80849 
L 435.847231 317.083769 
L 439.075175 320.309467 
L 442.303119 323.452742 
L 445.531063 326.474946 
L 448.759007 329.351891 
L 451.986951 332.035916 
L 455.214895 334.449387 
L 458.442839 336.512089 
L 461.670783 338.177033 
L 464.898727 339.441378 
L 468.12667 340.377955 
L 471.354614 341.027497 
L 474.582558 341.471736 
" clip-path="url(#p49fe64b375)" style="fill: none; stroke-dasharray: 3,4.95; stroke-dashoffset: 0; stroke: #5ec962; stroke-width: 3"/>
    <defs>
     <path id="m34e809cc4f" d="M 0 6 
C 1.591219 6 3.117479 5.367802 4.242641 4.242641 
C 5.367802 3.117479 6 1.591219 6 0 
C 6 -1.591219 5.367802 -3.117479 4.242641 -4.242641 
C 3.117479 -5.367802 1.591219 -6 0 -6 
C -1.591219 -6 -3.117479 -5.367802 -4.242641 -4.242641 
C -5.367802 -3.117479 -6 -1.591219 -6 0 
C -6 1.591219 -5.367802 3.117479 -4.242641 4.242641 
C -3.117479 5.367802 -1.591219 6 0 6 
z
" style="stroke: #5ec962; stroke-width: 1.5"/>
    </defs>
    <g clip-path="url(#p49fe64b375)">
     <use xlink:href="#m34e809cc4f" x="129.192557" y="30.2" style="fill-opacity: 0; stroke: #5ec962; stroke-width: 1.5"/>
     <use xlink:href="#m34e809cc4f" x="193.751436" y="89.150781" style="fill-opacity: 0; stroke: #5ec962; stroke-width: 1.5"/>
     <use xlink:href="#m34e809cc4f" x="258.310314" y="148.169227" style="fill-opacity: 0; stroke: #5ec962; stroke-width: 1.5"/>
     <use xlink:href="#m34e809cc4f" x="322.869193" y="207.520448" style="fill-opacity: 0; stroke: #5ec962; stroke-width: 1.5"/>
     <use xlink:href="#m34e809cc4f" x="387.428072" y="268.392544" style="fill-opacity: 0; stroke: #5ec962; stroke-width: 1.5"/>
     <use xlink:href="#m34e809cc4f" x="451.986951" y="332.035916" style="fill-opacity: 0; stroke: #5ec962; stroke-width: 1.5"/>
    </g>
   </g>
   <g id="line2d_12">
    <path d="M 129.192557 30.2 
L 132.420501 33.146515 
L 135.648445 36.099244 
L 138.876389 39.048923 
L 142.104333 41.999844 
L 145.332277 44.953305 
L 148.56022 47.905606 
L 151.788164 50.857188 
L 155.016108 53.810973 
L 158.244052 56.766088 
L 161.471996 59.723725 
L 164.69994 62.684179 
L 167.927884 65.652968 
L 171.155828 68.634352 
L 174.383772 71.637128 
L 177.611716 74.674911 
L 180.83966 77.764027 
L 184.067604 80.926001 
L 187.295548 84.186253 
L 190.523492 87.574042 
L 193.751436 91.123533 
L 196.97938 94.872749 
L 200.207323 98.864147 
L 203.435267 103.146018 
L 206.663211 107.775178 
L 209.891155 112.819939 
L 213.119099 118.36756 
L 216.347043 124.534634 
L 219.574987 131.474653 
L 222.802931 139.344799 
L 226.030875 147.945362 
L 229.258819 156.54993 
L 232.486763 164.311783 
L 235.714707 168.967593 
L 238.942651 169.920299 
L 242.170595 168.636761 
L 245.398539 166.07624 
L 248.626483 162.910037 
L 251.854427 159.508347 
L 255.08237 156.326167 
L 258.310314 153.742964 
L 261.538258 151.799555 
L 264.766202 150.388621 
L 267.994146 149.414092 
L 271.22209 148.798378 
L 274.450034 148.479682 
L 277.677978 148.410795 
L 280.905922 148.555115 
L 284.133866 148.881893 
L 287.36181 149.366755 
L 290.589754 149.989058 
L 293.817698 150.731648 
L 297.045642 151.579964 
L 300.273586 152.521966 
L 303.50153 153.547151 
L 306.729473 154.646401 
L 309.957417 155.811707 
L 313.185361 157.036153 
L 316.413305 158.313591 
L 319.641249 159.638582 
L 322.869193 161.006286 
L 326.097137 162.412325 
L 329.325081 163.85281 
L 332.553025 165.324308 
L 335.780969 166.823626 
L 339.008913 168.347858 
L 342.236857 169.894382 
L 345.464801 171.460842 
L 348.692745 173.045046 
L 351.920689 174.644951 
L 355.148633 176.258706 
L 358.376577 177.884625 
L 361.60452 179.521129 
L 364.832464 181.166763 
L 368.060408 182.820128 
L 371.288352 184.479946 
L 374.516296 186.14506 
L 377.74424 187.814354 
L 380.972184 189.486752 
L 384.200128 191.161279 
L 387.428072 192.837045 
L 390.656016 194.513178 
L 393.88396 196.188853 
L 397.111904 197.863285 
L 400.339848 199.535773 
L 403.567792 201.205629 
L 406.795736 202.872191 
L 410.02368 204.534842 
L 413.251623 206.19301 
L 416.479567 207.846178 
L 419.707511 209.493818 
L 422.935455 211.135431 
L 426.163399 212.770551 
L 429.391343 214.398774 
L 432.619287 216.019715 
L 435.847231 217.63294 
L 439.075175 219.238078 
L 442.303119 220.834844 
L 445.531063 222.422928 
L 448.759007 224.001999 
L 451.986951 225.571777 
L 455.214895 227.132012 
L 458.442839 228.682517 
L 461.670783 230.223066 
L 464.898727 231.753423 
L 468.12667 233.273437 
L 471.354614 234.783008 
L 474.582558 236.281935 
" clip-path="url(#p49fe64b375)" style="fill: none; stroke-dasharray: 11.1,4.8; stroke-dashoffset: 0; stroke: #21918c; stroke-width: 3"/>
    <defs>
     <path id="m62ab519dfb" d="M -3 6 
L 0 3 
L 3 6 
L 6 3 
L 3 0 
L 6 -3 
L 3 -6 
L 0 -3 
L -3 -6 
L -6 -3 
L -3 0 
L -6 3 
z
" style="stroke: #21918c; stroke-width: 1.5; stroke-linejoin: miter"/>
    </defs>
    <g clip-path="url(#p49fe64b375)">
     <use xlink:href="#m62ab519dfb" x="129.192557" y="30.2" style="fill-opacity: 0; stroke: #21918c; stroke-width: 1.5; stroke-linejoin: miter"/>
     <use xlink:href="#m62ab519dfb" x="193.751436" y="91.123533" style="fill-opacity: 0; stroke: #21918c; stroke-width: 1.5; stroke-linejoin: miter"/>
     <use xlink:href="#m62ab519dfb" x="258.310314" y="153.742964" style="fill-opacity: 0; stroke: #21918c; stroke-width: 1.5; stroke-linejoin: miter"/>
     <use xlink:href="#m62ab519dfb" x="322.869193" y="161.006286" style="fill-opacity: 0; stroke: #21918c; stroke-width: 1.5; stroke-linejoin: miter"/>
     <use xlink:href="#m62ab519dfb" x="387.428072" y="192.837045" style="fill-opacity: 0; stroke: #21918c; stroke-width: 1.5; stroke-linejoin: miter"/>
     <use xlink:href="#m62ab519dfb" x="451.986951" y="225.571777" style="fill-opacity: 0; stroke: #21918c; stroke-width: 1.5; stroke-linejoin: miter"/>
    </g>
   </g>
   <g id="line2d_13">
    <path d="M 129.192557 30.2 
L 132.420501 33.14708 
L 135.648445 36.097251 
L 138.876389 39.045001 
L 142.104333 41.990978 
L 145.332277 44.94167 
L 148.56022 47.885955 
L 151.788164 50.830583 
L 155.016108 53.775122 
L 158.244052 56.72317 
L 161.471996 59.667717 
L 164.69994 62.61352 
L 167.927884 65.560221 
L 171.155828 68.508326 
L 174.383772 71.454362 
L 177.611716 74.401571 
L 180.83966 77.350189 
L 184.067604 80.297772 
L 187.295548 83.245921 
L 190.523492 86.193614 
L 193.751436 89.142782 
L 196.97938 92.090438 
L 200.207323 95.038952 
L 203.435267 97.987189 
L 206.663211 100.9363 
L 209.891155 103.884688 
L 213.119099 106.833703 
L 216.347043 109.782855 
L 219.574987 112.731742 
L 222.802931 115.680491 
L 226.030875 118.629351 
L 229.258819 121.578482 
L 232.486763 124.527278 
L 235.714707 127.476348 
L 238.942651 130.425271 
L 242.170595 133.37449 
L 245.398539 136.323399 
L 248.626483 139.272545 
L 251.854427 142.221538 
L 255.08237 145.170684 
L 258.310314 148.119638 
L 261.538258 151.068761 
L 264.766202 154.017847 
L 267.994146 156.966933 
L 271.22209 159.91603 
L 274.450034 162.865107 
L 277.677978 165.814307 
L 280.905922 168.763352 
L 284.133866 171.712507 
L 287.36181 174.661587 
L 290.589754 177.610735 
L 293.817698 180.559785 
L 297.045642 183.508879 
L 300.273586 186.457951 
L 303.50153 189.407032 
L 306.729473 192.356068 
L 309.957417 195.305123 
L 313.185361 198.254179 
L 316.413305 201.203185 
L 319.641249 204.152217 
L 322.869193 207.101178 
L 326.097137 210.050167 
L 329.325081 212.999075 
L 332.553025 215.947954 
L 335.780969 218.896757 
L 339.008913 221.84553 
L 342.236857 224.794247 
L 345.464801 227.742865 
L 348.692745 230.691358 
L 351.920689 233.639658 
L 355.148633 236.588027 
L 358.376577 239.536063 
L 361.60452 242.484102 
L 364.832464 245.43174 
L 368.060408 248.379312 
L 371.288352 251.326493 
L 374.516296 254.273291 
L 377.74424 257.219502 
L 380.972184 260.165264 
L 384.200128 263.110376 
L 387.428072 266.054839 
L 390.656016 268.9984 
L 393.88396 271.940997 
L 397.111904 274.882529 
L 400.339848 277.822496 
L 403.567792 280.760716 
L 406.795736 283.697144 
L 410.02368 286.631633 
L 413.251623 289.562654 
L 416.479567 292.490856 
L 419.707511 295.414652 
L 422.935455 298.334221 
L 426.163399 301.247585 
L 429.391343 304.155858 
L 432.619287 307.056631 
L 435.847231 309.949726 
L 439.075175 312.831246 
L 442.303119 315.700092 
L 445.531063 318.555635 
L 448.759007 321.394474 
L 451.986951 324.214126 
L 455.214895 327.009378 
L 458.442839 329.779689 
L 461.670783 332.518975 
L 464.898727 335.224542 
L 468.12667 337.8858 
L 471.354614 340.497709 
L 474.582558 343.053699 
" clip-path="url(#p49fe64b375)" style="fill: none; stroke-dasharray: 3,4.95; stroke-dashoffset: 0; stroke: #440154; stroke-width: 3"/>
    <defs>
     <path id="m041865003f" d="M -0 8.485281 
L 5.091169 0 
L 0 -8.485281 
L -5.091169 -0 
z
" style="stroke: #440154; stroke-width: 1.5; stroke-linejoin: miter"/>
    </defs>
    <g clip-path="url(#p49fe64b375)">
     <use xlink:href="#m041865003f" x="129.192557" y="30.2" style="fill-opacity: 0; stroke: #440154; stroke-width: 1.5; stroke-linejoin: miter"/>
     <use xlink:href="#m041865003f" x="193.751436" y="89.142782" style="fill-opacity: 0; stroke: #440154; stroke-width: 1.5; stroke-linejoin: miter"/>
     <use xlink:href="#m041865003f" x="258.310314" y="148.119638" style="fill-opacity: 0; stroke: #440154; stroke-width: 1.5; stroke-linejoin: miter"/>
     <use xlink:href="#m041865003f" x="322.869193" y="207.101178" style="fill-opacity: 0; stroke: #440154; stroke-width: 1.5; stroke-linejoin: miter"/>
     <use xlink:href="#m041865003f" x="387.428072" y="266.054839" style="fill-opacity: 0; stroke: #440154; stroke-width: 1.5; stroke-linejoin: miter"/>
     <use xlink:href="#m041865003f" x="451.986951" y="324.214126" style="fill-opacity: 0; stroke: #440154; stroke-width: 1.5; stroke-linejoin: miter"/>
    </g>
   </g>
   <g id="line2d_14">
    <path d="M 129.192557 30.2 
L 132.420501 33.146515 
L 135.648445 36.099244 
L 138.876389 39.048923 
L 142.104333 41.999844 
L 145.332277 44.953305 
L 148.56022 47.905606 
L 151.788164 50.857188 
L 155.016108 53.810973 
L 158.244052 56.766088 
L 161.471996 59.723725 
L 164.69994 62.684179 
L 167.927884 65.652968 
L 171.155828 68.634352 
L 174.383772 71.637128 
L 177.611716 74.674911 
L 180.83966 77.764027 
L 184.067604 80.926001 
L 187.295548 84.186253 
L 190.523492 87.574042 
L 193.751436 91.123533 
L 196.97938 94.872749 
L 200.207323 98.864147 
L 203.435267 103.146018 
L 206.663211 107.775178 
L 209.891155 112.819939 
L 213.119099 118.36756 
L 216.347043 124.534634 
L 219.574987 131.474653 
L 222.802931 139.344799 
L 226.030875 147.945362 
L 229.258819 156.54993 
L 232.486763 164.311783 
L 235.714707 168.967593 
L 238.942651 169.920299 
L 242.170595 168.636761 
L 245.398539 166.07624 
L 248.626483 162.910037 
L 251.854427 159.508347 
L 255.08237 156.326167 
L 258.310314 153.742964 
L 261.538258 151.799555 
L 264.766202 150.388621 
L 267.994146 149.414092 
L 271.22209 148.798378 
L 274.450034 148.479682 
L 277.677978 148.410795 
L 280.905922 148.555115 
L 284.133866 148.881893 
L 287.36181 149.366755 
L 290.589754 149.989058 
L 293.817698 150.731648 
L 297.045642 151.579964 
L 300.273586 152.521966 
L 303.50153 153.547151 
L 306.729473 154.646401 
L 309.957417 155.811707 
L 313.185361 157.036153 
L 316.413305 158.313591 
L 319.641249 159.638582 
L 322.869193 161.006286 
L 326.097137 162.412325 
L 329.325081 163.85281 
L 332.553025 165.324308 
L 335.780969 166.823626 
L 339.008913 168.347858 
L 342.236857 169.894382 
L 345.464801 171.460842 
L 348.692745 173.045046 
L 351.920689 174.644951 
L 355.148633 176.258706 
L 358.376577 177.884625 
L 361.60452 179.521129 
L 364.832464 181.166763 
L 368.060408 182.820128 
L 371.288352 184.479946 
L 374.516296 186.14506 
L 377.74424 187.814354 
L 380.972184 189.486752 
L 384.200128 191.161279 
L 387.428072 192.837045 
L 390.656016 194.513178 
L 393.88396 196.188853 
L 397.111904 197.863285 
L 400.339848 199.535773 
L 403.567792 201.205629 
L 406.795736 202.872191 
L 410.02368 204.534842 
L 413.251623 206.19301 
L 416.479567 207.846178 
L 419.707511 209.493818 
L 422.935455 211.135431 
L 426.163399 212.770551 
L 429.391343 214.398774 
L 432.619287 216.019715 
L 435.847231 217.63294 
L 439.075175 219.238078 
L 442.303119 220.834844 
L 445.531063 222.422928 
L 448.759007 224.001999 
L 451.986951 225.571777 
L 455.214895 227.132012 
L 458.442839 228.682517 
L 461.670783 230.223066 
L 464.898727 231.753423 
L 468.12667 233.273437 
L 471.354614 234.783008 
L 474.582558 236.281935 
" clip-path="url(#p49fe64b375)" style="fill: none; stroke-dasharray: 11.1,4.8; stroke-dashoffset: 0; stroke: #5ec962; stroke-width: 3"/>
    <g clip-path="url(#p49fe64b375)">
     <use xlink:href="#m34e809cc4f" x="129.192557" y="30.2" style="fill-opacity: 0; stroke: #5ec962; stroke-width: 1.5"/>
     <use xlink:href="#m34e809cc4f" x="193.751436" y="91.123533" style="fill-opacity: 0; stroke: #5ec962; stroke-width: 1.5"/>
     <use xlink:href="#m34e809cc4f" x="258.310314" y="153.742964" style="fill-opacity: 0; stroke: #5ec962; stroke-width: 1.5"/>
     <use xlink:href="#m34e809cc4f" x="322.869193" y="161.006286" style="fill-opacity: 0; stroke: #5ec962; stroke-width: 1.5"/>
     <use xlink:href="#m34e809cc4f" x="387.428072" y="192.837045" style="fill-opacity: 0; stroke: #5ec962; stroke-width: 1.5"/>
     <use xlink:href="#m34e809cc4f" x="451.986951" y="225.571777" style="fill-opacity: 0; stroke: #5ec962; stroke-width: 1.5"/>
    </g>
   </g>
   <g id="line2d_15">
    <path d="M 129.192557 30.2 
L 132.420501 33.147997 
L 135.648445 36.098314 
L 138.876389 39.045857 
L 142.104333 41.991807 
L 145.332277 44.943116 
L 148.56022 47.888371 
L 151.788164 50.833781 
L 155.016108 53.778649 
L 158.244052 56.726377 
L 161.471996 59.670097 
L 164.69994 62.614619 
L 167.927884 65.559763 
L 171.155828 68.506 
L 174.383772 71.449961 
L 177.611716 74.39491 
L 180.83966 77.341163 
L 184.067604 80.286263 
L 187.295548 83.231786 
L 190.523492 86.176854 
L 193.751436 89.123352 
L 196.97938 92.068288 
L 200.207323 95.014058 
L 203.435267 97.959586 
L 206.663211 100.905978 
L 209.891155 103.851678 
L 213.119099 106.798043 
L 216.347043 109.744531 
L 219.574987 112.690824 
L 222.802931 115.63696 
L 226.030875 118.583275 
L 229.258819 121.529913 
L 232.486763 124.476206 
L 235.714707 127.422783 
L 238.942651 130.369252 
L 242.170595 133.316082 
L 245.398539 136.262556 
L 248.626483 139.209289 
L 251.854427 142.155884 
L 255.08237 145.102654 
L 258.310314 148.049226 
L 261.538258 150.99599 
L 264.766202 153.942644 
L 267.994146 156.889406 
L 271.22209 159.836061 
L 274.450034 162.782799 
L 277.677978 165.729507 
L 280.905922 168.67617 
L 284.133866 171.622827 
L 287.36181 174.569437 
L 290.589754 177.51607 
L 293.817698 180.462551 
L 297.045642 183.409095 
L 300.273586 186.355512 
L 303.50153 189.301941 
L 306.729473 192.248168 
L 309.957417 195.194385 
L 313.185361 198.140373 
L 316.413305 201.086339 
L 319.641249 204.032083 
L 322.869193 206.97761 
L 326.097137 209.92285 
L 329.325081 212.867845 
L 332.553025 215.812488 
L 335.780969 218.756607 
L 339.008913 221.700304 
L 342.236857 224.643185 
L 345.464801 227.585639 
L 348.692745 230.526848 
L 351.920689 233.467619 
L 355.148633 236.406793 
L 358.376577 239.344928 
L 361.60452 242.281088 
L 364.832464 245.215321 
L 368.060408 248.146892 
L 371.288352 251.076022 
L 374.516296 254.001386 
L 377.74424 256.922955 
L 380.972184 259.839734 
L 384.200128 262.750828 
L 387.428072 265.655515 
L 390.656016 268.552165 
L 393.88396 271.440358 
L 397.111904 274.318985 
L 400.339848 277.186797 
L 403.567792 280.039975 
L 406.795736 282.875161 
L 410.02368 285.690388 
L 413.251623 288.483297 
L 416.479567 291.250433 
L 419.707511 293.987171 
L 422.935455 296.685509 
L 426.163399 299.34649 
L 429.391343 301.959247 
L 432.619287 304.515731 
L 435.847231 307.011474 
L 439.075175 309.436548 
L 442.303119 311.782396 
L 445.531063 314.036009 
L 448.759007 316.189842 
L 451.986951 318.230071 
L 455.214895 320.150264 
L 458.442839 321.932532 
L 461.670783 323.569006 
L 464.898727 325.045494 
L 468.12667 326.361533 
L 471.354614 327.499388 
L 474.582558 328.45785 
" clip-path="url(#p49fe64b375)" style="fill: none; stroke-dasharray: 3,4.95; stroke-dashoffset: 0; stroke: #3b528b; stroke-width: 3"/>
    <g clip-path="url(#p49fe64b375)">
     <use xlink:href="#mf57ea7613d" x="129.192557" y="30.2" style="fill-opacity: 0; stroke: #3b528b; stroke-width: 1.5; stroke-linejoin: miter"/>
     <use xlink:href="#mf57ea7613d" x="193.751436" y="89.123352" style="fill-opacity: 0; stroke: #3b528b; stroke-width: 1.5; stroke-linejoin: miter"/>
     <use xlink:href="#mf57ea7613d" x="258.310314" y="148.049226" style="fill-opacity: 0; stroke: #3b528b; stroke-width: 1.5; stroke-linejoin: miter"/>
     <use xlink:href="#mf57ea7613d" x="322.869193" y="206.97761" style="fill-opacity: 0; stroke: #3b528b; stroke-width: 1.5; stroke-linejoin: miter"/>
     <use xlink:href="#mf57ea7613d" x="387.428072" y="265.655515" style="fill-opacity: 0; stroke: #3b528b; stroke-width: 1.5; stroke-linejoin: miter"/>
     <use xlink:href="#mf57ea7613d" x="451.986951" y="318.230071" style="fill-opacity: 0; stroke: #3b528b; stroke-width: 1.5; stroke-linejoin: miter"/>
    </g>
   </g>
   <g id="line2d_16">
    <path d="M 129.192557 30.2 
L 132.420501 33.145398 
L 135.648445 36.093708 
L 138.876389 39.038517 
L 142.104333 41.981318 
L 145.332277 44.927662 
L 148.56022 47.863977 
L 151.788164 50.795086 
L 155.016108 53.719218 
L 158.244052 56.639137 
L 161.471996 59.54811 
L 164.69994 62.45038 
L 167.927884 65.347623 
L 171.155828 68.239716 
L 174.383772 71.124829 
L 177.611716 74.007055 
L 180.83966 76.887226 
L 184.067604 79.762848 
L 187.295548 82.636539 
L 190.523492 85.508357 
L 193.751436 88.379325 
L 196.97938 91.247963 
L 200.207323 94.11641 
L 203.435267 96.983818 
L 206.663211 99.850799 
L 209.891155 102.716826 
L 213.119099 105.582901 
L 216.347043 108.448857 
L 219.574987 111.31455 
L 222.802931 114.180199 
L 226.030875 117.045705 
L 229.258819 119.911306 
L 232.486763 122.776643 
L 235.714707 125.641918 
L 238.942651 128.507404 
L 242.170595 131.37281 
L 245.398539 134.238283 
L 248.626483 137.103519 
L 251.854427 139.969245 
L 255.08237 142.834414 
L 258.310314 145.69986 
L 261.538258 148.564937 
L 264.766202 151.430202 
L 267.994146 154.295122 
L 271.22209 157.159947 
L 274.450034 160.024769 
L 277.677978 162.889147 
L 280.905922 165.753612 
L 284.133866 168.617531 
L 287.36181 171.481387 
L 290.589754 174.344535 
L 293.817698 177.207675 
L 297.045642 180.069775 
L 300.273586 182.931437 
L 303.50153 185.792202 
L 306.729473 188.651827 
L 309.957417 191.510347 
L 313.185361 194.367365 
L 316.413305 197.222822 
L 319.641249 200.076482 
L 322.869193 202.92817 
L 326.097137 205.776928 
L 329.325081 208.622975 
L 332.553025 211.46468 
L 335.780969 214.302525 
L 339.008913 217.135111 
L 342.236857 219.962583 
L 345.464801 222.783156 
L 348.692745 225.59627 
L 351.920689 228.399234 
L 355.148633 231.191367 
L 358.376577 233.970644 
L 361.60452 236.735189 
L 364.832464 239.482692 
L 368.060408 242.207595 
L 371.288352 244.907456 
L 374.516296 247.580487 
L 377.74424 250.222748 
L 380.972184 252.828928 
L 384.200128 255.393292 
L 387.428072 257.907099 
L 390.656016 260.366739 
L 393.88396 262.758051 
L 397.111904 265.076264 
L 400.339848 267.313558 
L 403.567792 269.458425 
L 406.795736 271.500406 
L 410.02368 273.427059 
L 413.251623 275.227526 
L 416.479567 276.887124 
L 419.707511 278.399494 
L 422.935455 279.754608 
L 426.163399 280.939094 
L 429.391343 281.943466 
L 432.619287 282.772001 
L 435.847231 283.418776 
L 439.075175 283.87414 
L 442.303119 284.190475 
L 445.531063 284.449091 
L 448.759007 284.653314 
L 451.986951 284.811981 
L 455.214895 284.926427 
L 458.442839 285.000418 
L 461.670783 285.040574 
L 464.898727 285.049154 
L 468.12667 285.048313 
L 471.354614 285.047546 
L 474.582558 285.046851 
" clip-path="url(#p49fe64b375)" style="fill: none; stroke-dasharray: 11.1,4.8; stroke-dashoffset: 0; stroke: #440154; stroke-width: 3"/>
    <g clip-path="url(#p49fe64b375)">
     <use xlink:href="#m041865003f" x="129.192557" y="30.2" style="fill-opacity: 0; stroke: #440154; stroke-width: 1.5; stroke-linejoin: miter"/>
     <use xlink:href="#m041865003f" x="193.751436" y="88.379325" style="fill-opacity: 0; stroke: #440154; stroke-width: 1.5; stroke-linejoin: miter"/>
     <use xlink:href="#m041865003f" x="258.310314" y="145.69986" style="fill-opacity: 0; stroke: #440154; stroke-width: 1.5; stroke-linejoin: miter"/>
     <use xlink:href="#m041865003f" x="322.869193" y="202.92817" style="fill-opacity: 0; stroke: #440154; stroke-width: 1.5; stroke-linejoin: miter"/>
     <use xlink:href="#m041865003f" x="387.428072" y="257.907099" style="fill-opacity: 0; stroke: #440154; stroke-width: 1.5; stroke-linejoin: miter"/>
     <use xlink:href="#m041865003f" x="451.986951" y="284.811981" style="fill-opacity: 0; stroke: #440154; stroke-width: 1.5; stroke-linejoin: miter"/>
    </g>
   </g>
   <g id="line2d_17">
    <path d="M 129.192557 30.2 
L 132.420501 33.149484 
L 135.648445 36.10184 
L 138.876389 39.050636 
L 142.104333 41.998362 
L 145.332277 44.948481 
L 148.56022 47.896328 
L 151.788164 50.842672 
L 155.016108 53.789745 
L 158.244052 56.736992 
L 161.471996 59.683867 
L 164.69994 62.629811 
L 167.927884 65.576231 
L 171.155828 68.523179 
L 174.383772 71.469333 
L 177.611716 74.41576 
L 180.83966 77.362574 
L 184.067604 80.309426 
L 187.295548 83.256486 
L 190.523492 86.203424 
L 193.751436 89.150781 
L 196.97938 92.098114 
L 200.207323 95.045674 
L 203.435267 97.993516 
L 206.663211 100.941832 
L 209.891155 103.890515 
L 213.119099 106.839772 
L 216.347043 109.789217 
L 219.574987 112.738851 
L 222.802931 115.688811 
L 226.030875 118.63921 
L 229.258819 121.590037 
L 232.486763 124.541235 
L 235.714707 127.492904 
L 238.942651 130.445048 
L 242.170595 133.397693 
L 245.398539 136.350863 
L 248.626483 139.30459 
L 251.854427 142.258847 
L 255.08237 145.213706 
L 258.310314 148.169227 
L 261.538258 151.125439 
L 264.766202 154.082373 
L 267.994146 157.040094 
L 271.22209 159.998653 
L 274.450034 162.958133 
L 277.677978 165.918568 
L 280.905922 168.880024 
L 284.133866 171.842597 
L 287.36181 174.806388 
L 290.589754 177.771424 
L 293.817698 180.737852 
L 297.045642 183.705792 
L 300.273586 186.675355 
L 303.50153 189.646647 
L 306.729473 192.61986 
L 309.957417 195.595142 
L 313.185361 198.572631 
L 316.413305 201.55253 
L 319.641249 204.535037 
L 322.869193 207.520448 
L 326.097137 210.508984 
L 329.325081 213.500888 
L 332.553025 216.496409 
L 335.780969 219.495973 
L 339.008913 222.499916 
L 342.236857 225.508472 
L 345.464801 228.521971 
L 348.692745 231.541046 
L 351.920689 234.566294 
L 355.148633 237.59803 
L 358.376577 240.636566 
L 361.60452 243.682364 
L 364.832464 246.736147 
L 368.060408 249.798462 
L 371.288352 252.869533 
L 374.516296 255.950675 
L 377.74424 259.043288 
L 380.972184 262.147172 
L 384.200128 265.263281 
L 387.428072 268.392544 
L 390.656016 271.535675 
L 393.88396 274.694062 
L 397.111904 277.867744 
L 400.339848 281.058359 
L 403.567792 284.268143 
L 406.795736 287.497164 
L 410.02368 290.744167 
L 413.251623 294.006192 
L 416.479567 297.284946 
L 419.707511 300.581627 
L 422.935455 303.889428 
L 426.163399 307.20091 
L 429.391343 310.508051 
L 432.619287 313.80849 
L 435.847231 317.083769 
L 439.075175 320.309467 
L 442.303119 323.452742 
L 445.531063 326.474946 
L 448.759007 329.351891 
L 451.986951 332.035916 
L 455.214895 334.449387 
L 458.442839 336.512089 
L 461.670783 338.177033 
L 464.898727 339.441378 
L 468.12667 340.377955 
L 471.354614 341.027497 
L 474.582558 341.471736 
" clip-path="url(#p49fe64b375)" style="fill: none; stroke-dasharray: 3,4.95; stroke-dashoffset: 0; stroke: #21918c; stroke-width: 3"/>
    <g clip-path="url(#p49fe64b375)">
     <use xlink:href="#m62ab519dfb" x="129.192557" y="30.2" style="fill-opacity: 0; stroke: #21918c; stroke-width: 1.5; stroke-linejoin: miter"/>
     <use xlink:href="#m62ab519dfb" x="193.751436" y="89.150781" style="fill-opacity: 0; stroke: #21918c; stroke-width: 1.5; stroke-linejoin: miter"/>
     <use xlink:href="#m62ab519dfb" x="258.310314" y="148.169227" style="fill-opacity: 0; stroke: #21918c; stroke-width: 1.5; stroke-linejoin: miter"/>
     <use xlink:href="#m62ab519dfb" x="322.869193" y="207.520448" style="fill-opacity: 0; stroke: #21918c; stroke-width: 1.5; stroke-linejoin: miter"/>
     <use xlink:href="#m62ab519dfb" x="387.428072" y="268.392544" style="fill-opacity: 0; stroke: #21918c; stroke-width: 1.5; stroke-linejoin: miter"/>
     <use xlink:href="#m62ab519dfb" x="451.986951" y="332.035916" style="fill-opacity: 0; stroke: #21918c; stroke-width: 1.5; stroke-linejoin: miter"/>
    </g>
   </g>
   <g id="patch_3">
    <path d="M 111.9 362 
L 111.9 14.4 
" style="fill: none; stroke: #000000; stroke-width: 2; stroke-linejoin: miter; stroke-linecap: square"/>
   </g>
   <g id="patch_4">
    <path d="M 492.33625 362 
L 492.33625 14.4 
" style="fill: none; stroke: #000000; stroke-width: 2; stroke-linejoin: miter; stroke-linecap: square"/>
   </g>
   <g id="patch_5">
    <path d="M 111.9 362 
L 492.33625 362 
" style="fill: none; stroke: #000000; stroke-width: 2; stroke-linejoin: miter; stroke-linecap: square"/>
   </g>
   <g id="patch_6">
    <path d="M 111.9 14.4 
L 492.33625 14.4 
" style="fill: none; stroke: #000000; stroke-width: 2; stroke-linejoin: miter; stroke-linecap: square"/>
   </g>
   <g id="legend_1">
    <g id="patch_7">
     <path d="M 125.9 352 
L 270.3 352 
Q 274.3 352 274.3 348 
L 274.3 203.21875 
Q 274.3 199.21875 270.3 199.21875 
L 125.9 199.21875 
Q 121.9 199.21875 121.9 203.21875 
L 121.9 348 
Q 121.9 352 125.9 352 
z
" style="fill: #ffffff; opacity: 0.8; stroke: #cccccc; stroke-linejoin: miter"/>
    </g>
    <g id="line2d_18">
     <path d="M 129.9 215.415625 
L 149.9 215.415625 
L 169.9 215.415625 
" style="fill: none; stroke: #5ec962; stroke-width: 3; stroke-linecap: square"/>
     <g>
      <use xlink:href="#m34e809cc4f" x="149.9" y="215.415625" style="fill-opacity: 0; stroke: #5ec962; stroke-width: 1.5"/>
     </g>
    </g>
    <g id="text_11">
     <!-- Quintic -->
     <g transform="translate(185.9 222.415625)scale(0.2 -0.2)">
      <defs>
       <path id="DejaVuSans-51" d="M 2522 4238 
Q 1834 4238 1429 3725 
Q 1025 3213 1025 2328 
Q 1025 1447 1429 934 
Q 1834 422 2522 422 
Q 3209 422 3611 934 
Q 4013 1447 4013 2328 
Q 4013 3213 3611 3725 
Q 3209 4238 2522 4238 
z
M 3406 84 
L 4238 -825 
L 3475 -825 
L 2784 -78 
Q 2681 -84 2626 -87 
Q 2572 -91 2522 -91 
Q 1538 -91 948 567 
Q 359 1225 359 2328 
Q 359 3434 948 4092 
Q 1538 4750 2522 4750 
Q 3503 4750 4090 4092 
Q 4678 3434 4678 2328 
Q 4678 1516 4351 937 
Q 4025 359 3406 84 
z
" transform="scale(0.015625)"/>
       <path id="DejaVuSans-75" d="M 544 1381 
L 544 3500 
L 1119 3500 
L 1119 1403 
Q 1119 906 1312 657 
Q 1506 409 1894 409 
Q 2359 409 2629 706 
Q 2900 1003 2900 1516 
L 2900 3500 
L 3475 3500 
L 3475 0 
L 2900 0 
L 2900 538 
Q 2691 219 2414 64 
Q 2138 -91 1772 -91 
Q 1169 -91 856 284 
Q 544 659 544 1381 
z
M 1991 3584 
L 1991 3584 
z
" transform="scale(0.015625)"/>
       <path id="DejaVuSans-69" d="M 603 3500 
L 1178 3500 
L 1178 0 
L 603 0 
L 603 3500 
z
M 603 4863 
L 1178 4863 
L 1178 4134 
L 603 4134 
L 603 4863 
z
" transform="scale(0.015625)"/>
       <path id="DejaVuSans-6e" d="M 3513 2113 
L 3513 0 
L 2938 0 
L 2938 2094 
Q 2938 2591 2744 2837 
Q 2550 3084 2163 3084 
Q 1697 3084 1428 2787 
Q 1159 2491 1159 1978 
L 1159 0 
L 581 0 
L 581 3500 
L 1159 3500 
L 1159 2956 
Q 1366 3272 1645 3428 
Q 1925 3584 2291 3584 
Q 2894 3584 3203 3211 
Q 3513 2838 3513 2113 
z
" transform="scale(0.015625)"/>
       <path id="DejaVuSans-74" d="M 1172 4494 
L 1172 3500 
L 2356 3500 
L 2356 3053 
L 1172 3053 
L 1172 1153 
Q 1172 725 1289 603 
Q 1406 481 1766 481 
L 2356 481 
L 2356 0 
L 1766 0 
Q 1100 0 847 248 
Q 594 497 594 1153 
L 594 3053 
L 172 3053 
L 172 3500 
L 594 3500 
L 594 4494 
L 1172 4494 
z
" transform="scale(0.015625)"/>
       <path id="DejaVuSans-63" d="M 3122 3366 
L 3122 2828 
Q 2878 2963 2633 3030 
Q 2388 3097 2138 3097 
Q 1578 3097 1268 2742 
Q 959 2388 959 1747 
Q 959 1106 1268 751 
Q 1578 397 2138 397 
Q 2388 397 2633 464 
Q 2878 531 3122 666 
L 3122 134 
Q 2881 22 2623 -34 
Q 2366 -91 2075 -91 
Q 1284 -91 818 406 
Q 353 903 353 1747 
Q 353 2603 823 3093 
Q 1294 3584 2113 3584 
Q 2378 3584 2631 3529 
Q 2884 3475 3122 3366 
z
" transform="scale(0.015625)"/>
      </defs>
      <use xlink:href="#DejaVuSans-51"/>
      <use xlink:href="#DejaVuSans-75" x="78.710938"/>
      <use xlink:href="#DejaVuSans-69" x="142.089844"/>
      <use xlink:href="#DejaVuSans-6e" x="169.873047"/>
      <use xlink:href="#DejaVuSans-74" x="233.251953"/>
      <use xlink:href="#DejaVuSans-69" x="272.460938"/>
      <use xlink:href="#DejaVuSans-63" x="300.244141"/>
     </g>
    </g>
    <g id="line2d_19">
     <path d="M 129.9 244.771875 
L 149.9 244.771875 
L 169.9 244.771875 
" style="fill: none; stroke: #21918c; stroke-width: 3; stroke-linecap: square"/>
     <g>
      <use xlink:href="#m62ab519dfb" x="149.9" y="244.771875" style="fill-opacity: 0; stroke: #21918c; stroke-width: 1.5; stroke-linejoin: miter"/>
     </g>
    </g>
    <g id="text_12">
     <!-- RK0 -->
     <g transform="translate(185.9 251.771875)scale(0.2 -0.2)">
      <defs>
       <path id="DejaVuSans-52" d="M 2841 2188 
Q 3044 2119 3236 1894 
Q 3428 1669 3622 1275 
L 4263 0 
L 3584 0 
L 2988 1197 
Q 2756 1666 2539 1819 
Q 2322 1972 1947 1972 
L 1259 1972 
L 1259 0 
L 628 0 
L 628 4666 
L 2053 4666 
Q 2853 4666 3247 4331 
Q 3641 3997 3641 3322 
Q 3641 2881 3436 2590 
Q 3231 2300 2841 2188 
z
M 1259 4147 
L 1259 2491 
L 2053 2491 
Q 2509 2491 2742 2702 
Q 2975 2913 2975 3322 
Q 2975 3731 2742 3939 
Q 2509 4147 2053 4147 
L 1259 4147 
z
" transform="scale(0.015625)"/>
       <path id="DejaVuSans-4b" d="M 628 4666 
L 1259 4666 
L 1259 2694 
L 3353 4666 
L 4166 4666 
L 1850 2491 
L 4331 0 
L 3500 0 
L 1259 2247 
L 1259 0 
L 628 0 
L 628 4666 
z
" transform="scale(0.015625)"/>
      </defs>
      <use xlink:href="#DejaVuSans-52"/>
      <use xlink:href="#DejaVuSans-4b" x="69.482422"/>
      <use xlink:href="#DejaVuSans-30" x="135.058594"/>
     </g>
    </g>
    <g id="line2d_20">
     <path d="M 129.9 274.128125 
L 149.9 274.128125 
L 169.9 274.128125 
" style="fill: none; stroke: #3b528b; stroke-width: 3; stroke-linecap: square"/>
     <g>
      <use xlink:href="#mf57ea7613d" x="149.9" y="274.128125" style="fill-opacity: 0; stroke: #3b528b; stroke-width: 1.5; stroke-linejoin: miter"/>
     </g>
    </g>
    <g id="text_13">
     <!-- RK1 -->
     <g transform="translate(185.9 281.128125)scale(0.2 -0.2)">
      <use xlink:href="#DejaVuSans-52"/>
      <use xlink:href="#DejaVuSans-4b" x="69.482422"/>
      <use xlink:href="#DejaVuSans-31" x="135.058594"/>
     </g>
    </g>
    <g id="line2d_21">
     <path d="M 129.9 303.484375 
L 149.9 303.484375 
L 169.9 303.484375 
" style="fill: none; stroke: #440154; stroke-width: 3; stroke-linecap: square"/>
     <g>
      <use xlink:href="#m041865003f" x="149.9" y="303.484375" style="fill-opacity: 0; stroke: #440154; stroke-width: 1.5; stroke-linejoin: miter"/>
     </g>
    </g>
    <g id="text_14">
     <!-- RK2 -->
     <g transform="translate(185.9 310.484375)scale(0.2 -0.2)">
      <use xlink:href="#DejaVuSans-52"/>
      <use xlink:href="#DejaVuSans-4b" x="69.482422"/>
      <use xlink:href="#DejaVuSans-32" x="135.058594"/>
     </g>
    </g>
    <g id="line2d_22">
     <path d="M 129.9 332.840625 
L 149.9 332.840625 
L 169.9 332.840625 
" style="fill: none; stroke: #ff0000; stroke-width: 3; stroke-linecap: square"/>
    </g>
    <g id="text_15">
     <!-- Analytic -->
     <g transform="translate(185.9 339.840625)scale(0.2 -0.2)">
      <defs>
       <path id="DejaVuSans-41" d="M 2188 4044 
L 1331 1722 
L 3047 1722 
L 2188 4044 
z
M 1831 4666 
L 2547 4666 
L 4325 0 
L 3669 0 
L 3244 1197 
L 1141 1197 
L 716 0 
L 50 0 
L 1831 4666 
z
" transform="scale(0.015625)"/>
       <path id="DejaVuSans-61" d="M 2194 1759 
Q 1497 1759 1228 1600 
Q 959 1441 959 1056 
Q 959 750 1161 570 
Q 1363 391 1709 391 
Q 2188 391 2477 730 
Q 2766 1069 2766 1631 
L 2766 1759 
L 2194 1759 
z
M 3341 1997 
L 3341 0 
L 2766 0 
L 2766 531 
Q 2569 213 2275 61 
Q 1981 -91 1556 -91 
Q 1019 -91 701 211 
Q 384 513 384 1019 
Q 384 1609 779 1909 
Q 1175 2209 1959 2209 
L 2766 2209 
L 2766 2266 
Q 2766 2663 2505 2880 
Q 2244 3097 1772 3097 
Q 1472 3097 1187 3025 
Q 903 2953 641 2809 
L 641 3341 
Q 956 3463 1253 3523 
Q 1550 3584 1831 3584 
Q 2591 3584 2966 3190 
Q 3341 2797 3341 1997 
z
" transform="scale(0.015625)"/>
       <path id="DejaVuSans-6c" d="M 603 4863 
L 1178 4863 
L 1178 0 
L 603 0 
L 603 4863 
z
" transform="scale(0.015625)"/>
       <path id="DejaVuSans-79" d="M 2059 -325 
Q 1816 -950 1584 -1140 
Q 1353 -1331 966 -1331 
L 506 -1331 
L 506 -850 
L 844 -850 
Q 1081 -850 1212 -737 
Q 1344 -625 1503 -206 
L 1606 56 
L 191 3500 
L 800 3500 
L 1894 763 
L 2988 3500 
L 3597 3500 
L 2059 -325 
z
" transform="scale(0.015625)"/>
      </defs>
      <use xlink:href="#DejaVuSans-41"/>
      <use xlink:href="#DejaVuSans-6e" x="68.408203"/>
      <use xlink:href="#DejaVuSans-61" x="131.787109"/>
      <use xlink:href="#DejaVuSans-6c" x="193.066406"/>
      <use xlink:href="#DejaVuSans-79" x="220.849609"/>
      <use xlink:href="#DejaVuSans-74" x="280.029297"/>
      <use xlink:href="#DejaVuSans-69" x="319.238281"/>
      <use xlink:href="#DejaVuSans-63" x="347.021484"/>
     </g>
    </g>
   </g>
   <g id="legend_2">
    <g id="patch_8">
     <path d="M 301.7675 89.1125 
L 478.33625 89.1125 
Q 482.33625 89.1125 482.33625 85.1125 
L 482.33625 28.4 
Q 482.33625 24.4 478.33625 24.4 
L 301.7675 24.4 
Q 297.7675 24.4 297.7675 28.4 
L 297.7675 85.1125 
Q 297.7675 89.1125 301.7675 89.1125 
z
" style="fill: #ffffff; opacity: 0.8; stroke: #cccccc; stroke-linejoin: miter"/>
    </g>
    <g id="line2d_23">
     <path d="M 305.7675 40.596875 
L 325.7675 40.596875 
L 345.7675 40.596875 
" style="fill: none; stroke-dasharray: 3,4.95; stroke-dashoffset: 0; stroke: #000000; stroke-width: 3"/>
    </g>
    <g id="text_16">
     <!-- Shifting On -->
     <g transform="translate(361.7675 47.596875)scale(0.2 -0.2)">
      <defs>
       <path id="DejaVuSans-53" d="M 3425 4513 
L 3425 3897 
Q 3066 4069 2747 4153 
Q 2428 4238 2131 4238 
Q 1616 4238 1336 4038 
Q 1056 3838 1056 3469 
Q 1056 3159 1242 3001 
Q 1428 2844 1947 2747 
L 2328 2669 
Q 3034 2534 3370 2195 
Q 3706 1856 3706 1288 
Q 3706 609 3251 259 
Q 2797 -91 1919 -91 
Q 1588 -91 1214 -16 
Q 841 59 441 206 
L 441 856 
Q 825 641 1194 531 
Q 1563 422 1919 422 
Q 2459 422 2753 634 
Q 3047 847 3047 1241 
Q 3047 1584 2836 1778 
Q 2625 1972 2144 2069 
L 1759 2144 
Q 1053 2284 737 2584 
Q 422 2884 422 3419 
Q 422 4038 858 4394 
Q 1294 4750 2059 4750 
Q 2388 4750 2728 4690 
Q 3069 4631 3425 4513 
z
" transform="scale(0.015625)"/>
       <path id="DejaVuSans-68" d="M 3513 2113 
L 3513 0 
L 2938 0 
L 2938 2094 
Q 2938 2591 2744 2837 
Q 2550 3084 2163 3084 
Q 1697 3084 1428 2787 
Q 1159 2491 1159 1978 
L 1159 0 
L 581 0 
L 581 4863 
L 1159 4863 
L 1159 2956 
Q 1366 3272 1645 3428 
Q 1925 3584 2291 3584 
Q 2894 3584 3203 3211 
Q 3513 2838 3513 2113 
z
" transform="scale(0.015625)"/>
       <path id="DejaVuSans-66" d="M 2375 4863 
L 2375 4384 
L 1825 4384 
Q 1516 4384 1395 4259 
Q 1275 4134 1275 3809 
L 1275 3500 
L 2222 3500 
L 2222 3053 
L 1275 3053 
L 1275 0 
L 697 0 
L 697 3053 
L 147 3053 
L 147 3500 
L 697 3500 
L 697 3744 
Q 697 4328 969 4595 
Q 1241 4863 1831 4863 
L 2375 4863 
z
" transform="scale(0.015625)"/>
       <path id="DejaVuSans-67" d="M 2906 1791 
Q 2906 2416 2648 2759 
Q 2391 3103 1925 3103 
Q 1463 3103 1205 2759 
Q 947 2416 947 1791 
Q 947 1169 1205 825 
Q 1463 481 1925 481 
Q 2391 481 2648 825 
Q 2906 1169 2906 1791 
z
M 3481 434 
Q 3481 -459 3084 -895 
Q 2688 -1331 1869 -1331 
Q 1566 -1331 1297 -1286 
Q 1028 -1241 775 -1147 
L 775 -588 
Q 1028 -725 1275 -790 
Q 1522 -856 1778 -856 
Q 2344 -856 2625 -561 
Q 2906 -266 2906 331 
L 2906 616 
Q 2728 306 2450 153 
Q 2172 0 1784 0 
Q 1141 0 747 490 
Q 353 981 353 1791 
Q 353 2603 747 3093 
Q 1141 3584 1784 3584 
Q 2172 3584 2450 3431 
Q 2728 3278 2906 2969 
L 2906 3500 
L 3481 3500 
L 3481 434 
z
" transform="scale(0.015625)"/>
       <path id="DejaVuSans-20" transform="scale(0.015625)"/>
       <path id="DejaVuSans-4f" d="M 2522 4238 
Q 1834 4238 1429 3725 
Q 1025 3213 1025 2328 
Q 1025 1447 1429 934 
Q 1834 422 2522 422 
Q 3209 422 3611 934 
Q 4013 1447 4013 2328 
Q 4013 3213 3611 3725 
Q 3209 4238 2522 4238 
z
M 2522 4750 
Q 3503 4750 4090 4092 
Q 4678 3434 4678 2328 
Q 4678 1225 4090 567 
Q 3503 -91 2522 -91 
Q 1538 -91 948 565 
Q 359 1222 359 2328 
Q 359 3434 948 4092 
Q 1538 4750 2522 4750 
z
" transform="scale(0.015625)"/>
      </defs>
      <use xlink:href="#DejaVuSans-53"/>
      <use xlink:href="#DejaVuSans-68" x="63.476562"/>
      <use xlink:href="#DejaVuSans-69" x="126.855469"/>
      <use xlink:href="#DejaVuSans-66" x="154.638672"/>
      <use xlink:href="#DejaVuSans-74" x="188.09375"/>
      <use xlink:href="#DejaVuSans-69" x="227.302734"/>
      <use xlink:href="#DejaVuSans-6e" x="255.085938"/>
      <use xlink:href="#DejaVuSans-67" x="318.464844"/>
      <use xlink:href="#DejaVuSans-20" x="381.941406"/>
      <use xlink:href="#DejaVuSans-4f" x="413.728516"/>
      <use xlink:href="#DejaVuSans-6e" x="492.439453"/>
     </g>
    </g>
    <g id="line2d_24">
     <path d="M 305.7675 69.953125 
L 325.7675 69.953125 
L 345.7675 69.953125 
" style="fill: none; stroke-dasharray: 11.1,4.8; stroke-dashoffset: 0; stroke: #000000; stroke-width: 3"/>
    </g>
    <g id="text_17">
     <!-- Shifting Off -->
     <g transform="translate(361.7675 76.953125)scale(0.2 -0.2)">
      <use xlink:href="#DejaVuSans-53"/>
      <use xlink:href="#DejaVuSans-68" x="63.476562"/>
      <use xlink:href="#DejaVuSans-69" x="126.855469"/>
      <use xlink:href="#DejaVuSans-66" x="154.638672"/>
      <use xlink:href="#DejaVuSans-74" x="188.09375"/>
      <use xlink:href="#DejaVuSans-69" x="227.302734"/>
      <use xlink:href="#DejaVuSans-6e" x="255.085938"/>
      <use xlink:href="#DejaVuSans-67" x="318.464844"/>
      <use xlink:href="#DejaVuSans-20" x="381.941406"/>
      <use xlink:href="#DejaVuSans-4f" x="413.728516"/>
      <use xlink:href="#DejaVuSans-66" x="492.439453"/>
      <use xlink:href="#DejaVuSans-66" x="527.644531"/>
     </g>
    </g>
   </g>
   <g id="legend_3">
    <g id="patch_9">
     <path d="M 301.7675 89.1125 
L 478.33625 89.1125 
Q 482.33625 89.1125 482.33625 85.1125 
L 482.33625 28.4 
Q 482.33625 24.4 478.33625 24.4 
L 301.7675 24.4 
Q 297.7675 24.4 297.7675 28.4 
L 297.7675 85.1125 
Q 297.7675 89.1125 301.7675 89.1125 
z
" style="fill: #ffffff; opacity: 0.8; stroke: #cccccc; stroke-linejoin: miter"/>
    </g>
    <g id="line2d_25">
     <path d="M 305.7675 40.596875 
L 325.7675 40.596875 
L 345.7675 40.596875 
" style="fill: none; stroke-dasharray: 3,4.95; stroke-dashoffset: 0; stroke: #000000; stroke-width: 3"/>
    </g>
    <g id="text_18">
     <!-- Shifting On -->
     <g transform="translate(361.7675 47.596875)scale(0.2 -0.2)">
      <use xlink:href="#DejaVuSans-53"/>
      <use xlink:href="#DejaVuSans-68" x="63.476562"/>
      <use xlink:href="#DejaVuSans-69" x="126.855469"/>
      <use xlink:href="#DejaVuSans-66" x="154.638672"/>
      <use xlink:href="#DejaVuSans-74" x="188.09375"/>
      <use xlink:href="#DejaVuSans-69" x="227.302734"/>
      <use xlink:href="#DejaVuSans-6e" x="255.085938"/>
      <use xlink:href="#DejaVuSans-67" x="318.464844"/>
      <use xlink:href="#DejaVuSans-20" x="381.941406"/>
      <use xlink:href="#DejaVuSans-4f" x="413.728516"/>
      <use xlink:href="#DejaVuSans-6e" x="492.439453"/>
     </g>
    </g>
    <g id="line2d_26">
     <path d="M 305.7675 69.953125 
L 325.7675 69.953125 
L 345.7675 69.953125 
" style="fill: none; stroke-dasharray: 11.1,4.8; stroke-dashoffset: 0; stroke: #000000; stroke-width: 3"/>
    </g>
    <g id="text_19">
     <!-- Shifting Off -->
     <g transform="translate(361.7675 76.953125)scale(0.2 -0.2)">
      <use xlink:href="#DejaVuSans-53"/>
      <use xlink:href="#DejaVuSans-68" x="63.476562"/>
      <use xlink:href="#DejaVuSans-69" x="126.855469"/>
      <use xlink:href="#DejaVuSans-66" x="154.638672"/>
      <use xlink:href="#DejaVuSans-74" x="188.09375"/>
      <use xlink:href="#DejaVuSans-69" x="227.302734"/>
      <use xlink:href="#DejaVuSans-6e" x="255.085938"/>
      <use xlink:href="#DejaVuSans-67" x="318.464844"/>
      <use xlink:href="#DejaVuSans-20" x="381.941406"/>
      <use xlink:href="#DejaVuSans-4f" x="413.728516"/>
      <use xlink:href="#DejaVuSans-66" x="492.439453"/>
      <use xlink:href="#DejaVuSans-66" x="527.644531"/>
     </g>
    </g>
   </g>
  </g>
 </g>
 <defs>
  <clipPath id="p49fe64b375">
   <rect x="111.9" y="14.4" width="380.43625" height="347.6"/>
  </clipPath>
 </defs>
</svg>
