<?xml version="1.0" encoding="utf-8" standalone="no"?>
<!DOCTYPE svg PUBLIC "-//W3C//DTD SVG 1.1//EN"
  "http://www.w3.org/Graphics/SVG/1.1/DTD/svg11.dtd">
<svg xmlns:xlink="http://www.w3.org/1999/xlink" width="479.86125pt" height="435.72625pt" viewBox="0 0 479.86125 435.72625" xmlns="http://www.w3.org/2000/svg" version="1.1">
 <metadata>
  <rdf:RDF xmlns:dc="http://purl.org/dc/elements/1.1/" xmlns:cc="http://creativecommons.org/ns#" xmlns:rdf="http://www.w3.org/1999/02/22-rdf-syntax-ns#">
   <cc:Work>
    <dc:type rdf:resource="http://purl.org/dc/dcmitype/StillImage"/>
    <dc:date>2023-05-01T11:57:10.713246</dc:date>
    <dc:format>image/svg+xml</dc:format>
    <dc:creator>
     <cc:Agent>
      <dc:title>Matplotlib v3.5.1, https://matplotlib.org/</dc:title>
     </cc:Agent>
    </dc:creator>
   </cc:Work>
  </rdf:RDF>
 </metadata>
 <defs>
  <style type="text/css">*{stroke-linejoin: round; stroke-linecap: butt}</style>
 </defs>
 <g id="figure_1">
  <g id="patch_1">
   <path d="M 0 435.72625 
L 479.86125 435.72625 
L 479.86125 0 
L 0 0 
L 0 435.72625 
z
" style="fill: none"/>
  </g>
  <g id="axes_1">
   <g id="patch_2">
    <path d="M 111.9 362 
L 465.46125 362 
L 465.46125 14.4 
L 111.9 14.4 
z
" style="fill: #ffffff"/>
   </g>
   <g id="line2d_1">
    <path d="M 111.9 30.2 
L 465.46125 346.2 
L 465.46125 346.2 
" clip-path="url(#p1ee73b1598)" style="fill: none; stroke: #ff0000; stroke-width: 3; stroke-linecap: square"/>
   </g>
   <g id="matplotlib.axis_1">
    <g id="xtick_1">
     <g id="line2d_2">
      <defs>
       <path id="mbef2731af7" d="M 0 0 
L 0 -6 
" style="stroke: #000000; stroke-width: 2"/>
      </defs>
      <g>
       <use xlink:href="#mbef2731af7" x="111.9" y="362" style="stroke: #000000; stroke-width: 2"/>
      </g>
     </g>
     <g id="text_1">
      <!-- 0.0 -->
      <g transform="translate(92.81625 385.23625)scale(0.24 -0.24)">
       <defs>
        <path id="DejaVuSans-30" d="M 2034 4250 
Q 1547 4250 1301 3770 
Q 1056 3291 1056 2328 
Q 1056 1369 1301 889 
Q 1547 409 2034 409 
Q 2525 409 2770 889 
Q 3016 1369 3016 2328 
Q 3016 3291 2770 3770 
Q 2525 4250 2034 4250 
z
M 2034 4750 
Q 2819 4750 3233 4129 
Q 3647 3509 3647 2328 
Q 3647 1150 3233 529 
Q 2819 -91 2034 -91 
Q 1250 -91 836 529 
Q 422 1150 422 2328 
Q 422 3509 836 4129 
Q 1250 4750 2034 4750 
z
" transform="scale(0.015625)"/>
        <path id="DejaVuSans-2e" d="M 684 794 
L 1344 794 
L 1344 0 
L 684 0 
L 684 794 
z
" transform="scale(0.015625)"/>
       </defs>
       <use xlink:href="#DejaVuSans-30"/>
       <use xlink:href="#DejaVuSans-2e" x="63.623047"/>
       <use xlink:href="#DejaVuSans-30" x="95.410156"/>
      </g>
     </g>
    </g>
    <g id="xtick_2">
     <g id="line2d_3">
      <g>
       <use xlink:href="#mbef2731af7" x="253.3245" y="362" style="stroke: #000000; stroke-width: 2"/>
      </g>
     </g>
     <g id="text_2">
      <!-- 0.5 -->
      <g transform="translate(234.24075 385.23625)scale(0.24 -0.24)">
       <defs>
        <path id="DejaVuSans-35" d="M 691 4666 
L 3169 4666 
L 3169 4134 
L 1269 4134 
L 1269 2991 
Q 1406 3038 1543 3061 
Q 1681 3084 1819 3084 
Q 2600 3084 3056 2656 
Q 3513 2228 3513 1497 
Q 3513 744 3044 326 
Q 2575 -91 1722 -91 
Q 1428 -91 1123 -41 
Q 819 9 494 109 
L 494 744 
Q 775 591 1075 516 
Q 1375 441 1709 441 
Q 2250 441 2565 725 
Q 2881 1009 2881 1497 
Q 2881 1984 2565 2268 
Q 2250 2553 1709 2553 
Q 1456 2553 1204 2497 
Q 953 2441 691 2322 
L 691 4666 
z
" transform="scale(0.015625)"/>
       </defs>
       <use xlink:href="#DejaVuSans-30"/>
       <use xlink:href="#DejaVuSans-2e" x="63.623047"/>
       <use xlink:href="#DejaVuSans-35" x="95.410156"/>
      </g>
     </g>
    </g>
    <g id="xtick_3">
     <g id="line2d_4">
      <g>
       <use xlink:href="#mbef2731af7" x="394.749" y="362" style="stroke: #000000; stroke-width: 2"/>
      </g>
     </g>
     <g id="text_3">
      <!-- 1.0 -->
      <g transform="translate(375.66525 385.23625)scale(0.24 -0.24)">
       <defs>
        <path id="DejaVuSans-31" d="M 794 531 
L 1825 531 
L 1825 4091 
L 703 3866 
L 703 4441 
L 1819 4666 
L 2450 4666 
L 2450 531 
L 3481 531 
L 3481 0 
L 794 0 
L 794 531 
z
" transform="scale(0.015625)"/>
       </defs>
       <use xlink:href="#DejaVuSans-31"/>
       <use xlink:href="#DejaVuSans-2e" x="63.623047"/>
       <use xlink:href="#DejaVuSans-30" x="95.410156"/>
      </g>
     </g>
    </g>
    <g id="text_4">
     <!-- $tu_0/L$ -->
     <g transform="translate(255.080625 415.503125)scale(0.28 -0.28)">
      <defs>
       <path id="DejaVuSans-Oblique-74" d="M 2706 3500 
L 2619 3053 
L 1472 3053 
L 1100 1153 
Q 1081 1047 1072 975 
Q 1063 903 1063 863 
Q 1063 663 1183 572 
Q 1303 481 1569 481 
L 2150 481 
L 2053 0 
L 1503 0 
Q 991 0 739 200 
Q 488 400 488 806 
Q 488 878 497 964 
Q 506 1050 525 1153 
L 897 3053 
L 409 3053 
L 500 3500 
L 978 3500 
L 1172 4494 
L 1747 4494 
L 1556 3500 
L 2706 3500 
z
" transform="scale(0.015625)"/>
       <path id="DejaVuSans-Oblique-75" d="M 428 1388 
L 838 3500 
L 1416 3500 
L 1006 1409 
Q 975 1256 961 1147 
Q 947 1038 947 966 
Q 947 700 1109 554 
Q 1272 409 1569 409 
Q 2031 409 2368 721 
Q 2706 1034 2809 1563 
L 3194 3500 
L 3769 3500 
L 3091 0 
L 2516 0 
L 2631 550 
Q 2388 244 2052 76 
Q 1716 -91 1338 -91 
Q 878 -91 622 161 
Q 366 413 366 863 
Q 366 956 381 1097 
Q 397 1238 428 1388 
z
" transform="scale(0.015625)"/>
       <path id="DejaVuSans-2f" d="M 1625 4666 
L 2156 4666 
L 531 -594 
L 0 -594 
L 1625 4666 
z
" transform="scale(0.015625)"/>
       <path id="DejaVuSans-Oblique-4c" d="M 1075 4666 
L 1709 4666 
L 909 525 
L 3181 525 
L 3078 0 
L 172 0 
L 1075 4666 
z
" transform="scale(0.015625)"/>
      </defs>
      <use xlink:href="#DejaVuSans-Oblique-74" transform="translate(0 0.09375)"/>
      <use xlink:href="#DejaVuSans-Oblique-75" transform="translate(39.208984 0.09375)"/>
      <use xlink:href="#DejaVuSans-30" transform="translate(102.587891 -16.3125)scale(0.7)"/>
      <use xlink:href="#DejaVuSans-2f" transform="translate(149.858398 0.09375)"/>
      <use xlink:href="#DejaVuSans-Oblique-4c" transform="translate(183.549805 0.09375)"/>
     </g>
    </g>
   </g>
   <g id="matplotlib.axis_2">
    <g id="ytick_1">
     <g id="line2d_5">
      <defs>
       <path id="m0111345081" d="M 0 0 
L 6 0 
" style="stroke: #000000; stroke-width: 2"/>
      </defs>
      <g>
       <use xlink:href="#m0111345081" x="111.9" y="325.092018" style="stroke: #000000; stroke-width: 2"/>
      </g>
     </g>
     <g id="text_5">
      <!-- $\mathdefault{10^{-8}}$ -->
      <g transform="translate(52 334.210143)scale(0.24 -0.24)">
       <defs>
        <path id="DejaVuSans-2212" d="M 678 2272 
L 4684 2272 
L 4684 1741 
L 678 1741 
L 678 2272 
z
" transform="scale(0.015625)"/>
        <path id="DejaVuSans-38" d="M 2034 2216 
Q 1584 2216 1326 1975 
Q 1069 1734 1069 1313 
Q 1069 891 1326 650 
Q 1584 409 2034 409 
Q 2484 409 2743 651 
Q 3003 894 3003 1313 
Q 3003 1734 2745 1975 
Q 2488 2216 2034 2216 
z
M 1403 2484 
Q 997 2584 770 2862 
Q 544 3141 544 3541 
Q 544 4100 942 4425 
Q 1341 4750 2034 4750 
Q 2731 4750 3128 4425 
Q 3525 4100 3525 3541 
Q 3525 3141 3298 2862 
Q 3072 2584 2669 2484 
Q 3125 2378 3379 2068 
Q 3634 1759 3634 1313 
Q 3634 634 3220 271 
Q 2806 -91 2034 -91 
Q 1263 -91 848 271 
Q 434 634 434 1313 
Q 434 1759 690 2068 
Q 947 2378 1403 2484 
z
M 1172 3481 
Q 1172 3119 1398 2916 
Q 1625 2713 2034 2713 
Q 2441 2713 2670 2916 
Q 2900 3119 2900 3481 
Q 2900 3844 2670 4047 
Q 2441 4250 2034 4250 
Q 1625 4250 1398 4047 
Q 1172 3844 1172 3481 
z
" transform="scale(0.015625)"/>
       </defs>
       <use xlink:href="#DejaVuSans-31" transform="translate(0 0.765625)"/>
       <use xlink:href="#DejaVuSans-30" transform="translate(63.623047 0.765625)"/>
       <use xlink:href="#DejaVuSans-2212" transform="translate(128.203125 39.046875)scale(0.7)"/>
       <use xlink:href="#DejaVuSans-38" transform="translate(186.855469 39.046875)scale(0.7)"/>
      </g>
     </g>
    </g>
    <g id="ytick_2">
     <g id="line2d_6">
      <g>
       <use xlink:href="#m0111345081" x="111.9" y="251.369013" style="stroke: #000000; stroke-width: 2"/>
      </g>
     </g>
     <g id="text_6">
      <!-- $\mathdefault{10^{-6}}$ -->
      <g transform="translate(52 260.487138)scale(0.24 -0.24)">
       <defs>
        <path id="DejaVuSans-36" d="M 2113 2584 
Q 1688 2584 1439 2293 
Q 1191 2003 1191 1497 
Q 1191 994 1439 701 
Q 1688 409 2113 409 
Q 2538 409 2786 701 
Q 3034 994 3034 1497 
Q 3034 2003 2786 2293 
Q 2538 2584 2113 2584 
z
M 3366 4563 
L 3366 3988 
Q 3128 4100 2886 4159 
Q 2644 4219 2406 4219 
Q 1781 4219 1451 3797 
Q 1122 3375 1075 2522 
Q 1259 2794 1537 2939 
Q 1816 3084 2150 3084 
Q 2853 3084 3261 2657 
Q 3669 2231 3669 1497 
Q 3669 778 3244 343 
Q 2819 -91 2113 -91 
Q 1303 -91 875 529 
Q 447 1150 447 2328 
Q 447 3434 972 4092 
Q 1497 4750 2381 4750 
Q 2619 4750 2861 4703 
Q 3103 4656 3366 4563 
z
" transform="scale(0.015625)"/>
       </defs>
       <use xlink:href="#DejaVuSans-31" transform="translate(0 0.765625)"/>
       <use xlink:href="#DejaVuSans-30" transform="translate(63.623047 0.765625)"/>
       <use xlink:href="#DejaVuSans-2212" transform="translate(128.203125 39.046875)scale(0.7)"/>
       <use xlink:href="#DejaVuSans-36" transform="translate(186.855469 39.046875)scale(0.7)"/>
      </g>
     </g>
    </g>
    <g id="ytick_3">
     <g id="line2d_7">
      <g>
       <use xlink:href="#m0111345081" x="111.9" y="177.646009" style="stroke: #000000; stroke-width: 2"/>
      </g>
     </g>
     <g id="text_7">
      <!-- $\mathdefault{10^{-4}}$ -->
      <g transform="translate(52 186.764134)scale(0.24 -0.24)">
       <defs>
        <path id="DejaVuSans-34" d="M 2419 4116 
L 825 1625 
L 2419 1625 
L 2419 4116 
z
M 2253 4666 
L 3047 4666 
L 3047 1625 
L 3713 1625 
L 3713 1100 
L 3047 1100 
L 3047 0 
L 2419 0 
L 2419 1100 
L 313 1100 
L 313 1709 
L 2253 4666 
z
" transform="scale(0.015625)"/>
       </defs>
       <use xlink:href="#DejaVuSans-31" transform="translate(0 0.684375)"/>
       <use xlink:href="#DejaVuSans-30" transform="translate(63.623047 0.684375)"/>
       <use xlink:href="#DejaVuSans-2212" transform="translate(128.203125 38.965625)scale(0.7)"/>
       <use xlink:href="#DejaVuSans-34" transform="translate(186.855469 38.965625)scale(0.7)"/>
      </g>
     </g>
    </g>
    <g id="ytick_4">
     <g id="line2d_8">
      <g>
       <use xlink:href="#m0111345081" x="111.9" y="103.923004" style="stroke: #000000; stroke-width: 2"/>
      </g>
     </g>
     <g id="text_8">
      <!-- $\mathdefault{10^{-2}}$ -->
      <g transform="translate(52 113.041129)scale(0.24 -0.24)">
       <defs>
        <path id="DejaVuSans-32" d="M 1228 531 
L 3431 531 
L 3431 0 
L 469 0 
L 469 531 
Q 828 903 1448 1529 
Q 2069 2156 2228 2338 
Q 2531 2678 2651 2914 
Q 2772 3150 2772 3378 
Q 2772 3750 2511 3984 
Q 2250 4219 1831 4219 
Q 1534 4219 1204 4116 
Q 875 4013 500 3803 
L 500 4441 
Q 881 4594 1212 4672 
Q 1544 4750 1819 4750 
Q 2544 4750 2975 4387 
Q 3406 4025 3406 3419 
Q 3406 3131 3298 2873 
Q 3191 2616 2906 2266 
Q 2828 2175 2409 1742 
Q 1991 1309 1228 531 
z
" transform="scale(0.015625)"/>
       </defs>
       <use xlink:href="#DejaVuSans-31" transform="translate(0 0.765625)"/>
       <use xlink:href="#DejaVuSans-30" transform="translate(63.623047 0.765625)"/>
       <use xlink:href="#DejaVuSans-2212" transform="translate(128.203125 39.046875)scale(0.7)"/>
       <use xlink:href="#DejaVuSans-32" transform="translate(186.855469 39.046875)scale(0.7)"/>
      </g>
     </g>
    </g>
    <g id="ytick_5">
     <g id="line2d_9">
      <g>
       <use xlink:href="#m0111345081" x="111.9" y="30.2" style="stroke: #000000; stroke-width: 2"/>
      </g>
     </g>
     <g id="text_9">
      <!-- $\mathdefault{10^{0}}$ -->
      <g transform="translate(66.16 39.318125)scale(0.24 -0.24)">
       <use xlink:href="#DejaVuSans-31" transform="translate(0 0.765625)"/>
       <use xlink:href="#DejaVuSans-30" transform="translate(63.623047 0.765625)"/>
       <use xlink:href="#DejaVuSans-30" transform="translate(128.203125 39.046875)scale(0.7)"/>
      </g>
     </g>
    </g>
    <g id="text_10">
     <!-- $E_k/E^0_k$ -->
     <g transform="translate(40.16 224.32)rotate(-90)scale(0.28 -0.28)">
      <defs>
       <path id="DejaVuSans-Oblique-45" d="M 1081 4666 
L 4031 4666 
L 3928 4134 
L 1606 4134 
L 1338 2753 
L 3566 2753 
L 3463 2222 
L 1234 2222 
L 909 531 
L 3284 531 
L 3181 0 
L 172 0 
L 1081 4666 
z
" transform="scale(0.015625)"/>
       <path id="DejaVuSans-Oblique-6b" d="M 1172 4863 
L 1747 4863 
L 1197 2028 
L 3169 3500 
L 3916 3500 
L 1716 1825 
L 3322 0 
L 2625 0 
L 1131 1709 
L 800 0 
L 225 0 
L 1172 4863 
z
" transform="scale(0.015625)"/>
      </defs>
      <use xlink:href="#DejaVuSans-Oblique-45" transform="translate(0 0.70625)"/>
      <use xlink:href="#DejaVuSans-Oblique-6b" transform="translate(63.183594 -15.7)scale(0.7)"/>
      <use xlink:href="#DejaVuSans-2f" transform="translate(106.455078 0.70625)"/>
      <use xlink:href="#DejaVuSans-Oblique-45" transform="translate(140.146484 0.70625)"/>
      <use xlink:href="#DejaVuSans-30" transform="translate(210.346849 40.046875)scale(0.7)"/>
      <use xlink:href="#DejaVuSans-Oblique-6b" transform="translate(203.330078 -26.6375)scale(0.7)"/>
     </g>
    </g>
   </g>
   <g id="line2d_10">
    <path d="M 111.9 30.2 
L 114.72849 32.726685 
L 117.55698 35.25514 
L 120.38547 37.78371 
L 123.21396 40.31498 
L 126.04245 42.839872 
L 128.87094 45.364358 
L 131.69943 47.887799 
L 134.52792 50.409507 
L 137.35641 52.937879 
L 140.1849 55.471667 
L 143.01339 58.014631 
L 145.84188 60.56474 
L 148.67037 63.119967 
L 151.49886 65.68103 
L 154.32735 68.245676 
L 157.15584 70.811529 
L 159.98433 73.37909 
L 162.81282 75.947578 
L 165.64131 78.515761 
L 168.4698 81.0837 
L 171.29829 83.651689 
L 174.12678 86.219472 
L 176.95527 88.786855 
L 179.78376 91.353923 
L 182.61225 93.921179 
L 185.44074 96.488738 
L 188.26923 99.056626 
L 191.09772 101.625074 
L 193.92621 104.194327 
L 196.7547 106.764691 
L 199.58319 109.336475 
L 202.41168 111.909889 
L 205.24017 114.485224 
L 208.06866 117.062761 
L 210.89715 119.642789 
L 213.72564 122.225647 
L 216.55413 124.811638 
L 219.38262 127.401146 
L 222.21111 129.994541 
L 225.0396 132.592174 
L 227.86809 135.194496 
L 230.69658 137.801939 
L 233.52507 140.414977 
L 236.35356 143.03413 
L 239.18205 145.659945 
L 242.01054 148.292996 
L 244.83903 150.933933 
L 247.66752 153.583433 
L 250.49601 156.242251 
L 253.3245 158.911199 
L 256.15299 161.59115 
L 258.98148 164.28307 
L 261.80997 166.98799 
L 264.63846 169.707047 
L 267.46695 172.441493 
L 270.29544 175.192693 
L 273.12393 177.962139 
L 275.95242 180.751485 
L 278.78091 183.562548 
L 281.6094 186.397333 
L 284.43789 189.258077 
L 287.26638 192.147188 
L 290.09487 195.067438 
L 292.92336 198.021938 
L 295.75185 201.014072 
L 298.58034 204.047767 
L 301.40883 207.127399 
L 304.23732 210.257986 
L 307.06581 213.445183 
L 309.8943 216.695439 
L 312.72279 220.01626 
L 315.55128 223.416264 
L 318.37977 226.905476 
L 321.20826 230.495421 
L 324.03675 234.199761 
L 326.86524 238.034726 
L 329.69373 242.019429 
L 332.52222 246.177197 
L 335.35071 250.535033 
L 338.1792 255.124903 
L 341.00769 259.984489 
L 343.83618 265.154054 
L 346.66467 270.669021 
L 349.49316 276.535667 
L 352.32165 282.659289 
L 355.15014 288.693807 
L 357.97863 293.916815 
L 360.80712 297.358298 
L 363.63561 298.224265 
L 366.4641 296.644259 
L 369.29259 293.672029 
L 372.12108 290.30518 
L 374.94957 287.053091 
L 377.77806 284.090522 
L 380.60655 281.456722 
L 383.43504 279.136067 
L 386.26353 277.097406 
L 389.09202 275.307147 
L 391.92051 273.732566 
L 394.749 272.345203 
L 397.57749 271.120528 
L 400.40598 270.037911 
L 403.23447 269.079511 
L 406.06296 268.230175 
L 408.89145 267.476969 
L 411.71994 266.808923 
L 414.54843 266.216599 
L 417.37692 265.691753 
L 420.20541 265.227176 
L 423.0339 264.816612 
L 425.86239 264.454615 
L 428.69088 264.136392 
L 431.51937 263.857691 
L 434.34786 263.614692 
L 437.17635 263.404008 
L 440.00484 263.222653 
L 442.83333 263.06799 
L 445.66182 262.937609 
L 448.49031 262.82928 
L 451.3188 262.741035 
L 454.14729 262.67113 
L 456.97578 262.617984 
L 459.80427 262.580144 
L 462.63276 262.556276 
L 465.46125 262.545143 
" clip-path="url(#p1ee73b1598)" style="fill: none; stroke-dasharray: 3,4.95; stroke-dashoffset: 0; stroke: #5ec962; stroke-width: 3"/>
    <defs>
     <path id="med342db2fe" d="M 0 6 
C 1.591219 6 3.117479 5.367802 4.242641 4.242641 
C 5.367802 3.117479 6 1.591219 6 0 
C 6 -1.591219 5.367802 -3.117479 4.242641 -4.242641 
C 3.117479 -5.367802 1.591219 -6 0 -6 
C -1.591219 -6 -3.117479 -5.367802 -4.242641 -4.242641 
C -5.367802 -3.117479 -6 -1.591219 -6 0 
C -6 1.591219 -5.367802 3.117479 -4.242641 4.242641 
C -3.117479 5.367802 -1.591219 6 0 6 
z
" style="stroke: #5ec962; stroke-width: 1.5"/>
    </defs>
    <g clip-path="url(#p1ee73b1598)">
     <use xlink:href="#med342db2fe" x="111.9" y="30.2" style="fill-opacity: 0; stroke: #5ec962; stroke-width: 1.5"/>
     <use xlink:href="#med342db2fe" x="168.4698" y="81.0837" style="fill-opacity: 0; stroke: #5ec962; stroke-width: 1.5"/>
     <use xlink:href="#med342db2fe" x="225.0396" y="132.592174" style="fill-opacity: 0; stroke: #5ec962; stroke-width: 1.5"/>
     <use xlink:href="#med342db2fe" x="281.6094" y="186.397333" style="fill-opacity: 0; stroke: #5ec962; stroke-width: 1.5"/>
     <use xlink:href="#med342db2fe" x="338.1792" y="255.124903" style="fill-opacity: 0; stroke: #5ec962; stroke-width: 1.5"/>
     <use xlink:href="#med342db2fe" x="394.749" y="272.345203" style="fill-opacity: 0; stroke: #5ec962; stroke-width: 1.5"/>
     <use xlink:href="#med342db2fe" x="451.3188" y="262.741035" style="fill-opacity: 0; stroke: #5ec962; stroke-width: 1.5"/>
    </g>
   </g>
   <g id="line2d_11">
    <path d="M 111.9 30.2 
L 114.72849 32.723258 
L 117.55698 35.243448 
L 120.38547 37.766965 
L 123.21396 40.287868 
L 126.04245 42.800705 
L 128.87094 45.314039 
L 131.69943 47.824744 
L 134.52792 50.334152 
L 137.35641 52.847751 
L 140.1849 55.361396 
L 143.01339 57.878214 
L 145.84188 60.397184 
L 148.67037 62.916169 
L 151.49886 65.437404 
L 154.32735 67.961072 
L 157.15584 70.483691 
L 159.98433 73.00828 
L 162.81282 75.534153 
L 165.64131 78.059027 
L 168.4698 80.585819 
L 171.29829 83.112312 
L 174.12678 85.639237 
L 176.95527 88.167309 
L 179.78376 90.693972 
L 182.61225 93.222213 
L 185.44074 95.75042 
L 188.26923 98.278072 
L 191.09772 100.806882 
L 193.92621 103.334697 
L 196.7547 105.863163 
L 199.58319 108.391912 
L 202.41168 110.920028 
L 205.24017 113.448949 
L 208.06866 115.97742 
L 210.89715 118.505926 
L 213.72564 121.03483 
L 216.55413 123.563229 
L 219.38262 126.092027 
L 222.21111 128.62075 
L 225.0396 131.149258 
L 227.86809 133.678144 
L 230.69658 136.206684 
L 233.52507 138.735344 
L 236.35356 141.264042 
L 239.18205 143.792575 
L 242.01054 146.321313 
L 244.83903 148.849886 
L 247.66752 151.378474 
L 250.49601 153.907135 
L 253.3245 156.435651 
L 256.15299 158.964324 
L 258.98148 161.492873 
L 261.80997 164.021412 
L 264.63846 166.550003 
L 267.46695 169.078507 
L 270.29544 171.607113 
L 273.12393 174.135624 
L 275.95242 176.664121 
L 278.78091 179.192653 
L 281.6094 181.721114 
L 284.43789 184.24967 
L 287.26638 186.778134 
L 290.09487 189.306556 
L 292.92336 191.835049 
L 295.75185 194.363445 
L 298.58034 196.891928 
L 301.40883 199.420329 
L 304.23732 201.948659 
L 307.06581 204.477067 
L 309.8943 207.005364 
L 312.72279 209.533735 
L 315.55128 212.062026 
L 318.37977 214.590211 
L 321.20826 217.118472 
L 324.03675 219.64661 
L 326.86524 222.174773 
L 329.69373 224.702841 
L 332.52222 227.230768 
L 335.35071 229.758738 
L 338.1792 232.286569 
L 341.00769 234.814352 
L 343.83618 237.342003 
L 346.66467 239.86945 
L 349.49316 242.396848 
L 352.32165 244.924072 
L 355.15014 247.451107 
L 357.97863 249.977919 
L 360.80712 252.504436 
L 363.63561 255.030703 
L 366.4641 257.556659 
L 369.29259 260.082175 
L 372.12108 262.607261 
L 374.94957 265.131725 
L 377.77806 267.655693 
L 380.60655 270.178937 
L 383.43504 272.701358 
L 386.26353 275.222782 
L 389.09202 277.743051 
L 391.92051 280.262231 
L 394.749 282.77997 
L 397.57749 285.295981 
L 400.40598 287.809824 
L 403.23447 290.321065 
L 406.06296 292.829867 
L 408.89145 295.335848 
L 411.71994 297.838569 
L 414.54843 300.337649 
L 417.37692 302.832277 
L 420.20541 305.321927 
L 423.0339 307.805701 
L 425.86239 310.281713 
L 428.69088 312.749859 
L 431.51937 315.209143 
L 434.34786 317.658473 
L 437.17635 320.096176 
L 440.00484 322.51904 
L 442.83333 324.926355 
L 445.66182 327.315921 
L 448.49031 329.685545 
L 451.3188 332.030235 
L 454.14729 334.349131 
L 456.97578 336.637179 
L 459.80427 338.889189 
L 462.63276 341.102856 
L 465.46125 343.27038 
" clip-path="url(#p1ee73b1598)" style="fill: none; stroke-dasharray: 3,4.95; stroke-dashoffset: 0; stroke: #440154; stroke-width: 3"/>
    <defs>
     <path id="m74fa59d558" d="M -0 8.485281 
L 5.091169 0 
L 0 -8.485281 
L -5.091169 -0 
z
" style="stroke: #440154; stroke-width: 1.5; stroke-linejoin: miter"/>
    </defs>
    <g clip-path="url(#p1ee73b1598)">
     <use xlink:href="#m74fa59d558" x="111.9" y="30.2" style="fill-opacity: 0; stroke: #440154; stroke-width: 1.5; stroke-linejoin: miter"/>
     <use xlink:href="#m74fa59d558" x="168.4698" y="80.585819" style="fill-opacity: 0; stroke: #440154; stroke-width: 1.5; stroke-linejoin: miter"/>
     <use xlink:href="#m74fa59d558" x="225.0396" y="131.149258" style="fill-opacity: 0; stroke: #440154; stroke-width: 1.5; stroke-linejoin: miter"/>
     <use xlink:href="#m74fa59d558" x="281.6094" y="181.721114" style="fill-opacity: 0; stroke: #440154; stroke-width: 1.5; stroke-linejoin: miter"/>
     <use xlink:href="#m74fa59d558" x="338.1792" y="232.286569" style="fill-opacity: 0; stroke: #440154; stroke-width: 1.5; stroke-linejoin: miter"/>
     <use xlink:href="#m74fa59d558" x="394.749" y="282.77997" style="fill-opacity: 0; stroke: #440154; stroke-width: 1.5; stroke-linejoin: miter"/>
     <use xlink:href="#m74fa59d558" x="451.3188" y="332.030235" style="fill-opacity: 0; stroke: #440154; stroke-width: 1.5; stroke-linejoin: miter"/>
    </g>
   </g>
   <g id="line2d_12">
    <path d="M 111.9 30.2 
L 114.72849 32.723981 
L 117.55698 35.246017 
L 120.38547 37.773362 
L 123.21396 40.300099 
L 126.04245 42.820229 
L 128.87094 45.341118 
L 131.69943 47.857456 
L 134.52792 50.369322 
L 137.35641 52.881891 
L 140.1849 55.391263 
L 143.01339 57.901597 
L 145.84188 60.412369 
L 148.67037 62.922007 
L 151.49886 65.433253 
L 154.32735 67.946393 
L 157.15584 70.458269 
L 159.98433 72.971968 
L 162.81282 75.486899 
L 165.64131 78.000881 
L 168.4698 80.516841 
L 171.29829 83.032592 
L 174.12678 85.548916 
L 176.95527 88.066489 
L 179.78376 90.582811 
L 182.61225 93.100874 
L 185.44074 95.619011 
L 188.26923 98.136753 
L 191.09772 100.655786 
L 193.92621 103.173947 
L 196.7547 105.692911 
L 199.58319 108.212253 
L 202.41168 110.731096 
L 205.24017 113.250852 
L 208.06866 115.770236 
L 210.89715 118.289776 
L 213.72564 120.809794 
L 216.55413 123.329394 
L 219.38262 125.849484 
L 222.21111 128.369551 
L 225.0396 130.889499 
L 227.86809 133.409858 
L 230.69658 135.929947 
L 233.52507 138.450222 
L 236.35356 140.970551 
L 239.18205 143.4908 
L 242.01054 146.01128 
L 244.83903 148.531647 
L 247.66752 151.052068 
L 250.49601 153.572572 
L 253.3245 156.093004 
L 256.15299 158.613576 
L 258.98148 161.134082 
L 261.80997 163.654605 
L 264.63846 166.175169 
L 267.46695 168.695707 
L 270.29544 171.216334 
L 273.12393 173.736895 
L 275.95242 176.257456 
L 278.78091 178.778055 
L 281.6094 181.298616 
L 284.43789 183.819235 
L 287.26638 186.339795 
L 290.09487 188.860332 
L 292.92336 191.380901 
L 295.75185 193.901405 
L 298.58034 196.421964 
L 301.40883 198.942442 
L 304.23732 201.462859 
L 307.06581 203.983298 
L 309.8943 206.503675 
L 312.72279 209.024034 
L 315.55128 211.544315 
L 318.37977 214.064499 
L 321.20826 216.584627 
L 324.03675 219.104703 
L 326.86524 221.624674 
L 329.69373 224.144527 
L 332.52222 226.66423 
L 335.35071 229.18376 
L 338.1792 231.703217 
L 341.00769 234.222391 
L 343.83618 236.741354 
L 346.66467 239.260103 
L 349.49316 241.778434 
L 352.32165 244.29661 
L 355.15014 246.814256 
L 357.97863 249.331455 
L 360.80712 251.848157 
L 363.63561 254.364124 
L 366.4641 256.879548 
L 369.29259 259.394013 
L 372.12108 261.907512 
L 374.94957 264.419916 
L 377.77806 266.930874 
L 380.60655 269.440495 
L 383.43504 271.948337 
L 386.26353 274.454241 
L 389.09202 276.957656 
L 391.92051 279.458217 
L 394.749 281.955608 
L 397.57749 284.449316 
L 400.40598 286.939003 
L 403.23447 289.424273 
L 406.06296 291.904491 
L 408.89145 294.378584 
L 411.71994 296.845543 
L 414.54843 299.304017 
L 417.37692 301.752392 
L 420.20541 304.190333 
L 423.0339 306.616733 
L 425.86239 309.029365 
L 428.69088 311.426597 
L 431.51937 313.804554 
L 434.34786 316.161307 
L 437.17635 318.494882 
L 440.00484 320.801751 
L 442.83333 323.076914 
L 445.66182 325.319496 
L 448.49031 327.522758 
L 451.3188 329.681247 
L 454.14729 331.791879 
L 456.97578 333.847435 
L 459.80427 335.840983 
L 462.63276 337.767594 
L 465.46125 339.61945 
" clip-path="url(#p1ee73b1598)" style="fill: none; stroke-dasharray: 3,4.95; stroke-dashoffset: 0; stroke: #3b528b; stroke-width: 3"/>
    <defs>
     <path id="m0eb40b409d" d="M -6 6 
L 6 6 
L 6 -6 
L -6 -6 
z
" style="stroke: #3b528b; stroke-width: 1.5; stroke-linejoin: miter"/>
    </defs>
    <g clip-path="url(#p1ee73b1598)">
     <use xlink:href="#m0eb40b409d" x="111.9" y="30.2" style="fill-opacity: 0; stroke: #3b528b; stroke-width: 1.5; stroke-linejoin: miter"/>
     <use xlink:href="#m0eb40b409d" x="168.4698" y="80.516841" style="fill-opacity: 0; stroke: #3b528b; stroke-width: 1.5; stroke-linejoin: miter"/>
     <use xlink:href="#m0eb40b409d" x="225.0396" y="130.889499" style="fill-opacity: 0; stroke: #3b528b; stroke-width: 1.5; stroke-linejoin: miter"/>
     <use xlink:href="#m0eb40b409d" x="281.6094" y="181.298616" style="fill-opacity: 0; stroke: #3b528b; stroke-width: 1.5; stroke-linejoin: miter"/>
     <use xlink:href="#m0eb40b409d" x="338.1792" y="231.703217" style="fill-opacity: 0; stroke: #3b528b; stroke-width: 1.5; stroke-linejoin: miter"/>
     <use xlink:href="#m0eb40b409d" x="394.749" y="281.955608" style="fill-opacity: 0; stroke: #3b528b; stroke-width: 1.5; stroke-linejoin: miter"/>
     <use xlink:href="#m0eb40b409d" x="451.3188" y="329.681247" style="fill-opacity: 0; stroke: #3b528b; stroke-width: 1.5; stroke-linejoin: miter"/>
    </g>
   </g>
   <g id="line2d_13">
    <path d="M 111.9 30.2 
L 114.72849 32.726685 
L 117.55698 35.25514 
L 120.38547 37.78371 
L 123.21396 40.31498 
L 126.04245 42.839872 
L 128.87094 45.364358 
L 131.69943 47.887799 
L 134.52792 50.409507 
L 137.35641 52.937879 
L 140.1849 55.471667 
L 143.01339 58.014631 
L 145.84188 60.56474 
L 148.67037 63.119967 
L 151.49886 65.68103 
L 154.32735 68.245676 
L 157.15584 70.811529 
L 159.98433 73.37909 
L 162.81282 75.947578 
L 165.64131 78.515761 
L 168.4698 81.0837 
L 171.29829 83.651689 
L 174.12678 86.219472 
L 176.95527 88.786855 
L 179.78376 91.353923 
L 182.61225 93.921179 
L 185.44074 96.488738 
L 188.26923 99.056626 
L 191.09772 101.625074 
L 193.92621 104.194327 
L 196.7547 106.764691 
L 199.58319 109.336475 
L 202.41168 111.909889 
L 205.24017 114.485224 
L 208.06866 117.062761 
L 210.89715 119.642789 
L 213.72564 122.225647 
L 216.55413 124.811638 
L 219.38262 127.401146 
L 222.21111 129.994541 
L 225.0396 132.592174 
L 227.86809 135.194496 
L 230.69658 137.801939 
L 233.52507 140.414977 
L 236.35356 143.03413 
L 239.18205 145.659945 
L 242.01054 148.292996 
L 244.83903 150.933933 
L 247.66752 153.583433 
L 250.49601 156.242251 
L 253.3245 158.911199 
L 256.15299 161.59115 
L 258.98148 164.28307 
L 261.80997 166.98799 
L 264.63846 169.707047 
L 267.46695 172.441493 
L 270.29544 175.192693 
L 273.12393 177.962139 
L 275.95242 180.751485 
L 278.78091 183.562548 
L 281.6094 186.397333 
L 284.43789 189.258077 
L 287.26638 192.147188 
L 290.09487 195.067438 
L 292.92336 198.021938 
L 295.75185 201.014072 
L 298.58034 204.047767 
L 301.40883 207.127399 
L 304.23732 210.257986 
L 307.06581 213.445183 
L 309.8943 216.695439 
L 312.72279 220.01626 
L 315.55128 223.416264 
L 318.37977 226.905476 
L 321.20826 230.495421 
L 324.03675 234.199761 
L 326.86524 238.034726 
L 329.69373 242.019429 
L 332.52222 246.177197 
L 335.35071 250.535033 
L 338.1792 255.124903 
L 341.00769 259.984489 
L 343.83618 265.154054 
L 346.66467 270.669021 
L 349.49316 276.535667 
L 352.32165 282.659289 
L 355.15014 288.693807 
L 357.97863 293.916815 
L 360.80712 297.358298 
L 363.63561 298.224265 
L 366.4641 296.644259 
L 369.29259 293.672029 
L 372.12108 290.30518 
L 374.94957 287.053091 
L 377.77806 284.090522 
L 380.60655 281.456722 
L 383.43504 279.136067 
L 386.26353 277.097406 
L 389.09202 275.307147 
L 391.92051 273.732566 
L 394.749 272.345203 
L 397.57749 271.120528 
L 400.40598 270.037911 
L 403.23447 269.079511 
L 406.06296 268.230175 
L 408.89145 267.476969 
L 411.71994 266.808923 
L 414.54843 266.216599 
L 417.37692 265.691753 
L 420.20541 265.227176 
L 423.0339 264.816612 
L 425.86239 264.454615 
L 428.69088 264.136392 
L 431.51937 263.857691 
L 434.34786 263.614692 
L 437.17635 263.404008 
L 440.00484 263.222653 
L 442.83333 263.06799 
L 445.66182 262.937609 
L 448.49031 262.82928 
L 451.3188 262.741035 
L 454.14729 262.67113 
L 456.97578 262.617984 
L 459.80427 262.580144 
L 462.63276 262.556276 
L 465.46125 262.545143 
" clip-path="url(#p1ee73b1598)" style="fill: none; stroke-dasharray: 3,4.95; stroke-dashoffset: 0; stroke: #21918c; stroke-width: 3"/>
    <defs>
     <path id="ma915c9f8ab" d="M -3 6 
L 0 3 
L 3 6 
L 6 3 
L 3 0 
L 6 -3 
L 3 -6 
L 0 -3 
L -3 -6 
L -6 -3 
L -3 0 
L -6 3 
z
" style="stroke: #21918c; stroke-width: 1.5; stroke-linejoin: miter"/>
    </defs>
    <g clip-path="url(#p1ee73b1598)">
     <use xlink:href="#ma915c9f8ab" x="111.9" y="30.2" style="fill-opacity: 0; stroke: #21918c; stroke-width: 1.5; stroke-linejoin: miter"/>
     <use xlink:href="#ma915c9f8ab" x="168.4698" y="81.0837" style="fill-opacity: 0; stroke: #21918c; stroke-width: 1.5; stroke-linejoin: miter"/>
     <use xlink:href="#ma915c9f8ab" x="225.0396" y="132.592174" style="fill-opacity: 0; stroke: #21918c; stroke-width: 1.5; stroke-linejoin: miter"/>
     <use xlink:href="#ma915c9f8ab" x="281.6094" y="186.397333" style="fill-opacity: 0; stroke: #21918c; stroke-width: 1.5; stroke-linejoin: miter"/>
     <use xlink:href="#ma915c9f8ab" x="338.1792" y="255.124903" style="fill-opacity: 0; stroke: #21918c; stroke-width: 1.5; stroke-linejoin: miter"/>
     <use xlink:href="#ma915c9f8ab" x="394.749" y="272.345203" style="fill-opacity: 0; stroke: #21918c; stroke-width: 1.5; stroke-linejoin: miter"/>
     <use xlink:href="#ma915c9f8ab" x="451.3188" y="262.741035" style="fill-opacity: 0; stroke: #21918c; stroke-width: 1.5; stroke-linejoin: miter"/>
    </g>
   </g>
   <g id="patch_3">
    <path d="M 111.9 362 
L 111.9 14.4 
" style="fill: none; stroke: #000000; stroke-width: 2; stroke-linejoin: miter; stroke-linecap: square"/>
   </g>
   <g id="patch_4">
    <path d="M 465.46125 362 
L 465.46125 14.4 
" style="fill: none; stroke: #000000; stroke-width: 2; stroke-linejoin: miter; stroke-linecap: square"/>
   </g>
   <g id="patch_5">
    <path d="M 111.9 362 
L 465.46125 362 
" style="fill: none; stroke: #000000; stroke-width: 2; stroke-linejoin: miter; stroke-linecap: square"/>
   </g>
   <g id="patch_6">
    <path d="M 111.9 14.4 
L 465.46125 14.4 
" style="fill: none; stroke: #000000; stroke-width: 2; stroke-linejoin: miter; stroke-linecap: square"/>
   </g>
   <g id="legend_1">
    <g id="patch_7">
     <path d="M 307.06125 177.18125 
L 451.46125 177.18125 
Q 455.46125 177.18125 455.46125 173.18125 
L 455.46125 28.4 
Q 455.46125 24.4 451.46125 24.4 
L 307.06125 24.4 
Q 303.06125 24.4 303.06125 28.4 
L 303.06125 173.18125 
Q 303.06125 177.18125 307.06125 177.18125 
z
" style="fill: #ffffff; opacity: 0.8; stroke: #cccccc; stroke-linejoin: miter"/>
    </g>
    <g id="line2d_14">
     <path d="M 311.06125 40.596875 
L 331.06125 40.596875 
L 351.06125 40.596875 
" style="fill: none; stroke: #5ec962; stroke-width: 3; stroke-linecap: square"/>
     <g>
      <use xlink:href="#med342db2fe" x="331.06125" y="40.596875" style="fill-opacity: 0; stroke: #5ec962; stroke-width: 1.5"/>
     </g>
    </g>
    <g id="text_11">
     <!-- Quintic -->
     <g transform="translate(367.06125 47.596875)scale(0.2 -0.2)">
      <defs>
       <path id="DejaVuSans-51" d="M 2522 4238 
Q 1834 4238 1429 3725 
Q 1025 3213 1025 2328 
Q 1025 1447 1429 934 
Q 1834 422 2522 422 
Q 3209 422 3611 934 
Q 4013 1447 4013 2328 
Q 4013 3213 3611 3725 
Q 3209 4238 2522 4238 
z
M 3406 84 
L 4238 -825 
L 3475 -825 
L 2784 -78 
Q 2681 -84 2626 -87 
Q 2572 -91 2522 -91 
Q 1538 -91 948 567 
Q 359 1225 359 2328 
Q 359 3434 948 4092 
Q 1538 4750 2522 4750 
Q 3503 4750 4090 4092 
Q 4678 3434 4678 2328 
Q 4678 1516 4351 937 
Q 4025 359 3406 84 
z
" transform="scale(0.015625)"/>
       <path id="DejaVuSans-75" d="M 544 1381 
L 544 3500 
L 1119 3500 
L 1119 1403 
Q 1119 906 1312 657 
Q 1506 409 1894 409 
Q 2359 409 2629 706 
Q 2900 1003 2900 1516 
L 2900 3500 
L 3475 3500 
L 3475 0 
L 2900 0 
L 2900 538 
Q 2691 219 2414 64 
Q 2138 -91 1772 -91 
Q 1169 -91 856 284 
Q 544 659 544 1381 
z
M 1991 3584 
L 1991 3584 
z
" transform="scale(0.015625)"/>
       <path id="DejaVuSans-69" d="M 603 3500 
L 1178 3500 
L 1178 0 
L 603 0 
L 603 3500 
z
M 603 4863 
L 1178 4863 
L 1178 4134 
L 603 4134 
L 603 4863 
z
" transform="scale(0.015625)"/>
       <path id="DejaVuSans-6e" d="M 3513 2113 
L 3513 0 
L 2938 0 
L 2938 2094 
Q 2938 2591 2744 2837 
Q 2550 3084 2163 3084 
Q 1697 3084 1428 2787 
Q 1159 2491 1159 1978 
L 1159 0 
L 581 0 
L 581 3500 
L 1159 3500 
L 1159 2956 
Q 1366 3272 1645 3428 
Q 1925 3584 2291 3584 
Q 2894 3584 3203 3211 
Q 3513 2838 3513 2113 
z
" transform="scale(0.015625)"/>
       <path id="DejaVuSans-74" d="M 1172 4494 
L 1172 3500 
L 2356 3500 
L 2356 3053 
L 1172 3053 
L 1172 1153 
Q 1172 725 1289 603 
Q 1406 481 1766 481 
L 2356 481 
L 2356 0 
L 1766 0 
Q 1100 0 847 248 
Q 594 497 594 1153 
L 594 3053 
L 172 3053 
L 172 3500 
L 594 3500 
L 594 4494 
L 1172 4494 
z
" transform="scale(0.015625)"/>
       <path id="DejaVuSans-63" d="M 3122 3366 
L 3122 2828 
Q 2878 2963 2633 3030 
Q 2388 3097 2138 3097 
Q 1578 3097 1268 2742 
Q 959 2388 959 1747 
Q 959 1106 1268 751 
Q 1578 397 2138 397 
Q 2388 397 2633 464 
Q 2878 531 3122 666 
L 3122 134 
Q 2881 22 2623 -34 
Q 2366 -91 2075 -91 
Q 1284 -91 818 406 
Q 353 903 353 1747 
Q 353 2603 823 3093 
Q 1294 3584 2113 3584 
Q 2378 3584 2631 3529 
Q 2884 3475 3122 3366 
z
" transform="scale(0.015625)"/>
      </defs>
      <use xlink:href="#DejaVuSans-51"/>
      <use xlink:href="#DejaVuSans-75" x="78.710938"/>
      <use xlink:href="#DejaVuSans-69" x="142.089844"/>
      <use xlink:href="#DejaVuSans-6e" x="169.873047"/>
      <use xlink:href="#DejaVuSans-74" x="233.251953"/>
      <use xlink:href="#DejaVuSans-69" x="272.460938"/>
      <use xlink:href="#DejaVuSans-63" x="300.244141"/>
     </g>
    </g>
    <g id="line2d_15">
     <path d="M 311.06125 69.953125 
L 331.06125 69.953125 
L 351.06125 69.953125 
" style="fill: none; stroke: #21918c; stroke-width: 3; stroke-linecap: square"/>
     <g>
      <use xlink:href="#ma915c9f8ab" x="331.06125" y="69.953125" style="fill-opacity: 0; stroke: #21918c; stroke-width: 1.5; stroke-linejoin: miter"/>
     </g>
    </g>
    <g id="text_12">
     <!-- RK0 -->
     <g transform="translate(367.06125 76.953125)scale(0.2 -0.2)">
      <defs>
       <path id="DejaVuSans-52" d="M 2841 2188 
Q 3044 2119 3236 1894 
Q 3428 1669 3622 1275 
L 4263 0 
L 3584 0 
L 2988 1197 
Q 2756 1666 2539 1819 
Q 2322 1972 1947 1972 
L 1259 1972 
L 1259 0 
L 628 0 
L 628 4666 
L 2053 4666 
Q 2853 4666 3247 4331 
Q 3641 3997 3641 3322 
Q 3641 2881 3436 2590 
Q 3231 2300 2841 2188 
z
M 1259 4147 
L 1259 2491 
L 2053 2491 
Q 2509 2491 2742 2702 
Q 2975 2913 2975 3322 
Q 2975 3731 2742 3939 
Q 2509 4147 2053 4147 
L 1259 4147 
z
" transform="scale(0.015625)"/>
       <path id="DejaVuSans-4b" d="M 628 4666 
L 1259 4666 
L 1259 2694 
L 3353 4666 
L 4166 4666 
L 1850 2491 
L 4331 0 
L 3500 0 
L 1259 2247 
L 1259 0 
L 628 0 
L 628 4666 
z
" transform="scale(0.015625)"/>
      </defs>
      <use xlink:href="#DejaVuSans-52"/>
      <use xlink:href="#DejaVuSans-4b" x="69.482422"/>
      <use xlink:href="#DejaVuSans-30" x="135.058594"/>
     </g>
    </g>
    <g id="line2d_16">
     <path d="M 311.06125 99.309375 
L 331.06125 99.309375 
L 351.06125 99.309375 
" style="fill: none; stroke: #3b528b; stroke-width: 3; stroke-linecap: square"/>
     <g>
      <use xlink:href="#m0eb40b409d" x="331.06125" y="99.309375" style="fill-opacity: 0; stroke: #3b528b; stroke-width: 1.5; stroke-linejoin: miter"/>
     </g>
    </g>
    <g id="text_13">
     <!-- RK1 -->
     <g transform="translate(367.06125 106.309375)scale(0.2 -0.2)">
      <use xlink:href="#DejaVuSans-52"/>
      <use xlink:href="#DejaVuSans-4b" x="69.482422"/>
      <use xlink:href="#DejaVuSans-31" x="135.058594"/>
     </g>
    </g>
    <g id="line2d_17">
     <path d="M 311.06125 128.665625 
L 331.06125 128.665625 
L 351.06125 128.665625 
" style="fill: none; stroke: #440154; stroke-width: 3; stroke-linecap: square"/>
     <g>
      <use xlink:href="#m74fa59d558" x="331.06125" y="128.665625" style="fill-opacity: 0; stroke: #440154; stroke-width: 1.5; stroke-linejoin: miter"/>
     </g>
    </g>
    <g id="text_14">
     <!-- RK2 -->
     <g transform="translate(367.06125 135.665625)scale(0.2 -0.2)">
      <use xlink:href="#DejaVuSans-52"/>
      <use xlink:href="#DejaVuSans-4b" x="69.482422"/>
      <use xlink:href="#DejaVuSans-32" x="135.058594"/>
     </g>
    </g>
    <g id="line2d_18">
     <path d="M 311.06125 158.021875 
L 331.06125 158.021875 
L 351.06125 158.021875 
" style="fill: none; stroke: #ff0000; stroke-width: 3; stroke-linecap: square"/>
    </g>
    <g id="text_15">
     <!-- Analytic -->
     <g transform="translate(367.06125 165.021875)scale(0.2 -0.2)">
      <defs>
       <path id="DejaVuSans-41" d="M 2188 4044 
L 1331 1722 
L 3047 1722 
L 2188 4044 
z
M 1831 4666 
L 2547 4666 
L 4325 0 
L 3669 0 
L 3244 1197 
L 1141 1197 
L 716 0 
L 50 0 
L 1831 4666 
z
" transform="scale(0.015625)"/>
       <path id="DejaVuSans-61" d="M 2194 1759 
Q 1497 1759 1228 1600 
Q 959 1441 959 1056 
Q 959 750 1161 570 
Q 1363 391 1709 391 
Q 2188 391 2477 730 
Q 2766 1069 2766 1631 
L 2766 1759 
L 2194 1759 
z
M 3341 1997 
L 3341 0 
L 2766 0 
L 2766 531 
Q 2569 213 2275 61 
Q 1981 -91 1556 -91 
Q 1019 -91 701 211 
Q 384 513 384 1019 
Q 384 1609 779 1909 
Q 1175 2209 1959 2209 
L 2766 2209 
L 2766 2266 
Q 2766 2663 2505 2880 
Q 2244 3097 1772 3097 
Q 1472 3097 1187 3025 
Q 903 2953 641 2809 
L 641 3341 
Q 956 3463 1253 3523 
Q 1550 3584 1831 3584 
Q 2591 3584 2966 3190 
Q 3341 2797 3341 1997 
z
" transform="scale(0.015625)"/>
       <path id="DejaVuSans-6c" d="M 603 4863 
L 1178 4863 
L 1178 0 
L 603 0 
L 603 4863 
z
" transform="scale(0.015625)"/>
       <path id="DejaVuSans-79" d="M 2059 -325 
Q 1816 -950 1584 -1140 
Q 1353 -1331 966 -1331 
L 506 -1331 
L 506 -850 
L 844 -850 
Q 1081 -850 1212 -737 
Q 1344 -625 1503 -206 
L 1606 56 
L 191 3500 
L 800 3500 
L 1894 763 
L 2988 3500 
L 3597 3500 
L 2059 -325 
z
" transform="scale(0.015625)"/>
      </defs>
      <use xlink:href="#DejaVuSans-41"/>
      <use xlink:href="#DejaVuSans-6e" x="68.408203"/>
      <use xlink:href="#DejaVuSans-61" x="131.787109"/>
      <use xlink:href="#DejaVuSans-6c" x="193.066406"/>
      <use xlink:href="#DejaVuSans-79" x="220.849609"/>
      <use xlink:href="#DejaVuSans-74" x="280.029297"/>
      <use xlink:href="#DejaVuSans-69" x="319.238281"/>
      <use xlink:href="#DejaVuSans-63" x="347.021484"/>
     </g>
    </g>
   </g>
   <g id="legend_2">
    <g id="patch_8">
     <path d="M 274.8925 89.1125 
L 451.46125 89.1125 
Q 455.46125 89.1125 455.46125 85.1125 
L 455.46125 28.4 
Q 455.46125 24.4 451.46125 24.4 
L 274.8925 24.4 
Q 270.8925 24.4 270.8925 28.4 
L 270.8925 85.1125 
Q 270.8925 89.1125 274.8925 89.1125 
z
" style="fill: #ffffff; opacity: 0.8; stroke: #cccccc; stroke-linejoin: miter"/>
    </g>
    <g id="line2d_19">
     <path d="M 278.8925 40.596875 
L 298.8925 40.596875 
L 318.8925 40.596875 
" style="fill: none; stroke-dasharray: 3,4.95; stroke-dashoffset: 0; stroke: #000000; stroke-width: 3"/>
    </g>
    <g id="text_16">
     <!-- Shifting On -->
     <g transform="translate(334.8925 47.596875)scale(0.2 -0.2)">
      <defs>
       <path id="DejaVuSans-53" d="M 3425 4513 
L 3425 3897 
Q 3066 4069 2747 4153 
Q 2428 4238 2131 4238 
Q 1616 4238 1336 4038 
Q 1056 3838 1056 3469 
Q 1056 3159 1242 3001 
Q 1428 2844 1947 2747 
L 2328 2669 
Q 3034 2534 3370 2195 
Q 3706 1856 3706 1288 
Q 3706 609 3251 259 
Q 2797 -91 1919 -91 
Q 1588 -91 1214 -16 
Q 841 59 441 206 
L 441 856 
Q 825 641 1194 531 
Q 1563 422 1919 422 
Q 2459 422 2753 634 
Q 3047 847 3047 1241 
Q 3047 1584 2836 1778 
Q 2625 1972 2144 2069 
L 1759 2144 
Q 1053 2284 737 2584 
Q 422 2884 422 3419 
Q 422 4038 858 4394 
Q 1294 4750 2059 4750 
Q 2388 4750 2728 4690 
Q 3069 4631 3425 4513 
z
" transform="scale(0.015625)"/>
       <path id="DejaVuSans-68" d="M 3513 2113 
L 3513 0 
L 2938 0 
L 2938 2094 
Q 2938 2591 2744 2837 
Q 2550 3084 2163 3084 
Q 1697 3084 1428 2787 
Q 1159 2491 1159 1978 
L 1159 0 
L 581 0 
L 581 4863 
L 1159 4863 
L 1159 2956 
Q 1366 3272 1645 3428 
Q 1925 3584 2291 3584 
Q 2894 3584 3203 3211 
Q 3513 2838 3513 2113 
z
" transform="scale(0.015625)"/>
       <path id="DejaVuSans-66" d="M 2375 4863 
L 2375 4384 
L 1825 4384 
Q 1516 4384 1395 4259 
Q 1275 4134 1275 3809 
L 1275 3500 
L 2222 3500 
L 2222 3053 
L 1275 3053 
L 1275 0 
L 697 0 
L 697 3053 
L 147 3053 
L 147 3500 
L 697 3500 
L 697 3744 
Q 697 4328 969 4595 
Q 1241 4863 1831 4863 
L 2375 4863 
z
" transform="scale(0.015625)"/>
       <path id="DejaVuSans-67" d="M 2906 1791 
Q 2906 2416 2648 2759 
Q 2391 3103 1925 3103 
Q 1463 3103 1205 2759 
Q 947 2416 947 1791 
Q 947 1169 1205 825 
Q 1463 481 1925 481 
Q 2391 481 2648 825 
Q 2906 1169 2906 1791 
z
M 3481 434 
Q 3481 -459 3084 -895 
Q 2688 -1331 1869 -1331 
Q 1566 -1331 1297 -1286 
Q 1028 -1241 775 -1147 
L 775 -588 
Q 1028 -725 1275 -790 
Q 1522 -856 1778 -856 
Q 2344 -856 2625 -561 
Q 2906 -266 2906 331 
L 2906 616 
Q 2728 306 2450 153 
Q 2172 0 1784 0 
Q 1141 0 747 490 
Q 353 981 353 1791 
Q 353 2603 747 3093 
Q 1141 3584 1784 3584 
Q 2172 3584 2450 3431 
Q 2728 3278 2906 2969 
L 2906 3500 
L 3481 3500 
L 3481 434 
z
" transform="scale(0.015625)"/>
       <path id="DejaVuSans-20" transform="scale(0.015625)"/>
       <path id="DejaVuSans-4f" d="M 2522 4238 
Q 1834 4238 1429 3725 
Q 1025 3213 1025 2328 
Q 1025 1447 1429 934 
Q 1834 422 2522 422 
Q 3209 422 3611 934 
Q 4013 1447 4013 2328 
Q 4013 3213 3611 3725 
Q 3209 4238 2522 4238 
z
M 2522 4750 
Q 3503 4750 4090 4092 
Q 4678 3434 4678 2328 
Q 4678 1225 4090 567 
Q 3503 -91 2522 -91 
Q 1538 -91 948 565 
Q 359 1222 359 2328 
Q 359 3434 948 4092 
Q 1538 4750 2522 4750 
z
" transform="scale(0.015625)"/>
      </defs>
      <use xlink:href="#DejaVuSans-53"/>
      <use xlink:href="#DejaVuSans-68" x="63.476562"/>
      <use xlink:href="#DejaVuSans-69" x="126.855469"/>
      <use xlink:href="#DejaVuSans-66" x="154.638672"/>
      <use xlink:href="#DejaVuSans-74" x="188.09375"/>
      <use xlink:href="#DejaVuSans-69" x="227.302734"/>
      <use xlink:href="#DejaVuSans-6e" x="255.085938"/>
      <use xlink:href="#DejaVuSans-67" x="318.464844"/>
      <use xlink:href="#DejaVuSans-20" x="381.941406"/>
      <use xlink:href="#DejaVuSans-4f" x="413.728516"/>
      <use xlink:href="#DejaVuSans-6e" x="492.439453"/>
     </g>
    </g>
    <g id="line2d_20">
     <path d="M 278.8925 69.953125 
L 298.8925 69.953125 
L 318.8925 69.953125 
" style="fill: none; stroke-dasharray: 11.1,4.8; stroke-dashoffset: 0; stroke: #000000; stroke-width: 3"/>
    </g>
    <g id="text_17">
     <!-- Shifting Off -->
     <g transform="translate(334.8925 76.953125)scale(0.2 -0.2)">
      <use xlink:href="#DejaVuSans-53"/>
      <use xlink:href="#DejaVuSans-68" x="63.476562"/>
      <use xlink:href="#DejaVuSans-69" x="126.855469"/>
      <use xlink:href="#DejaVuSans-66" x="154.638672"/>
      <use xlink:href="#DejaVuSans-74" x="188.09375"/>
      <use xlink:href="#DejaVuSans-69" x="227.302734"/>
      <use xlink:href="#DejaVuSans-6e" x="255.085938"/>
      <use xlink:href="#DejaVuSans-67" x="318.464844"/>
      <use xlink:href="#DejaVuSans-20" x="381.941406"/>
      <use xlink:href="#DejaVuSans-4f" x="413.728516"/>
      <use xlink:href="#DejaVuSans-66" x="492.439453"/>
      <use xlink:href="#DejaVuSans-66" x="527.644531"/>
     </g>
    </g>
   </g>
   <g id="legend_3">
    <g id="patch_9">
     <path d="M 274.8925 89.1125 
L 451.46125 89.1125 
Q 455.46125 89.1125 455.46125 85.1125 
L 455.46125 28.4 
Q 455.46125 24.4 451.46125 24.4 
L 274.8925 24.4 
Q 270.8925 24.4 270.8925 28.4 
L 270.8925 85.1125 
Q 270.8925 89.1125 274.8925 89.1125 
z
" style="fill: #ffffff; opacity: 0.8; stroke: #cccccc; stroke-linejoin: miter"/>
    </g>
    <g id="line2d_21">
     <path d="M 278.8925 40.596875 
L 298.8925 40.596875 
L 318.8925 40.596875 
" style="fill: none; stroke-dasharray: 3,4.95; stroke-dashoffset: 0; stroke: #000000; stroke-width: 3"/>
    </g>
    <g id="text_18">
     <!-- Shifting On -->
     <g transform="translate(334.8925 47.596875)scale(0.2 -0.2)">
      <use xlink:href="#DejaVuSans-53"/>
      <use xlink:href="#DejaVuSans-68" x="63.476562"/>
      <use xlink:href="#DejaVuSans-69" x="126.855469"/>
      <use xlink:href="#DejaVuSans-66" x="154.638672"/>
      <use xlink:href="#DejaVuSans-74" x="188.09375"/>
      <use xlink:href="#DejaVuSans-69" x="227.302734"/>
      <use xlink:href="#DejaVuSans-6e" x="255.085938"/>
      <use xlink:href="#DejaVuSans-67" x="318.464844"/>
      <use xlink:href="#DejaVuSans-20" x="381.941406"/>
      <use xlink:href="#DejaVuSans-4f" x="413.728516"/>
      <use xlink:href="#DejaVuSans-6e" x="492.439453"/>
     </g>
    </g>
    <g id="line2d_22">
     <path d="M 278.8925 69.953125 
L 298.8925 69.953125 
L 318.8925 69.953125 
" style="fill: none; stroke-dasharray: 11.1,4.8; stroke-dashoffset: 0; stroke: #000000; stroke-width: 3"/>
    </g>
    <g id="text_19">
     <!-- Shifting Off -->
     <g transform="translate(334.8925 76.953125)scale(0.2 -0.2)">
      <use xlink:href="#DejaVuSans-53"/>
      <use xlink:href="#DejaVuSans-68" x="63.476562"/>
      <use xlink:href="#DejaVuSans-69" x="126.855469"/>
      <use xlink:href="#DejaVuSans-66" x="154.638672"/>
      <use xlink:href="#DejaVuSans-74" x="188.09375"/>
      <use xlink:href="#DejaVuSans-69" x="227.302734"/>
      <use xlink:href="#DejaVuSans-6e" x="255.085938"/>
      <use xlink:href="#DejaVuSans-67" x="318.464844"/>
      <use xlink:href="#DejaVuSans-20" x="381.941406"/>
      <use xlink:href="#DejaVuSans-4f" x="413.728516"/>
      <use xlink:href="#DejaVuSans-66" x="492.439453"/>
      <use xlink:href="#DejaVuSans-66" x="527.644531"/>
     </g>
    </g>
   </g>
  </g>
 </g>
 <defs>
  <clipPath id="p1ee73b1598">
   <rect x="111.9" y="14.4" width="353.56125" height="347.6"/>
  </clipPath>
 </defs>
</svg>
